<?xml version="1.0" standalone="no"?>
<!DOCTYPE svg PUBLIC "-//W3C//DTD SVG 1.1//EN" "http://www.w3.org/Graphics/SVG/1.1/DTD/svg11.dtd" >
<svg xmlns="http://www.w3.org/2000/svg" xmlns:xlink="http://www.w3.org/1999/xlink" version="1.1">
<metadata></metadata>
<defs>
<font id="chulalongkornbold" horiz-adv-x="1011" >
<font-face units-per-em="2048" ascent="1655" descent="-393" />
<missing-glyph horiz-adv-x="505" />
<glyph unicode="&#xfb01;" horiz-adv-x="1097" d="M26 797v17.5t0.5 37.5t0.5 32q0 15 -0.5 51t-0.5 37q93 -8 154 -8v33q0 180 114 287t287 107q96 0 174 -28l-36 -172l-13 -2q-17 13 -51.5 23.5t-64.5 10.5q-78 0 -123.5 -50t-45.5 -153v-58q139 4 197 7t88 4q66 -2 139 -2q70 0 136 2q-12 -68 -14.5 -119.5t-2.5 -206.5 v-321q0 -156 2.5 -207.5t14.5 -119.5q-66 2 -136 2q-73 0 -139 -2q12 67 14.5 121.5t2.5 205.5v321q0 112 -1 151q-128 5 -301 5v-477q0 -156 2.5 -207.5t15.5 -119.5q-66 2 -137 2q-72 0 -138 -2q11 67 13.5 121.5t2.5 205.5v477q-76 0 -154 -6z" />
<glyph unicode="&#xfb02;" horiz-adv-x="1126" d="M26 797v17.5t0.5 37.5t0.5 32q0 15 -0.5 51t-0.5 37q93 -8 154 -8v33q0 184 110.5 289t300.5 105q37 0 155.5 -16.5t178.5 -16.5q17 0 85 2q-12 -69 -15 -122.5t-3 -203.5v-708q0 -151 3 -205t15 -123q-68 2 -137 2t-137 -2q12 69 15 123t3 205v708q0 110 -1 147 q-21 13 -67.5 27.5t-75.5 14.5q-90 0 -139.5 -49.5t-49.5 -153.5v-58q96 2 216 7q-4 -24 -4 -95q0 -35 4 -77q-105 6 -216 6v-477q0 -156 2.5 -207.5t15.5 -119.5q-66 2 -137 2q-72 0 -138 -2q11 67 13.5 121.5t2.5 205.5v477q-76 0 -154 -6z" />
<glyph unicode="&#xfb03;" horiz-adv-x="1705" d="M26 797v17.5t0.5 37.5t0.5 32q0 15 -0.5 51t-0.5 37q93 -8 154 -8v54q0 168 92 270.5t257 102.5q86 0 164 -28l-36 -172l-13 -2q-44 34 -95 34q-57 0 -92.5 -45.5t-35.5 -137.5v-77h327v55q0 168 92 270.5t257 102.5q86 0 164 -28l-36 -172l-14 -2q-44 34 -95 34 q-57 0 -92.5 -45.5t-35.5 -137.5v-78q139 4 197 7t88 4q66 -2 139 -2q70 0 136 2q-12 -68 -14.5 -119.5t-2.5 -206.5v-321q0 -156 2.5 -207.5t14.5 -119.5q-66 2 -136 2q-73 0 -139 -2q12 67 14.5 121.5t2.5 205.5v321q0 112 -1 151q-128 5 -301 5v-477q0 -151 3 -204.5 t16 -122.5q-66 2 -138 2t-138 -2q12 69 14.5 125t2.5 202v477h-327v-477q0 -156 2.5 -207.5t15.5 -119.5q-66 2 -137 2q-72 0 -138 -2q11 67 13.5 121.5t2.5 205.5v477q-76 0 -154 -6z" />
<glyph unicode="&#xfb04;" horiz-adv-x="1693" d="M26 797v17.5t0.5 37.5t0.5 32q0 15 -0.5 51t-0.5 37q93 -8 154 -8v54q0 168 92 270.5t257 102.5q86 0 164 -28l-36 -172l-13 -2q-44 34 -95 34q-57 0 -92.5 -45.5t-35.5 -137.5v-77h327v33q0 184 110 289t300 105q37 0 155.5 -16.5t178.5 -16.5q17 0 85 2 q-12 -68 -14.5 -119.5t-2.5 -206.5v-708q0 -156 2.5 -208t14.5 -120q-68 2 -136 2q-69 0 -137 -2q12 68 14.5 120t2.5 208v708q0 110 -1 147q-21 14 -67 28t-75 14q-90 0 -140 -49.5t-50 -153.5v-57q96 2 216 7q-4 -24 -4 -95q0 -35 4 -77q-105 6 -216 6v-477 q0 -151 3 -204.5t16 -122.5q-66 2 -138 2t-138 -2q12 69 14.5 125t2.5 202v477h-327v-477q0 -156 2.5 -207.5t15.5 -119.5q-66 2 -137 2q-72 0 -138 -2q11 67 13.5 121.5t2.5 205.5v477q-76 0 -154 -6z" />
<glyph horiz-adv-x="0" />
<glyph horiz-adv-x="0" />
<glyph horiz-adv-x="682" />
<glyph unicode="&#xd;" horiz-adv-x="505" />
<glyph unicode=" "  horiz-adv-x="505" />
<glyph unicode="&#x09;" horiz-adv-x="505" />
<glyph unicode="&#xa0;" horiz-adv-x="505" />
<glyph unicode="!" horiz-adv-x="504" d="M106 1363q105 -3 140 -3q34 0 139 3q-2 -41 -3.5 -89.5t-3.5 -118.5t-4 -125q-1 -32 -15.5 -191.5t-28.5 -303.5l-14 -144q-84 3 -141 0q-55 568 -57 639q-10 302 -12 333zM114 124q0 55 35.5 89t97.5 34q61 0 97 -34t36 -89q0 -56 -36 -90t-97 -34q-62 0 -97.5 34 t-35.5 90z" />
<glyph unicode="&#x22;" horiz-adv-x="729" d="M74 1363q36 -2 128 -2t128 2q-1 -18 -2 -57.5t-4 -73.5q-5 -58 -20 -150.5t-28 -156.5l-12 -64q-48 2 -62 2q-15 0 -63 -2q-48 241 -59 371q-2 21 -6 131zM399 1363q36 -2 128 -2t128 2q-1 -18 -2 -57.5t-4 -73.5q-5 -58 -19.5 -150.5t-27.5 -156.5l-12 -64q-48 2 -63 2 q-14 0 -62 -2q-48 241 -59 371q-4 46 -7 131z" />
<glyph unicode="#" horiz-adv-x="950" d="M36 335l12 159h137l35 392h-135l13 158h136l29 318h188l-29 -318h174l29 318h186l-30 -318h137l-16 -158h-135l-36 -392h134l-12 -159h-136l-30 -335h-185l29 335h-174l-29 -335h-187l30 335h-135zM372 494h174l36 392h-174z" />
<glyph unicode="$" d="M72 101q68 148 81 197h36q32 -58 104 -94t158 -37v406q-139 53 -193 86q-151 91 -161 257q-1 13 -1 27q0 142 95.5 241.5t259.5 125.5q-1 142 -13 200q22 0 46.5 -0.5t27.5 -0.5t29 0.5t45 0.5q-13 -64 -13 -193q93 -2 182 -31t146 -69q-35 -69 -47 -99t-27 -82h-36 q-20 44 -80.5 71.5t-137.5 31.5v-375h1l1 -1h1h1l1 -1h1h1l1 -1q137 -44 196 -83q143 -93 143 -292q0 -171 -90.5 -268.5t-256.5 -122.5q0 -137 13 -202q-24 0 -48 0.5t-26 0.5t-25 -0.5t-49 -0.5q12 64 13 194q-224 1 -379 114zM347 965q0 -101 104 -154v310 q-104 -44 -104 -156zM573 195q91 52 91 185q0 83 -91 137v-322z" />
<glyph unicode="%" horiz-adv-x="1740" d="M113 955q0 208 76 306.5t229 98.5t229 -98.5t76 -306.5q0 -207 -76 -305t-229 -98t-229 98t-76 305zM309 955q0 -136 27.5 -192.5t81.5 -56.5q53 0 80.5 56.5t27.5 192.5t-27.5 193.5t-80.5 57.5t-81 -57.5t-28 -193.5zM482 -2l503 1156q60 135 68 208q19 0 53 -1t57 -1 q11 0 123 4l-532 -1201q-42 -93 -51 -163q-18 0 -47 1t-51 1q-11 0 -123 -4zM1028 388q0 208 76 306.5t229 98.5t229 -98.5t76 -306.5q0 -207 -76 -305t-229 -98t-229 98t-76 305zM1225 388q0 -136 27.5 -193t80.5 -57t81 57t28 193t-28 193.5t-81 57.5t-80.5 -57.5 t-27.5 -193.5z" />
<glyph unicode="&#x26;" horiz-adv-x="1169" d="M126 390q0 239 192 358q-127 193 -127 331q0 128 88 212t233 84t226.5 -79t81.5 -213q0 -104 -56.5 -188t-175.5 -137q108 -166 191 -288q6 60 6 128q0 91 -22 132v22h248v-110q0 -218 -79 -389q47 -65 87 -118t57 -73l16 -20v-42h-272l-41 59q-103 -73 -241 -73 q-194 0 -303 105t-109 299zM372 401q0 -241 189 -241q72 0 121 46l-274 409q-36 -83 -36 -214zM437 1084q0 -56 19 -103.5t58 -109.5l1 -2q40 50 55 100.5t15 115.5q0 55 -19.5 85.5t-53.5 30.5q-32 0 -53.5 -31t-21.5 -86z" />
<glyph unicode="'" horiz-adv-x="415" d="M74 1363q36 -2 128 -2t128 2q-1 -18 -2 -57.5t-4 -73.5q-5 -58 -20 -150.5t-28 -156.5l-12 -64q-48 2 -62 2q-15 0 -63 -2q-48 241 -59 371q-2 21 -6 131z" />
<glyph unicode="(" horiz-adv-x="647" d="M73 680q0 247 72 487t200 428h228q-134 -219 -194.5 -430.5t-60.5 -484.5q0 -271 60.5 -483t194.5 -430h-228q-128 188 -200 427.5t-72 485.5z" />
<glyph unicode=")" horiz-adv-x="647" d="M60 -233q134 218 194 429.5t60 483.5q0 273 -60 485t-194 430h229q128 -188 200 -428t72 -487q0 -246 -72 -485.5t-200 -427.5h-229z" />
<glyph unicode="*" horiz-adv-x="970" d="M119 1157q34 43 51 68.5t39 73.5l211 -155l-35 258q45 -4 92 -4t92 4l-34 -258l210 155q15 -33 30 -58t25.5 -39t35.5 -45l-268 -124l262 -103q-36 -52 -79 -151l-216 159l34 -270q-63 3 -92 3t-92 -3l35 270l-216 -159q-41 96 -80 151l262 103z" />
<glyph unicode="+" horiz-adv-x="1069" d="M125 520q0 2 0.5 19t0.5 39v33v33t-0.5 39t-0.5 19q98 -7 186 -7h122v142q0 82 -7 170q1 0 46.5 -0.5t63.5 -0.5h62l44 1q-6 -81 -6 -170v-142h122q88 0 186 7v-19t-0.5 -39t-0.5 -33t0.5 -33t0.5 -39v-19q-98 7 -186 7h-122v-141q0 -89 6 -170h-44q-44 1 -62 1 t-63.5 -0.5t-46.5 -0.5q7 88 7 170v141h-122q-88 0 -186 -7z" />
<glyph unicode="," horiz-adv-x="463" d="M10 -304q74 101 93 171t19 225q0 57 27 89.5t77 32.5q55 0 83 -33.5t28 -85.5q0 -95 -63 -190.5t-195 -218.5z" />
<glyph unicode="-" horiz-adv-x="921" d="M135 513q0 1 0.5 19t0.5 40v35q0 17 -0.5 56t-0.5 40q115 -7 187 -7h273q65 0 191 9q-6 -35 -6 -96q0 -54 6 -96q-117 7 -191 7h-273q-89 0 -187 -7z" />
<glyph unicode="." horiz-adv-x="471" d="M102 113q0 55 36 89t98 34t97.5 -34t35.5 -89t-35.5 -89t-97.5 -34t-98 34t-36 89z" />
<glyph unicode="/" horiz-adv-x="688" d="M-10 -208l417 1561q29 110 42 214q84 -3 123 -3q14 0 126 4l-415 -1562q-29 -111 -42 -213q-84 3 -123 3q-16 0 -128 -4z" />
<glyph unicode="0" d="M69 695q0 352 100 516t337 164t337 -164t100 -516q0 -366 -100 -537t-337 -171t-337 171t-100 537zM314 686q0 -200 22 -316.5t63 -162.5t107 -46t106.5 46t62.5 162.5t22 316.5q0 203 -22.5 318t-62.5 156t-106 41t-106 -41t-63 -156t-23 -318z" />
<glyph unicode="1" horiz-adv-x="798" d="M62 1134v23q229 88 474 228l39 -16q-7 -61 -8.5 -135.5t-1.5 -398.5v-308q0 -299 2.5 -378.5t13.5 -149.5q-66 2 -144 2q-72 0 -138 -2q11 72 13.5 151.5t2.5 376.5v575l-167 -85q-47 92 -86 117z" />
<glyph unicode="2" d="M129 0v170q0 62 11 116.5t35.5 102t47.5 82.5t64 75.5t66 63t72 60.5q46 38 69 58t58.5 58t53 69t31.5 75.5t14 93.5q0 173 -180 173q-83 0 -137.5 -34.5t-77.5 -87.5h-26q-2 9 -5 17.5t-5 15t-6 15t-6 13.5t-8 15l-9 15t-11.5 18t-13 19t-16.5 24l-18 27 q63 50 155.5 85.5t199.5 35.5q206 0 313 -93.5t107 -272.5q0 -41 -5.5 -78t-19.5 -71.5t-26 -61t-37 -58t-40.5 -50t-49 -49.5t-48.5 -44t-52 -45q-45 -38 -70 -60.5t-61.5 -61t-56 -71.5t-36 -78.5t-20.5 -94.5q237 0 331.5 4.5t176.5 19.5q-5 -49 -5 -115q0 -65 6 -99 q-56 4 -184 4h-581z" />
<glyph unicode="3" d="M66 101q72 149 85 197h35q29 -58 99 -92t153 -34q218 0 218 234q0 110 -57.5 165.5t-160.5 55.5h-31q-89 0 -168 -6q0 1 0.5 18.5t0.5 39.5v34v57l-1 39q120 -8 168 -8h23q198 0 198 195q0 201 -189 201q-76 0 -138.5 -35.5t-88.5 -86.5h-36q-12 46 -28 74.5t-70 104.5 q60 46 160.5 83.5t198.5 37.5q203 0 322.5 -93.5t119.5 -271.5q0 -104 -49.5 -182t-129.5 -109q88 -23 149.5 -99t61.5 -202q0 -214 -125.5 -322.5t-349.5 -108.5q-101 0 -202 31t-168 83z" />
<glyph unicode="4" d="M68 309v73q205 718 254 981q102 -3 116 -3q11 0 35.5 0.5t55 2t41.5 1.5l-231 -868h241q0 316 -17 416q96 -3 136 -3q35 0 140 3q-19 -110 -19 -416q48 1 143 8q-7 -42 -7 -102q0 -54 7 -102q-139 9 -143 9q0 -207 20 -310q-68 2 -140 2q-74 0 -138 -2q18 104 18 310 h-512z" />
<glyph unicode="5" d="M78 101q77 122 95 197h37q30 -60 92 -95.5t142 -35.5q95 0 151.5 61t56.5 188q0 122 -57.5 177t-174.5 55h-251v549q0 30 -2.5 71.5t-4.5 67.5l-2 26h700q-4 -39 -4 -92q0 -61 4 -108q-62 8 -134.5 10.5t-310.5 3.5v-341h26q233 0 350 -99.5t117 -308.5q0 -440 -474 -440 q-101 0 -195 30.5t-161 83.5z" />
<glyph unicode="6" d="M89 519v316q0 111 31 208t90.5 171.5t153.5 117.5t211 43q110 0 232 -30l14 -173l-15 -15q-73 22 -119.5 29t-116.5 7q-106 0 -168.5 -88.5t-62.5 -253.5v-35q30 33 82 55t113 22q179 0 283 -109.5t104 -324.5t-109.5 -343.5t-311.5 -128.5q-185 0 -298 136.5t-113 395.5 zM339 459q0 -152 44.5 -224t117.5 -72q169 0 169 297q0 135 -44.5 197t-118.5 62q-72 0 -120 -63t-48 -197z" />
<glyph unicode="7" horiz-adv-x="948" d="M94 1161v20.5t0.5 44t0.5 38.5q0 20 -1 62v41q95 -5 177 -5h603v-80l-459 -1283q-54 2 -123 2q-60 0 -150 -3l435 1178h-306q-65 0 -177 -15z" />
<glyph unicode="8" d="M72 397q0 206 173 309q-148 96 -148 280q0 126 57 216t147.5 131.5t204.5 41.5t204.5 -41t147.5 -130.5t57 -217.5q0 -175 -147 -265q79 -41 125.5 -122t46.5 -202q0 -195 -110.5 -302.5t-323.5 -107.5q-434 0 -434 410zM317 380q0 -111 50.5 -164t138.5 -53t139 53 t51 164q0 237 -256 247q-65 -38 -94 -91t-29 -156zM340 1004q0 -96 59 -152.5t167 -59.5q48 27 77.5 86t29.5 126q0 195 -167 195q-79 0 -122.5 -50t-43.5 -145z" />
<glyph unicode="9" d="M89 903q0 215 109.5 343.5t311.5 128.5q185 0 298 -136.5t113 -395.5v-316q0 -246 -126 -393t-361 -147q-109 0 -231 30l-15 172l16 16q75 -23 116 -29.5t109 -6.5q110 0 176 75.5t66 235.5v66q-30 -33 -82 -55t-113 -22q-179 0 -283 109.5t-104 324.5zM340 902 q0 -135 44.5 -197t118.5 -62q72 0 120 63t48 197q0 152 -44.5 224t-117.5 72q-169 0 -169 -297z" />
<glyph unicode=":" horiz-adv-x="471" d="M102 122q0 55 36 89t98 34t97.5 -34t35.5 -89t-35.5 -89t-97.5 -34t-98 34t-36 89zM102 861q0 55 36 89t98 34t97.5 -34t35.5 -89t-35.5 -89t-97.5 -34t-98 34t-36 89z" />
<glyph unicode=";" horiz-adv-x="463" d="M0 -304q74 100 95.5 174t21.5 222q0 53 29 87.5t85 34.5q55 0 83 -33.5t28 -85.5q0 -94 -63.5 -189t-197.5 -220zM102 861q0 55 36 89t98 34t97.5 -34t35.5 -89t-35.5 -89t-97.5 -34t-98 34t-36 89z" />
<glyph unicode="&#x3c;" horiz-adv-x="1069" d="M123 587q5 55 5 62q0 9 -5 72l823 413q-4 -120 -4 -133q0 -4 3 -91l-530 -256l529 -277q-2 -60 -2 -86q0 -12 4 -128z" />
<glyph unicode="=" horiz-adv-x="1069" d="M133 340q0 1 0.5 19t0.5 40v35q0 17 -0.5 56t-0.5 40q115 -7 186 -7h425q82 0 192 8q-6 -36 -6 -95q0 -55 6 -96q-114 7 -192 7h-425q-88 0 -186 -7zM133 691q0 1 0.5 18.5t0.5 40v34.5q0 17 -0.5 56.5t-0.5 40.5q132 -8 186 -8h425q68 0 192 9q-6 -35 -6 -96 q0 -54 6 -95q-130 6 -192 6h-425q-74 0 -186 -6z" />
<glyph unicode="&#x3e;" horiz-adv-x="1069" d="M123 163q3 87 3 128q0 56 -1 86l530 277l-531 256q2 58 2 91q0 43 -3 133l823 -413q-5 -62 -5 -72q0 -7 5 -62z" />
<glyph unicode="?" horiz-adv-x="728" d="M13 1271q59 44 142.5 74t174.5 30q183 0 281 -84t98 -235q0 -70 -29 -128.5t-70.5 -100.5t-83 -82.5t-70.5 -92t-29 -110.5q0 -31 1.5 -64.5t3.5 -51.5l2 -18q-74 2 -110 2q-48 0 -112 -2v153q0 63 26 119t63 98.5t74 84t63 94t26 110.5q0 130 -147 130q-72 0 -126.5 -32 t-75.5 -81h-28q-26 89 -74 187zM194 124q0 55 35.5 89t97.5 34q61 0 97 -34t36 -89q0 -56 -36 -90t-97 -34q-62 0 -97.5 34t-35.5 90z" />
<glyph unicode="@" horiz-adv-x="1648" d="M141 672q0 215 86.5 375.5t239.5 244t352 83.5q309 0 491 -167t182 -451q0 -222 -101 -353.5t-248 -131.5q-93 0 -145 33.5t-76 100.5q-58 -120 -190 -120q-120 0 -185 99.5t-65 263.5q0 177 96.5 284.5t282.5 107.5q84 0 240 -35v-532q0 -51 35 -51q19 0 37.5 7.5 t39.5 30t37 57.5t26.5 97t10.5 142q0 223 -119.5 338.5t-348.5 115.5q-220 0 -346.5 -137t-126.5 -402q0 -252 137 -393t378 -141q169 0 282 37l13 -9l-33 -161q-49 -11 -131.5 -21t-130.5 -10q-342 0 -531 178.5t-189 519.5zM708 656q0 -105 19 -153t65 -48q84 0 84 136 v291q-15 3 -32 3q-136 0 -136 -229z" />
<glyph unicode="A" horiz-adv-x="1085" d="M18 -3l442 1375h165l442 -1374q-75 3 -152 3q-56 0 -128 -3l-90 306h-347l-89 -306q-72 3 -104 3q-47 0 -139 -4zM401 482h244l-122 416z" />
<glyph unicode="B" horiz-adv-x="1173" d="M131 0q14 68 17 146.5t3 380.5v308q0 302 -3 380.5t-17 146.5q278 13 414 13q237 0 361 -90.5t124 -285.5q0 -96 -53.5 -174.5t-124.5 -119.5q214 -70 214 -294q0 -121 -33.5 -205t-100.5 -131t-153.5 -67.5t-205.5 -20.5q-80 0 -190.5 3.5t-180.5 6.5zM428 170 q123 -5 162 -5q47 0 79 8t62 31t45 71.5t15 122.5q0 111 -50.5 159.5t-158.5 48.5h-154v-436zM428 782h135q29 0 52.5 3.5t51.5 16t47 33.5t32 60t13 91q0 111 -42 162t-144 51l-145 -6v-411z" />
<glyph unicode="C" horiz-adv-x="1061" d="M102 701q0 342 143.5 508t430.5 166q74 0 156 -20.5t143 -55.5q-12 -24 -29 -55.5t-25 -47t-16 -36t-11 -39.5h-18q-77 70 -217 70q-96 0 -155.5 -45t-92 -157t-32.5 -301q0 -127 14.5 -220t39.5 -150t64 -91t80.5 -46t96.5 -12q128 0 275 47l20 -16l-27 -174 q-174 -39 -256 -39q-146 0 -250 34.5t-181.5 115.5t-115 220.5t-37.5 343.5z" />
<glyph unicode="D" horiz-adv-x="1208" d="M123 0q9 50 10.5 124.5t1.5 395.5v322q0 320 -1.5 395t-10.5 125q220 13 366 13q80 0 144.5 -7t129.5 -26.5t113.5 -51t92 -83t71 -121.5t43 -167t15.5 -218q0 -142 -19.5 -253.5t-57.5 -189t-88.5 -131t-118 -84t-139.5 -43.5t-160 -13q-74 0 -172 3.5t-159 6.5z M407 169q94 -4 127 -4q61 0 110.5 26.5t90 84.5t63 162.5t22.5 249.5q0 127 -15.5 220t-40 147.5t-63 87t-77 43.5t-88.5 11l-129 -5v-1023z" />
<glyph unicode="E" horiz-adv-x="1026" d="M131 0q14 68 17 146.5t3 380.5v308q0 302 -3 380.5t-17 146.5h800q-5 -49 -5 -83q0 -55 3 -102q-69 12 -158 15t-345 3v-405q359 3 455 15q-4 -57 -4 -102q0 -41 4 -94q-117 15 -455 15v-450q159 0 229 1t149 6.5t140 17.5q-4 -65 -4 -107q0 -52 4 -92h-813z" />
<glyph unicode="F" horiz-adv-x="1013" d="M121 -1q14 67 16.5 143t2.5 385v308q0 308 -2.5 384t-16.5 143h819q-5 -49 -5 -83q0 -55 3 -102q-68 12 -165 15t-357 3v-416q383 3 485 16q-4 -57 -4 -102q0 -41 4 -94q-109 14 -485 14v-86q0 -307 2.5 -383t17.5 -145q-70 2 -157 2q-84 0 -158 -2z" />
<glyph unicode="G" horiz-adv-x="1177" d="M102 701q0 173 44 303.5t125 211t190.5 120t246.5 39.5q87 0 184 -21t161 -56q-6 -12 -19 -37.5t-18 -35.5t-13.5 -29t-12.5 -30.5t-8.5 -26.5t-6.5 -29h-31q-96 87 -239 87q-78 0 -136 -26t-101.5 -84t-66 -157.5t-22.5 -241.5q0 -149 20 -253t59 -162t89 -83t118 -25 q38 0 104 11v264q0 182 -19 284q62 -7 162 -7q78 0 136 9q-6 -258 -6 -307v-390q-15 -2 -68 -10t-81 -12t-73 -9.5t-80 -8t-65 -2.5q-118 0 -205.5 20t-159.5 68.5t-116 130t-68 204.5t-24 291z" />
<glyph unicode="H" horiz-adv-x="1239" d="M123 -1q15 71 17.5 147t2.5 381v308q0 305 -2.5 381t-17.5 147q108 -3 156 -3q49 0 157 3q-14 -71 -16.5 -147t-2.5 -381v-45h405v45q0 312 -2.5 385t-18.5 143q111 -3 155 -3q42 0 159 3q-14 -71 -16.5 -147t-2.5 -381v-308q0 -307 2.5 -383t17.5 -145q-76 2 -159 2 q-82 0 -156 -2q16 70 18.5 143t2.5 385v76h-405v-76q0 -307 2.5 -383t17.5 -145q-70 2 -157 2q-85 0 -157 -2z" />
<glyph unicode="I" horiz-adv-x="681" d="M186 -1q14 72 17 150.5t3 377.5v308q0 299 -3 377.5t-17 150.5q99 -3 155 -3q44 0 155 3q-14 -72 -17 -150.5t-3 -377.5v-308q0 -299 3 -377.5t17 -150.5q-70 2 -155 2q-89 0 -155 -2z" />
<glyph unicode="J" horiz-adv-x="679" d="M-19 -251q47 -3 73 -3q80 0 114 79t34 261v749q0 299 -3 377.5t-17 150.5q105 -3 154 -3t157 3q-14 -72 -17 -150.5t-3 -377.5v-749q0 -99 -16.5 -174t-66.5 -142q-50 -68 -150 -110.5t-225 -46.5z" />
<glyph unicode="K" horiz-adv-x="1148" d="M127 -1q15 71 17.5 147t2.5 381v308q0 305 -2.5 381t-17.5 147q105 -3 155 -3q48 0 156 3q-14 -71 -16.5 -147t-2.5 -381v-90v-5v-213q0 -307 2.5 -383t17.5 -145q-70 2 -157 2q-85 0 -155 -2zM419 678v62q1 -11 12 -11q12 0 24 19l375 614q26 -3 145 -3q102 0 153 3 l-417 -656l438 -706q-66 2 -175 2q-68 0 -128 -2l-396 672q-10 16 -21 16q-8 0 -10 -10z" />
<glyph unicode="L" horiz-adv-x="911" d="M118 1363q108 -3 153 -3q40 0 151 3q-9 -71 -10.5 -147t-1.5 -381v-649q392 0 491 30q-6 -65 -6 -114q0 -63 4 -102h-780q14 67 16.5 143t2.5 384v308q0 305 -2.5 381t-17.5 147z" />
<glyph unicode="M" horiz-adv-x="1351" d="M123 -1q15 71 17.5 147t2.5 381v835h242l294 -624q31 68 134 292.5t150 331.5h245v-835q0 -301 3 -379.5t18 -148.5q-72 2 -150 2q-76 0 -150 -2q15 71 17.5 147t2.5 381v312l-192 -395q-46 2 -85 2q-40 0 -86 -2l-184 395v-312q0 -301 3 -379.5t18 -148.5q-74 2 -151 2 t-149 -2z" />
<glyph unicode="N" horiz-adv-x="1208" d="M123 -1q17 68 19.5 141t2.5 387v610q0 107 -2 143t-12 95h177l498 -808v268q0 302 -3.5 380.5t-20.5 147.5q111 -3 152 -3q43 0 151 3q-14 -69 -16.5 -145t-2.5 -383v-846h-177l-483 771v-233q0 -301 3 -380t18 -148q-74 2 -154 2q-78 0 -150 -2z" />
<glyph unicode="O" horiz-adv-x="1216" d="M88 695q0 344 127.5 512.5t392.5 168.5t392.5 -168.5t127.5 -512.5q0 -358 -127.5 -533.5t-392.5 -175.5t-392.5 175.5t-127.5 533.5zM365 686q0 -193 28 -309t80 -164.5t135 -48.5t135.5 48.5t80.5 164.5t28 309q0 196 -28.5 310t-80 158t-135.5 44t-135.5 -44 t-79.5 -157.5t-28 -310.5z" />
<glyph unicode="P" horiz-adv-x="1103" d="M131 -1q14 68 17 147t3 381v308q0 302 -3 380.5t-17 146.5q229 13 406 13q254 0 378.5 -118t124.5 -313q0 -223 -135.5 -339t-395.5 -116h-87q0 -154 0.5 -223.5t5 -145.5t14.5 -121q-70 2 -157 2q-80 0 -154 -2zM422 665h96q110 0 177 64t67 204q0 128 -59 197t-153 69 l-128 -6v-528z" />
<glyph unicode="Q" horiz-adv-x="1217" d="M88 695q0 344 127.5 512.5t392.5 168.5t392.5 -168.5t127.5 -512.5q0 -542 -297 -669q10 -6 64.5 -39.5t86 -52.5t79.5 -47t84 -46q-45 -11 -122 -51.5t-100 -62.5q-56 52 -104.5 90t-113 84t-115.5 86q-256 7 -379 181.5t-123 526.5zM365 686q0 -193 28 -309t80 -164.5 t135 -48.5t135.5 48.5t80.5 164.5t28 309q0 196 -28.5 310t-80 158t-135.5 44t-135.5 -44t-79.5 -157.5t-28 -310.5z" />
<glyph unicode="R" horiz-adv-x="1153" d="M131 -1q14 72 17 150.5t3 377.5v349q0 161 -13 486q64 0 200.5 6.5t213.5 6.5q247 0 362.5 -107t115.5 -298q0 -283 -260 -389l335 -585q-101 7 -172 7q-66 0 -136 -5l-291 549h-85v-20q0 -307 2.5 -383t17.5 -145q-70 2 -156 2t-154 -2zM422 725h129q89 0 146.5 54.5 t57.5 176.5q0 243 -177 243q-83 0 -149 -6q-7 -139 -7 -317v-151z" />
<glyph unicode="S" horiz-adv-x="1003" d="M79 97q11 23 36 74t39.5 83.5t19.5 53.5h37q37 -61 101 -99t148 -38q95 0 145.5 56t50.5 163q0 37 -14 67.5t-32.5 50.5t-55.5 41.5t-63 33t-74 30.5q-53 21 -91 39.5t-83 51t-73 69.5t-47 93t-19 124q0 183 123.5 284t338.5 101q99 0 185.5 -25.5t143.5 -65.5 q-14 -27 -30.5 -58.5t-23.5 -45t-15 -33.5t-15 -43h-37q-40 93 -219 93q-84 0 -131.5 -45.5t-47.5 -129.5q0 -33 7.5 -60.5t16.5 -47t29 -38t34 -29t43 -24t44 -19.5t48 -18q40 -15 67 -25.5t65.5 -30t64 -39t54 -49.5t45 -64t27.5 -81t11 -101q0 -199 -131 -304t-352 -105 q-217 0 -370 110z" />
<glyph unicode="T" horiz-adv-x="940" d="M12 1362h916q-7 -41 -7 -105q0 -53 2 -93q-268 12 -318 12v-649q0 -301 3 -379.5t17 -148.5q-72 2 -155 2q-84 0 -156 -2q16 71 19 147t3 381v649q-48 0 -319 -12q0 9 1 43t1 50q0 64 -7 105z" />
<glyph unicode="U" horiz-adv-x="1216" d="M113 1363q105 -3 157 -3q54 0 159 3q-15 -69 -17.5 -145t-2.5 -383v-440q0 -230 199 -230q200 0 200 230v440q0 301 -3 379.5t-18 148.5q105 -3 159 -3q53 0 158 3q-15 -70 -18.5 -151.5t-3.5 -376.5v-413q0 -206 -121.5 -320.5t-352.5 -114.5t-352.5 114.5t-121.5 320.5 v413q0 301 -3 380t-18 148z" />
<glyph unicode="V" horiz-adv-x="1075" d="M12 1364q140 -4 163 -4q36 0 147 3q17 -139 230 -936q62 237 100 390.5t73.5 310.5t54.5 235q90 -3 130 -3q33 0 153 4q-61 -195 -171 -579t-232 -786q-72 3 -132 3q-87 0 -131 -2q-111 393 -209 743.5t-130.5 466t-45.5 154.5z" />
<glyph unicode="W" horiz-adv-x="1409" d="M52 1363q74 -2 143 -2q114 0 151 2q37 -375 104 -916q132 442 177 639q49 -2 85 -2q35 0 82 2q20 -82 54 -196t78 -251.5t63 -201.5q82 587 107 926q93 -3 135 -3q18 0 142 4q-29 -219 -105 -677.5t-107 -688.5q-59 4 -131 4q-36 0 -128 -4q-31 100 -97 340t-96 339 q-78 -282 -196 -679q-96 4 -127 4q-45 0 -133 -4q-81 664 -201 1365z" />
<glyph unicode="X" horiz-adv-x="1129" d="M26 -2l398 710l-370 657q100 -5 130 -5q16 0 36.5 0.5t56.5 1t72 0.5l212 -401l218 401q15 0 59 -1t82 -1q50 0 144 7l-369 -656l396 -713q-99 3 -166 3q-69 0 -127 -2l-241 461l-239 -461q-58 2 -127 2t-165 -3z" />
<glyph unicode="Y" horiz-adv-x="1116" d="M10 1364q144 -4 161 -4q37 0 139 2q149 -347 248 -534q134 254 248 534q102 -2 139 -2q17 0 161 4q-197 -347 -414 -780q0 -348 3 -431t20 -154q-72 2 -157 2q-83 0 -155 -2q14 70 17 156t3 429q-211 425 -413 780z" />
<glyph unicode="Z" horiz-adv-x="993" d="M51 0v73l543 1113h-299q-63 0 -191 -9v19t0.5 40.5t0.5 35.5q0 17 -0.5 56.5t-0.5 40.5q115 -7 191 -7h627v-80l-538 -1108q376 0 522 20q-4 -56 -4 -105q0 -57 4 -93q-54 4 -194 4h-661z" />
<glyph unicode="[" horiz-adv-x="658" d="M115 -223q12 67 14.5 143t2.5 384v754q0 308 -2.5 384t-14.5 143h279q46 0 192 9q-6 -41 -6 -97t8 -96q-112 8 -194 8h-37v-1456h37q80 0 192 8q-6 -36 -6 -96q0 -56 6 -97q-146 9 -192 9h-279z" />
<glyph unicode="\" horiz-adv-x="658" d="M-33 1576q112 -4 128 -4q39 0 123 3q11 -91 42 -213l416 -1578q-112 4 -126 4q-40 0 -124 -3q-13 104 -42 214z" />
<glyph unicode="]" horiz-adv-x="658" d="M63 -40q96 -7 187 -7h37v1456h-37q-91 0 -187 -7q0 1 0.5 19t1 40.5t0.5 35.5q0 17 -1 56.5t-1 40.5q148 -9 187 -9h279q-12 -67 -14.5 -143t-2.5 -384v-754q0 -308 2.5 -384t14.5 -143h-279q-38 0 -187 -9q0 1 1 40.5t1 56.5t-1 56z" />
<glyph unicode="^" horiz-adv-x="986" d="M51 780l343 697q64 -6 104 -6q36 0 102 6l335 -697q-90 3 -148 3q-57 0 -117 -2l-172 408l-193 -408q-62 2 -111 2q-56 0 -143 -3z" />
<glyph unicode="_" horiz-adv-x="1031" d="M-24 -130q115 -7 187 -7h685q79 0 191 8q-6 -36 -6 -95q0 -56 6 -97q-130 8 -191 8h-685q-75 0 -187 -8v19t0.5 40.5t0.5 35.5q0 17 -0.5 56t-0.5 40z" />
<glyph unicode="`" horiz-adv-x="613" d="M78 1394q44 -2 147 -2q95 0 123 1q22 -41 67.5 -123.5t69.5 -126.5v-15h-130q-161 141 -277 266z" />
<glyph unicode="a" horiz-adv-x="962" d="M72 285q0 139 104.5 218t304.5 79h87v112q0 60 -35 94t-103 34q-138 0 -223 -97h-26q-4 18 -7 29.5t-10.5 27t-12 23.5t-22 36t-29.5 48q64 42 151.5 69.5t181.5 27.5q196 0 287.5 -80t91.5 -246v-453q0 -37 18 -50.5t76 -13.5q-18 -96 -18 -116q-57 -31 -127 -31 q-64 0 -111.5 28.5t-57.5 89.5q-59 -126 -240 -126q-134 0 -207 80t-73 217zM317 280q0 -62 30 -94.5t79 -32.5q61 0 101.5 42t40.5 111v122h-97q-71 0 -112.5 -37t-41.5 -111z" />
<glyph unicode="b" horiz-adv-x="999" d="M114 1362q68 -2 138 -2t138 2q-13 -68 -15.5 -119.5t-2.5 -206.5v-106q25 22 73 39t100 17q189 0 278.5 -109.5t89.5 -330.5q0 -302 -107 -430.5t-355 -128.5q-59 0 -176.5 13t-142.5 15v1021q0 150 -2.5 204.5t-15.5 121.5zM372 162q50 -6 97 -6q102 0 150 92t48 279 q0 161 -38 225.5t-118 64.5q-59 0 -99 -39t-40 -105v-511z" />
<glyph unicode="c" horiz-adv-x="819" d="M76 505q0 236 119.5 358.5t319.5 122.5q65 0 140 -18t123 -43q-66 -130 -72 -187h-30q-69 69 -164 69q-188 0 -188 -339q0 -302 201 -302q90 0 209 48l19 -7l-23 -178q-124 -42 -210 -42q-226 0 -335 124.5t-109 393.5z" />
<glyph unicode="d" horiz-adv-x="1009" d="M86 465q0 246 131 383.5t341 137.5q36 0 88 -9v59q0 150 -2.5 204.5t-15.5 121.5q66 -2 138 -2q71 0 137 2q-12 -68 -14.5 -119.5t-2.5 -206.5v-710q0 -156 2.5 -207.5t14.5 -119.5q-66 2 -137 2q-65 0 -131 -2q3 32 7 82q-72 -94 -205 -94q-170 0 -260.5 129t-90.5 349z M334 466q0 -155 43.5 -232.5t116.5 -77.5q68 0 109 55t43 154v443q-49 9 -90 9q-103 0 -162.5 -84.5t-59.5 -266.5z" />
<glyph unicode="e" horiz-adv-x="937" d="M86 485q0 501 407 501q182 0 270.5 -112t88.5 -314v-138h-523q4 -142 55.5 -202t149.5 -60q130 0 257 55l19 -8l-23 -180q-48 -13 -122.5 -26.5t-120.5 -13.5q-84 0 -150.5 13.5t-125.5 47.5t-98 89.5t-61.5 143.5t-22.5 204zM332 575h279v14q0 123 -29 178t-94 55 q-50 0 -80.5 -19.5t-50.5 -74.5t-25 -153z" />
<glyph unicode="f" horiz-adv-x="671" d="M26 797v17.5t0.5 37.5t0.5 32q0 15 -0.5 51t-0.5 37q93 -8 154 -8v54q0 168 92 270.5t257 102.5q86 0 164 -28l-36 -172l-13 -2q-44 34 -95 34q-57 0 -92.5 -45.5t-35.5 -137.5v-78q96 2 216 7q-4 -24 -4 -95q0 -35 4 -77q-105 6 -216 6v-477q0 -156 2.5 -207.5 t15.5 -119.5q-66 2 -137 2q-72 0 -138 -2q11 67 13.5 121.5t2.5 205.5v477q-76 0 -154 -6z" />
<glyph unicode="g" horiz-adv-x="974" d="M86 475q0 251 118.5 381t337.5 130q109 0 326 -25v-847q0 -226 -122.5 -354t-358.5 -128q-123 0 -209 23l-33 193l9 9q126 -52 237 -52q108 0 170 56.5t62 165.5v73q-22 -36 -78 -65t-110 -29q-171 0 -260 120t-89 349zM333 473q0 -155 36.5 -224t108.5 -69 q65 0 105 52.5t40 115.5v468q-37 6 -95 6q-102 0 -148.5 -76.5t-46.5 -272.5z" />
<glyph unicode="h" horiz-adv-x="1018" d="M106 1362q96 -3 139 -3q46 0 142 3q-20 -93 -20 -250v-220q45 44 106 69t123 25q303 0 303 -338v-322q0 -151 3 -204.5t16 -122.5q-66 2 -138 2t-138 -2q12 67 14.5 121.5t2.5 205.5v340q0 81 -26 118.5t-87 37.5q-72 0 -125.5 -49.5t-53.5 -129.5v-317 q0 -156 2.5 -207.5t13.5 -119.5q-66 2 -136 2q-72 0 -138 -2q13 67 15.5 121.5t2.5 205.5v786q0 152 -21 250z" />
<glyph unicode="i" horiz-adv-x="496" d="M111 -1q12 67 14.5 121.5t2.5 205.5v321q0 150 -2.5 204.5t-14.5 121.5q66 -2 139 -2q70 0 136 2q-12 -68 -14.5 -119.5t-2.5 -206.5v-321q0 -156 2.5 -207.5t14.5 -119.5q-66 2 -136 2q-73 0 -139 -2zM112 1265q0 56 38 92.5t100 36.5t100 -36.5t38 -92.5t-38 -92.5 t-100 -36.5t-100 36.5t-38 92.5z" />
<glyph unicode="j" horiz-adv-x="476" d="M-109 -229q57 -10 103 -10q77 0 100.5 60.5t23.5 244.5v581q0 145 -3 201t-15 125q66 -2 140 -2q70 0 136 2q-13 -71 -16 -125q-2 -41 -2 -134v-67l3 -581q0 -109 -11.5 -171t-49.5 -115q-49 -69 -151.5 -116t-223.5 -51zM101 1265q0 56 38.5 92.5t100.5 36.5t100 -36.5 t38 -92.5t-38 -92.5t-100 -36.5t-100.5 36.5t-38.5 92.5z" />
<glyph unicode="k" horiz-adv-x="960" d="M106 -1q13 69 16 125t3 202v708q0 151 -3 204t-16 122q64 -2 138 -2q71 0 139 2q-12 -67 -14.5 -121.5t-2.5 -204.5v-490v-5q0 -12 11 -12q8 0 19 19l259 429q52 -4 126 -4q92 0 152 4l-307 -450l329 -526q-72 2 -172 2q-63 0 -117 -3l-275 480q-9 17 -16 17q-9 0 -9 -13 v-156q0 -156 2.5 -207.5t14.5 -119.5q-68 2 -137 2q-74 0 -140 -2z" />
<glyph unicode="l" horiz-adv-x="506" d="M117 -2q12 68 14.5 120t2.5 208v708q0 155 -2.5 206.5t-14.5 119.5q68 -2 137 -2q68 0 136 2q-12 -68 -14.5 -119.5t-2.5 -206.5v-708q0 -156 2.5 -208t14.5 -120q-68 2 -136 2q-69 0 -137 -2z" />
<glyph unicode="m" horiz-adv-x="1468" d="M106 974q96 -3 139 -3q37 0 133 3l-4 -79q75 91 206 91q169 0 238 -121q38 57 100.5 89t136.5 32q145 0 217.5 -86t72.5 -252v-322q0 -156 2.5 -207.5t14.5 -119.5q-66 2 -137 2q-73 0 -139 -2q13 69 16 125t3 202v340q0 156 -110 156q-57 0 -93 -41t-38 -124v-9v-322 q0 -151 3 -204.5t16 -122.5q-66 2 -138 2q-71 0 -139 -2q13 69 16 125t3 202v340q0 156 -111 156q-134 0 -146 -174v-30v-292q0 -156 2.5 -207.5t13.5 -119.5q-66 2 -136 2q-73 0 -139 -2q13 67 15.5 121.5t2.5 205.5v398q0 152 -21 250z" />
<glyph unicode="n" horiz-adv-x="1024" d="M106 974q96 -3 138 -3q37 0 133 3l-4 -87q75 99 223 99q142 0 222.5 -84t80.5 -269v-307q0 -151 3 -204.5t16 -122.5q-66 2 -138 2t-138 -2q12 67 14.5 121.5t2.5 205.5v304q0 107 -25.5 149.5t-87.5 42.5q-70 0 -123 -62.5t-56 -166.5v-267q0 -156 2.5 -207.5 t13.5 -119.5q-66 2 -136 2q-72 0 -138 -2q13 67 15.5 121.5t2.5 205.5v398q0 152 -21 250z" />
<glyph unicode="o" horiz-adv-x="966" d="M74 505q0 231 104.5 356t304.5 125t305 -125t105 -356q0 -277 -103.5 -397.5t-306.5 -120.5q-100 0 -173.5 27.5t-127.5 87.5t-81 160.5t-27 242.5zM322 478q0 -327 161 -327q162 0 162 327q0 184 -39 264t-123 80t-122.5 -79.5t-38.5 -264.5z" />
<glyph unicode="p" horiz-adv-x="1009" d="M106 -389q13 69 16 122t3 204v710q0 151 -3 204.5t-16 122.5q66 -2 138 -2q65 0 131 2q-3 -31 -7 -79q78 91 210 91q164 0 255 -125.5t91 -352.5q0 -258 -120 -389.5t-344 -131.5q-39 0 -95 9v-59q0 -150 2.5 -204.5t15.5 -121.5q-68 2 -139 2q-72 0 -138 -2zM365 167 q61 -11 94 -11q49 0 86 15.5t68 53t47 108.5t16 174q0 162 -37.5 234t-113.5 72q-71 0 -115.5 -65.5t-44.5 -149.5v-431z" />
<glyph unicode="q" horiz-adv-x="992" d="M86 458q0 270 114 399t349 129q59 0 174 -13.5t144 -15.5v-998q0 -146 3 -201.5t16 -124.5q-68 2 -138 2q-71 0 -139 -2q13 69 16 122t3 204v88q-27 -24 -73.5 -42t-99.5 -18q-183 0 -276 125.5t-93 345.5zM333 466q0 -161 43 -235.5t117 -74.5q56 0 95.5 40t39.5 104 v511q-50 6 -97 6q-198 0 -198 -351z" />
<glyph unicode="r" horiz-adv-x="716" d="M102 974q96 -3 138 -3q35 0 134 3q-11 -126 -12 -146q83 158 204 158q34 0 74.5 -7t55.5 -16q-23 -104 -27 -211l-22 -12q-31 41 -103 41q-68 0 -123.5 -50t-58.5 -144v-261q0 -151 3 -204t15 -123q-66 2 -137 2q-73 0 -139 -2q12 69 15 125t3 202v398q0 150 -20 250z " />
<glyph unicode="s" horiz-adv-x="847" d="M82 69q69 138 69 189h31q22 -41 80 -69.5t132 -28.5q73 0 108 33t35 91q0 40 -23.5 65.5t-61.5 39t-83.5 25t-91 29.5t-83.5 45.5t-61.5 80t-23.5 126.5q0 136 97 215t263 79q145 0 274 -66q-21 -36 -46 -100.5t-29 -92.5h-35q-12 40 -55 62.5t-104 22.5 q-130 0 -130 -104q0 -43 24 -70t62 -40t84 -23.5t92 -27t84 -42.5t62 -78.5t24 -127.5q0 -133 -98.5 -224.5t-278.5 -91.5q-168 0 -317 83z" />
<glyph unicode="t" horiz-adv-x="712" d="M36 797v17.5t0.5 37.5t0.5 32q0 15 -0.5 50.5t-0.5 36.5q92 -6 145 -6q-1 153 -9 190l234 102h15v-295q108 2 226 7q-4 -48 -4 -95q0 -35 4 -77q-107 6 -225 6v-462q0 -52 1 -76.5t6.5 -53t17 -40t31.5 -19.5t52 -8q54 0 129 21v-147q-96 -31 -194 -31q-142 0 -213 70 t-71 199v547q-65 0 -145 -6z" />
<glyph unicode="u" horiz-adv-x="1012" d="M106 974q96 -3 138 -3q37 0 139 3q-13 -67 -15.5 -121.5t-2.5 -205.5v-340q0 -81 29 -118.5t74 -37.5q72 0 123 49t58 133v21v293q0 156 -2.5 207.5t-15.5 119.5q96 -3 137 -3q36 0 138 3q-12 -67 -14.5 -121.5t-2.5 -205.5v-293q0 -236 12 -355q-64 2 -132 2t-132 -2 l5 87q-92 -99 -228 -99q-290 0 -290 338v322q0 151 -3 204t-15 123z" />
<glyph unicode="v" horiz-adv-x="901" d="M10 975q87 -3 133 -3q67 0 141 2q69 -266 173 -640q92 305 182 642q88 -5 119 -5q87 0 133 7q-222 -634 -330 -980q-56 4 -127 4q-70 0 -118 -3q-22 73 -88.5 301.5t-113.5 376t-104 298.5z" />
<glyph unicode="w" horiz-adv-x="1261" d="M10 975q81 -3 129 -3q73 0 145 2q30 -196 47 -287.5t58 -286.5q26 93 61.5 216t57.5 202.5t38 155.5q37 -2 82.5 -2t100.5 2q21 -89 78.5 -280t80.5 -291q82 372 113 572q48 -4 117 -4q77 0 133 5q-45 -179 -134.5 -508.5t-126.5 -469.5q-42 3 -114 3q-46 0 -97 -3 q-62 242 -156 542q-126 -416 -157 -542q-45 3 -106 3q-62 0 -104 -3q-145 608 -246 977z" />
<glyph unicode="x" horiz-adv-x="940" d="M53 -1q180 289 295 479l-277 499q90 -6 151 -6q66 0 120 4l141 -269q141 229 164 269q54 -4 110 -4q53 0 113 4q-191 -301 -284 -456l301 -521q-108 3 -175 3q-58 0 -98 -2l-163 295l-180 -295q-36 2 -89 2q-59 0 -129 -2z" />
<glyph unicode="y" horiz-adv-x="931" d="M20 975q84 -3 133 -3q68 0 140 2q30 -91 91.5 -308.5t101.5 -333.5q82 277 172 643q68 -5 119 -5q60 0 134 6q-75 -206 -142.5 -418.5t-157.5 -512.5t-129 -424q-37 6 -112 6q-56 0 -136 -3q20 52 70.5 173.5t74.5 187.5l-23 -1q-227 700 -336 991z" />
<glyph unicode="z" horiz-adv-x="816" d="M56 0v73l414 727h-201q-86 0 -175 -7v18t0.5 38t0.5 33q0 15 -0.5 50t-0.5 36q60 -4 175 -4h496v-81l-407 -719h213q77 0 181 6q-4 -45 -4 -88q0 -39 4 -87q-64 5 -201 5h-495z" />
<glyph unicode="{" horiz-adv-x="658" d="M33 662v38q168 20 168 190v488q0 228 232 228q79 0 147 -18v-127q-63 14 -94 14q-54 0 -54 -50v-541q0 -74 -42 -128.5t-112 -74.5q71 -19 112.5 -73.5t41.5 -129.5v-541q0 -50 54 -50q31 0 94 14v-127q-68 -18 -147 -18q-232 0 -232 228v488q0 170 -168 190z" />
<glyph unicode="|" horiz-adv-x="580" d="M154 -215q12 68 14.5 120t2.5 208v1138q0 155 -2.5 206.5t-14.5 119.5q68 -2 137 -2q68 0 136 2q-12 -68 -14.5 -119.5t-2.5 -206.5v-1138q0 -156 2.5 -208t14.5 -120q-68 2 -136 2q-69 0 -137 -2z" />
<glyph unicode="}" horiz-adv-x="658" d="M63 -99q63 -14 94 -14q54 0 54 50v541q0 74 42.5 128.5t112.5 74.5q-71 19 -113 73.5t-42 129.5v541q0 50 -54 50q-31 0 -94 -14v127q67 18 147 18q232 0 232 -228v-488q0 -170 168 -190v-38q-168 -20 -168 -190v-488q0 -228 -232 -228q-80 0 -147 18v127z" />
<glyph unicode="~" horiz-adv-x="1031" d="M135 478v207q77 44 131 60t108 16t145 -36.5t134 -36.5q93 0 223 81v-202q-126 -78 -239 -78q-57 0 -144 36.5t-138 36.5q-45 0 -82.5 -11t-61.5 -25t-76 -48z" />
<glyph unicode="&#xa1;" horiz-adv-x="504" d="M120 -390q2 41 3.5 89.5t3.5 118.5t4 125q1 32 15 191.5t28 303.5l14 144q85 -3 142 0q55 -568 57 -639q2 -55 4 -125t3.5 -118.5t3.5 -89.5q-105 3 -139 3t-139 -3zM125 849q0 56 36 90t97 34q62 0 97.5 -34t35.5 -90q0 -55 -35.5 -89t-97.5 -34q-61 0 -97 34t-36 89z " />
<glyph unicode="&#xa2;" d="M125 505q0 200 115.5 328.5t302.5 149.5q-1 128 -13 192q22 0 46.5 -0.5t27.5 -0.5t29 0.5t45 0.5q-12 -59 -12 -191q138 -9 233 -59q-58 -115 -65 -176h-30q-15 15 -53 34.5t-85 28.5v-653q89 10 179 45l18 -7l-22 -168q-77 -27 -175 -38q0 -138 12 -198q-24 0 -48 0.5 t-26 0.5t-25 -0.5t-49 -0.5q12 66 13 197q-201 17 -309.5 144t-108.5 371zM373 468q0 -120 45.5 -198.5t124.5 -103.5v642q-170 -49 -170 -340z" />
<glyph unicode="&#xa3;" d="M87 -7l1 35v48t-0.5 48t-0.5 36q63 -3 73 -3q51 0 87.5 23.5t55 64.5t26.5 85.5t8 98.5q0 71 -54 235q-130 -2 -196 -7l1 34v48q0 13 -0.5 48t-0.5 37q69 -4 147 -7q-29 101 -29 157q0 129 56.5 222.5t146 137.5t200.5 44q182 0 297 -95q-14 -25 -31 -62.5t-27 -62.5 l-10 -25h-26q-94 99 -199 99q-158 0 -158 -181q0 -97 50 -236q141 0 287 6q-5 -65 -5 -89q0 -21 5 -75q-137 6 -234 7q33 -108 33 -179q0 -61 -9.5 -109.5t-30 -88t-40.5 -65.5t-52 -61h173q73 0 259 8q-4 -52 -4 -96q0 -37 4 -80q-124 7 -259 7h-358q-93 0 -186 -7z" />
<glyph unicode="&#xa4;" horiz-adv-x="1152" d="M23 220l129 124q-54 105 -54 244q0 142 53 242l-128 125l160 151l120 -116q103 65 261 65t261 -65l121 116l161 -151l-127 -125q52 -104 52 -242q0 -141 -52 -245q107 -104 127 -123l-161 -150l-120 114q-106 -62 -262 -62t-262 62l-119 -114zM301 588q0 -144 73 -224 t190 -80q118 0 190.5 80t72.5 224t-72.5 224t-190.5 80q-117 0 -190 -80t-73 -224z" />
<glyph unicode="&#xa5;" d="M8 1364q144 -4 161 -4q37 0 139 2q116 -340 198 -534q105 249 197 534q102 -2 140 -2q17 0 161 4q-60 -121 -163.5 -351t-152.5 -331h34q81 0 191 8q-5 -36 -5 -90q0 -47 5 -88q-130 6 -191 6h-82v-106h82q81 0 191 8q-5 -36 -5 -91q0 -46 5 -87q-130 6 -191 6h-81 q1 -161 22 -249q-72 2 -157 2q-83 0 -155 -2q18 93 19 249h-92q-75 0 -187 -6q0 1 0.5 17.5t0.5 37v31.5q0 15 -0.5 52.5t-0.5 38.5q115 -7 187 -7h93v106h-93q-75 0 -187 -6q0 1 0.5 17.5t0.5 37v31.5q0 15 -0.5 52.5t-0.5 38.5q115 -7 187 -7h45q-50 104 -152.5 332.5 t-162.5 349.5z" />
<glyph unicode="&#xa6;" horiz-adv-x="585" d="M156 -207q18 94 18 293v145q0 199 -18 293q102 -3 136 -3q30 0 138 3q-19 -94 -19 -293v-145q0 -199 19 -293q-72 2 -138 2q-68 0 -136 -2zM156 836q18 94 18 292v146q0 199 -18 293q102 -3 136 -3q30 0 138 3q-19 -94 -19 -293v-146q0 -198 19 -292q-72 2 -138 2 q-68 0 -136 -2z" />
<glyph unicode="&#xa7;" horiz-adv-x="958" d="M96 85q56 82 91 203h34q58 -137 209 -137q66 0 105.5 31t39.5 84q0 34 -24.5 58.5t-63.5 40t-86 30.5t-94 35t-86 47.5t-63.5 74t-24.5 108.5q0 81 41 129t115 80q-59 36 -96 91.5t-37 124.5q0 142 101 216t265 74q90 0 178 -25.5t142 -65.5q-13 -22 -29.5 -49 t-23.5 -38.5t-16 -28t-14.5 -31t-10.5 -33.5h-33q-40 93 -185 93q-65 0 -99 -27.5t-34 -71.5q0 -39 24.5 -64.5t63.5 -39.5t86.5 -25.5t94.5 -28.5t86 -43t63.5 -74.5t24.5 -116.5q0 -70 -45.5 -131t-112.5 -85q61 -32 98.5 -87.5t37.5 -127.5q0 -137 -107.5 -212.5 t-270.5 -75.5q-210 0 -344 98zM377 684q0 -99 141 -124q29 16 53 49t24 69q0 50 -36.5 80.5t-118.5 45.5q-25 -14 -44 -48.5t-19 -71.5z" />
<glyph unicode="&#xa8;" horiz-adv-x="716" d="M43 1260q0 56 34 89t94 33t94 -33t34 -89t-34 -89.5t-94 -33.5t-94 33.5t-34 89.5zM418 1256q0 56 34 89.5t94 33.5t94 -33.5t34 -89.5t-34 -89t-94 -33t-94 33t-34 89z" />
<glyph unicode="&#xa9;" horiz-adv-x="1607" d="M133 680q0 325 176 510t495 185t495 -185t176 -510q0 -329 -176 -511t-495 -182t-495 182t-176 511zM297 680q0 -274 131 -413t376 -139t376 139t131 413q0 278 -130.5 416t-376.5 138t-376.5 -138t-130.5 -416zM480 692q0 179 95 280.5t265 101.5q53 0 113 -15t104 -40 q-63 -115 -72 -158h-28q-48 61 -127 61q-75 0 -110 -52t-35 -183q0 -249 146 -249q74 0 191 37l17 -10l-17 -143q-38 -15 -95 -25.5t-98 -10.5q-165 0 -257 105.5t-92 300.5z" />
<glyph unicode="&#xaa;" horiz-adv-x="798" d="M94 828q0 240 302 240h73v72q0 40 -26 63.5t-72 23.5q-91 0 -158 -82h-31q-7 49 -66 157q115 70 270 70q145 0 221 -64.5t76 -177.5v-331q0 -33 11.5 -43.5t58.5 -10.5q-19 -64 -19 -104q-50 -27 -107 -27q-41 0 -75.5 25t-44.5 68q-33 -54 -76 -77.5t-113 -23.5 q-105 0 -164.5 66t-59.5 156zM299 842q0 -41 19.5 -65.5t52.5 -24.5q42 0 70 29t28 87v67h-71q-53 0 -76 -22.5t-23 -70.5z" />
<glyph unicode="&#xab;" horiz-adv-x="1003" d="M102 582l227 403h209l-184 -403l184 -404h-209zM497 582l195 403h209l-152 -403l152 -404h-209z" />
<glyph unicode="&#xac;" horiz-adv-x="1111" d="M137 503q0 1 0.5 19t0.5 40v35q0 17 -0.5 56t-0.5 40q114 -7 187 -7h471q88 0 186 7v-315q0 -66 7 -174q-33 3 -116 3l-101 -3q5 133 5 175v131h-452q-89 0 -187 -7z" />
<glyph unicode="&#xad;" horiz-adv-x="921" d="M135 513q0 1 0.5 19t0.5 40v35q0 17 -0.5 56t-0.5 40q115 -7 187 -7h273q65 0 191 9q-6 -35 -6 -96q0 -54 6 -96q-117 7 -191 7h-273q-89 0 -187 -7z" />
<glyph unicode="&#xae;" horiz-adv-x="1607" d="M133 680q0 325 176 510t495 185t495 -185t176 -510q0 -329 -176 -511t-495 -182t-495 182t-176 511zM297 680q0 -274 131 -413t376 -139t376 139t131 413q0 278 -130.5 416t-376.5 138t-376.5 -138t-130.5 -416zM541 310q11 47 13.5 93.5t2.5 203.5v175q0 110 -8 275 q37 0 119 3.5t130 3.5q151 0 224 -66.5t73 -169.5q0 -68 -38 -127t-101 -89q34 -56 93.5 -162.5t80.5 -142.5q-80 4 -139 4q-34 0 -82 -3l-137 265h-16q0 -138 2.5 -179t14.5 -84q-12 0 -59 0.5t-58 0.5q-12 0 -59 -0.5t-56 -0.5zM756 730h47q42 0 65.5 26t23.5 71 q0 89 -84 89q-32 0 -50 -3q-2 -104 -2 -131v-52z" />
<glyph unicode="&#xaf;" horiz-adv-x="657" d="M49 1161q0 1 0.5 18.5t0.5 40v35.5v57l-1 39q99 -6 187 -6h181q93 0 191 7q-6 -35 -6 -96q0 -54 6 -95q-130 6 -191 6h-181q-77 0 -187 -6z" />
<glyph unicode="&#xb0;" horiz-adv-x="739" d="M36 1055q0 138 90.5 227.5t243.5 89.5t243 -89.5t90 -227.5t-90.5 -228t-242.5 -90q-153 0 -243.5 90t-90.5 228zM236 1054q0 -70 35 -110.5t99 -40.5t99 40.5t35 112.5q0 70 -35 110t-99 40t-99 -40t-35 -110v-2z" />
<glyph unicode="&#xb1;" horiz-adv-x="1112" d="M134 -3v18t0.5 38.5t0.5 32.5q0 15 -0.5 52.5t-0.5 38.5q114 -7 187 -7h446q81 0 191 8q-6 -35 -6 -90q0 -50 6 -91q-114 7 -191 7h-446q-89 0 -187 -7zM134 530v18.5t0.5 39t0.5 32.5q0 15 -0.5 52.5t-0.5 38.5q130 -8 187 -8h121v132q0 72 -8 178q51 -9 109 -9 q52 0 108 7q-6 -93 -6 -176v-132h122q67 0 191 9q-6 -36 -6 -90q0 -51 6 -92q-152 7 -191 7h-122v-112q0 -89 6 -169h-44q-44 1 -62 1t-63.5 -0.5t-46.5 -0.5q7 87 7 169v112h-121q-56 0 -187 -7z" />
<glyph unicode="&#xb2;" horiz-adv-x="828" d="M86 413v116q0 65 22 121.5t57.5 97t78 76.5t85.5 67.5t78.5 63t57.5 69.5t22 80q0 58 -35 91.5t-98 33.5q-111 0 -167 -93h-28q-14 50 -72 145q42 35 120 63t163 28q165 0 250 -75t85 -202q0 -59 -19.5 -107t-52 -82t-72 -64t-80.5 -58.5t-76.5 -58.5t-62 -72.5 t-34.5 -92.5q291 0 379 17q-5 -66 -5 -90q0 -47 5 -78q-50 4 -158 4h-443z" />
<glyph unicode="&#xb3;" horiz-adv-x="828" d="M55 487q12 24 31.5 61t31.5 61.5t16 39.5h28q58 -98 179 -98q79 0 116.5 35.5t37.5 110.5q0 74 -34 107t-109 33h-40q-18 0 -57.5 -2.5t-52.5 -3.5v15q0 14 0.5 32t0.5 27q0 12 -0.5 45t-0.5 34q19 -1 46 -3t45 -3.5t28 -1.5h23q133 0 133 130q0 60 -37.5 92t-105.5 32 q-54 0 -95.5 -24.5t-59.5 -61.5h-29q-13 39 -79 138q130 90 280 90q162 0 251.5 -67t89.5 -190q0 -64 -37 -116.5t-100 -78.5v-5q160 -57 160 -210q0 -146 -95.5 -224.5t-268.5 -78.5q-167 0 -296 85z" />
<glyph unicode="&#xb4;" horiz-adv-x="613" d="M115 1128v15q24 44 69.5 126.5t67.5 123.5q28 -1 123 -1q103 0 147 2q-116 -125 -277 -266h-130z" />
<glyph unicode="&#xb5;" horiz-adv-x="1012" d="M106 -389q12 70 15 123t3 204v709q0 151 -3 204t-15 123q96 -3 138 -3q37 0 139 3q-13 -67 -15.5 -121.5t-2.5 -205.5v-340q0 -83 34.5 -119.5t99.5 -36.5q68 0 109 49.5t41 132.5v21v293q0 156 -2.5 207.5t-15.5 119.5q96 -3 137 -3q36 0 138 3q-12 -67 -14.5 -121.5 t-2.5 -205.5v-293q0 -236 12 -355q-64 2 -132 2t-132 -2l3 62q-71 -74 -158 -74q-76 0 -121 22q4 -40 4 -71q0 -151 2.5 -205.5t15.5 -121.5q-102 3 -139 3q-42 0 -138 -3z" />
<glyph unicode="&#xb6;" horiz-adv-x="1171" d="M85 1028q0 163 93 255.5t291 92.5q80 0 141.5 -3.5t82.5 -6.5l21 -4q-9 -51 -11 -130t-2 -390v-322q0 -311 2 -390t11 -130q-108 3 -217 0q10 47 12 177.5t2 488.5h-37q-189 0 -289 92.5t-100 269.5zM834 0q11 50 13 125t2 395v322q0 320 -2 395t-12 125q108 -3 219 0 q-10 -51 -12.5 -129.5t-2.5 -390.5v-322q0 -312 2.5 -390.5t13.5 -129.5q-110 3 -221 0z" />
<glyph unicode="&#xb7;" horiz-adv-x="463" d="M89 606q0 56 38.5 90t100.5 34t100.5 -34t38.5 -90q0 -55 -38.5 -89t-100.5 -34t-100.5 34t-38.5 89z" />
<glyph unicode="&#xb8;" horiz-adv-x="611" d="M97 -356q159 56 159 138q0 66 -105 80l89 214h129l-30 -137q125 -32 125 -147q0 -90 -86.5 -143t-217.5 -53q-4 0 -15 0.5t-15 0.5z" />
<glyph unicode="&#xb9;" horiz-adv-x="828" d="M122 1189v20q68 23 407 169l26 -11q-7 -49 -8.5 -108t-1.5 -274v-195q0 -212 2.5 -266.5t16.5 -110.5h-252q13 57 15.5 113.5t2.5 263.5v359l-123 -58q-38 69 -85 98z" />
<glyph unicode="&#xba;" horiz-adv-x="841" d="M77 993q0 185 84 282t250 97q167 0 251 -96.5t84 -282.5q0 -223 -82.5 -315t-252.5 -92q-83 0 -143 20.5t-104 67t-65.5 126t-21.5 193.5zM291 972q0 -241 120 -241q62 0 91.5 58.5t29.5 182.5q0 137 -27.5 196t-93.5 59q-65 0 -92.5 -59t-27.5 -196z" />
<glyph unicode="&#xbb;" horiz-adv-x="1003" d="M102 178l153 404l-153 403h209l196 -403l-196 -404h-209zM466 178l183 404l-183 403h209l226 -403l-226 -404h-209z" />
<glyph unicode="&#xbc;" horiz-adv-x="1822" d="M102 1189v20q73 25 408 169l26 -11q-7 -51 -9 -113.5t-2 -268.5v-195q0 -207 3 -263.5t17 -113.5h-252q12 55 14.5 109.5t2.5 267.5v359l-123 -58q-38 69 -85 98zM463 -188l568 1544q51 139 61 211q84 -3 110 -3q11 0 123 4l-568 -1544q-21 -53 -39.5 -117.5t-21.5 -93.5 q-84 3 -111 3q-14 0 -122 -4zM1027 185v38q166 546 206 729q104 -2 207 0l-161 -623h180q0 233 -10 283q108 -2 219 0q-10 -45 -10 -283q50 0 93 2q-1 -5 -1 -74t1 -77q-85 5 -93 5q0 -137 10 -185q-110 2 -219 0q10 48 10 185h-432z" />
<glyph unicode="&#xbd;" horiz-adv-x="1822" d="M102 1189v20q73 25 408 169l26 -11q-7 -51 -9 -113.5t-2 -268.5v-195q0 -207 3 -263.5t17 -113.5h-252q12 55 14.5 109.5t2.5 267.5v359l-123 -58q-38 69 -85 98zM453 -188l568 1544q50 134 60 211q84 -3 111 -3q11 0 123 4l-569 -1544q-52 -135 -60 -211q-84 3 -112 3 q-13 0 -121 -4zM1124 3v117q0 65 22 121.5t57.5 97t78.5 76.5t86 67.5t78.5 62.5t57.5 69t22 80q0 58 -35 91.5t-98 33.5q-111 0 -167 -93h-29q-14 50 -72 145q42 35 120 63.5t163 28.5q165 0 250 -75.5t85 -202.5q0 -80 -37 -141t-91.5 -101.5t-110 -78t-101 -91.5 t-56.5 -122q295 0 378 16q-5 -66 -5 -89q0 -48 5 -79q-50 4 -157 4h-444z" />
<glyph unicode="&#xbe;" horiz-adv-x="1884" d="M86 487q12 24 31.5 61t31.5 61.5t16 39.5h28q58 -98 179 -98q79 0 116 35.5t37 110.5q0 74 -33.5 107t-108.5 33h-40q-18 0 -58 -2.5t-53 -3.5v15q0 14 0.5 32t0.5 27q0 12 -0.5 45t-0.5 34q19 -1 46 -3t45 -3.5t28 -1.5h24q133 0 133 130q0 60 -37.5 92t-105.5 32 q-54 0 -95.5 -24.5t-59.5 -61.5h-30q-13 39 -79 138q130 90 281 90q162 0 251.5 -67t89.5 -190q0 -64 -37 -116.5t-100 -78.5v-5q159 -56 159 -210q0 -146 -95 -224.5t-268 -78.5q-167 0 -296 85zM546 -188l568 1544q51 139 61 211q84 -3 110 -3q11 0 123 4l-568 -1544 q-21 -53 -39.5 -117.5t-21.5 -93.5q-84 3 -111 3q-14 0 -122 -4zM1089 185v38q165 546 205 729q104 -2 207 0l-161 -623h181q0 228 -11 283q108 -2 220 0q-11 -50 -11 -283q50 0 93 2q-1 -5 -1 -74t1 -77q-85 5 -93 5q0 -132 11 -185q-110 2 -220 0q11 53 11 185h-432z" />
<glyph unicode="&#xbf;" horiz-adv-x="728" d="M41 -83q0 70 29 128.5t70.5 100.5t83 82.5t70.5 92t29 110.5q0 31 -2 64.5t-4 51.5l-2 18q74 -2 111 -2q48 0 112 2v-153q0 -63 -26 -119t-63 -98.5t-74 -84t-63 -94t-26 -110.5q0 -130 146 -130q72 0 127 31.5t76 80.5h28q27 -92 73 -186q-59 -44 -142 -74t-174 -30 q-183 0 -281 84t-98 235zM290 849q0 56 36 90t97 34q62 0 97.5 -34t35.5 -90q0 -55 -35.5 -89t-97.5 -34q-61 0 -97 34t-36 89z" />
<glyph unicode="&#xc0;" horiz-adv-x="1126" d="M39 -3l441 1375h165l442 -1374q-75 3 -151 3q-56 0 -128 -3l-90 306h-347l-89 -306q-72 3 -105 3q-46 0 -138 -4zM213 1637q44 -2 158 -2q105 0 133 1q28 -43 147 -209v-14h-150q-24 21 -70 56.5t-110 84.5t-108 83zM422 482h244l-122 416z" />
<glyph unicode="&#xc1;" horiz-adv-x="1126" d="M39 -3l441 1375h165l442 -1374q-75 3 -151 3q-56 0 -128 -3l-90 306h-347l-89 -306q-72 3 -105 3q-46 0 -138 -4zM422 482h244l-122 416zM493 1413v14q119 166 147 209q28 -1 133 -1q114 0 158 2q-44 -34 -108 -83t-110 -84.5t-70 -56.5h-150z" />
<glyph unicode="&#xc2;" horiz-adv-x="1126" d="M39 -3l441 1375h165l442 -1374q-75 3 -151 3q-56 0 -128 -3l-90 306h-347l-89 -306q-72 3 -105 3q-46 0 -138 -4zM220 1418l251 241h181l252 -241h-207l-137 81l-135 -81h-205zM422 482h244l-122 416z" />
<glyph unicode="&#xc3;" horiz-adv-x="1126" d="M39 -3l441 1375h165l442 -1374q-75 3 -151 3q-56 0 -128 -3l-90 306h-347l-89 -306q-72 3 -105 3q-46 0 -138 -4zM236 1456q8 93 57.5 150t137.5 57q45 0 113.5 -35t103.5 -35q54 0 68 75l146 -24q-22 -222 -215 -222q-38 0 -70 12t-50.5 26.5t-40.5 26.5t-41 12 q-53 0 -69 -73zM422 482h244l-122 416z" />
<glyph unicode="&#xc4;" horiz-adv-x="1126" d="M39 -3l441 1375h165l442 -1374q-75 3 -151 3q-56 0 -128 -3l-90 306h-347l-89 -306q-72 3 -105 3q-46 0 -138 -4zM246 1544q0 56 34 89.5t94 33.5t94 -33.5t34 -89.5t-34 -89.5t-94 -33.5t-94 33.5t-34 89.5zM422 482h244l-122 416zM621 1541q0 56 34 89.5t94 33.5 t94 -33.5t34 -89.5t-34 -89.5t-94 -33.5t-94 33.5t-34 89.5z" />
<glyph unicode="&#xc5;" horiz-adv-x="1126" d="M39 -3l420 1310q-53 21 -82 65.5t-29 106.5q0 89 56.5 139t154.5 50t154.5 -50t56.5 -139q0 -124 -104 -170l421 -1311q-75 3 -151 3q-56 0 -128 -3l-90 306h-347l-89 -306q-72 3 -105 3q-46 0 -138 -4zM422 482h244l-122 416zM502 1481q0 -31 16.5 -48.5t40.5 -17.5 t40.5 17.5t16.5 48.5t-16 46.5t-41 15.5t-41 -15.5t-16 -46.5z" />
<glyph unicode="&#xc6;" horiz-adv-x="1514" d="M2 -3l496 1365h856q-5 -49 -5 -83q0 -55 3 -102q-68 12 -163.5 15t-354.5 3q7 -59 25 -196t27 -209q364 3 459 15q-5 -72 -5 -102q0 -27 5 -94q-117 15 -440 15l54 -450q208 0 277.5 3.5t160.5 21.5q-4 -65 -4 -107q0 -52 4 -92h-684q3 18 3 80q0 46 -25 249h-312 q-15 -44 -54.5 -159t-58.5 -171q-46 2 -122 2q-54 0 -142 -4zM440 511h230l-54 511z" />
<glyph unicode="&#xc7;" horiz-adv-x="1008" d="M102 701q0 342 143.5 508t430.5 166q74 0 156 -20.5t143 -55.5q-12 -24 -29 -55.5t-25 -47t-16 -36t-11 -39.5h-18q-77 70 -217 70q-96 0 -155.5 -45t-92 -157t-32.5 -301q0 -127 14.5 -220t39.5 -150t64 -91t80.5 -46t96.5 -12q128 0 275 47l20 -16l-27 -174 q-135 -32 -226 -38l-10 -49q61 -16 92.5 -51t31.5 -96q0 -90 -86.5 -143t-217.5 -53q-4 0 -14.5 0.5t-14.5 0.5l-33 47q159 56 159 138q0 66 -106 80l54 131q-117 13 -201.5 56t-146 125.5t-91.5 213.5t-30 313z" />
<glyph unicode="&#xc8;" horiz-adv-x="1015" d="M121 0q14 67 16.5 143t2.5 384v308q0 308 -2.5 384t-16.5 143h800q-6 -59 -6 -83q0 -39 4 -102q-69 12 -158 15t-345 3v-405q358 3 454 15q-4 -57 -4 -102q0 -41 4 -94q-117 15 -454 15v-450q159 0 229 1t149 6.5t140 17.5q-4 -65 -4 -107q0 -52 4 -92h-813zM224 1637 q44 -2 158 -2q105 0 133 1q18 -27 148 -209v-14h-151q-24 21 -70 56.5t-110 84.5t-108 83z" />
<glyph unicode="&#xc9;" horiz-adv-x="1015" d="M121 0q14 67 16.5 143t2.5 384v308q0 308 -2.5 384t-16.5 143h800q-6 -59 -6 -83q0 -39 4 -102q-69 12 -158 15t-345 3v-405q358 3 454 15q-4 -57 -4 -102q0 -41 4 -94q-117 15 -454 15v-450q159 0 229 1t149 6.5t140 17.5q-4 -65 -4 -107q0 -52 4 -92h-813zM409 1413v14 q119 166 147 209q28 -1 133 -1q114 0 158 2q-44 -34 -108 -83t-110 -84.5t-70 -56.5h-150z" />
<glyph unicode="&#xca;" horiz-adv-x="1015" d="M121 0q14 67 16.5 143t2.5 384v308q0 308 -2.5 384t-16.5 143h800q-6 -59 -6 -83q0 -39 4 -102q-69 12 -158 15t-345 3v-405q358 3 454 15q-4 -57 -4 -102q0 -41 4 -94q-117 15 -454 15v-450q159 0 229 1t149 6.5t140 17.5q-4 -65 -4 -107q0 -52 4 -92h-813zM250 1419 l220 226h142l221 -226h-142l-151 88l-150 -88h-140z" />
<glyph unicode="&#xcb;" horiz-adv-x="1015" d="M121 0q14 67 16.5 143t2.5 384v308q0 308 -2.5 384t-16.5 143h800q-6 -59 -6 -83q0 -39 4 -102q-69 12 -158 15t-345 3v-405q358 3 454 15q-4 -57 -4 -102q0 -41 4 -94q-117 15 -454 15v-450q159 0 229 1t149 6.5t140 17.5q-4 -65 -4 -107q0 -52 4 -92h-813zM229 1544 q0 56 34 89.5t94 33.5t94 -33.5t34 -89.5t-34 -89.5t-94 -33.5t-94 33.5t-34 89.5zM604 1541q0 56 34 89.5t94 33.5t94 -33.5t34 -89.5t-34 -89.5t-94 -33.5t-94 33.5t-34 89.5z" />
<glyph unicode="&#xcc;" horiz-adv-x="681" d="M7 1637q44 -2 158 -2q105 0 133 1q28 -43 147 -209v-14h-150q-24 21 -70 56.5t-110 84.5t-108 83zM186 -1q14 72 17 150.5t3 377.5v308q0 299 -3 377.5t-17 150.5q99 -3 155 -3q44 0 155 3q-14 -72 -17 -150.5t-3 -377.5v-308q0 -299 3 -377.5t17 -150.5q-70 2 -155 2 q-89 0 -155 -2z" />
<glyph unicode="&#xcd;" horiz-adv-x="681" d="M186 -1q14 72 17 150.5t3 377.5v308q0 299 -3 377.5t-17 150.5q99 -3 155 -3q44 0 155 3q-14 -72 -17 -150.5t-3 -377.5v-308q0 -299 3 -377.5t17 -150.5q-70 2 -155 2q-89 0 -155 -2zM224 1413v14q130 182 148 209q28 -1 133 -1q114 0 158 2q-44 -34 -108 -83 t-110 -84.5t-70 -56.5h-151z" />
<glyph unicode="&#xce;" horiz-adv-x="681" d="M50 1419l220 226h143l220 -226h-141l-152 88l-150 -88h-140zM186 -1q14 72 17 150.5t3 377.5v308q0 299 -3 377.5t-17 150.5q99 -3 155 -3q44 0 155 3q-14 -72 -17 -150.5t-3 -377.5v-308q0 -299 3 -377.5t17 -150.5q-70 2 -155 2q-89 0 -155 -2z" />
<glyph unicode="&#xcf;" horiz-adv-x="681" d="M26 1544q0 56 34 89.5t94 33.5t94 -33.5t34 -89.5t-34 -89.5t-94 -33.5t-94 33.5t-34 89.5zM186 -1q14 72 17 150.5t3 377.5v308q0 299 -3 377.5t-17 150.5q99 -3 155 -3q44 0 155 3q-14 -72 -17 -150.5t-3 -377.5v-308q0 -299 3 -377.5t17 -150.5q-70 2 -155 2 q-89 0 -155 -2zM400 1541q0 56 34 89.5t94 33.5t94 -33.5t34 -89.5t-34 -89.5t-94 -33.5t-94 33.5t-34 89.5z" />
<glyph unicode="&#xd0;" horiz-adv-x="1124" d="M20 612q1 8 1 85t-1 87q69 -4 126 -4v62q0 320 -1.5 395t-10.5 125q221 13 367 13q80 0 144.5 -7t129 -26.5t113.5 -51t92 -83t70.5 -121.5t43 -167t15.5 -218q0 -142 -19.5 -253.5t-57.5 -189t-88.5 -131t-118 -84t-139.5 -43.5t-160 -13q-74 0 -172 3.5t-159 6.5l-61 3 q9 50 10.5 124.5t1.5 395.5v96q-63 0 -126 -4zM418 169q94 -4 127 -4q61 0 110.5 26.5t90 84.5t63 162.5t22.5 249.5q0 127 -15.5 220t-40 147.5t-63 87t-77 43.5t-88.5 11l-129 -5v-412h47q93 0 151 4q-1 -8 -1 -85t1 -87q-68 4 -151 4h-47v-447z" />
<glyph unicode="&#xd1;" horiz-adv-x="1217" d="M124 -1q17 68 19.5 141t2.5 387v610q0 107 -2 143t-12 95h177l498 -808v268q0 302 -3.5 380.5t-20.5 147.5q111 -3 152 -3q43 0 151 3q-14 -69 -16.5 -145t-2.5 -383v-846h-177l-483 771v-233q0 -301 3 -380t18 -148q-74 2 -154 2q-78 0 -150 -2zM284 1456q8 93 57.5 150 t137.5 57q45 0 113.5 -35t103.5 -35q54 0 68 75l146 -24q-22 -222 -215 -222q-48 0 -85 19t-64.5 38.5t-51.5 19.5q-54 0 -70 -73z" />
<glyph unicode="&#xd2;" horiz-adv-x="1216" d="M88 695q0 344 127.5 512.5t392.5 168.5t392.5 -168.5t127.5 -512.5q0 -358 -127.5 -533.5t-392.5 -175.5t-392.5 175.5t-127.5 533.5zM280 1637q44 -2 157 -2q105 0 133 1q18 -27 148 -209v-14h-151q-25 21 -70 56t-109.5 84.5t-107.5 83.5zM365 686q0 -193 28 -309 t80 -164.5t135 -48.5t135.5 48.5t80.5 164.5t28 309q0 196 -28.5 310t-80 158t-135.5 44t-135.5 -44t-79.5 -157.5t-28 -310.5z" />
<glyph unicode="&#xd3;" horiz-adv-x="1216" d="M88 695q0 344 127.5 512.5t392.5 168.5t392.5 -168.5t127.5 -512.5q0 -358 -127.5 -533.5t-392.5 -175.5t-392.5 175.5t-127.5 533.5zM365 686q0 -193 28 -309t80 -164.5t135 -48.5t135.5 48.5t80.5 164.5t28 309q0 196 -28.5 310t-80 158t-135.5 44t-135.5 -44 t-79.5 -157.5t-28 -310.5zM501 1413v14q119 166 147 209q28 -1 133 -1q114 0 158 2q-44 -34 -108 -83t-110 -84.5t-70 -56.5h-150z" />
<glyph unicode="&#xd4;" horiz-adv-x="1216" d="M88 695q0 344 127.5 512.5t392.5 168.5t392.5 -168.5t127.5 -512.5q0 -358 -127.5 -533.5t-392.5 -175.5t-392.5 175.5t-127.5 533.5zM333 1419l220 226h142l220 -226h-141l-151 88l-150 -88h-140zM365 686q0 -193 28 -309t80 -164.5t135 -48.5t135.5 48.5t80.5 164.5 t28 309q0 196 -28.5 310t-80 158t-135.5 44t-135.5 -44t-79.5 -157.5t-28 -310.5z" />
<glyph unicode="&#xd5;" horiz-adv-x="1216" d="M88 695q0 344 127.5 512.5t392.5 168.5t392.5 -168.5t127.5 -512.5q0 -358 -127.5 -533.5t-392.5 -175.5t-392.5 175.5t-127.5 533.5zM275 1456q8 92 58 149.5t138 57.5q45 0 113.5 -35t103.5 -35q54 0 68 75l146 -24q-22 -222 -215 -222q-38 0 -70 12t-50.5 26.5 t-40.5 26.5t-41 12q-53 0 -69 -73zM365 686q0 -193 28 -309t80 -164.5t135 -48.5t135.5 48.5t80.5 164.5t28 309q0 196 -28.5 310t-80 158t-135.5 44t-135.5 -44t-79.5 -157.5t-28 -310.5z" />
<glyph unicode="&#xd6;" horiz-adv-x="1216" d="M88 695q0 344 127.5 512.5t392.5 168.5t392.5 -168.5t127.5 -512.5q0 -358 -127.5 -533.5t-392.5 -175.5t-392.5 175.5t-127.5 533.5zM293 1544q0 56 34 89.5t94 33.5t94 -33.5t34 -89.5t-34 -89.5t-94 -33.5t-94 33.5t-34 89.5zM365 686q0 -193 28 -309t80 -164.5 t135 -48.5t135.5 48.5t80.5 164.5t28 309q0 196 -28.5 310t-80 158t-135.5 44t-135.5 -44t-79.5 -157.5t-28 -310.5zM668 1541q0 56 34 89.5t94 33.5t94 -33.5t34 -89.5t-34 -89.5t-94 -33.5t-94 33.5t-34 89.5z" />
<glyph unicode="&#xd7;" horiz-adv-x="1112" d="M162 840q12 8 70.5 64.5t70.5 69.5q105 -116 128 -134l114 -110l114 110q58 56 131 137q13 -16 69 -72t68 -66q-74 -60 -131 -117l-122 -117l122 -117q70 -66 132 -116q-12 -9 -70.5 -64.5t-71.5 -69.5q-83 89 -127 133l-114 110l-114 -109q-30 -29 -131 -138 q-11 15 -64 68.5t-72 70.5q95 81 129 115l123 117l-122 117q-57 57 -132 118z" />
<glyph unicode="&#xd8;" horiz-adv-x="1216" d="M88 695q0 344 127.5 512.5t392.5 168.5q96 0 172 -21l8 21q57 150 58 162q85 -3 154 0l-92 -243q220 -150 220 -600q0 -358 -127.5 -533.5t-392.5 -175.5q-103 0 -187 26q-53 -141 -59 -186q-83 3 -148 0l91 246q-217 158 -217 623zM365 686q0 -233 37 -350l312 839 q-45 23 -106 23q-84 0 -135.5 -44t-79.5 -157.5t-28 -310.5zM492 198q47 -34 116 -34q83 0 135.5 48.5t80.5 164.5t28 309q0 236 -40 355z" />
<glyph unicode="&#xd9;" horiz-adv-x="1216" d="M113 1363q105 -3 157 -3q54 0 159 3q-15 -69 -17.5 -145t-2.5 -383v-440q0 -230 199 -230q200 0 200 230v440q0 301 -3 379.5t-18 148.5q105 -3 159 -3q53 0 158 3q-15 -70 -18.5 -151.5t-3.5 -376.5v-413q0 -206 -121.5 -320.5t-352.5 -114.5t-352.5 114.5t-121.5 320.5 v413q0 301 -3 380t-18 148zM265 1637q44 -2 158 -2q105 0 133 1q28 -43 147 -209v-14h-150q-24 21 -70 56.5t-110 84.5t-108 83z" />
<glyph unicode="&#xda;" horiz-adv-x="1216" d="M113 1363q105 -3 157 -3q54 0 159 3q-15 -69 -17.5 -145t-2.5 -383v-440q0 -230 199 -230q200 0 200 230v440q0 301 -3 379.5t-18 148.5q105 -3 159 -3q53 0 158 3q-15 -70 -18.5 -151.5t-3.5 -376.5v-413q0 -206 -121.5 -320.5t-352.5 -114.5t-352.5 114.5t-121.5 320.5 v413q0 301 -3 380t-18 148zM484 1413v14q130 182 148 209q28 -1 133 -1q114 0 158 2q-44 -34 -108 -83t-110 -84.5t-70 -56.5h-151z" />
<glyph unicode="&#xdb;" horiz-adv-x="1216" d="M113 1363q105 -3 157 -3q54 0 159 3q-15 -69 -17.5 -145t-2.5 -383v-440q0 -230 199 -230q200 0 200 230v440q0 301 -3 379.5t-18 148.5q105 -3 159 -3q53 0 158 3q-15 -70 -18.5 -151.5t-3.5 -376.5v-413q0 -206 -121.5 -320.5t-352.5 -114.5t-352.5 114.5t-121.5 320.5 v413q0 301 -3 380t-18 148zM310 1419l220 226h143l220 -226h-141l-152 88l-149 -88h-141z" />
<glyph unicode="&#xdc;" horiz-adv-x="1216" d="M113 1363q105 -3 157 -3q54 0 159 3q-15 -69 -17.5 -145t-2.5 -383v-440q0 -230 199 -230q200 0 200 230v440q0 301 -3 379.5t-18 148.5q105 -3 159 -3q53 0 158 3q-15 -70 -18.5 -151.5t-3.5 -376.5v-413q0 -206 -121.5 -320.5t-352.5 -114.5t-352.5 114.5t-121.5 320.5 v413q0 301 -3 380t-18 148zM293 1544q0 56 34 89.5t94 33.5t94 -33.5t34 -89.5t-34 -89.5t-94 -33.5t-94 33.5t-34 89.5zM668 1541q0 56 34 89.5t94 33.5t94 -33.5t34 -89.5t-34 -89.5t-94 -33.5t-94 33.5t-34 89.5z" />
<glyph unicode="&#xdd;" horiz-adv-x="1116" d="M10 1364q144 -4 161 -4q37 0 139 2q149 -347 248 -534q134 254 248 534q102 -2 139 -2q17 0 161 4q-197 -347 -414 -780q0 -348 3 -431t20 -154q-72 2 -157 2q-83 0 -155 -2q14 70 17 156t3 429q-211 425 -413 780zM399 1413v14q130 182 148 209q28 -1 133 -1 q114 0 158 2q-44 -34 -108 -83t-110 -84.5t-70 -56.5h-151z" />
<glyph unicode="&#xde;" horiz-adv-x="1114" d="M121 -1q14 67 16.5 143t2.5 385v308q0 309 -2.5 385t-16.5 143q74 -2 153 -2q88 0 158 2q-20 -94 -20 -239q84 2 114 2q255 0 379.5 -113t124.5 -307q0 -222 -135 -333.5t-396 -111.5h-87q0 -168 20 -262q-70 2 -158 2q-79 0 -153 -2zM412 436h96q244 0 244 258 q0 127 -58.5 191.5t-153.5 64.5l-128 -6v-508z" />
<glyph unicode="&#xdf;" horiz-adv-x="1092" d="M111 -1q13 67 15.5 121.5t2.5 205.5v684q0 186 112 281t285 95q171 0 276.5 -90.5t105.5 -212.5q0 -57 -20.5 -105.5t-50 -82t-59 -63t-50 -63t-20.5 -69.5q0 -33 16.5 -59.5t42.5 -45t57.5 -36.5t63.5 -40t58 -49t42.5 -71t16.5 -99q0 -138 -100.5 -225.5t-247.5 -87.5 q-121 0 -206 44q15 34 32 90.5t21 92.5h25q21 -26 47 -39t74 -13q43 0 73.5 31t30.5 83q0 56 -29.5 96.5t-71.5 67t-84 54.5t-71.5 75.5t-29.5 113.5q0 53 20.5 97t50 74.5t59 60t50 70t20.5 88.5q0 66 -40 101t-99 35q-70 0 -114.5 -44t-44.5 -131v-708q0 -128 3 -190.5 t15 -136.5q-68 2 -138 2q-73 0 -139 -2z" />
<glyph unicode="&#xe0;" horiz-adv-x="973" d="M71 285q0 139 104.5 218t304.5 79h87v112q0 60 -35 94t-103 34q-138 0 -223 -97h-26q-4 18 -7 29.5t-10.5 27t-12 23.5t-22 36t-29.5 48q64 42 151.5 69.5t181.5 27.5q196 0 287.5 -80t91.5 -246v-453q0 -37 18 -50.5t76 -13.5q-18 -96 -18 -116q-57 -31 -127 -31 q-64 0 -111.5 28.5t-57.5 89.5q-59 -126 -240 -126q-134 0 -207 80t-73 217zM227 1394q44 -2 148 -2q95 0 123 1q22 -41 67.5 -123.5t69.5 -126.5v-15h-130q-166 145 -278 266zM316 280q0 -62 30 -94.5t79 -32.5q61 0 101.5 42t40.5 111v122h-97q-71 0 -112.5 -37 t-41.5 -111z" />
<glyph unicode="&#xe1;" horiz-adv-x="973" d="M71 285q0 139 104.5 218t304.5 79h87v112q0 60 -35 94t-103 34q-138 0 -223 -97h-26q-4 18 -7 29.5t-10.5 27t-12 23.5t-22 36t-29.5 48q64 42 151.5 69.5t181.5 27.5q196 0 287.5 -80t91.5 -246v-453q0 -37 18 -50.5t76 -13.5q-18 -96 -18 -116q-57 -31 -127 -31 q-64 0 -111.5 28.5t-57.5 89.5q-59 -126 -240 -126q-134 0 -207 80t-73 217zM316 280q0 -62 30 -94.5t79 -32.5q61 0 101.5 42t40.5 111v122h-97q-71 0 -112.5 -37t-41.5 -111zM371 1128v15q24 44 69.5 126.5t67.5 123.5q28 -1 123 -1q103 0 147 2q-116 -125 -277 -266h-130 z" />
<glyph unicode="&#xe2;" horiz-adv-x="973" d="M71 285q0 139 104.5 218t304.5 79h87v112q0 60 -35 94t-103 34q-138 0 -223 -97h-26q-4 18 -7 29.5t-10.5 27t-12 23.5t-22 36t-29.5 48q64 42 151.5 69.5t181.5 27.5q196 0 287.5 -80t91.5 -246v-453q0 -37 18 -50.5t76 -13.5q-18 -96 -18 -116q-57 -31 -127 -31 q-64 0 -111.5 28.5t-57.5 89.5q-59 -126 -240 -126q-134 0 -207 80t-73 217zM116 1128l251 263h181l252 -263h-187l-157 103l-156 -103h-184zM316 280q0 -62 30 -94.5t79 -32.5q61 0 101.5 42t40.5 111v122h-97q-71 0 -112.5 -37t-41.5 -111z" />
<glyph unicode="&#xe3;" horiz-adv-x="973" d="M71 285q0 139 104.5 218t304.5 79h87v112q0 60 -35 94t-103 34q-138 0 -223 -97h-26q-4 18 -7 29.5t-10.5 27t-12 23.5t-22 36t-29.5 48q64 42 151.5 69.5t181.5 27.5q196 0 287.5 -80t91.5 -246v-453q0 -37 18 -50.5t76 -13.5q-18 -96 -18 -116q-57 -31 -127 -31 q-64 0 -111.5 28.5t-57.5 89.5q-59 -126 -240 -126q-134 0 -207 80t-73 217zM160 1186q8 93 57.5 150t137.5 57q45 0 113.5 -35t103.5 -35q54 0 68 75l146 -25q-22 -221 -215 -221q-48 0 -85 19t-64.5 38.5t-51.5 19.5q-54 0 -70 -73zM316 280q0 -62 30 -94.5t79 -32.5 q61 0 101.5 42t40.5 111v122h-97q-71 0 -112.5 -37t-41.5 -111z" />
<glyph unicode="&#xe4;" horiz-adv-x="973" d="M71 285q0 139 104.5 218t304.5 79h87v112q0 60 -35 94t-103 34q-138 0 -223 -97h-26q-4 18 -7 29.5t-10.5 27t-12 23.5t-22 36t-29.5 48q64 42 151.5 69.5t181.5 27.5q196 0 287.5 -80t91.5 -246v-453q0 -37 18 -50.5t76 -13.5q-18 -96 -18 -116q-57 -31 -127 -31 q-64 0 -111.5 28.5t-57.5 89.5q-59 -126 -240 -126q-134 0 -207 80t-73 217zM163 1260q0 56 34 89t94 33t94 -33t34 -89t-34 -89.5t-94 -33.5t-94 33.5t-34 89.5zM316 280q0 -62 30 -94.5t79 -32.5q61 0 101.5 42t40.5 111v122h-97q-71 0 -112.5 -37t-41.5 -111zM538 1256 q0 56 34 89.5t94 33.5t94 -33.5t34 -89.5t-34 -89t-94 -33t-94 33t-34 89z" />
<glyph unicode="&#xe5;" horiz-adv-x="973" d="M71 285q0 139 104.5 218t304.5 79h87v112q0 60 -35 94t-103 34q-138 0 -223 -97h-26q-4 18 -7 29.5t-10.5 27t-12 23.5t-22 36t-29.5 48q64 42 151.5 69.5t181.5 27.5q196 0 287.5 -80t91.5 -246v-453q0 -37 18 -50.5t76 -13.5q-18 -96 -18 -116q-57 -31 -127 -31 q-64 0 -111.5 28.5t-57.5 89.5q-59 -126 -240 -126q-134 0 -207 80t-73 217zM259 1268q0 89 56.5 139t154.5 50t154.5 -50t56.5 -139t-57 -139.5t-154 -50.5t-154 50.5t-57 139.5zM316 280q0 -62 30 -94.5t79 -32.5q61 0 101.5 42t40.5 111v122h-97q-71 0 -112.5 -37 t-41.5 -111zM413 1270q0 -31 16.5 -48.5t40.5 -17.5t40.5 17.5t16.5 48.5t-16 46.5t-41 15.5t-41 -15.5t-16 -46.5z" />
<glyph unicode="&#xe6;" horiz-adv-x="1435" d="M72 285q0 139 104.5 218t304.5 79h87v112q0 60 -35 94t-103 34q-138 0 -223 -97h-26q-4 18 -7 29.5t-10.5 27t-12 23.5t-22 36t-29.5 48q64 42 151.5 69.5t181.5 27.5q179 0 279 -97q105 97 256 97q182 0 270.5 -112t88.5 -314v-138h-523q4 -142 55.5 -202t149.5 -60 q130 0 257 55l19 -8l-22 -180q-47 -13 -122.5 -26.5t-121.5 -13.5q-207 0 -319 109q-106 -108 -297 -108q-156 0 -243.5 80.5t-87.5 216.5zM317 280q0 -62 30 -94.5t79 -32.5q61 0 101.5 42t40.5 111v122h-97q-71 0 -112.5 -37t-41.5 -111zM807 575h279v14q0 123 -28.5 178 t-93.5 55q-76 0 -113 -52t-44 -195z" />
<glyph unicode="&#xe7;" horiz-adv-x="818" d="M85 505q0 236 119.5 358.5t319.5 122.5q65 0 140 -18t123 -43q-66 -130 -72 -187h-30q-69 69 -164 69q-188 0 -188 -339q0 -302 202 -302q89 0 208 48l19 -7l-23 -178q-112 -37 -189 -41l-10 -49q125 -32 125 -147q0 -90 -87 -143t-218 -53q-4 0 -14.5 0.5t-14.5 0.5 l-33 47q159 56 159 138q0 66 -106 80l57 135q-163 30 -243 154t-80 354z" />
<glyph unicode="&#xe8;" horiz-adv-x="937" d="M86 485q0 501 407 501q182 0 270.5 -112t88.5 -314v-138h-523q4 -142 55.5 -202t149.5 -60q130 0 257 55l19 -8l-23 -180q-48 -13 -122.5 -26.5t-120.5 -13.5q-84 0 -150.5 13.5t-125.5 47.5t-98 89.5t-61.5 143.5t-22.5 204zM196 1394q44 -2 147 -2q95 0 123 1 q22 -41 67.5 -123.5t69.5 -126.5v-15h-130q-161 141 -277 266zM332 575h279v14q0 123 -29 178t-94 55q-50 0 -80.5 -19.5t-50.5 -74.5t-25 -153z" />
<glyph unicode="&#xe9;" horiz-adv-x="937" d="M86 485q0 501 407 501q182 0 270.5 -112t88.5 -314v-138h-523q4 -142 55.5 -202t149.5 -60q130 0 257 55l19 -8l-23 -180q-48 -13 -122.5 -26.5t-120.5 -13.5q-84 0 -150.5 13.5t-125.5 47.5t-98 89.5t-61.5 143.5t-22.5 204zM332 575h279v14q0 123 -29 178t-94 55 q-50 0 -80.5 -19.5t-50.5 -74.5t-25 -153zM390 1128v15q24 44 69.5 126.5t67.5 123.5q28 -1 123 -1q104 0 148 2q-112 -121 -278 -266h-130z" />
<glyph unicode="&#xea;" horiz-adv-x="937" d="M86 485q0 501 407 501q182 0 270.5 -112t88.5 -314v-138h-523q4 -142 55.5 -202t149.5 -60q130 0 257 55l19 -8l-23 -180q-48 -13 -122.5 -26.5t-120.5 -13.5q-84 0 -150.5 13.5t-125.5 47.5t-98 89.5t-61.5 143.5t-22.5 204zM150 1128l250 263h182l252 -263h-187 l-158 103l-155 -103h-184zM332 575h279v14q0 123 -29 178t-94 55q-50 0 -80.5 -19.5t-50.5 -74.5t-25 -153z" />
<glyph unicode="&#xeb;" horiz-adv-x="937" d="M86 485q0 501 407 501q182 0 270.5 -112t88.5 -314v-138h-523q4 -142 55.5 -202t149.5 -60q130 0 257 55l19 -8l-23 -180q-48 -13 -122.5 -26.5t-120.5 -13.5q-84 0 -150.5 13.5t-125.5 47.5t-98 89.5t-61.5 143.5t-22.5 204zM172 1260q0 56 34 89t94 33t94 -33t34 -89 t-34 -89.5t-94 -33.5t-94 33.5t-34 89.5zM332 575h279v14q0 123 -29 178t-94 55q-50 0 -80.5 -19.5t-50.5 -74.5t-25 -153zM547 1256q0 56 34 89.5t94 33.5t94 -33.5t34 -89.5t-34 -89t-94 -33t-94 33t-34 89z" />
<glyph unicode="&#xec;" horiz-adv-x="496" d="M-67 1394q44 -2 148 -2q95 0 123 1q22 -41 67.5 -123.5t69.5 -126.5v-15h-130q-166 145 -278 266zM111 -1q12 67 14.5 121.5t2.5 205.5v321q0 150 -2.5 204.5t-14.5 121.5q66 -2 139 -2q70 0 136 2q-12 -68 -14.5 -119.5t-2.5 -206.5v-321q0 -156 2.5 -207.5t14.5 -119.5 q-66 2 -136 2q-73 0 -139 -2z" />
<glyph unicode="&#xed;" horiz-adv-x="496" d="M111 -1q12 67 14.5 121.5t2.5 205.5v321q0 150 -2.5 204.5t-14.5 121.5q66 -2 139 -2q70 0 136 2q-12 -68 -14.5 -119.5t-2.5 -206.5v-321q0 -156 2.5 -207.5t14.5 -119.5q-66 2 -136 2q-73 0 -139 -2zM135 1128v15q24 44 69.5 126.5t67.5 123.5q28 -1 123 -1 q104 0 148 2q-112 -121 -278 -266h-130z" />
<glyph unicode="&#xee;" horiz-adv-x="496" d="M-102 1128l250 263h182l252 -263h-187l-157 103l-156 -103h-184zM111 -1q12 67 14.5 121.5t2.5 205.5v321q0 150 -2.5 204.5t-14.5 121.5q66 -2 139 -2q70 0 136 2q-12 -68 -14.5 -119.5t-2.5 -206.5v-321q0 -156 2.5 -207.5t14.5 -119.5q-66 2 -136 2q-73 0 -139 -2z " />
<glyph unicode="&#xef;" horiz-adv-x="496" d="M-72 1260q0 56 34 89t94 33t94 -33t34 -89t-34 -89.5t-94 -33.5t-94 33.5t-34 89.5zM111 -1q12 67 14.5 121.5t2.5 205.5v321q0 150 -2.5 204.5t-14.5 121.5q66 -2 139 -2q70 0 136 2q-12 -68 -14.5 -119.5t-2.5 -206.5v-321q0 -156 2.5 -207.5t14.5 -119.5q-66 2 -136 2 q-73 0 -139 -2zM303 1256q0 56 34 89.5t94 33.5t94 -33.5t34 -89.5t-34 -89t-94 -33t-94 33t-34 89z" />
<glyph unicode="&#xf0;" d="M82 439q0 107 31 192.5t85.5 139.5t126 82.5t154.5 28.5q97 0 174 -43q-16 253 -133 328l-76 -120q-54 2 -87 2q-25 0 -109 -3l113 157q-67 -1 -110.5 -11.5t-89.5 -35.5l-11 13l31 173q104 34 232 34q31 0 59 -3l50 86q20 -2 99 -2q95 0 119 1l-101 -127 q261 -124 261 -607v-127q0 -301 -103 -455.5t-300 -154.5t-306 122t-109 330zM329 443q0 -144 47 -213t116 -69q162 0 162 293q0 122 -42.5 188t-122.5 66q-71 0 -115.5 -67t-44.5 -198z" />
<glyph unicode="&#xf1;" horiz-adv-x="1024" d="M105 974q96 -3 138 -3q37 0 133 3l-4 -87q75 99 223 99q142 0 222.5 -84t80.5 -269v-307q0 -156 2.5 -207.5t15.5 -119.5q-66 2 -137 2q-72 0 -138 -2q12 67 14.5 121.5t2.5 205.5v304q0 107 -25.5 149.5t-87.5 42.5q-72 0 -125.5 -65.5t-53.5 -174.5v-256 q0 -156 2.5 -207.5t13.5 -119.5q-66 2 -136 2q-72 0 -138 -2q13 67 15.5 121.5t2.5 205.5v398q0 152 -21 250zM220 1186q8 92 58 149.5t138 57.5q45 0 113.5 -35t103.5 -35q53 0 67 75l147 -25q-22 -221 -215 -221q-38 0 -70 12t-50.5 26.5t-40.5 26.5t-41 12q-54 0 -70 -73 z" />
<glyph unicode="&#xf2;" horiz-adv-x="966" d="M74 505q0 231 104.5 356t304.5 125t305 -125t105 -356q0 -277 -103.5 -397.5t-306.5 -120.5q-100 0 -173.5 27.5t-127.5 87.5t-81 160.5t-27 242.5zM226 1394q44 -2 148 -2q95 0 123 1q22 -41 67.5 -123.5t69.5 -126.5v-15h-130q-166 145 -278 266zM322 478 q0 -327 161 -327q162 0 162 327q0 184 -39 264t-123 80t-122.5 -79.5t-38.5 -264.5z" />
<glyph unicode="&#xf3;" horiz-adv-x="966" d="M74 505q0 231 104.5 356t304.5 125t305 -125t105 -356q0 -277 -103.5 -397.5t-306.5 -120.5q-100 0 -173.5 27.5t-127.5 87.5t-81 160.5t-27 242.5zM322 478q0 -327 161 -327q162 0 162 327q0 184 -39 264t-123 80t-122.5 -79.5t-38.5 -264.5zM370 1128v15 q24 44 69.5 126.5t67.5 123.5q28 -1 123 -1q103 0 147 2q-116 -125 -277 -266h-130z" />
<glyph unicode="&#xf4;" horiz-adv-x="966" d="M74 505q0 231 104.5 356t304.5 125t305 -125t105 -356q0 -277 -103.5 -397.5t-306.5 -120.5q-100 0 -173.5 27.5t-127.5 87.5t-81 160.5t-27 242.5zM145 1128l251 263h182l251 -263h-186l-158 103l-155 -103h-185zM322 478q0 -327 161 -327q162 0 162 327q0 184 -39 264 t-123 80t-122.5 -79.5t-38.5 -264.5z" />
<glyph unicode="&#xf5;" horiz-adv-x="966" d="M74 505q0 231 104.5 356t304.5 125t305 -125t105 -356q0 -277 -103.5 -397.5t-306.5 -120.5q-100 0 -173.5 27.5t-127.5 87.5t-81 160.5t-27 242.5zM176 1186q8 92 58 149.5t138 57.5q45 0 113.5 -35t103.5 -35q53 0 67 75l147 -25q-22 -221 -215 -221q-38 0 -70 12 t-50.5 26.5t-40.5 26.5t-41 12q-54 0 -70 -73zM322 478q0 -327 161 -327q162 0 162 327q0 184 -39 264t-123 80t-122.5 -79.5t-38.5 -264.5z" />
<glyph unicode="&#xf6;" horiz-adv-x="966" d="M74 505q0 231 104.5 356t304.5 125t305 -125t105 -356q0 -277 -103.5 -397.5t-306.5 -120.5q-100 0 -173.5 27.5t-127.5 87.5t-81 160.5t-27 242.5zM174 1260q0 56 34 89t94 33t94 -33t34 -89t-34 -89.5t-94 -33.5t-94 33.5t-34 89.5zM322 478q0 -327 161 -327 q162 0 162 327q0 184 -39 264t-123 80t-122.5 -79.5t-38.5 -264.5zM549 1256q0 56 34 89.5t94 33.5t94 -33.5t34 -89.5t-34 -89t-94 -33t-94 33t-34 89z" />
<glyph unicode="&#xf7;" horiz-adv-x="1112" d="M136 515v19t0.5 40t0.5 35q0 17 -0.5 56.5t-0.5 40.5q132 -8 187 -8h444q54 0 186 8q0 -1 -0.5 -40.5t-0.5 -56.5v-35t0.5 -40t0.5 -19q-98 7 -186 7h-444q-89 0 -187 -7zM412 244q0 56 35.5 89.5t97.5 33.5t97.5 -33.5t35.5 -89.5t-35.5 -89.5t-97.5 -33.5t-97.5 33.5 t-35.5 89.5zM412 980q0 56 35.5 89.5t97.5 33.5t97.5 -33.5t35.5 -89.5t-35.5 -89.5t-97.5 -33.5t-97.5 33.5t-35.5 89.5z" />
<glyph unicode="&#xf8;" horiz-adv-x="966" d="M74 505q0 231 104.5 356t304.5 125q78 0 144 -20l7 19q38 104 47 162q76 -3 154 0l-91 -243q149 -122 149 -399t-103.5 -397.5t-306.5 -120.5q-37 0 -80 5q-49 -132 -52 -166q-70 3 -137 0l72 198q-212 97 -212 481zM322 478q0 -165 39 -244l204 562q-33 26 -82 26 q-84 0 -122.5 -79.5t-38.5 -264.5zM463 152q7 -1 20 -1q162 0 162 327q0 84 -7 140z" />
<glyph unicode="&#xf9;" horiz-adv-x="992" d="M97 974q96 -3 137 -3q38 0 140 3q-13 -69 -16 -125t-3 -202v-340q0 -81 29.5 -118.5t74.5 -37.5q72 0 123 49t58 133v21v293q0 156 -2.5 207.5t-15.5 119.5q96 -3 137 -3q36 0 138 3q-12 -67 -14.5 -121.5t-2.5 -205.5v-293q0 -236 12 -355q-64 2 -132 2t-132 -2l5 87 q-92 -99 -229 -99q-289 0 -289 338v322q0 151 -3 204t-15 123zM204 1394q44 -2 147 -2q95 0 123 1q22 -41 67.5 -123.5t69.5 -126.5v-15h-130q-161 141 -277 266z" />
<glyph unicode="&#xfa;" horiz-adv-x="992" d="M97 974q96 -3 137 -3q38 0 140 3q-13 -69 -16 -125t-3 -202v-340q0 -81 29.5 -118.5t74.5 -37.5q72 0 123 49t58 133v21v293q0 156 -2.5 207.5t-15.5 119.5q96 -3 137 -3q36 0 138 3q-12 -67 -14.5 -121.5t-2.5 -205.5v-293q0 -236 12 -355q-64 2 -132 2t-132 -2l5 87 q-92 -99 -229 -99q-289 0 -289 338v322q0 151 -3 204t-15 123zM397 1128v15q26 49 71.5 130t66.5 120q28 -1 122 -1q104 0 148 2q-112 -121 -278 -266h-130z" />
<glyph unicode="&#xfb;" horiz-adv-x="992" d="M97 974q96 -3 137 -3q38 0 140 3q-13 -69 -16 -125t-3 -202v-340q0 -81 29.5 -118.5t74.5 -37.5q72 0 123 49t58 133v21v293q0 156 -2.5 207.5t-15.5 119.5q96 -3 137 -3q36 0 138 3q-12 -67 -14.5 -121.5t-2.5 -205.5v-293q0 -236 12 -355q-64 2 -132 2t-132 -2l5 87 q-92 -99 -229 -99q-289 0 -289 338v322q0 151 -3 204t-15 123zM146 1128l251 263h182l251 -263h-186l-158 103l-155 -103h-185z" />
<glyph unicode="&#xfc;" horiz-adv-x="992" d="M97 974q96 -3 137 -3q38 0 140 3q-13 -69 -16 -125t-3 -202v-340q0 -81 29.5 -118.5t74.5 -37.5q72 0 123 49t58 133v21v293q0 156 -2.5 207.5t-15.5 119.5q96 -3 137 -3q36 0 138 3q-12 -67 -14.5 -121.5t-2.5 -205.5v-293q0 -236 12 -355q-64 2 -132 2t-132 -2l5 87 q-92 -99 -229 -99q-289 0 -289 338v322q0 151 -3 204t-15 123zM178 1260q0 56 34 89t94 33t94 -33t34 -89t-34 -89.5t-94 -33.5t-94 33.5t-34 89.5zM553 1256q0 56 34 89.5t94 33.5t94 -33.5t34 -89.5t-34 -89t-94 -33t-94 33t-34 89z" />
<glyph unicode="&#xfd;" horiz-adv-x="931" d="M20 975q84 -3 133 -3q68 0 140 2q30 -91 91.5 -308.5t101.5 -333.5q82 277 172 643q68 -5 119 -5q60 0 134 6q-75 -206 -142.5 -418.5t-157.5 -512.5t-129 -424q-37 6 -112 6q-56 0 -136 -3q20 52 70.5 173.5t74.5 187.5l-23 -1q-227 700 -336 991zM404 1128v15 q26 49 71.5 130t66.5 120q28 -1 123 -1q103 0 147 2q-116 -125 -277 -266h-131z" />
<glyph unicode="&#xfe;" horiz-adv-x="1009" d="M106 -389q13 69 16 122t3 204v1098q0 151 -3 204.5t-16 122.5q66 -2 138 -2q69 0 135 2q-14 -133 -14 -357v-114q78 95 213 95q164 0 255 -125.5t91 -352.5q0 -258 -120 -389.5t-344 -131.5q-41 0 -95 7v-57q0 -150 2.5 -204.5t15.5 -121.5q-68 2 -139 2q-72 0 -138 -2z M365 169q63 -9 97 -9q48 0 84 15t67 52t47 107t16 173q0 162 -37.5 234t-113.5 72q-69 0 -113.5 -62.5t-46.5 -144.5v-437z" />
<glyph unicode="&#xff;" horiz-adv-x="931" d="M20 975q84 -3 133 -3q68 0 140 2q30 -91 91.5 -308.5t101.5 -333.5q82 277 172 643q68 -5 119 -5q60 0 134 6q-75 -206 -142.5 -418.5t-157.5 -512.5t-129 -424q-37 6 -112 6q-56 0 -136 -3q20 52 70.5 173.5t74.5 187.5l-23 -1q-227 700 -336 991zM169 1260q0 56 34 89 t94 33t94 -33t34 -89t-34 -89.5t-94 -33.5t-94 33.5t-34 89.5zM544 1256q0 56 34 89.5t94 33.5t94 -33.5t34 -89.5t-34 -89t-94 -33t-94 33t-34 89z" />
<glyph unicode="&#x152;" horiz-adv-x="1732" d="M88 695q0 346 123.5 513t386.5 167q130 0 224 -41l-5 28h810q-5 -49 -5 -83q0 -55 3 -102q-68 12 -165.5 15t-357.5 3v-405q381 3 475 15q-4 -57 -4 -102q0 -41 4 -94q-117 15 -475 15v-450q161 0 234 1t158 6.5t146 17.5q-4 -65 -4 -107q0 -52 4 -92h-823l6 29 q-91 -42 -225 -42q-263 0 -386.5 174t-123.5 534zM365 686q0 -287 54.5 -404t178.5 -117t178.5 117t54.5 404q0 198 -25.5 310.5t-74.5 156.5t-133 44t-133 -44t-74.5 -156.5t-25.5 -310.5z" />
<glyph unicode="&#x153;" horiz-adv-x="1498" d="M74 505q0 231 104.5 356t304.5 125q179 0 284 -103q100 103 286 103q182 0 270.5 -112t88.5 -314v-138h-522q0 -9 -1 -13q6 -134 57.5 -191.5t147.5 -57.5q130 0 257 55l19 -8l-22 -180q-47 -13 -122.5 -26.5t-121.5 -13.5q-224 0 -332 101q-98 -101 -289 -101 q-100 0 -173.5 27.5t-127.5 87.5t-81 160.5t-27 242.5zM322 478q0 -327 161 -327q162 0 162 327q0 184 -39 264t-123 80t-122.5 -79.5t-38.5 -264.5zM892 575h279v14q0 123 -28.5 178t-93.5 55q-76 0 -113 -52t-44 -195z" />
<glyph unicode="&#x178;" horiz-adv-x="1116" d="M10 1364q144 -4 161 -4q37 0 139 2q149 -347 248 -534q134 254 248 534q102 -2 139 -2q17 0 161 4q-197 -347 -414 -780q0 -348 3 -431t20 -154q-72 2 -157 2q-83 0 -155 -2q14 70 17 156t3 429q-211 425 -413 780zM243 1544q0 56 34 89.5t94 33.5t94 -33.5t34 -89.5 t-34 -89.5t-94 -33.5t-94 33.5t-34 89.5zM617 1541q0 56 34 89.5t94 33.5t94 -33.5t34 -89.5t-34 -89.5t-94 -33.5t-94 33.5t-34 89.5z" />
<glyph unicode="&#x2c6;" horiz-adv-x="776" d="M46 1128l251 263h181l252 -263h-186l-158 103l-156 -103h-184z" />
<glyph unicode="&#x2dc;" horiz-adv-x="708" d="M41 1186q8 92 58 149.5t138 57.5q45 0 113.5 -35t103.5 -35q53 0 67 75l147 -25q-22 -221 -215 -221q-38 0 -70 12t-50.5 26.5t-40.5 26.5t-41 12q-54 0 -70 -73z" />
<glyph unicode="&#x2000;" horiz-adv-x="834" />
<glyph unicode="&#x2001;" horiz-adv-x="1668" />
<glyph unicode="&#x2002;" horiz-adv-x="834" />
<glyph unicode="&#x2003;" horiz-adv-x="1668" />
<glyph unicode="&#x2004;" horiz-adv-x="556" />
<glyph unicode="&#x2005;" horiz-adv-x="417" />
<glyph unicode="&#x2006;" horiz-adv-x="278" />
<glyph unicode="&#x2007;" horiz-adv-x="278" />
<glyph unicode="&#x2008;" horiz-adv-x="208" />
<glyph unicode="&#x2009;" horiz-adv-x="333" />
<glyph unicode="&#x200a;" horiz-adv-x="92" />
<glyph unicode="&#x2010;" horiz-adv-x="921" d="M135 513q0 1 0.5 19t0.5 40v35q0 17 -0.5 56t-0.5 40q115 -7 187 -7h273q65 0 191 9q-6 -35 -6 -96q0 -54 6 -96q-117 7 -191 7h-273q-89 0 -187 -7z" />
<glyph unicode="&#x2011;" horiz-adv-x="921" d="M135 513q0 1 0.5 19t0.5 40v35q0 17 -0.5 56t-0.5 40q115 -7 187 -7h273q65 0 191 9q-6 -35 -6 -96q0 -54 6 -96q-117 7 -191 7h-273q-89 0 -187 -7z" />
<glyph unicode="&#x2012;" horiz-adv-x="921" d="M135 513q0 1 0.5 19t0.5 40v35q0 17 -0.5 56t-0.5 40q115 -7 187 -7h273q65 0 191 9q-6 -35 -6 -96q0 -54 6 -96q-117 7 -191 7h-273q-89 0 -187 -7z" />
<glyph unicode="&#x2013;" horiz-adv-x="1112" d="M136 513v19t0.5 40t0.5 35q0 17 -0.5 56t-0.5 40q116 -7 187 -7h444q67 0 191 9q-6 -35 -6 -96q0 -54 6 -96q-114 7 -191 7h-444q-89 0 -187 -7z" />
<glyph unicode="&#x2014;" horiz-adv-x="1224" d="M99 513q0 1 0.5 19t0.5 40v35q0 17 -0.5 56t-0.5 40q114 -7 187 -7h626q68 0 192 9q-6 -35 -6 -96q0 -54 6 -96q-114 7 -192 7h-626q-91 0 -187 -7z" />
<glyph unicode="&#x2018;" horiz-adv-x="455" d="M90 842v121q0 120 39.5 207.5t119.5 191.5h152q-10 -20 -24 -54t-38 -124t-24 -163q0 -117 11 -179q-70 2 -106 2q-62 0 -130 -2z" />
<glyph unicode="&#x2019;" horiz-adv-x="455" d="M35 842q10 20 24 54t38 124t24 163q0 123 -10 179q70 -2 105 -2q62 0 130 2v-121q0 -91 -32 -175.5t-127 -223.5h-152z" />
<glyph unicode="&#x201a;" horiz-adv-x="445" d="M55 -346q10 20 24 54t38 124t24 163q0 123 -10 179q70 -2 106 -2q62 0 130 2v-121q0 -91 -32 -175.5t-127 -223.5h-153z" />
<glyph unicode="&#x201c;" horiz-adv-x="769" d="M71 842v121q0 92 31.5 176.5t126.5 222.5h153q-10 -20 -24 -54t-38 -124t-24 -163q0 -123 10 -179q-70 2 -105 2q-62 0 -130 -2zM394 842v121q0 91 32 175.5t127 223.5h153q-10 -20 -24 -54t-38 -124t-24 -163q0 -123 10 -179q-70 2 -106 2q-62 0 -130 -2z" />
<glyph unicode="&#x201d;" horiz-adv-x="769" d="M35 842q10 20 24 54t38 124t24 163q0 123 -10 179q70 -2 105 -2q62 0 130 2v-121q0 -91 -32 -175.5t-127 -223.5h-152zM358 842q10 20 24 54t38 124t24 163q0 123 -10 179q70 -2 106 -2q62 0 130 2v-121q0 -91 -32 -175.5t-127 -223.5h-153z" />
<glyph unicode="&#x201e;" horiz-adv-x="757" d="M55 -346q10 20 24 54t38 124t24 163q0 123 -10 179q70 -2 106 -2q62 0 130 2v-121q0 -91 -32 -175.5t-127 -223.5h-153zM356 -346q10 20 24 54t38 124t24 163q0 123 -10 179q70 -2 106 -2q62 0 130 2v-121q0 -91 -32 -175.5t-127 -223.5h-153z" />
<glyph unicode="&#x2022;" horiz-adv-x="585" d="M92 611q0 79 54 129t141 50t140 -50t53 -129t-53 -128.5t-140 -49.5t-141 49.5t-54 128.5z" />
<glyph unicode="&#x2026;" horiz-adv-x="1354" d="M99 123q0 55 38.5 89t100.5 34t100 -34t38 -89q0 -56 -38 -90t-100 -34t-100.5 34.5t-38.5 89.5zM525 123q0 55 38.5 89t100.5 34t100 -34t38 -89q0 -56 -38 -90t-100 -34t-100.5 34.5t-38.5 89.5zM951 123q0 55 38.5 89t100.5 34t100 -34t38 -89q0 -56 -38 -90t-100 -34 t-100.5 34.5t-38.5 89.5z" />
<glyph unicode="&#x202f;" horiz-adv-x="333" />
<glyph unicode="&#x2039;" horiz-adv-x="617" d="M106 582l186 403h209l-132 -403l132 -404h-209z" />
<glyph unicode="&#x203a;" horiz-adv-x="617" d="M117 178l132 404l-132 403h209l185 -403l-185 -404h-209z" />
<glyph unicode="&#x205f;" horiz-adv-x="417" />
<glyph unicode="&#x20ac;" d="M61 465q0 1 0.5 17.5t0.5 37v31.5q0 15 -0.5 52.5t-0.5 38.5q55 -4 104 -5q0 10 -0.5 31t-0.5 33q0 40 1 58q-53 -1 -104 -5q0 2 0.5 18t0.5 37v32q0 15 -0.5 52.5t-0.5 38.5q22 -2 68.5 -4t53.5 -2q42 214 172 331.5t352 117.5q127 0 258 -76q-12 -24 -29 -55.5t-25 -47 t-16 -36t-11 -39.5h-19q-3 2 -15.5 14.5t-18 17t-21 14t-30 13.5t-38.5 7.5t-52 3.5q-94 0 -151.5 -61t-81.5 -205h132q79 0 191 8q-6 -36 -6 -90q0 -48 6 -89q-114 7 -191 7h-148q-1 -24 -1 -73v-53h149q79 0 191 8q-6 -36 -6 -90q0 -47 6 -88q-130 6 -191 6h-136 q22 -166 83.5 -234t168.5 -68q34 0 61.5 2t52 8t38.5 10t41.5 13.5t40.5 13.5l19 -16l-26 -174q-12 -3 -46.5 -11.5t-57 -13.5t-54.5 -9.5t-57 -4.5q-234 0 -367 117.5t-171 365.5q-60 -2 -118 -5z" />
<glyph unicode="&#x2122;" horiz-adv-x="1484" d="M61 1210l1 34v49t-0.5 44t-0.5 31q51 -6 168 -6h645l146 -257l138 257h197v-403q0 -255 7 -332q-66 2 -107 2q-45 0 -111 -2q8 77 8 332v106l-73 -137q-40 4 -64 4q-26 0 -66 -4l-70 137v-106q0 -255 8 -332q-68 2 -110 2t-108 -2q7 77 7 332v256h-206v-256 q0 -255 8 -332q-70 2 -114 2q-39 0 -107 -2q8 77 8 332v256h-36q-102 0 -168 -5z" />
<glyph unicode="&#x25fc;" horiz-adv-x="977" d="M0 0v978h978v-978h-978z" />
</font>
</defs>
</svg>
