<?xml version="1.0" standalone="no"?>
<!DOCTYPE svg PUBLIC "-//W3C//DTD SVG 1.1//EN" "http://www.w3.org/Graphics/SVG/1.1/DTD/svg11.dtd" >
<svg xmlns="http://www.w3.org/2000/svg" xmlns:xlink="http://www.w3.org/1999/xlink" version="1.1">
<metadata></metadata>
<defs>
<font id="chulalongkornregular" horiz-adv-x="972" >
<font-face units-per-em="2048" ascent="1655" descent="-393" />
<missing-glyph horiz-adv-x="505" />
<glyph unicode="&#xfb01;" horiz-adv-x="1032" d="M889 973q-9 -48 -10.5 -101t-1.5 -215v-342q0 -162 1.5 -214.5t10.5 -100.5q-93 3 -189 0q9 50 11 105t2 210v342q0 151 -1 195q-103 2 -354 2v-539q0 -160 2 -212.5t11 -102.5q-93 3 -189 0q9 50 11 105t2 210v539q-96 0 -149 -4q1 8 1 58t-1 61q92 -6 149 -6v87 q0 160 87 250t250 90q94 0 166 -27l-22 -131l-5 -1q-55 42 -134 42q-87 0 -133 -50t-46 -148v-114q282 0 342 12q96 -3 189 0z" />
<glyph unicode="&#xfb02;" horiz-adv-x="999" d="M864 1047v-732q0 -160 2 -212.5t11 -102.5q-93 3 -189 0q9 48 10.5 100.5t1.5 214.5v732q0 140 -1 183q-23 17 -77 30t-101 13q-78 0 -120.5 -46.5t-42.5 -130.5v-135q76 0 217 6q-3 -75 0 -117q-72 4 -217 4v-539q0 -160 2 -212.5t11 -102.5q-93 3 -189 0q9 50 11 105 t2 210v539q-96 0 -149 -4q1 8 1 58t-1 61q92 -6 149 -6v107q0 155 87 237.5t235 82.5q42 0 138.5 -15.5t136.5 -15.5q16 0 46 1.5t39 1.5q-9 -50 -11 -102.5t-2 -212.5z" />
<glyph unicode="&#xfb03;" horiz-adv-x="1595" d="M922 854v-539q0 -167 1.5 -216.5t10.5 -98.5q-93 3 -189 0q9 50 11 105t2 210v539h-400v-539q0 -160 2 -212.5t11 -102.5q-93 3 -189 0q9 50 11 105t2 210v539q-96 0 -149 -4q1 8 1 58t-1 61q92 -6 149 -6v56q0 175 94 273t235 98q69 0 141 -27l-23 -128l-5 -1 q-47 39 -108 39q-171 0 -171 -238v-72h400v56q0 175 94 273t235 98q69 0 141 -27l-23 -128l-5 -1q-47 39 -107 39q-171 0 -171 -238v-74q282 0 342 12q95 -3 188 0q-9 -48 -10.5 -101t-1.5 -215v-342q0 -162 1.5 -214.5t10.5 -100.5q-93 3 -188 0q9 48 10.5 100.5t1.5 214.5 v342q0 151 -1 195q-103 2 -353 2z" />
<glyph unicode="&#xfb04;" horiz-adv-x="1562" d="M758 963v107q0 155 87 237.5t235 82.5q42 0 138.5 -15.5t136.5 -15.5q16 0 46 1.5t39 1.5q-9 -50 -11 -102.5t-2 -212.5v-732q0 -160 2 -212.5t11 -102.5q-93 3 -189 0q9 50 11 105t2 210v732q0 140 -1 183q-23 17 -77.5 30t-101.5 13q-78 0 -120 -46.5t-42 -130.5v-135 q76 0 217 6q-3 -75 0 -117q-72 4 -217 4v-539q0 -167 1.5 -216.5t10.5 -98.5q-93 3 -189 0q9 50 11 105t2 210v539h-400v-539q0 -160 2 -212.5t11 -102.5q-93 3 -189 0q9 50 11 105t2 210v539q-96 0 -149 -4q1 8 1 58t-1 61q92 -6 149 -6v56q0 175 94 273t235 98 q69 0 141 -27l-23 -128l-5 -1q-47 39 -108 39q-171 0 -171 -238v-72h400z" />
<glyph horiz-adv-x="0" />
<glyph horiz-adv-x="0" />
<glyph horiz-adv-x="682" />
<glyph unicode="&#xd;" horiz-adv-x="505" />
<glyph unicode=" "  horiz-adv-x="505" />
<glyph unicode="&#x09;" horiz-adv-x="505" />
<glyph unicode="&#xa0;" horiz-adv-x="505" />
<glyph unicode="!" horiz-adv-x="485" d="M341 98q0 -44 -27.5 -71t-70.5 -27q-44 0 -71.5 27.5t-27.5 70.5q0 44 28 71.5t71 27.5t70.5 -27.5t27.5 -71.5zM201 389q-42 584 -45 658q-3 81 -4 150t-1.5 102.5t-3.5 62.5q94 -3 191 0q-3 -34 -4 -124.5t-4 -190.5l-45 -658q-43 1 -84 0z" />
<glyph unicode="&#x22;" horiz-adv-x="700" d="M112 1362q85 -2 174 0q-4 -97 -6 -125q-4 -59 -17 -147t-25 -146l-11 -59q-28 4 -56 0q-46 219 -54 352q-2 31 -2.5 46t-1 33t-1.5 46zM414 1362q85 -2 174 0q-4 -97 -6 -125q-4 -59 -17 -147t-25 -146l-11 -59q-28 4 -56 0q-46 219 -54 352q-2 31 -2.5 46t-1 33t-1.5 46 z" />
<glyph unicode="#" horiz-adv-x="913" d="M66 455h138l41 471h-137l9 104h137l29 332h125l-29 -332h217l29 332h125l-29 -332h135l-9 -104h-135l-41 -471h134l-8 -105h-135l-31 -350h-125l31 350h-218l-30 -350h-125l31 350h-138zM370 926l-41 -471h217l41 471h-217z" />
<glyph unicode="$" d="M749 1093q-20 47 -67 70t-132 26v-441q61 -17 102.5 -33t86 -44.5t71 -65t43.5 -94t17 -132.5q0 -162 -91.5 -261.5t-228.5 -123.5q0 -142 9 -210q-18 1 -54 1q-38 0 -56 -1q8 56 9 202q-101 2 -201 28.5t-155 67.5q36 84 58 168h25q32 -62 103 -99t170 -38v488 q-65 16 -112 34t-91.5 47t-72.5 66t-44.5 92t-16.5 125q0 133 97 227t240 117q-1 151 -9 209q18 -1 56 -1q36 0 54 1q-9 -67 -9 -203q83 -2 164 -22.5t119 -49.5q-44 -94 -59 -150h-25zM293 987q0 -92 37 -138.5t128 -75.5v410q-74 -16 -119.5 -66.5t-45.5 -129.5zM696 359 q0 92 -38.5 143t-107.5 75v-452q68 23 107 82t39 152z" />
<glyph unicode="%" horiz-adv-x="1665" d="M565 957q0 300 -133 300t-133 -300t133 -300t133 300zM1167 1362l-447 -1164q-6 -15 -18.5 -47.5t-19 -48.5t-14.5 -39t-12 -37.5t-5 -25.5q-113 2 -151 0l447 1164q65 165 69 198q113 -2 151 0zM709 957q0 -200 -71.5 -301t-205.5 -101t-205 100.5t-71 301.5t71 302 t205 101t205.5 -101t71.5 -302zM1366 388q0 300 -133 300t-133 -300t133 -300t133 300zM1509 388q0 -201 -71 -301.5t-205 -100.5t-205.5 101t-71.5 301q0 201 71.5 302t205.5 101t205 -101t71 -302z" />
<glyph unicode="&#x26;" horiz-adv-x="1124" d="M962 762v-111q0 -243 -83 -422l163 -223v-6h-206l-57 86q-103 -100 -252 -100q-174 0 -268.5 100.5t-94.5 290.5q0 211 203 351q-69 111 -106 199t-37 176q0 118 79.5 195t197.5 77q119 0 197.5 -72t78.5 -190q0 -121 -65 -212.5t-181 -136.5l257 -400q20 101 20 230 q0 113 -23 160v8h177zM550 121q101 0 162 69l-299 465q-79 -126 -79 -266q0 -132 51 -200t165 -68zM390 1110q0 -76 26.5 -141.5t81.5 -152.5q117 120 117 298q0 65 -30.5 101.5t-83.5 36.5q-50 0 -80.5 -37t-30.5 -105z" />
<glyph unicode="'" horiz-adv-x="399" d="M112 1362q85 -2 174 0q-4 -97 -6 -125q-4 -59 -17 -147t-25 -146l-11 -59q-28 4 -56 0q-46 219 -54 352q-2 31 -2.5 46t-1 33t-1.5 46z" />
<glyph unicode="(" horiz-adv-x="622" d="M106 680q0 255 68 492t191 423h141q-124 -210 -179 -419t-55 -496q0 -285 55 -494t179 -419h-141q-122 186 -190.5 423t-68.5 490z" />
<glyph unicode=")" horiz-adv-x="622" d="M516 680q0 -254 -68 -491t-190 -422h-141q124 210 178.5 418.5t54.5 494.5q0 287 -54.5 496t-178.5 419h141q122 -185 190 -422.5t68 -492.5z" />
<glyph unicode="*" horiz-adv-x="933" d="M434 1096l-26 305q24 -8 61 -8t61 8l-29 -305l253 176q10 -71 61 -107l-278 -131l276 -135q-50 -37 -59 -102l-255 168l31 -299q-36 8 -61 8t-61 -8l26 299l-248 -170q-9 70 -59 104l274 133l-282 133q23 20 41 49.5t18 57.5z" />
<glyph unicode="+" horiz-adv-x="1069" d="M596 842v-178h163q90 0 146 4q-1 -8 -1 -59.5t1 -61.5q-66 4 -146 4h-163v-178q0 -91 4 -147q-8 1 -64 1t-67 -1q4 66 4 147v178h-163q-90 0 -146 -4q1 8 1 59.5t-1 61.5q66 -4 146 -4h163v178q0 90 -4 146q8 -1 64.5 -1t66.5 1q-4 -66 -4 -146z" />
<glyph unicode="," horiz-adv-x="446" d="M85 -295l-48 5q68 90 86.5 166t18.5 242q0 37 22.5 62t63.5 25t64.5 -24.5t23.5 -72.5q0 -98 -62 -206.5t-169 -196.5z" />
<glyph unicode="-" horiz-adv-x="962" d="M650 544h-338q-90 0 -146 -4q1 8 1 64t-1 67q66 -4 146 -4h338q91 0 147 4q-1 -8 -1 -64.5t1 -66.5q-66 4 -147 4z" />
<glyph unicode="." horiz-adv-x="446" d="M126 97q0 44 27.5 71.5t70.5 27.5q44 0 71.5 -28t27.5 -71t-27.5 -70.5t-71.5 -27.5t-71 27.5t-27 70.5z" />
<glyph unicode="/" horiz-adv-x="632" d="M623 1575l-409 -1591q-31 -121 -40 -199q-91 4 -164 0l409 1591q31 121 40 199q91 -4 164 0z" />
<glyph unicode="0" d="M710 686q0 227 -25 350.5t-71 167.5t-129 44q-81 0 -127 -44t-70.5 -167.5t-24.5 -350.5q0 -223 24 -348.5t70.5 -174.5t127.5 -49t128.5 49t72 174.5t24.5 348.5zM876 696q0 -369 -88 -539.5t-303 -170.5q-213 0 -300.5 170.5t-87.5 539.5q0 354 87.5 517t300.5 163 q216 0 303.5 -163t87.5 -517z" />
<glyph unicode="1" horiz-adv-x="768" d="M350 1180l-197 -101q0 1 -7.5 16.5t-11 21.5t-10 18.5t-13.5 19.5t-14 12v15q70 28 134 59t154.5 79t117.5 62l24 -10q-7 -68 -7 -530v-322q0 -311 2 -390t12 -130q-34 1 -101 1q-63 0 -96 -1q9 51 11 130t2 390v660z" />
<glyph unicode="2" d="M139 0v146q0 79 18 147t48.5 119t69.5 96t83 82.5t87.5 74t82.5 76t69.5 82t48.5 98t18 118.5q0 114 -50 163t-148 49q-89 0 -153 -37t-86 -91h-24q-14 57 -56 151q45 38 134.5 70t176.5 32q194 0 288 -87t94 -266q0 -70 -18 -131.5t-48.5 -109t-69.5 -90.5t-82.5 -81.5 t-87.5 -76.5t-83.5 -80.5t-70 -88.5t-49 -105.5t-18.5 -126.5h2q414 0 504 23q-3 -29 -3 -86.5t3 -75.5q-91 6 -138 6h-542z" />
<glyph unicode="3" d="M396 -14q-94 0 -182.5 26.5t-143.5 69.5q35 87 54 168h24q30 -62 97.5 -96.5t162.5 -34.5q118 0 187.5 67.5t69.5 206.5q0 134 -56 198t-178 64h-48q-85 0 -138 -4q1 8 1 65.5t-1 67.5q92 -6 138 -6h30q116 0 169.5 53t53.5 180q0 240 -224 240q-89 0 -153 -37t-86 -91 h-25q-15 62 -55 151q45 38 134 70t176 32q189 0 296 -86t107 -265q0 -109 -50 -190t-116 -108v-3q27 -10 51.5 -23.5t53 -39.5t48.5 -59t33.5 -84t13.5 -112q0 -117 -33 -200.5t-94.5 -130.5t-139 -68t-177.5 -21z" />
<glyph unicode="4" d="M102 324v41q198 736 245 997q83 -2 165 0l-227 -905h317q0 362 -12 434q91 -3 184 0q-12 -66 -12 -434q84 0 137 4q-1 -8 -1 -71t1 -73q-107 7 -137 7q0 -257 13 -324q-93 3 -185 0q12 68 12 324h-500z" />
<glyph unicode="5" d="M799 1219q-37 7 -108 8.5t-336 1.5v-418h68q88 0 161.5 -20.5t134.5 -65t96 -123.5t35 -186q0 -430 -435 -430q-181 0 -302 96q35 87 54 168h24q33 -66 87.5 -101.5t147.5 -35.5q114 0 182 70.5t68 219.5q0 275 -265 275h-222v543l-6 141h616q-5 -60 0 -143z" />
<glyph unicode="6" d="M487 752q-95 0 -151.5 -67.5t-56.5 -182.5v-12q0 -111 15 -188t43.5 -118t63.5 -58t81 -17q104 0 157 80.5t53 264.5q0 157 -55.5 227.5t-149.5 70.5zM279 891v-100q29 35 92.5 59t127.5 24q168 0 266 -109.5t98 -323.5q0 -208 -103.5 -331.5t-288.5 -123.5 q-164 0 -262.5 132.5t-98.5 371.5v352q0 262 115.5 398t341.5 136q55 0 197 -33l18 -131l-8 -8q-6 2 -34 11.5t-39 12.5t-37 9t-52.5 8t-59.5 2q-125 0 -199 -93.5t-74 -262.5z" />
<glyph unicode="7" horiz-adv-x="911" d="M807 1313l-453 -1313q-89 3 -188 0l435 1229h-358q-69 0 -139 -10q1 8 1 71.5t-1 74.5q57 -3 139 -3h564v-49z" />
<glyph unicode="8" d="M717 367q0 151 -78.5 219.5t-231.5 68.5q-81 -46 -116 -106.5t-35 -181.5q0 -131 62 -194.5t167 -63.5q107 0 169.5 63.5t62.5 194.5zM692 1018q0 235 -207 235q-98 0 -151 -59.5t-53 -175.5q0 -117 71.5 -184.5t203.5 -67.5q68 28 102 96t34 156zM881 385 q0 -194 -100 -296.5t-296 -102.5q-195 0 -294 102.5t-99 296.5q0 207 186 321q-65 38 -112 116.5t-47 176.5q0 182 104 279.5t262 97.5q160 0 264.5 -96.5t104.5 -280.5q0 -186 -169 -281q90 -29 143 -111.5t53 -221.5z" />
<glyph unicode="9" d="M490 600q93 0 146 77.5t53 203.5v31q0 178 -55 259.5t-149 81.5q-103 0 -151 -74.5t-48 -259.5q0 -159 56 -239t148 -80zM689 461v107q-72 -91 -210 -91q-174 0 -269 117t-95 337q0 207 98 326t273 119q171 0 271.5 -120t100.5 -344v-382q0 -544 -437 -544q-59 0 -197 32 l-18 132l8 8q6 -2 34 -11.5t39 -12.5t37 -9t52.5 -8t59.5 -2q125 0 189 87.5t64 258.5z" />
<glyph unicode=":" horiz-adv-x="446" d="M126 97q0 44 27.5 71.5t70.5 27.5q44 0 71.5 -28t27.5 -71t-27.5 -70.5t-71.5 -27.5t-71 27.5t-27 70.5zM126 876q0 44 27 71t71 27t71.5 -27.5t27.5 -70.5q0 -44 -27.5 -71.5t-71.5 -27.5q-43 0 -70.5 27.5t-27.5 71.5z" />
<glyph unicode=";" horiz-adv-x="446" d="M126 876q0 44 27 71t71 27t71.5 -27.5t27.5 -70.5q0 -44 -27.5 -71.5t-71.5 -27.5q-43 0 -70.5 27.5t-27.5 71.5zM85 -295l-48 5q64 85 82.5 176t18.5 232q0 34 25.5 60.5t64.5 26.5q34 0 61 -21t27 -56q0 -95 -55.5 -193t-175.5 -230z" />
<glyph unicode="&#x3c;" horiz-adv-x="1069" d="M344 654l564 -305q-2 -76 0 -149l-743 397q4 47 0 111l743 387q-3 -80 0 -158z" />
<glyph unicode="=" horiz-adv-x="1069" d="M759 362h-447q-90 0 -146 -4q1 8 1 64t-1 67q66 -4 146 -4h447q90 0 146 4q-1 -8 -1 -64.5t1 -66.5q-66 4 -146 4zM759 729h-447q-90 0 -146 -4q1 8 1 64.5t-1 66.5q66 -4 146 -4h447q90 0 146 4q-1 -8 -1 -64t1 -67q-66 4 -146 4z" />
<glyph unicode="&#x3e;" horiz-adv-x="1069" d="M165 349l564 305l-564 283q3 78 0 158l743 -387q-4 -64 0 -111l-743 -397q2 73 0 149z" />
<glyph unicode="?" horiz-adv-x="700" d="M419 98q0 -44 -27.5 -71t-70.5 -27q-44 0 -71.5 27.5t-27.5 70.5q0 44 28 71.5t71 27.5t70.5 -27.5t27.5 -71.5zM391 406q-74 2 -145 0v129q0 57 19.5 108t48.5 87t63.5 76.5t63.5 76.5t48.5 87t19.5 109q0 87 -46.5 129.5t-132.5 42.5q-176 0 -224 -117h-25 q-17 61 -58 150q47 37 129 64.5t172 27.5q350 0 350 -304q0 -56 -16 -106.5t-42 -89t-57 -74.5t-62.5 -69t-57.5 -65.5t-42 -72t-16 -81.5q0 -33 2.5 -60t4.5 -38z" />
<glyph unicode="@" horiz-adv-x="1585" d="M918 537v401q-35 10 -82 10q-97 0 -148 -77.5t-51 -221.5q0 -254 135 -254q77 0 111.5 44t34.5 98zM838 -14q-319 0 -495.5 174t-176.5 512q0 330 169.5 517t459.5 187q295 0 459.5 -164t164.5 -452q0 -252 -79 -376t-212 -124q-70 0 -115.5 39t-58.5 102 q-50 -120 -200 -120q-121 0 -197 99t-76 261q0 187 90.5 298.5t270.5 111.5q42 0 112.5 -9t114.5 -20v-571q0 -78 64 -78q57 0 92 92.5t35 294.5q0 477 -465 477q-226 0 -346.5 -139.5t-120.5 -425.5q0 -149 36.5 -258t105.5 -173.5t160 -95t208 -30.5q146 0 244 32l9 -8 l-19 -131q-32 -8 -109 -15t-125 -7z" />
<glyph unicode="A" horiz-adv-x="1071" d="M43 0l454 1372h94l451 -1372q-94 4 -188 0l-101 329h-428l-103 -329q-90 4 -179 0zM715 454l-174 574l-177 -574h351z" />
<glyph unicode="B" horiz-adv-x="1096" d="M798 393q0 262 -259 262h-185v-536q95 -8 183 -8q56 0 98.5 11t81.5 39.5t60 87t21 144.5zM767 1011q0 128 -58.5 185t-189.5 57q-45 0 -86.5 -2.5t-60.5 -4.5l-18 -3v-465h165q63 0 106 10t76.5 35t49.5 71.5t16 116.5zM158 0q9 50 10.5 124.5t1.5 395.5v322 q0 320 -1.5 395t-10.5 125q232 14 366 14q212 0 317.5 -82t105.5 -269q0 -110 -53.5 -190t-123.5 -108v-3q29 -10 54.5 -23.5t55.5 -39.5t51.5 -58.5t36 -84t14.5 -112.5q0 -118 -28.5 -200.5t-86 -130t-134.5 -68.5t-182 -21q-78 0 -176.5 3.5t-157.5 6.5z" />
<glyph unicode="C" horiz-adv-x="969" d="M877 158l9 -8l-20 -132q-147 -32 -235 -32q-124 0 -214.5 38t-155 122t-96.5 222t-32 332q0 676 498 676q69 0 142 -15.5t115 -42.5q-47 -101 -53 -137h-23q-33 33 -79 49.5t-130 16.5q-284 0 -284 -559q0 -139 16 -242.5t42.5 -166t66.5 -100t81.5 -51t94.5 -13.5 q57 0 109.5 7.5t76.5 14t71 21.5z" />
<glyph unicode="D" horiz-adv-x="1126" d="M816 688q0 171 -20.5 284t-64 173t-99 83t-136.5 23q-34 0 -69 -2t-53 -4l-18 -2v-1126q50 -6 138 -6q79 0 137 30.5t100.5 98t63.5 179.5t21 269zM159 0q9 50 10.5 124.5t1.5 395.5v322q0 320 -1.5 395t-10.5 125q158 14 300 14q73 0 131 -7t116 -26.5t101.5 -51.5 t82 -83.5t62.5 -121.5t38 -166.5t14 -217.5q0 -170 -25.5 -297t-69.5 -206t-111.5 -127.5t-142 -67t-169.5 -18.5q-74 0 -155.5 3.5t-126.5 6.5z" />
<glyph unicode="E" horiz-adv-x="996" d="M158 1362h731q-5 -57 0 -137q-58 10 -534 10v-465q393 0 484 14q-6 -85 0 -152q-64 11 -484 11v-516q450 0 545 23q-4 -29 -4 -80.5t4 -69.5h-742q9 50 10.5 124.5t1.5 395.5v322q0 320 -1.5 395t-10.5 125z" />
<glyph unicode="F" horiz-adv-x="965" d="M368 0h-210q9 50 10.5 124.5t1.5 395.5v322q0 320 -1.5 395t-10.5 125h731q-5 -57 0 -137q-58 10 -534 10v-467q393 0 484 14q-6 -85 0 -152q-64 11 -484 11v-121q0 -311 2 -390t11 -130z" />
<glyph unicode="G" horiz-adv-x="1079" d="M772 129v300q0 171 -16 255q14 -2 100.5 -2.5t99.5 2.5q-3 -180 -3 -277v-382q-20 -3 -63 -10.5t-66.5 -11t-58.5 -8.5t-67 -7t-65 -2q-107 0 -184.5 20.5t-139.5 69.5t-99.5 131.5t-57 204.5t-19.5 290q0 341 134 507.5t384 166.5q80 0 169 -16.5t134 -43.5 q-41 -82 -50 -135h-25q-72 70 -248 70q-77 0 -133 -28.5t-97 -93t-61.5 -174.5t-20.5 -267q0 -144 14 -248t38 -167t64 -99.5t83.5 -49.5t104.5 -13q80 0 149 18z" />
<glyph unicode="H" horiz-adv-x="1177" d="M825 631h-475v-111q0 -311 2 -390t12 -130q-104 3 -210 0q9 50 10.5 124.5t1.5 395.5v322q0 320 -1.5 395t-10.5 125q103 -3 208 0q-9 -50 -10.5 -125t-1.5 -395v-78h475v78q0 320 -1.5 395t-11.5 125q104 -3 211 0q-10 -50 -11.5 -125t-1.5 -395v-322q0 -320 2 -395 t12 -125q-106 3 -212 0q10 50 11.5 125t1.5 395v111z" />
<glyph unicode="I" horiz-adv-x="643" d="M215 0q10 50 12 125t2 395v322q0 320 -1.5 395t-11.5 125q104 -3 211 0q-10 -50 -11.5 -125t-1.5 -395v-322q0 -320 2 -395t12 -125q-106 3 -213 0z" />
<glyph unicode="J" horiz-adv-x="649" d="M421 842v-729q0 -108 -12 -180t-54 -134q-45 -66 -134 -111t-186 -48l-20 95q18 -3 54 -3q38 0 67 15t47 45t29.5 63t16.5 81t6.5 86t1.5 91v729q0 311 -2 390t-12 130q104 -3 211 0q-10 -50 -11.5 -125t-1.5 -395z" />
<glyph unicode="K" horiz-adv-x="1054" d="M355 842v-84v-5q1 -12 13 -12q7 0 11 3t13 16l390 602q144 -2 192 0l-419 -631l446 -731q-105 3 -200 0l-415 692q-9 17 -20 17q-9 0 -11 -11v-178q0 -311 2 -390t12 -130q-103 3 -207 0q10 50 11.5 125t1.5 395v322q0 320 -1.5 395t-11.5 125q102 -3 206 0 q-9 -51 -11 -130t-2 -390z" />
<glyph unicode="L" horiz-adv-x="866" d="M840 0h-683q9 50 10.5 124.5t1.5 395.5v322q0 320 -1.5 395t-10.5 125q104 -3 210 0q-9 -51 -11 -130t-2 -390q0 -106 6 -709q263 0 356 4t124 18q-3 -10 -3 -77.5t3 -77.5z" />
<glyph unicode="M" horiz-adv-x="1294" d="M679 433h-64l-276 533v-446q0 -312 2.5 -390.5t12.5 -129.5q-36 1 -101 1q-64 0 -99 -1q10 50 12 125t2 395v842h133l346 -682l346 682h134v-842q0 -311 2 -390t12 -130q-35 1 -100 1t-101 -1q10 51 12.5 129.5t2.5 390.5v446z" />
<glyph unicode="N" horiz-adv-x="1166" d="M168 520v336q0 320 -2 395t-12 125h157l518 -967v433q0 312 -2.5 390.5t-12.5 129.5q100 -3 199 0q-10 -51 -12 -130t-2 -390v-854h-112l-550 1006v-474q0 -312 2.5 -390.5t12.5 -129.5q-99 3 -198 0q10 50 12 125t2 395z" />
<glyph unicode="O" horiz-adv-x="1177" d="M315 681q0 -135 13.5 -235.5t36.5 -163.5t58.5 -102t75 -54t90.5 -15t90.5 15t74.5 53.5t58 102t36.5 164t13.5 235.5t-13.5 235.5t-36.5 164t-58 102t-74.5 53.5t-90.5 15t-90.5 -15t-75 -54t-58.5 -102t-36.5 -163.5t-13.5 -235.5zM131 681q0 247 55 403t154.5 224 t248.5 68t248.5 -68t154.5 -224t55 -403q0 -368 -114 -531.5t-344 -163.5t-344 163.5t-114 531.5z" />
<glyph unicode="P" horiz-adv-x="1040" d="M772 944q0 163 -57 236t-172 73q-52 0 -99 -2.5t-68 -4.5l-21 -3v-599h157q128 0 194 67.5t66 232.5zM355 522q0 -313 2 -392t12 -130q-105 3 -211 0q9 50 10.5 124.5t1.5 395.5v322q0 320 -1.5 395t-10.5 125q196 14 370 14q215 0 322.5 -109.5t107.5 -310.5 q0 -216 -119.5 -325t-345.5 -109h-138z" />
<glyph unicode="Q" horiz-adv-x="1172" d="M131 681q0 247 55 403t154.5 224t248.5 68t248.5 -68t154.5 -224t55 -403q0 -276 -65 -435.5t-194 -220.5q152 -114 294 -204q-44 -12 -96 -37.5t-73 -46.5q-35 35 -59.5 58.5t-55.5 50.5t-43 37t-59.5 49t-67.5 55q-6 0 -19 -0.5t-20 -0.5q-230 0 -344 163.5t-114 531.5 zM315 681q0 -135 13.5 -235.5t36.5 -163.5t58.5 -102t75 -54t90.5 -15t90.5 15t74.5 53.5t58 102t36.5 164t13.5 235.5t-13.5 235.5t-36.5 164t-58 102t-74.5 53.5t-90.5 15t-90.5 -15t-75 -54t-58.5 -102t-36.5 -163.5t-13.5 -235.5z" />
<glyph unicode="R" horiz-adv-x="1083" d="M355 885v-189h160q51 0 94.5 14t81 44.5t58.5 85t21 129.5q0 284 -229 284q-67 0 -118 -3.5t-61 -3.5q-7 -189 -7 -361zM174 520v365q0 191 -11 477q28 0 137.5 7t225.5 7q220 0 324 -104.5t104 -288.5q0 -140 -70 -241t-184 -142l311 -600q-113 6 -204 0l-287 571h-166 v-51q0 -311 2 -390t12 -130q-104 3 -207 0q10 50 11.5 125t1.5 395z" />
<glyph unicode="S" horiz-adv-x="935" d="M429 113q106 0 165 65t59 182q0 116 -41.5 173.5t-146.5 87.5q-63 18 -110.5 37t-96.5 51t-80.5 71.5t-51.5 98t-20 130.5q0 176 113.5 271.5t308.5 95.5q85 0 167 -20t122 -51q-41 -88 -58 -151h-26q-22 52 -74.5 74.5t-152.5 22.5q-98 0 -154.5 -55.5t-56.5 -157.5 q0 -65 10 -105.5t37 -70t64.5 -47t103.5 -35.5q43 -12 68.5 -20t65 -24.5t63.5 -34.5t52 -47.5t43.5 -65t26.5 -86.5t11 -112q0 -194 -116.5 -299t-313.5 -105q-196 0 -324 96q34 78 57 168h26q73 -137 260 -137z" />
<glyph unicode="T" horiz-adv-x="876" d="M527 1235v-715q0 -312 2.5 -390.5t12.5 -129.5q-103 3 -205 0q9 50 10.5 124.5t1.5 395.5v715q-203 0 -329 -11q2 9 2 67.5t-3 70.5h838q-3 -13 -3.5 -68.5t2.5 -69.5q-152 11 -329 11z" />
<glyph unicode="U" horiz-adv-x="1163" d="M353 842v-493q0 -112 59 -175t172 -63q116 0 176.5 63t60.5 175v493q0 312 -2.5 390.5t-12.5 129.5q103 -3 204 0q-10 -51 -12 -130t-2 -390v-456q0 -192 -111.5 -296t-300.5 -104t-302 104t-113 296v456q0 312 -2.5 390.5t-12.5 129.5q107 -3 214 0 q-10 -51 -12.5 -129.5t-2.5 -390.5z" />
<glyph unicode="V" horiz-adv-x="1015" d="M406 0q-320 1257 -360 1362q105 -3 207 0q6 -39 267 -1108q61 258 112.5 471t76.5 315t43.5 176.5t24.5 101.5t8 44q89 -3 180 0q-9 -18 -35 -119t-118.5 -446t-219.5 -797q-94 6 -186 0z" />
<glyph unicode="W" horiz-adv-x="1328" d="M1048 0q-94 6 -185 0q-37 126 -100.5 365t-104.5 378q-137 -524 -199 -743q-94 6 -185 0q-99 811 -190 1362q102 -3 202 0q17 -170 57.5 -504.5t60.5 -557.5q7 24 33 114t36.5 127.5t33 118.5t36 133.5t31 123.5t31.5 135q62 -6 116 0q25 -109 54 -208.5t76.5 -253.5 t84.5 -283q107 868 127 1055q94 -3 187 0q-24 -166 -97 -645t-105 -717z" />
<glyph unicode="X" horiz-adv-x="1063" d="M273 0q-94 3 -199 0l375 708l-347 654q50 -2 201 0l237 -476l243 476q143 -2 191 0l-345 -650l372 -712q-105 3 -199 0l-265 537z" />
<glyph unicode="Y" horiz-adv-x="1052" d="M622 598v-78q0 -320 2 -395t12 -125q-106 3 -212 0q10 50 11.5 125t1.5 395v65q-320 634 -396 777q52 -2 204 0q43 -92 138 -293.5t149 -315.5q97 193 293 609q14 -3 95.5 -3t96.5 3q-92 -184 -395 -764z" />
<glyph unicode="Z" horiz-adv-x="940" d="M855 1313l-545 -1192q237 0 353 4t173 18q-3 -29 -3 -80t3 -69q-98 6 -147 6h-609v41l552 1198h-353q-63 0 -147 -6q1 8 1 65t-1 68q66 -4 147 -4h576v-49z" />
<glyph unicode="[" horiz-adv-x="632" d="M322 -111h66q77 0 147 5q-1 -8 -1 -65.5t1 -68.5q-115 7 -147 7h-234q9 50 10.5 124.5t1.5 395.5v788q0 321 -1.5 395.5t-10.5 124.5h234q31 0 147 7q-1 -10 -1 -68t1 -66q-70 5 -147 5h-66v-1584z" />
<glyph unicode="\" horiz-adv-x="632" d="M419 -16l-409 1591q73 -4 164 0q9 -78 40 -199l409 -1591q-73 4 -164 0q-9 78 -40 199z" />
<glyph unicode="]" horiz-adv-x="632" d="M311 1473h-66q-77 0 -147 -5q1 8 1 66t-1 68q116 -7 147 -7h234q-9 -50 -10.5 -124.5t-1.5 -395.5v-788q0 -321 1.5 -395.5t10.5 -124.5h-234q-31 0 -147 -7q1 11 1 68.5t-1 65.5q70 -5 147 -5h66v1584z" />
<glyph unicode="^" horiz-adv-x="948" d="M481 1311l-223 -494q-86 3 -170 0l315 662q75 -5 152 0l305 -662q-90 3 -178 0z" />
<glyph unicode="_" horiz-adv-x="991" d="M841 -328h-688q-91 0 -147 -4q1 8 1 64t-1 67q66 -4 147 -4h688q90 0 146 4q-1 -8 -1 -64t1 -67q-66 4 -146 4z" />
<glyph unicode="`" horiz-adv-x="589" d="M485 1128h-75q-129 82 -318 263q130 -5 211 0q84 -124 182 -257v-6z" />
<glyph unicode="a" horiz-adv-x="935" d="M446 874q-53 0 -95 -9t-71.5 -28t-40.5 -28.5t-30 -28.5h-25q0 11 -40 131q52 28 133.5 52t149.5 24q176 0 261.5 -78.5t85.5 -238.5v-503q0 -50 16 -63t72 -13q-10 -43 -10 -75q-25 -20 -79 -20q-122 0 -145 112v1q-31 -54 -97 -88.5t-144 -34.5q-136 0 -214.5 77 t-78.5 208q0 138 93 217.5t279 79.5h141v142q0 76 -40.5 120t-120.5 44zM429 102q81 0 129.5 53t48.5 141v170h-151q-188 0 -188 -184q0 -90 42.5 -135t118.5 -45z" />
<glyph unicode="b" horiz-adv-x="964" d="M489 864q-77 0 -124.5 -57t-47.5 -123v-564q80 -11 129 -11q126 0 179.5 101.5t53.5 318.5q0 129 -21.5 203t-61.5 103t-107 29zM317 1047v-144q32 36 83 60t114 24q172 0 254 -109t82 -328q0 -306 -96.5 -435t-325.5 -129q-50 0 -150 13t-124 14v1034q0 155 -2 210 t-11 105q96 -3 189 0q-9 -50 -11 -102.5t-2 -212.5z" />
<glyph unicode="c" horiz-adv-x="786" d="M480 858q-92 0 -137.5 -87t-45.5 -304q0 -90 11 -155t29 -103t46 -60t56 -29t66 -7q89 0 195 43l9 -9l-19 -128q-97 -33 -176 -33q-52 0 -93.5 5.5t-83 20t-72.5 39t-58.5 64t-44.5 93.5t-27 129t-10 169q0 481 367 481q63 0 130 -14t102 -33q-45 -95 -50 -137h-25 q-63 55 -169 55z" />
<glyph unicode="d" horiz-adv-x="980" d="M838 1047v-732q0 -167 1.5 -216.5t10.5 -98.5q-93 3 -188 0q7 43 10 89q-35 -46 -92.5 -74.5t-120.5 -28.5q-160 0 -247 127t-87 351q0 255 116.5 389t313.5 134q49 0 119 -14v74q0 162 -1.5 214.5t-10.5 100.5q95 -3 188 0q-9 -49 -10.5 -98.5t-1.5 -216.5zM674 308v7 v535q-47 14 -132 14q-55 0 -97.5 -20t-77 -66t-53 -130.5t-18.5 -204.5q0 -175 48 -254.5t146 -79.5q88 0 134.5 59.5t49.5 139.5z" />
<glyph unicode="e" horiz-adv-x="921" d="M521 109q117 0 231 49l8 -8l-19 -132q-115 -32 -199 -32q-79 0 -139.5 13.5t-114.5 47.5t-88.5 90t-54.5 143.5t-20 204.5q0 264 90.5 383t274.5 119q166 0 246.5 -111t80.5 -311v-128h-525q4 -183 61 -255.5t168 -72.5zM486 874q-96 0 -140 -75t-52 -259h359v45 q0 127 -41.5 208t-125.5 81z" />
<glyph unicode="f" horiz-adv-x="604" d="M358 854v-539q0 -160 2 -212.5t11 -102.5q-93 3 -189 0q9 50 11 105t2 210v539q-96 0 -149 -4q1 8 1 58t-1 61q92 -6 149 -6v56q0 175 94 273t235 98q69 0 141 -27l-23 -128l-5 -1q-47 39 -108 39q-171 0 -171 -238v-74q76 0 217 6q-3 -75 0 -117q-72 4 -217 4z" />
<glyph unicode="g" horiz-adv-x="962" d="M470 129q86 0 137 56.5t51 121.5v549q-60 8 -132 8q-83 0 -134.5 -37.5t-78.5 -130t-27 -249.5q0 -175 44.5 -246.5t139.5 -71.5zM658 51v54q-31 -44 -89 -71.5t-131 -27.5q-323 0 -323 454q0 275 104.5 401t328.5 126q72 0 279 -24v-873q0 -225 -97 -333.5t-319 -108.5 q-55 0 -197 33l-18 131l8 8q6 -2 34 -11.5t39 -12.5t37 -9t52.5 -8t59.5 -2q232 0 232 274z" />
<glyph unicode="h" horiz-adv-x="985" d="M317 1047v-218q28 75 93.5 116.5t155.5 41.5q131 0 201.5 -85t70.5 -244v-343q0 -167 1.5 -216.5t10.5 -98.5q-93 3 -188 0q9 48 10.5 100.5t1.5 214.5v362q0 97 -39 147t-103 50q-86 0 -144 -55.5t-71 -154.5v-349q0 -160 2 -212.5t11 -102.5q-93 3 -189 0q9 50 11 105 t2 210v732q0 160 -2 212.5t-11 102.5q93 -3 189 0q-9 -50 -11 -105t-2 -210z" />
<glyph unicode="i" horiz-adv-x="475" d="M332 973q-9 -49 -11 -105t-2 -211v-342q0 -155 2 -210t11 -105q-93 3 -189 0q9 50 11 105t2 210v342q0 155 -2 211t-11 105q96 -3 189 0zM139 1264q0 43 27.5 70.5t71.5 27.5t71 -27t27 -71t-27.5 -71.5t-70.5 -27.5q-44 0 -71.5 27.5t-27.5 71.5z" />
<glyph unicode="j" horiz-adv-x="477" d="M139 1264q0 43 27.5 70.5t71.5 27.5t71 -27t27 -71t-27.5 -71.5t-70.5 -27.5q-44 0 -71.5 27.5t-27.5 71.5zM319 657v-561q0 -71 -2.5 -111.5t-17.5 -93.5t-45 -96q-46 -67 -125 -109.5t-174 -45.5l-20 95q18 -3 54 -3q33 0 59 11t43.5 28.5t29.5 46t19 56t10.5 68 t4.5 72t1 76.5v567q0 155 -2 211t-11 105q96 -3 189 0q-9 -50 -11 -102.5t-2 -213.5z" />
<glyph unicode="k" horiz-adv-x="897" d="M319 1047v-502q1 -6 11 -6q8 0 21 18l315 416q84 -5 176 0l-350 -431l366 -542q-137 2 -188 0l-322 487q-9 17 -19 17q-8 0 -10 -7v-182q0 -160 2 -212.5t11 -102.5q-93 3 -189 0q9 50 11 105t2 210v732q0 155 -2 210t-11 105q96 -3 189 0q-9 -50 -11 -102.5t-2 -212.5z " />
<glyph unicode="l" horiz-adv-x="454" d="M309 1047v-732q0 -160 2 -212.5t11 -102.5q-93 3 -189 0q9 48 10.5 100.5t1.5 214.5v732q0 162 -1.5 214.5t-10.5 100.5q96 -3 189 0q-9 -50 -11 -102.5t-2 -212.5z" />
<glyph unicode="m" horiz-adv-x="1430" d="M317 627v-312q0 -160 2 -212.5t11 -102.5q-93 3 -189 0q9 50 11 105t2 210v424q0 166 -14 234q94 -3 188 0l-6 -123q25 60 90 98.5t132 38.5q176 0 235 -154q34 65 105.5 109.5t145.5 44.5q130 0 196.5 -84t66.5 -245v-343q0 -160 2 -212.5t11 -102.5q-93 3 -189 0 q9 48 10.5 100.5t1.5 214.5v362q0 98 -35 147.5t-98 49.5q-79 0 -128.5 -48t-61.5 -138q1 -9 1 -30v-343q0 -167 1.5 -216.5t10.5 -98.5q-93 3 -188 0q9 48 10.5 100.5t1.5 214.5v362q0 98 -35 147.5t-98 49.5q-85 0 -135.5 -54t-57.5 -156v-37z" />
<glyph unicode="n" horiz-adv-x="974" d="M317 627v-312q0 -160 2 -212.5t11 -102.5q-93 3 -189 0q9 50 11 105t2 210v424q0 166 -14 234q94 -3 188 0l-6 -122q26 65 91.5 100.5t150.5 35.5q131 0 202.5 -85t71.5 -244v-343q0 -167 1.5 -216.5t10.5 -98.5q-93 3 -188 0q9 48 10.5 100.5t1.5 214.5v362 q0 97 -39.5 147t-104.5 50q-88 0 -147 -55t-66 -155v-37z" />
<glyph unicode="o" horiz-adv-x="958" d="M479 98q103 0 154 89t51 290q0 220 -47.5 308.5t-157.5 88.5t-157.5 -88.5t-47.5 -308.5q0 -201 51 -290t154 -89zM479 -14q-91 0 -158 26.5t-117.5 86t-76 161.5t-25.5 246q0 234 96.5 357.5t280.5 123.5t280.5 -123.5t96.5 -357.5q0 -144 -25.5 -246t-76 -161.5 t-117.5 -86t-158 -26.5z" />
<glyph unicode="p" horiz-adv-x="970" d="M158 -74v731q0 161 -2 213.5t-11 102.5q93 -3 189 0q-9 -52 -10 -90q34 46 91.5 75t121.5 29q167 0 250 -111.5t83 -366.5q0 -277 -107.5 -400t-325.5 -123q-55 0 -115 14v-74q0 -162 1.5 -214.5t10.5 -100.5q-96 3 -189 0q9 50 11 102.5t2 212.5zM322 657v-534 q47 -14 137 -14q59 0 100.5 17.5t74.5 62.5t49 129t16 211q0 130 -22.5 204.5t-63.5 102.5t-108 28q-90 0 -136.5 -62.5t-46.5 -144.5z" />
<glyph unicode="q" horiz-adv-x="976" d="M487 109q77 0 124.5 57t47.5 123v564q-80 11 -129 11q-126 0 -179 -102t-53 -319q0 -187 44.5 -260.5t144.5 -73.5zM659 -74v144q-32 -36 -82.5 -60t-113.5 -24q-156 0 -246 119t-90 328q0 289 98 421.5t324 132.5q49 0 149 -13.5t125 -14.5v-1033q0 -155 2 -210t11 -105 q-96 3 -189 0q9 49 10.5 98.5t1.5 216.5z" />
<glyph unicode="r" horiz-adv-x="657" d="M505 842q-81 0 -133 -62t-55 -184v-281q0 -160 2 -212.5t11 -102.5q-93 3 -189 0q9 50 11 105t2 210v424q0 166 -14 234q93 -3 186 0q-9 -120 -9 -135q44 78 96.5 113.5t121.5 35.5q58 0 90 -12q-12 -104 -14 -158l-14 -7q-11 13 -37 22.5t-55 9.5z" />
<glyph unicode="s" horiz-adv-x="782" d="M375 111q74 0 115.5 45.5t41.5 106.5q0 82 -30.5 119.5t-106.5 49.5q-147 25 -211.5 91.5t-64.5 175.5q0 133 86 211.5t237 78.5q35 0 72 -6.5t59.5 -14t58 -20t48.5 -16.5q-16 -27 -33.5 -81t-20.5 -80h-14q-20 43 -68.5 68t-117.5 25q-71 0 -108 -38.5t-37 -111.5 q0 -68 32.5 -101t102.5 -46q147 -29 212.5 -93.5t65.5 -184.5q0 -129 -85 -216t-248 -87q-148 0 -264 67q40 87 46 150h18q22 -41 78 -66.5t136 -25.5z" />
<glyph unicode="t" horiz-adv-x="624" d="M176 1171l161 72h10v-282q76 0 217 6q-3 -75 0 -117q-72 4 -216 4v-522q0 -148 25 -194t115 -46q46 0 93 14v-90q-88 -30 -158 -30q-239 0 -239 256v612q-95 0 -148 -4q1 8 1 58t-1 61q92 -6 148 -6q0 160 -8 208z" />
<glyph unicode="u" horiz-adv-x="964" d="M307 657v-361q0 -198 125 -198q87 0 147.5 60t67.5 161v27v311q0 167 -1.5 217t-10.5 99q93 -3 188 0q-9 -48 -10.5 -101t-1.5 -215v-311q0 -253 9 -346q-91 3 -182 0l6 136q-25 -69 -93 -109.5t-153 -40.5q-255 0 -255 328v343q0 167 -1.5 217t-10.5 99q93 -3 188 0 q-9 -48 -10.5 -101t-1.5 -215z" />
<glyph unicode="v" horiz-adv-x="878" d="M348 0q-23 71 -129 426t-176 547q64 -2 193 0q43 -172 116.5 -440t96.5 -353q30 101 52 177t40.5 142t29.5 104t25.5 94t21 79.5t24 92.5t26.5 104q11 -3 84 -3t84 3q-166 -491 -308 -973q-24 2 -88 2t-92 -2z" />
<glyph unicode="w" horiz-adv-x="1251" d="M801 0q-31 138 -96 378t-88 332q-13 -55 -41.5 -173.5t-45 -185.5t-43 -166.5t-51.5 -184.5q-90 6 -160 0q-154 679 -233 973q64 -2 193 0q60 -370 141 -752q21 90 86.5 341.5t94.5 410.5q50 -2 150 0q27 -138 90.5 -376t92.5 -376q14 72 70 331.5t79 420.5 q10 -3 83.5 -3t84.5 3q-47 -195 -130 -515.5t-117 -457.5q-90 6 -160 0z" />
<glyph unicode="x" horiz-adv-x="903" d="M659 0l-204 359l-198 -359q-46 2 -168 0q179 293 292 488l-276 485q92 -5 177 0l189 -326l184 326q84 -5 176 0q-193 -295 -286 -453l303 -520q-137 2 -189 0z" />
<glyph unicode="y" horiz-adv-x="901" d="M409 -4q-24 -3 -30 -4q-218 683 -326 981q64 -2 193 0q102 -349 223 -772q90 303 211 772q10 -3 83.5 -3t84.5 3q-50 -148 -98 -306t-110.5 -374t-88.5 -303q-6 -20 -27 -92.5t-41.5 -142.5t-39.5 -126q-12 3 -84.5 2.5t-83.5 -2.5q4 12 60.5 158t73.5 209z" />
<glyph unicode="z" horiz-adv-x="784" d="M696 913l-410 -800h254q85 0 138 4q-1 -8 -1 -60.5t1 -62.5q-92 6 -138 6h-464v41l418 809h-231q-85 0 -138 -4q1 8 1 60.5t-1 62.5q91 -6 138 -6h433v-50z" />
<glyph unicode="{" horiz-adv-x="632" d="M68 666v30q86 10 127 56.5t41 146.5v500q0 110 49 158.5t164 48.5q37 0 86 -11v-76q-33 11 -63 11q-85 0 -85 -82v-555q0 -187 -182 -213q87 -10 134.5 -63t47.5 -148v-555q0 -43 21.5 -62.5t66.5 -19.5q29 0 60 11v-76q-49 -11 -86 -11q-115 0 -164 48.5t-49 158.5v500 q0 100 -41 146.5t-127 56.5z" />
<glyph unicode="|" horiz-adv-x="563" d="M190 -215q10 51 12.5 129.5t2.5 390.5v750q0 311 -2 390t-12 130q90 -3 183 0q-10 -51 -12 -130t-2 -390v-750q0 -312 2.5 -390.5t12.5 -129.5q-92 3 -185 0z" />
<glyph unicode="}" horiz-adv-x="632" d="M565 696v-30q-86 -10 -127 -56.5t-41 -146.5v-500q0 -110 -49 -158.5t-164 -48.5q-37 0 -86 11v76q31 -11 60 -11q45 0 66.5 19.5t21.5 62.5v555q0 95 47.5 148t134.5 63q-182 26 -182 213v555q0 82 -85 82q-30 0 -63 -11v76q50 11 86 11q115 0 164 -48.5t49 -158.5v-500 q0 -100 41 -146.5t127 -56.5z" />
<glyph unicode="~" horiz-adv-x="991" d="M166 518v152q105 63 199 63q53 0 142 -38t138 -38q78 0 182 70v-152q-95 -63 -198 -63q-55 0 -142 38t-141 38q-80 0 -180 -70z" />
<glyph unicode="&#xa1;" horiz-adv-x="485" d="M144 874q0 44 28 71.5t71 27.5t70.5 -27.5t27.5 -71.5t-27.5 -71t-70.5 -27q-44 0 -71.5 27.5t-27.5 70.5zM285 584q42 -584 45 -658q3 -100 4 -190.5t4 -124.5q-94 3 -191 0q3 29 3.5 62.5t1.5 102.5t4 150l45 658q43 -1 84 0z" />
<glyph unicode="&#xa2;" d="M609 852v-747q144 5 228 53l8 -8l-19 -120q-29 -13 -94.5 -26t-122.5 -17q0 -136 9 -203q-18 1 -54 1q-38 0 -56 -1q8 56 9 205q-177 17 -280.5 146t-103.5 371q0 197 109.5 326.5t274.5 150.5q-1 121 -9 184q18 -1 56 -1q36 0 54 1q-9 -63 -9 -181q153 -7 261 -66 q-4 -9 -11 -23l-10 -20t-8 -16.5t-7 -15.5t-5 -12t-4.5 -11.5t-3 -10t-2 -9.5t-1.5 -9h-24q-17 17 -72.5 41.5t-112.5 31.5v-14zM305 477q0 -159 60.5 -253.5t151.5 -114.5v743v10q-212 -41 -212 -385z" />
<glyph unicode="&#xa3;" d="M236 987q0 187 104.5 289.5t259.5 102.5q73 0 144 -20t108 -53q-12 -21 -20 -51.5t-10 -50.5l-3 -19l-5 -1q-33 35 -93.5 64t-116.5 29q-201 0 -201 -220q0 -101 58 -264q188 0 278 4q-3 -68 0 -107q-79 4 -244 4q46 -131 46 -211q0 -138 -32.5 -225t-107.5 -147v-5h222 q52 0 217 7q-3 -75 0 -117q-72 4 -217 4h-359q-93 0 -146 -4q1 8 1 52.5t-1 54.5q22 -1 32 -1q64 0 109 28t68 77t32.5 101.5t9.5 115.5q0 71 -63 270q-123 0 -188 -4q1 8 1 53t-1 56q56 -4 156 -6q-38 126 -38 194z" />
<glyph unicode="&#xa4;" horiz-adv-x="1107" d="M555 236q136 0 220.5 91.5t84.5 256.5t-84.5 256.5t-220.5 91.5t-220.5 -91.5t-84.5 -256.5t84.5 -256.5t220.5 -91.5zM555 127q-160 0 -268 80l-115 -115l-111 109l123 123q-57 105 -57 260q0 153 57 258l-123 125l111 108l115 -114q110 79 268 79t268 -79l115 114 l111 -108l-123 -125q57 -105 57 -258q0 -155 -57 -260l123 -123l-111 -109l-115 115q-108 -80 -268 -80z" />
<glyph unicode="&#xa5;" d="M708 539h-127v-19v-151h127q90 0 146 4q-1 -8 -1 -59.5t1 -61.5q-66 4 -146 4h-127q1 -193 14 -256q-106 3 -212 0q12 65 13 256h-135q-90 0 -146 -4q1 8 1 59t-1 62q66 -4 146 -4h135v151v19h-135q-90 0 -146 -4q1 8 1 58.5t-1 61.5q66 -4 146 -4h105 q-34 74 -100.5 217.5t-122.5 267t-102 226.5q52 -2 204 0q102 -270 247 -609q133 315 251 609q14 -3 95.5 -3t96.5 3q-54 -117 -163 -349.5t-168 -361.5h104q90 0 146 4q-1 -8 -1 -59t1 -61q-66 4 -146 4z" />
<glyph unicode="&#xa6;" horiz-adv-x="563" d="M205 1149v151q0 202 -14 275q90 -3 183 0q-14 -73 -14 -275v-151q0 -202 14 -275q-93 3 -183 0q14 73 14 275zM205 59v152q0 201 -14 274q90 -3 183 0q-14 -73 -14 -274v-152q0 -201 14 -274q-93 3 -183 0q14 73 14 274z" />
<glyph unicode="&#xa7;" horiz-adv-x="921" d="M627 678q0 66 -46.5 106t-152.5 58q-38 -12 -68 -59t-30 -99q0 -67 43 -106t145 -56q36 17 72.5 62t36.5 94zM452 113q72 0 114 37t42 100q0 62 -36 97.5t-119 48.5q-291 47 -291 259q0 80 45.5 139.5t126.5 77.5q-148 59 -148 228q0 133 91.5 204.5t236.5 71.5 q85 0 165 -20t120 -51q-43 -93 -59 -151h-25q-22 53 -68.5 75t-144.5 22q-73 0 -113.5 -35t-40.5 -100q0 -63 36.5 -99.5t119.5 -49.5q291 -48 291 -260q0 -84 -47.5 -143.5t-131.5 -76.5q76 -30 115 -89.5t39 -137.5q0 -130 -92 -202t-236 -72q-191 0 -319 96q34 78 57 168 h26q35 -67 91.5 -102t154.5 -35z" />
<glyph unicode="&#xa8;" horiz-adv-x="690" d="M52 1264q0 43 27.5 70.5t71.5 27.5q43 0 70.5 -27t27.5 -71t-27.5 -71.5t-70.5 -27.5t-71 27.5t-28 71.5zM441 1264q0 43 27.5 70.5t71.5 27.5t71 -27t27 -71t-27.5 -71.5t-70.5 -27.5q-44 0 -71.5 27.5t-27.5 71.5z" />
<glyph unicode="&#xa9;" horiz-adv-x="1556" d="M1403 680q0 -330 -155 -512t-460 -182q-310 0 -472 181t-162 513q0 328 162.5 512t471.5 184q306 0 460.5 -183.5t154.5 -512.5zM1288 680q0 599 -500 599q-258 0 -389 -151.5t-131 -447.5q0 -292 131.5 -444.5t388.5 -152.5q500 0 500 597zM957 422l7 -4l-14 -100 q-105 -19 -144 -19q-300 0 -300 393q0 183 80 276t230 93q95 0 159 -37q-26 -48 -37 -102h-15q-49 42 -116 42q-60 0 -94.5 -21t-54 -83t-19.5 -175q0 -84 12.5 -142.5t35.5 -89.5t49.5 -44t61.5 -13q30 0 56 3t36.5 5t36.5 9.5t30 8.5z" />
<glyph unicode="&#xaa;" horiz-adv-x="768" d="M374 1282q-55 0 -98.5 -15.5t-58 -27.5t-33.5 -32h-20q0 8 -3 18.5t-12.5 37.5t-16.5 49q40 23 105 41.5t121 18.5q278 0 278 -254v-361q0 -39 13.5 -50t57.5 -11q-9 -36 -9 -59q-19 -16 -63 -16q-93 0 -112 93v1q-25 -45 -80 -74t-127 -29q-102 0 -161 65.5t-59 152.5 q0 111 72.5 174.5t220.5 63.5h114v82q0 61 -32.5 96.5t-96.5 35.5zM356 702q69 0 108 47t39 121v106h-122q-72 0 -111 -30t-39 -107q0 -63 33 -100t92 -37z" />
<glyph unicode="&#xab;" horiz-adv-x="905" d="M446 178h-127l-174 404l174 403h127l-120 -403zM758 178h-127l-174 404l174 403h127l-121 -403z" />
<glyph unicode="&#xac;" horiz-adv-x="1118" d="M861 544h-579q-91 0 -147 -4q1 8 1 64t-1 67q66 -4 147 -4h555q90 0 146 4v-318q0 -80 5 -146q-7 1 -131 1q4 73 4 146v190z" />
<glyph unicode="&#xad;" horiz-adv-x="962" d="M650 544h-338q-90 0 -146 -4q1 8 1 64t-1 67q66 -4 146 -4h338q91 0 147 4q-1 -8 -1 -64.5t1 -66.5q-66 4 -147 4z" />
<glyph unicode="&#xae;" horiz-adv-x="1556" d="M1403 680q0 -330 -155 -512t-460 -182q-310 0 -472 181t-162 513q0 328 162.5 512t471.5 184q306 0 460.5 -183.5t154.5 -512.5zM1288 680q0 599 -500 599q-258 0 -389 -151.5t-131 -447.5q0 -292 131.5 -444.5t388.5 -152.5q500 0 500 597zM699 786v-73h87 q120 0 120 132q0 126 -114 126q-10 0 -45 -2t-45 -2q-3 -80 -3 -181zM582 604v182q0 94 -8 270q17 0 78 3.5t130 3.5q129 0 188 -60.5t59 -156.5q0 -72 -41.5 -132t-107.5 -80l183 -324q-86 2 -132 0l-166 310h-66v-16q0 -256 9 -294q-68 2 -135 0q9 38 9 294z" />
<glyph unicode="&#xaf;" horiz-adv-x="632" d="M418 1178h-203q-90 0 -146 -4q1 8 1 64.5t-1 66.5q83 -5 146 -5h203q76 0 146 5q-1 -8 -1 -64t1 -67q-66 4 -146 4z" />
<glyph unicode="&#xb0;" horiz-adv-x="706" d="M526 1073q0 88 -45 138.5t-129 50.5t-129 -50.5t-45 -138.5q0 -90 45.5 -143t128.5 -53t128.5 54t45.5 142zM647 1071q0 -130 -81 -219.5t-214 -89.5q-134 0 -214.5 89.5t-80.5 219.5t80 215.5t215 85.5q134 0 214.5 -85t80.5 -216z" />
<glyph unicode="&#xb1;" horiz-adv-x="1069" d="M596 842v-168h163q90 0 146 4q-1 -8 -1 -59t1 -62q-66 4 -146 4h-163v-147q0 -91 4 -147q-8 1 -64 1t-67 -1q4 66 4 147v147h-163q-90 0 -146 -4q1 8 1 59t-1 62q66 -4 146 -4h163v168q0 90 -4 146q8 -1 64.5 -1t66.5 1q-4 -66 -4 -146zM759 4h-449q-90 0 -146 -4 q1 8 1 59t-1 62q66 -4 146 -4h449q90 0 146 4q-1 -8 -1 -59.5t1 -61.5q-66 4 -146 4z" />
<glyph unicode="&#xb2;" horiz-adv-x="796" d="M119 410v102q0 70 22 128t57 98t77 75.5t84.5 68t77.5 67.5t57 82.5t22 103.5q0 150 -146 150q-70 0 -116.5 -25.5t-65.5 -63.5h-19q-13 43 -44 104q36 28 102 50t135 22q148 0 222 -65t74 -182q0 -62 -22 -115t-57 -91t-77.5 -73.5t-85 -70.5t-78 -72.5t-58 -88.5 t-22.5 -111h2q309 0 374 15q-2 -21 -2 -60.5t2 -51.5q-98 4 -111 4h-404z" />
<glyph unicode="&#xb3;" horiz-adv-x="796" d="M345 399q-156 0 -251 67q27 57 44 118h20q52 -91 196 -91q86 0 133.5 51.5t47.5 140.5q0 182 -171 182h-39q-68 0 -111 -2q1 5 1 45.5t-1 47.5q82 -5 111 -5h23q169 0 169 171q0 161 -167 161q-69 0 -113.5 -25t-63.5 -65h-19q-13 44 -44 105q37 28 101.5 50t132.5 22 q145 0 226.5 -61t81.5 -176q0 -77 -40.5 -137t-91.5 -80v-3q27 -8 51 -22t49 -39t40 -66.5t15 -94.5q0 -143 -87 -218.5t-243 -75.5z" />
<glyph unicode="&#xb4;" horiz-adv-x="589" d="M183 1128h-75v6q98 133 182 257q81 -5 211 0q-189 -181 -318 -263z" />
<glyph unicode="&#xb5;" horiz-adv-x="954" d="M307 657v-361q0 -96 47 -147t119 -51q79 0 126.5 57.5t47.5 153.5v348q0 167 -1.5 217t-10.5 99q93 -3 188 0q-9 -48 -10.5 -101t-1.5 -215v-311q0 -253 9 -346q-91 3 -182 0q1 20 2.5 49.5t1.5 35.5q-61 -99 -192 -99q-95 0 -143 52v-112q0 -162 1.5 -214.5t10.5 -100.5 q-95 3 -188 0q9 49 10.5 98.5t1.5 216.5v731q0 167 -1.5 217t-10.5 99q93 -3 188 0q-9 -48 -10.5 -101t-1.5 -215z" />
<glyph unicode="&#xb6;" horiz-adv-x="1126" d="M501 666h-35q-183 0 -283.5 93t-100.5 269q0 162 93.5 255t285.5 93q77 0 131 -3.5t70 -6.5l15 -4q-9 -50 -10.5 -125t-1.5 -395v-322q0 -321 1.5 -395.5t10.5 -124.5q-95 3 -190 0q9 48 11.5 185t2.5 481zM821 0q10 51 12.5 129.5t2.5 390.5v322q0 311 -2 390t-12 130 q94 -3 191 0q-10 -51 -12 -130t-2 -390v-322q0 -312 2.5 -390.5t12.5 -129.5q-96 3 -193 0z" />
<glyph unicode="&#xb7;" horiz-adv-x="446" d="M126 603q0 43 27 70.5t71 27.5t71.5 -27.5t27.5 -70.5t-27.5 -70.5t-71.5 -27.5t-71 27.5t-27 70.5z" />
<glyph unicode="&#xb8;" horiz-adv-x="587" d="M160 -399l-30 27q77 38 119.5 77.5t42.5 94.5q0 39 -25.5 58t-75.5 33l56 185h70l-27 -135q60 -8 95 -43.5t35 -97.5q0 -77 -75 -134.5t-185 -64.5z" />
<glyph unicode="&#xb9;" horiz-adv-x="796" d="M354 1235l-154 -71q-28 53 -44 62v10q56 20 108 42t127 55.5t95 42.5l20 -7q-6 -47 -6 -371v-225q0 -224 1.5 -276.5t9.5 -86.5h-167q7 34 8.5 86.5t1.5 276.5v462z" />
<glyph unicode="&#xba;" horiz-adv-x="808" d="M404 702q83 0 123 69t40 214q0 159 -37.5 228t-125.5 69t-125 -69t-37 -228q0 -145 39.5 -214t122.5 -69zM404 612q-149 0 -222 90t-73 306q0 364 295 364q148 0 222 -92.5t74 -271.5q0 -216 -73.5 -306t-222.5 -90z" />
<glyph unicode="&#xbb;" horiz-adv-x="905" d="M586 178h-129l123 404l-123 403h129l172 -403zM274 178h-129l123 404l-123 403h129l172 -403z" />
<glyph unicode="&#xbc;" horiz-adv-x="1742" d="M1243 1575l-555 -1571q-54 -148 -60 -199q-80 3 -143 0l555 1571q55 152 61 199q79 -3 142 0zM1007 226v29q157 514 195 697q67 -1 132 0l-182 -633h250q0 253 -9 304q74 -1 151 0q-10 -45 -10 -304q47 0 110 3q-1 -5 -1 -49.5t1 -51.5q-82 5 -110 5q0 -178 10 -226 q-76 1 -151 0q9 48 9 226h-395zM336 1235l-155 -71q-28 53 -44 62v10q44 16 91.5 35.5t79.5 33.5t83 37t77 34l19 -7q-6 -47 -6 -371v-225q0 -217 2 -272.5t10 -90.5h-167q7 34 8.5 86.5t1.5 276.5v462z" />
<glyph unicode="&#xbd;" horiz-adv-x="1742" d="M1233 1575l-555 -1571q-55 -152 -61 -199q-79 3 -142 0l555 1571q55 152 61 199q79 -3 142 0zM1117 0v102q0 70 22 128t57 98t77.5 75.5t84.5 68t77 67.5t57 82.5t22 103.5q0 151 -146 151q-70 0 -116 -25.5t-65 -64.5h-20q-14 46 -44 105q36 27 102.5 49.5t135.5 22.5 q148 0 222 -65t74 -182q0 -62 -22 -115t-57 -91.5t-78 -74t-85.5 -70.5t-78 -72.5t-58 -88.5t-22.5 -111h2q304 0 374 16q-2 -21 -2 -61t2 -52q-98 4 -110 4h-405zM336 1235l-155 -71q-28 53 -44 62v10q44 16 91.5 35.5t79.5 33.5t83 37t77 34l19 -7q-6 -47 -6 -371v-225 q0 -217 2 -272.5t10 -90.5h-167q7 34 8.5 86.5t1.5 276.5v462z" />
<glyph unicode="&#xbe;" horiz-adv-x="1742" d="M1007 226v29q157 514 195 697q67 -1 132 0l-182 -633h250q0 253 -9 304q74 -1 151 0q-10 -45 -10 -304q47 0 110 3q-1 -5 -1 -49.5t1 -51.5q-82 5 -110 5q0 -178 10 -226q-76 1 -151 0q9 48 9 226h-395zM314 399q-156 0 -251 67q29 62 45 118h19q52 -91 197 -91 q86 0 133 51.5t47 140.5q0 182 -171 182h-39q-68 0 -111 -2q1 5 1 45.5t-1 47.5q82 -5 111 -5h23q169 0 169 171q0 161 -167 161q-69 0 -113.5 -25t-63.5 -65h-19q-13 44 -44 105q37 28 101.5 50t132.5 22q146 0 227.5 -61t81.5 -176q0 -77 -41 -137t-92 -80v-3 q27 -8 51 -22t49 -39t40 -66.5t15 -94.5q0 -143 -87 -218.5t-243 -75.5zM1243 1575l-555 -1571q-54 -148 -60 -199q-80 3 -143 0l555 1571q55 152 61 199q79 -3 142 0z" />
<glyph unicode="&#xbf;" horiz-adv-x="700" d="M302 874q0 44 27.5 71.5t70.5 27.5q44 0 71.5 -27.5t27.5 -71.5q0 -43 -27.5 -70.5t-71.5 -27.5t-71 27t-27 71zM330 567q74 -2 145 0v-129q0 -57 -19.5 -108t-48.5 -87t-63.5 -76.5t-63.5 -76.5t-48.5 -87t-19.5 -109q0 -87 46.5 -130t132.5 -43q174 0 223 118h26 q17 -61 58 -150q-47 -37 -129 -64.5t-172 -27.5q-350 0 -350 304q0 56 16 106.5t42 89t57 74.5t62.5 69t57.5 65.5t42 72t16 81.5q0 33 -2.5 60t-5.5 37z" />
<glyph unicode="&#xc0;" horiz-adv-x="1071" d="M646 1413h-106q-48 31 -150.5 107.5t-157.5 115.5q130 -5 211 0q40 -42 108 -116t95 -102v-5zM43 0l454 1372h94l451 -1372q-94 4 -188 0l-101 329h-428l-103 -329q-90 4 -179 0zM715 454l-174 574l-177 -574h351z" />
<glyph unicode="&#xc1;" horiz-adv-x="1071" d="M541 1413h-107v5q27 28 95 102t108 116q81 -5 211 0q-57 -40 -158 -116.5t-149 -106.5zM43 0l454 1372h94l451 -1372q-94 4 -188 0l-101 329h-428l-103 -329q-90 4 -179 0zM715 454l-174 574l-177 -574h351z" />
<glyph unicode="&#xc2;" horiz-adv-x="1071" d="M744 1419l-204 109l-203 -109h-86l221 226h137l221 -226h-86zM43 0l454 1372h94l451 -1372q-94 4 -188 0l-101 329h-428l-103 -329q-90 4 -179 0zM715 454l-174 574l-177 -574h351z" />
<glyph unicode="&#xc3;" horiz-adv-x="1071" d="M43 0l454 1372h94l451 -1372q-94 4 -188 0l-101 329h-428l-103 -329q-90 4 -179 0zM715 454l-174 574l-177 -574h351zM315 1432l-65 12q7 41 17.5 71t30 58.5t53.5 43.5t81 15q50 0 96 -23.5t85 -47t73 -23.5q28 0 49 24t28 68l68 -12q-8 -87 -50.5 -142t-121.5 -55 q-40 0 -78 15t-63.5 32.5t-57.5 32.5t-61 15q-33 0 -52 -22.5t-32 -61.5z" />
<glyph unicode="&#xc4;" horiz-adv-x="1071" d="M43 0l454 1372h94l451 -1372q-94 4 -188 0l-101 329h-428l-103 -329q-90 4 -179 0zM715 454l-174 574l-177 -574h351zM248 1528q0 44 27 71t71 27t71 -27t27 -71t-27 -71t-71 -27t-71 27t-27 71zM637 1528q0 44 27.5 71t70.5 27q44 0 71.5 -27.5t27.5 -70.5t-27.5 -70.5 t-71.5 -27.5q-43 0 -70.5 27t-27.5 71z" />
<glyph unicode="&#xc5;" horiz-adv-x="1071" d="M726 1466q0 -61 -30.5 -104t-81.5 -62l428 -1300q-94 4 -188 0l-101 329h-428l-103 -329q-90 4 -179 0l429 1298q-54 18 -85.5 61.5t-31.5 106.5q0 83 52 131t133 48q84 0 135 -47t51 -132zM715 454l-174 574l-177 -574h351zM615 1468q0 95 -75 95q-39 0 -57.5 -28 t-18.5 -67q0 -37 17.5 -66t54.5 -30h8q71 2 71 96z" />
<glyph unicode="&#xc6;" horiz-adv-x="1456" d="M740 0q7 42 2.5 104.5t-25.5 239.5h-384l-113 -344q-90 4 -179 0l475 1362h784q-5 -57 0 -137q-47 8 -521 10l57 -465q381 3 454 16q-6 -87 0 -156q-65 11 -440 13l61 -516q334 0 427 23q-4 -29 -4 -80.5t4 -69.5h-598zM701 472l-74 759l-252 -759h326z" />
<glyph unicode="&#xc7;" horiz-adv-x="969" d="M512 -399l-30 27q77 38 119.5 77.5t42.5 94.5q0 39 -25 58t-75 33l28 97q-147 12 -242 85t-146 228.5t-51 398.5q0 676 498 676q69 0 142 -15.5t115 -42.5q-47 -101 -53 -137h-23q-33 33 -79 49.5t-130 16.5q-284 0 -284 -559q0 -139 16 -242.5t42.5 -166t66.5 -100 t81.5 -51t94.5 -13.5q57 0 109.5 7.5t76.5 14t71 21.5l9 -8l-20 -132q-127 -27 -215 -31l-9 -46q60 -8 95 -43.5t35 -97.5q0 -77 -75 -134.5t-185 -64.5z" />
<glyph unicode="&#xc8;" horiz-adv-x="996" d="M637 1413h-107q-48 30 -149 106.5t-158 116.5q130 -5 211 0q40 -42 108 -116t95 -102v-5zM158 1362h731q-5 -57 0 -137q-58 10 -534 10v-465q393 0 484 14q-6 -85 0 -152q-64 11 -484 11v-516q450 0 545 23q-4 -29 -4 -80.5t4 -69.5h-742q9 50 10.5 124.5t1.5 395.5v322 q0 320 -1.5 395t-10.5 125z" />
<glyph unicode="&#xc9;" horiz-adv-x="996" d="M500 1413h-107v5q27 28 95 102t108 116q81 -5 211 0q-57 -40 -158 -116.5t-149 -106.5zM158 1362h731q-5 -57 0 -137q-58 10 -534 10v-465q393 0 484 14q-6 -85 0 -152q-64 11 -484 11v-516q450 0 545 23q-4 -29 -4 -80.5t4 -69.5h-742q9 50 10.5 124.5t1.5 395.5v322 q0 320 -1.5 395t-10.5 125z" />
<glyph unicode="&#xca;" horiz-adv-x="996" d="M724 1419l-205 109l-203 -109h-86l222 226h137l221 -226h-86zM158 1362h731q-5 -57 0 -137q-58 10 -534 10v-465q393 0 484 14q-6 -85 0 -152q-64 11 -484 11v-516q450 0 545 23q-4 -29 -4 -80.5t4 -69.5h-742q9 50 10.5 124.5t1.5 395.5v322q0 320 -1.5 395t-10.5 125z " />
<glyph unicode="&#xcb;" horiz-adv-x="996" d="M158 1362h731q-5 -57 0 -137q-58 10 -534 10v-465q393 0 484 14q-6 -85 0 -152q-64 11 -484 11v-516q450 0 545 23q-4 -29 -4 -80.5t4 -69.5h-742q9 50 10.5 124.5t1.5 395.5v322q0 320 -1.5 395t-10.5 125zM238 1528q0 44 27 71t71 27t71 -27t27 -71t-27 -71t-71 -27 t-71 27t-27 71zM627 1528q0 44 27.5 71t70.5 27t70.5 -27t27.5 -71t-27.5 -71t-70.5 -27t-70.5 27t-27.5 71z" />
<glyph unicode="&#xcc;" horiz-adv-x="643" d="M428 1413h-106q-48 31 -150.5 107.5t-157.5 115.5q130 -5 211 0q40 -42 108 -116t95 -102v-5zM215 0q10 50 12 125t2 395v322q0 320 -1.5 395t-11.5 125q104 -3 211 0q-10 -50 -11.5 -125t-1.5 -395v-322q0 -320 2 -395t12 -125q-106 3 -213 0z" />
<glyph unicode="&#xcd;" horiz-adv-x="643" d="M323 1413h-107v5q27 28 95 102t108 116q81 -5 211 0q-57 -40 -158 -116.5t-149 -106.5zM215 0q10 50 12 125t2 395v322q0 320 -1.5 395t-11.5 125q104 -3 211 0q-10 -50 -11.5 -125t-1.5 -395v-322q0 -320 2 -395t12 -125q-106 3 -213 0z" />
<glyph unicode="&#xce;" horiz-adv-x="643" d="M524 1419l-205 109l-202 -109h-86l221 226h137l221 -226h-86zM215 0q10 50 12 125t2 395v322q0 320 -1.5 395t-11.5 125q104 -3 211 0q-10 -50 -11.5 -125t-1.5 -395v-322q0 -320 2 -395t12 -125q-106 3 -213 0z" />
<glyph unicode="&#xcf;" horiz-adv-x="643" d="M215 0q10 50 12 125t2 395v322q0 320 -1.5 395t-11.5 125q104 -3 211 0q-10 -50 -11.5 -125t-1.5 -395v-322q0 -320 2 -395t12 -125q-106 3 -213 0zM30 1528q0 44 27 71t71 27t71 -27t27 -71t-27 -71t-71 -27t-71 27t-27 71zM419 1528q0 44 27.5 71t70.5 27t70.5 -27 t27.5 -71t-27.5 -71t-70.5 -27t-70.5 27t-27.5 71z" />
<glyph unicode="&#xd0;" horiz-adv-x="1081" d="M159 0q9 50 10.5 124.5t1.5 395.5v117q-61 0 -122 -4q1 8 1 64.5t-1 66.5q68 -4 122 -4v82q0 320 -1.5 395t-10.5 125q158 14 300 14q73 0 131 -7t116 -26.5t101.5 -51.5t82 -83.5t62.5 -121.5t38 -166.5t14 -217.5q0 -170 -25.5 -297t-69.5 -206t-111.5 -127.5t-142 -67 t-169.5 -18.5q-74 0 -155.5 3.5t-126.5 6.5zM816 688q0 171 -20.5 284t-64 173t-99 83t-136.5 23q-34 0 -69 -2t-53 -4l-18 -2v-483h71q90 0 146 4q-1 -8 -1 -64.5t1 -66.5q-66 4 -146 4h-71v-520q50 -6 138 -6q79 0 137 30.5t100.5 98t63.5 179.5t21 269z" />
<glyph unicode="&#xd1;" horiz-adv-x="1166" d="M168 520v336q0 320 -2 395t-12 125h157l518 -967v433q0 312 -2.5 390.5t-12.5 129.5q100 -3 199 0q-10 -51 -12 -130t-2 -390v-854h-112l-550 1006v-474q0 -312 2.5 -390.5t12.5 -129.5q-99 3 -198 0q10 50 12 125t2 395zM350 1432l-65 12q7 41 17.5 71t30 58.5 t53.5 43.5t81 15q50 0 96 -23.5t85 -47t73 -23.5q28 0 49 24t28 68l68 -12q-8 -87 -50.5 -142t-121.5 -55q-40 0 -78 15t-63.5 32.5t-57.5 32.5t-61 15q-33 0 -52 -22.5t-32 -61.5z" />
<glyph unicode="&#xd2;" horiz-adv-x="1177" d="M690 1413h-106q-48 31 -150.5 107.5t-157.5 115.5q130 -5 211 0q40 -42 108 -116t95 -102v-5zM315 681q0 -135 13.5 -235.5t36.5 -163.5t58.5 -102t75 -54t90.5 -15t90.5 15t74.5 53.5t58 102t36.5 164t13.5 235.5t-13.5 235.5t-36.5 164t-58 102t-74.5 53.5t-90.5 15 t-90.5 -15t-75 -54t-58.5 -102t-36.5 -163.5t-13.5 -235.5zM131 681q0 247 55 403t154.5 224t248.5 68t248.5 -68t154.5 -224t55 -403q0 -368 -114 -531.5t-344 -163.5t-344 163.5t-114 531.5z" />
<glyph unicode="&#xd3;" horiz-adv-x="1177" d="M588 1413h-107v5q27 28 95 102t108 116q81 -5 211 0q-57 -40 -158 -116.5t-149 -106.5zM315 681q0 -135 13.5 -235.5t36.5 -163.5t58.5 -102t75 -54t90.5 -15t90.5 15t74.5 53.5t58 102t36.5 164t13.5 235.5t-13.5 235.5t-36.5 164t-58 102t-74.5 53.5t-90.5 15 t-90.5 -15t-75 -54t-58.5 -102t-36.5 -163.5t-13.5 -235.5zM131 681q0 247 55 403t154.5 224t248.5 68t248.5 -68t154.5 -224t55 -403q0 -368 -114 -531.5t-344 -163.5t-344 163.5t-114 531.5z" />
<glyph unicode="&#xd4;" horiz-adv-x="1177" d="M793 1419l-205 109l-203 -109h-86l221 226h137l222 -226h-86zM315 681q0 -135 13.5 -235.5t36.5 -163.5t58.5 -102t75 -54t90.5 -15t90.5 15t74.5 53.5t58 102t36.5 164t13.5 235.5t-13.5 235.5t-36.5 164t-58 102t-74.5 53.5t-90.5 15t-90.5 -15t-75 -54t-58.5 -102 t-36.5 -163.5t-13.5 -235.5zM131 681q0 247 55 403t154.5 224t248.5 68t248.5 -68t154.5 -224t55 -403q0 -368 -114 -531.5t-344 -163.5t-344 163.5t-114 531.5z" />
<glyph unicode="&#xd5;" horiz-adv-x="1177" d="M315 681q0 -135 13.5 -235.5t36.5 -163.5t58.5 -102t75 -54t90.5 -15t90.5 15t74.5 53.5t58 102t36.5 164t13.5 235.5t-13.5 235.5t-36.5 164t-58 102t-74.5 53.5t-90.5 15t-90.5 -15t-75 -54t-58.5 -102t-36.5 -163.5t-13.5 -235.5zM131 681q0 247 55 403t154.5 224 t248.5 68t248.5 -68t154.5 -224t55 -403q0 -368 -114 -531.5t-344 -163.5t-344 163.5t-114 531.5zM364 1432l-66 12q7 41 17.5 71t30 58.5t53.5 43.5t81 15q50 0 96 -23.5t85 -47t73 -23.5q28 0 49 24t28 68l69 -12q-8 -87 -50.5 -142t-121.5 -55q-40 0 -78.5 15t-64 32.5 t-57.5 32.5t-61 15q-33 0 -51 -22t-32 -62z" />
<glyph unicode="&#xd6;" horiz-adv-x="1177" d="M315 681q0 -135 13.5 -235.5t36.5 -163.5t58.5 -102t75 -54t90.5 -15t90.5 15t74.5 53.5t58 102t36.5 164t13.5 235.5t-13.5 235.5t-36.5 164t-58 102t-74.5 53.5t-90.5 15t-90.5 -15t-75 -54t-58.5 -102t-36.5 -163.5t-13.5 -235.5zM131 681q0 247 55 403t154.5 224 t248.5 68t248.5 -68t154.5 -224t55 -403q0 -368 -114 -531.5t-344 -163.5t-344 163.5t-114 531.5zM295 1528q0 44 27.5 71t70.5 27q44 0 71.5 -27.5t27.5 -70.5t-27.5 -70.5t-71.5 -27.5q-43 0 -70.5 27t-27.5 71zM684 1528q0 44 27 71t71 27t71.5 -27.5t27.5 -70.5 t-27.5 -70.5t-71.5 -27.5t-71 27t-27 71z" />
<glyph unicode="&#xd7;" horiz-adv-x="1069" d="M456 602l-144 143q-70 70 -106 101q6 5 41.5 40.5t44.5 45.5q70 -80 100 -107l144 -143l143 143q57 57 100 107q5 -6 40.5 -41.5t45.5 -44.5q-70 -62 -106 -101l-144 -143l144 -143q70 -70 106 -101q-6 -5 -41.5 -40.5t-44.5 -45.5q-70 80 -100 107l-143 143l-144 -143 q-57 -57 -100 -107q-5 6 -40.5 41.5t-45.5 44.5q70 62 106 101z" />
<glyph unicode="&#xd8;" horiz-adv-x="1177" d="M131 681q0 247 55 403t154.5 224t248.5 68q88 0 160 -24l9 24q53 146 55 162q83 -3 149 0l-94 -256q179 -159 179 -601q0 -368 -114 -531.5t-344 -163.5q-107 0 -182 31q-54 -153 -59 -191q-79 3 -142 0l92 260q-167 158 -167 595zM862 681q0 285 -59 422l-348 -953 q52 -39 134 -39q51 0 90.5 15t74.5 53.5t58 102t36.5 164t13.5 235.5zM315 681q0 -265 52 -402l336 945q-50 27 -114 27q-51 0 -90.5 -15t-75 -54t-58.5 -102t-36.5 -163.5t-13.5 -235.5z" />
<glyph unicode="&#xd9;" horiz-adv-x="1163" d="M677 1413h-107q-48 30 -149 106.5t-158 116.5q130 -5 211 0q40 -42 108 -116t95 -102v-5zM353 842v-493q0 -112 59 -175t172 -63q116 0 176.5 63t60.5 175v493q0 312 -2.5 390.5t-12.5 129.5q103 -3 204 0q-10 -51 -12 -130t-2 -390v-456q0 -192 -111.5 -296t-300.5 -104 t-302 104t-113 296v456q0 312 -2.5 390.5t-12.5 129.5q107 -3 214 0q-10 -51 -12.5 -129.5t-2.5 -390.5z" />
<glyph unicode="&#xda;" horiz-adv-x="1163" d="M572 1413h-106v5q27 28 95 102t108 116q81 -5 211 0q-55 -39 -157.5 -115.5t-150.5 -107.5zM353 842v-493q0 -112 59 -175t172 -63q116 0 176.5 63t60.5 175v493q0 312 -2.5 390.5t-12.5 129.5q103 -3 204 0q-10 -51 -12 -130t-2 -390v-456q0 -192 -111.5 -296 t-300.5 -104t-302 104t-113 296v456q0 312 -2.5 390.5t-12.5 129.5q107 -3 214 0q-10 -51 -12.5 -129.5t-2.5 -390.5z" />
<glyph unicode="&#xdb;" horiz-adv-x="1163" d="M781 1419l-204 109l-203 -109h-86l221 226h137l221 -226h-86zM353 842v-493q0 -112 59 -175t172 -63q116 0 176.5 63t60.5 175v493q0 312 -2.5 390.5t-12.5 129.5q103 -3 204 0q-10 -51 -12 -130t-2 -390v-456q0 -192 -111.5 -296t-300.5 -104t-302 104t-113 296v456 q0 312 -2.5 390.5t-12.5 129.5q107 -3 214 0q-10 -51 -12.5 -129.5t-2.5 -390.5z" />
<glyph unicode="&#xdc;" horiz-adv-x="1163" d="M353 842v-493q0 -112 59 -175t172 -63q116 0 176.5 63t60.5 175v493q0 312 -2.5 390.5t-12.5 129.5q103 -3 204 0q-10 -51 -12 -130t-2 -390v-456q0 -192 -111.5 -296t-300.5 -104t-302 104t-113 296v456q0 312 -2.5 390.5t-12.5 129.5q107 -3 214 0 q-10 -51 -12.5 -129.5t-2.5 -390.5zM289 1528q0 44 27.5 71t70.5 27t70.5 -27t27.5 -71t-27.5 -71t-70.5 -27t-70.5 27t-27.5 71zM678 1528q0 44 27 71t71 27t71 -27t27 -71t-27 -71t-71 -27t-71 27t-27 71z" />
<glyph unicode="&#xdd;" horiz-adv-x="1052" d="M490 1413h-106v5q27 28 95 102t108 116q81 -5 211 0q-55 -39 -157.5 -115.5t-150.5 -107.5zM621 598v-78q0 -320 2 -395t12 -125q-106 3 -212 0q10 50 11.5 125t1.5 395v65q-320 634 -396 777q52 -2 204 0q43 -92 138 -293.5t149 -315.5q97 193 293 609q14 -3 95.5 -3 t96.5 3q-92 -184 -395 -764z" />
<glyph unicode="&#xde;" horiz-adv-x="1019" d="M741 691q0 164 -52 234t-167 70q-52 0 -93.5 -2.5t-57.5 -4.5l-16 -3v-589h137q63 0 107 13.5t77 46.5t49 91t16 144zM355 1112q129 6 153 6q420 0 420 -415q0 -429 -456 -429h-117q0 -201 14 -274q-105 3 -211 0q12 68 12 395v582q0 317 -12 385q104 -3 210 0 q-13 -74 -13 -250z" />
<glyph unicode="&#xdf;" horiz-adv-x="1009" d="M503 1261q-184 0 -184 -218v-728q0 -160 2 -212.5t11 -102.5q-93 3 -189 0q9 50 11 105t2 210v703q0 185 94 277.5t249 92.5q156 0 247.5 -86.5t91.5 -205.5q0 -67 -24.5 -120t-59.5 -85.5t-70 -59.5t-59.5 -56t-24.5 -61q0 -42 25 -72t62 -47t81 -41.5t81 -52.5 t62 -82.5t25 -129.5q0 -134 -90.5 -218.5t-223.5 -84.5q-59 0 -117.5 12t-90.5 30q40 88 46 149h17q40 -66 150 -66q61 0 98 40.5t37 111.5q0 50 -18 88t-46.5 62t-63.5 44l-70 40t-63.5 44.5t-46.5 63.5t-18 90q0 48 17.5 86.5t44 62t57.5 49t57.5 48.5t44 60t17.5 84 q0 86 -47.5 131t-123.5 45z" />
<glyph unicode="&#xe0;" horiz-adv-x="935" d="M445 874q-53 0 -95 -9t-71.5 -28t-40.5 -28.5t-30 -28.5h-25q0 11 -40 131q52 28 133.5 52t149.5 24q176 0 261.5 -78.5t85.5 -238.5v-503q0 -50 16 -63t72 -13q-10 -43 -10 -75q-25 -20 -79 -20q-122 0 -145 112v1q-31 -54 -97 -88.5t-144 -34.5q-136 0 -214.5 77 t-78.5 208q0 138 93 217.5t279 79.5h141v142q0 76 -40.5 120t-120.5 44zM428 102q81 0 129.5 53t48.5 141v170h-151q-188 0 -188 -184q0 -90 42.5 -135t118.5 -45zM629 1128h-76q-126 80 -317 263q129 -5 210 0q72 -107 183 -257v-6z" />
<glyph unicode="&#xe1;" horiz-adv-x="935" d="M445 874q-53 0 -95 -9t-71.5 -28t-40.5 -28.5t-30 -28.5h-25q0 11 -40 131q52 28 133.5 52t149.5 24q176 0 261.5 -78.5t85.5 -238.5v-503q0 -50 16 -63t72 -13q-10 -43 -10 -75q-25 -20 -79 -20q-122 0 -145 112v1q-31 -54 -97 -88.5t-144 -34.5q-136 0 -214.5 77 t-78.5 208q0 138 93 217.5t279 79.5h141v142q0 76 -40.5 120t-120.5 44zM428 102q81 0 129.5 53t48.5 141v170h-151q-188 0 -188 -184q0 -90 42.5 -135t118.5 -45zM429 1128h-76v6q111 150 183 257q81 -5 210 0q-191 -183 -317 -263z" />
<glyph unicode="&#xe2;" horiz-adv-x="935" d="M445 874q-53 0 -95 -9t-71.5 -28t-40.5 -28.5t-30 -28.5h-25q0 11 -40 131q52 28 133.5 52t149.5 24q176 0 261.5 -78.5t85.5 -238.5v-503q0 -50 16 -63t72 -13q-10 -43 -10 -75q-25 -20 -79 -20q-122 0 -145 112v1q-31 -54 -97 -88.5t-144 -34.5q-136 0 -214.5 77 t-78.5 208q0 138 93 217.5t279 79.5h141v142q0 76 -40.5 120t-120.5 44zM428 102q81 0 129.5 53t48.5 141v170h-151q-188 0 -188 -184q0 -90 42.5 -135t118.5 -45zM681 1128l-205 146l-203 -146h-86l222 263h137l221 -263h-86z" />
<glyph unicode="&#xe3;" horiz-adv-x="935" d="M445 874q-53 0 -95 -9t-71.5 -28t-40.5 -28.5t-30 -28.5h-25q0 11 -40 131q52 28 133.5 52t149.5 24q176 0 261.5 -78.5t85.5 -238.5v-503q0 -50 16 -63t72 -13q-10 -43 -10 -75q-25 -20 -79 -20q-122 0 -145 112v1q-31 -54 -97 -88.5t-144 -34.5q-136 0 -214.5 77 t-78.5 208q0 138 93 217.5t279 79.5h141v142q0 76 -40.5 120t-120.5 44zM428 102q81 0 129.5 53t48.5 141v170h-151q-188 0 -188 -184q0 -90 42.5 -135t118.5 -45zM238 1161l-66 13q7 41 17.5 71t30 58.5t53.5 43.5t81 15q50 0 96 -23.5t85 -47t73 -23.5q28 0 49 24t28 68 l69 -12q-8 -87 -50.5 -142t-121.5 -55q-50 0 -96.5 23.5t-87.5 47t-76 23.5q-33 0 -52 -22.5t-32 -61.5z" />
<glyph unicode="&#xe4;" horiz-adv-x="935" d="M445 874q-53 0 -95 -9t-71.5 -28t-40.5 -28.5t-30 -28.5h-25q0 11 -40 131q52 28 133.5 52t149.5 24q176 0 261.5 -78.5t85.5 -238.5v-503q0 -50 16 -63t72 -13q-10 -43 -10 -75q-25 -20 -79 -20q-122 0 -145 112v1q-31 -54 -97 -88.5t-144 -34.5q-136 0 -214.5 77 t-78.5 208q0 138 93 217.5t279 79.5h141v142q0 76 -40.5 120t-120.5 44zM428 102q81 0 129.5 53t48.5 141v170h-151q-188 0 -188 -184q0 -90 42.5 -135t118.5 -45zM173 1264q0 44 27.5 71t70.5 27q44 0 71.5 -27.5t27.5 -70.5q0 -44 -28 -71.5t-71 -27.5t-70.5 27.5 t-27.5 71.5zM562 1264q0 44 27 71t71 27t71.5 -27.5t27.5 -70.5q0 -44 -27.5 -71.5t-71.5 -27.5q-43 0 -70.5 27.5t-27.5 71.5z" />
<glyph unicode="&#xe5;" horiz-adv-x="935" d="M445 874q-53 0 -95 -9t-71.5 -28t-40.5 -28.5t-30 -28.5h-25q0 11 -40 131q52 28 133.5 52t149.5 24q176 0 261.5 -78.5t85.5 -238.5v-503q0 -50 16 -63t72 -13q-10 -43 -10 -75q-25 -20 -79 -20q-122 0 -145 112v1q-31 -54 -97 -88.5t-144 -34.5q-136 0 -214.5 77 t-78.5 208q0 138 93 217.5t279 79.5h141v142q0 76 -40.5 120t-120.5 44zM428 102q81 0 129.5 53t48.5 141v170h-151q-188 0 -188 -184q0 -90 42.5 -135t118.5 -45zM532 1257q0 95 -75 95q-39 0 -57.5 -28t-18.5 -67q0 -38 18.5 -67t57.5 -29q75 0 75 96zM643 1255 q0 -82 -53 -130t-133 -48q-81 0 -133 48t-52 130q0 83 52 131t133 48q84 0 135 -47t51 -132z" />
<glyph unicode="&#xe6;" horiz-adv-x="1380" d="M988 109q117 0 231 49l8 -8l-19 -132q-115 -32 -199 -32q-214 0 -309 132q-90 -132 -282 -132q-149 0 -236.5 77.5t-87.5 214.5t88 213.5t274 76.5h151v142q0 76 -40.5 120t-120.5 44q-53 0 -95 -9t-71.5 -28t-40.5 -28.5t-30 -28.5h-25q0 11 -40 131q52 28 133.5 52 t149.5 24q207 0 285 -113q88 113 252 113q320 0 320 -422v-118h-515q4 -186 57.5 -262t161.5 -76zM431 98q76 0 126 57t50 143v168h-162q-177 0 -177 -178q0 -92 42.5 -141t120.5 -49zM959 874q-96 0 -138 -70.5t-50 -253.5h349v35q0 129 -39 209t-122 80z" />
<glyph unicode="&#xe7;" horiz-adv-x="786" d="M352 -399l-29 27q77 38 119 77.5t42 94.5q0 39 -25 58t-75 33l30 102q-69 10 -119 38t-90 85t-60 154.5t-20 235.5q0 481 367 481q63 0 130 -14t102 -33q-45 -95 -50 -137h-25q-63 55 -169 55q-92 0 -137.5 -87t-45.5 -304q0 -90 11 -155t29 -103t46 -60t56 -29t66 -7 q89 0 195 43l9 -9l-19 -128q-97 -33 -176 -33h-22l-10 -45q60 -8 95 -43.5t35 -97.5q0 -77 -75 -134.5t-185 -64.5z" />
<glyph unicode="&#xe8;" horiz-adv-x="911" d="M511 109q116 0 230 49l9 -8l-19 -132q-115 -32 -200 -32q-99 0 -171 22.5t-129.5 77t-86.5 154.5t-29 245q0 264 90.5 383t274.5 119q166 0 246.5 -111t80.5 -311v-128h-525q4 -183 61 -255.5t168 -72.5zM476 874q-96 0 -140 -75t-52 -259h359v45q0 127 -41.5 208 t-125.5 81zM600 1128h-76q-126 80 -317 263q130 -5 211 0q84 -124 182 -257v-6z" />
<glyph unicode="&#xe9;" horiz-adv-x="911" d="M511 109q116 0 230 49l9 -8l-19 -132q-115 -32 -200 -32q-99 0 -171 22.5t-129.5 77t-86.5 154.5t-29 245q0 264 90.5 383t274.5 119q166 0 246.5 -111t80.5 -311v-128h-525q4 -183 61 -255.5t168 -72.5zM476 874q-96 0 -140 -75t-52 -259h359v45q0 127 -41.5 208 t-125.5 81zM450 1128h-76v6q98 133 182 257q81 -5 211 0q-191 -183 -317 -263z" />
<glyph unicode="&#xea;" horiz-adv-x="911" d="M511 109q116 0 230 49l9 -8l-19 -132q-115 -32 -200 -32q-99 0 -171 22.5t-129.5 77t-86.5 154.5t-29 245q0 264 90.5 383t274.5 119q166 0 246.5 -111t80.5 -311v-128h-525q4 -183 61 -255.5t168 -72.5zM476 874q-96 0 -140 -75t-52 -259h359v45q0 127 -41.5 208 t-125.5 81zM685 1128l-205 146l-202 -146h-87l222 263h137l221 -263h-86z" />
<glyph unicode="&#xeb;" horiz-adv-x="911" d="M511 109q116 0 230 49l9 -8l-19 -132q-115 -32 -200 -32q-99 0 -171 22.5t-129.5 77t-86.5 154.5t-29 245q0 264 90.5 383t274.5 119q166 0 246.5 -111t80.5 -311v-128h-525q4 -183 61 -255.5t168 -72.5zM476 874q-96 0 -140 -75t-52 -259h359v45q0 127 -41.5 208 t-125.5 81zM183 1264q0 43 27.5 70.5t71.5 27.5t71 -27t27 -71t-27.5 -71.5t-70.5 -27.5q-44 0 -71.5 27.5t-27.5 71.5zM572 1264q0 43 27.5 70.5t71.5 27.5q43 0 70.5 -27t27.5 -71t-27.5 -71.5t-70.5 -27.5t-71 27.5t-28 71.5z" />
<glyph unicode="&#xec;" horiz-adv-x="477" d="M332 973q-9 -49 -11 -105t-2 -211v-342q0 -155 2 -210t11 -105q-93 3 -189 0q9 50 11 105t2 210v342q0 155 -2 211t-11 105q96 -3 189 0zM346 1128h-76q-126 80 -317 263q130 -5 211 0q84 -124 182 -257v-6z" />
<glyph unicode="&#xed;" horiz-adv-x="477" d="M332 973q-9 -49 -11 -105t-2 -211v-342q0 -155 2 -210t11 -105q-93 3 -189 0q9 50 11 105t2 210v342q0 155 -2 211t-11 105q96 -3 189 0zM203 1128h-76v6q98 133 182 257q81 -5 211 0q-191 -183 -317 -263z" />
<glyph unicode="&#xee;" horiz-adv-x="477" d="M332 973q-9 -49 -11 -105t-2 -211v-342q0 -155 2 -210t11 -105q-93 3 -189 0q9 50 11 105t2 210v342q0 155 -2 211t-11 105q96 -3 189 0zM441 1128l-204 146l-203 -146h-86l221 263h137l221 -263h-86z" />
<glyph unicode="&#xef;" horiz-adv-x="477" d="M332 973q-9 -49 -11 -105t-2 -211v-342q0 -155 2 -210t11 -105q-93 3 -189 0q9 50 11 105t2 210v342q0 155 -2 211t-11 105q96 -3 189 0zM-52 1264q0 44 27 71t71 27t71 -27t27 -71t-27.5 -71.5t-70.5 -27.5t-70.5 27.5t-27.5 71.5zM337 1264q0 44 27.5 71t70.5 27 q44 0 71.5 -27.5t27.5 -70.5q0 -44 -28 -71.5t-71 -27.5t-70.5 27.5t-27.5 71.5z" />
<glyph unicode="&#xf0;" d="M696 791q0 337 -166 428l-75 -138q-74 3 -150 0l109 166h-3q-110 0 -212 -41l-9 8l19 132q33 11 94 20.5t103 9.5q37 0 80 -5l49 87q73 -3 149 0l-78 -118q129 -56 193 -202t64 -399v-146q0 -607 -371 -607q-181 0 -281.5 121.5t-100.5 329.5q0 211 103 327.5t261 116.5 q75 0 133 -26t89 -64zM485 758q-92 0 -148 -79.5t-56 -235.5q0 -169 59.5 -251.5t146.5 -82.5q94 0 150.5 84.5t56.5 266.5q0 144 -53.5 221t-155.5 77z" />
<glyph unicode="&#xf1;" horiz-adv-x="974" d="M317 627v-312q0 -160 2 -212.5t11 -102.5q-93 3 -189 0q9 50 11 105t2 210v424q0 166 -14 234q94 -3 188 0l-6 -122q26 65 91.5 100.5t150.5 35.5q131 0 202.5 -85t71.5 -244v-343q0 -167 1.5 -216.5t10.5 -98.5q-93 3 -188 0q9 48 10.5 100.5t1.5 214.5v362 q0 97 -39.5 147t-104.5 50q-88 0 -147 -55t-66 -155v-37zM296 1161l-66 13q7 41 17.5 71t30.5 58.5t54 43.5t81 15q50 0 96 -23.5t85 -47t73 -23.5q28 0 48.5 23.5t27.5 68.5l69 -12q-8 -87 -50.5 -142t-121.5 -55q-50 0 -96.5 23.5t-87.5 47t-76 23.5q-33 0 -52 -22.5 t-32 -61.5z" />
<glyph unicode="&#xf2;" horiz-adv-x="958" d="M479 98q103 0 154 89t51 290q0 220 -47.5 308.5t-157.5 88.5t-157.5 -88.5t-47.5 -308.5q0 -201 51 -290t154 -89zM479 -14q-91 0 -158 26.5t-117.5 86t-76 161.5t-25.5 246q0 234 96.5 357.5t280.5 123.5t280.5 -123.5t96.5 -357.5q0 -144 -25.5 -246t-76 -161.5 t-117.5 -86t-158 -26.5zM629 1128h-76q-126 80 -317 263q129 -5 210 0q72 -107 183 -257v-6z" />
<glyph unicode="&#xf3;" horiz-adv-x="958" d="M479 98q103 0 154 89t51 290q0 220 -47.5 308.5t-157.5 88.5t-157.5 -88.5t-47.5 -308.5q0 -201 51 -290t154 -89zM479 -14q-91 0 -158 26.5t-117.5 86t-76 161.5t-25.5 246q0 234 96.5 357.5t280.5 123.5t280.5 -123.5t96.5 -357.5q0 -144 -25.5 -246t-76 -161.5 t-117.5 -86t-158 -26.5zM429 1128h-76v6q111 150 183 257q81 -5 210 0q-191 -183 -317 -263z" />
<glyph unicode="&#xf4;" horiz-adv-x="958" d="M479 98q103 0 154 89t51 290q0 220 -47.5 308.5t-157.5 88.5t-157.5 -88.5t-47.5 -308.5q0 -201 51 -290t154 -89zM479 -14q-91 0 -158 26.5t-117.5 86t-76 161.5t-25.5 246q0 234 96.5 357.5t280.5 123.5t280.5 -123.5t96.5 -357.5q0 -144 -25.5 -246t-76 -161.5 t-117.5 -86t-158 -26.5zM681 1128l-205 146l-203 -146h-86l222 263h137l221 -263h-86z" />
<glyph unicode="&#xf5;" horiz-adv-x="958" d="M479 98q103 0 154 89t51 290q0 220 -47.5 308.5t-157.5 88.5t-157.5 -88.5t-47.5 -308.5q0 -201 51 -290t154 -89zM479 -14q-91 0 -158 26.5t-117.5 86t-76 161.5t-25.5 246q0 234 96.5 357.5t280.5 123.5t280.5 -123.5t96.5 -357.5q0 -144 -25.5 -246t-76 -161.5 t-117.5 -86t-158 -26.5zM254 1161l-66 13q7 41 17.5 71t30.5 58.5t54 43.5t81 15q50 0 96 -23.5t85 -47t73 -23.5q28 0 48.5 23.5t27.5 68.5l69 -12q-8 -87 -50.5 -142t-121.5 -55q-50 0 -96.5 23.5t-87.5 47t-76 23.5q-33 0 -52 -22.5t-32 -61.5z" />
<glyph unicode="&#xf6;" horiz-adv-x="991" d="M185 1264q0 43 27.5 70.5t71.5 27.5t71 -27t27 -71t-27.5 -71.5t-70.5 -27.5q-44 0 -71.5 27.5t-27.5 71.5zM574 1264q0 43 27.5 70.5t71.5 27.5q43 0 70.5 -27t27.5 -71t-27.5 -71.5t-70.5 -27.5t-71 27.5t-28 71.5zM479 98q103 0 154 89t51 290q0 220 -47.5 308.5 t-157.5 88.5t-157.5 -88.5t-47.5 -308.5q0 -201 51 -290t154 -89zM479 -14q-91 0 -158 26.5t-117.5 86t-76 161.5t-25.5 246q0 234 96.5 357.5t280.5 123.5t280.5 -123.5t96.5 -357.5q0 -144 -25.5 -246t-76 -161.5t-117.5 -86t-158 -26.5z" />
<glyph unicode="&#xf7;" horiz-adv-x="1069" d="M759 546h-447q-90 0 -146 -4q1 8 1 64t-1 67q66 -4 146 -4h447q90 0 146 4q-1 -8 -1 -64.5t1 -66.5q-66 4 -146 4zM437 224q0 44 27.5 71.5t71.5 27.5q43 0 70.5 -27.5t27.5 -71.5t-27 -71t-71 -27t-71.5 27.5t-27.5 70.5zM437 992q0 44 27.5 71.5t71.5 27.5 q43 0 70.5 -27.5t27.5 -71.5t-27 -71t-71 -27t-71.5 27.5t-27.5 70.5z" />
<glyph unicode="&#xf8;" horiz-adv-x="958" d="M479 -14q-45 0 -91 8q-47 -133 -50 -168q-73 3 -132 0l72 207q-176 107 -176 473q0 234 96.5 357.5t280.5 123.5q66 0 125 -17l5 15q39 111 45 162q83 -3 149 0l-86 -240q139 -121 139 -401q0 -144 -25.5 -246t-76 -161.5t-117.5 -86t-158 -26.5zM274 477q0 -205 55 -297 l236 678q-36 16 -86 16q-110 0 -157.5 -88.5t-47.5 -308.5zM479 98q103 0 154 89t51 290q0 167 -29 260l-227 -633q22 -6 51 -6z" />
<glyph unicode="&#xf9;" horiz-adv-x="964" d="M307 657v-361q0 -198 125 -198q87 0 147.5 60t67.5 161v27v311q0 167 -1.5 217t-10.5 99q93 -3 188 0q-9 -48 -10.5 -101t-1.5 -215v-311q0 -253 9 -346q-91 3 -182 0l6 136q-25 -69 -93 -109.5t-153 -40.5q-255 0 -255 328v343q0 167 -1.5 217t-10.5 99q93 -3 188 0 q-9 -48 -10.5 -101t-1.5 -215zM606 1128h-76q-126 80 -317 263q130 -5 211 0q84 -124 182 -257v-6z" />
<glyph unicode="&#xfa;" horiz-adv-x="964" d="M307 657v-361q0 -198 125 -198q87 0 147.5 60t67.5 161v27v311q0 167 -1.5 217t-10.5 99q93 -3 188 0q-9 -48 -10.5 -101t-1.5 -215v-311q0 -253 9 -346q-91 3 -182 0l6 136q-25 -69 -93 -109.5t-153 -40.5q-255 0 -255 328v343q0 167 -1.5 217t-10.5 99q93 -3 188 0 q-9 -48 -10.5 -101t-1.5 -215zM455 1128h-76v6q98 133 182 257q81 -5 211 0q-191 -183 -317 -263z" />
<glyph unicode="&#xfb;" horiz-adv-x="964" d="M307 657v-361q0 -198 125 -198q87 0 147.5 60t67.5 161v27v311q0 167 -1.5 217t-10.5 99q93 -3 188 0q-9 -48 -10.5 -101t-1.5 -215v-311q0 -253 9 -346q-91 3 -182 0l6 136q-25 -69 -93 -109.5t-153 -40.5q-255 0 -255 328v343q0 167 -1.5 217t-10.5 99q93 -3 188 0 q-9 -48 -10.5 -101t-1.5 -215zM681 1128l-205 146l-203 -146h-86l222 263h137l221 -263h-86z" />
<glyph unicode="&#xfc;" horiz-adv-x="964" d="M307 657v-361q0 -198 125 -198q87 0 147.5 60t67.5 161v27v311q0 167 -1.5 217t-10.5 99q93 -3 188 0q-9 -48 -10.5 -101t-1.5 -215v-311q0 -253 9 -346q-91 3 -182 0l6 136q-25 -69 -93 -109.5t-153 -40.5q-255 0 -255 328v343q0 167 -1.5 217t-10.5 99q93 -3 188 0 q-9 -48 -10.5 -101t-1.5 -215zM578 1264q0 44 27 71t71 27t71 -27t27 -71t-27.5 -71.5t-70.5 -27.5t-70.5 27.5t-27.5 71.5zM188 1264q0 43 27.5 70.5t71.5 27.5q43 0 70.5 -27t27.5 -71t-27.5 -71.5t-70.5 -27.5t-71 27.5t-28 71.5z" />
<glyph unicode="&#xfd;" horiz-adv-x="901" d="M409 -4q-24 -3 -30 -4q-218 683 -326 981q64 -2 193 0q102 -349 223 -772q90 303 211 772q10 -3 83.5 -3t84.5 3q-50 -148 -98 -306t-110.5 -374t-88.5 -303q-6 -20 -27 -92.5t-41.5 -142.5t-39.5 -126q-12 3 -84.5 2.5t-83.5 -2.5q4 12 60.5 158t73.5 209zM472 1128h-76 v6q111 150 183 257q81 -5 211 0q-189 -181 -318 -263z" />
<glyph unicode="&#xfe;" horiz-adv-x="970" d="M322 1047v-166q34 47 92 76.5t123 29.5q167 0 250 -111.5t83 -366.5q0 -277 -107.5 -400t-325.5 -123q-55 0 -115 14v-74q0 -162 1.5 -214.5t10.5 -100.5q-96 3 -189 0q9 50 11 102.5t2 212.5v1121q0 155 -2 210t-11 105q96 -3 189 0q-9 -49 -10.5 -98.5t-1.5 -216.5z M505 864q-88 0 -134.5 -59.5t-48.5 -139.5v-542q47 -14 137 -14q59 0 100.5 17.5t74.5 62.5t49 129t16 211q0 130 -22.5 204.5t-63.5 102.5t-108 28z" />
<glyph unicode="&#xff;" horiz-adv-x="901" d="M409 -4q-24 -3 -30 -4q-218 683 -326 981q64 -2 193 0q102 -349 223 -772q90 303 211 772q10 -3 83.5 -3t84.5 3q-50 -148 -98 -306t-110.5 -374t-88.5 -303q-6 -20 -27 -92.5t-41.5 -142.5t-39.5 -126q-12 3 -84.5 2.5t-83.5 -2.5q4 12 60.5 158t73.5 209zM176 1264 q0 44 27 71t71 27t71.5 -27.5t27.5 -70.5q0 -44 -27.5 -71.5t-71.5 -27.5q-43 0 -70.5 27.5t-27.5 71.5zM565 1264q0 43 27.5 70.5t71.5 27.5t71 -27t27 -71t-27.5 -71.5t-70.5 -27.5q-44 0 -71.5 27.5t-27.5 71.5z" />
<glyph unicode="&#x152;" horiz-adv-x="1679" d="M861 1362h711q-5 -54 0 -129q-58 10 -534 10v-477q380 0 484 16q-6 -83 0 -148q-75 13 -484 13v-524q242 0 364.5 4t180.5 18q-4 -29 -4 -78t4 -67h-722q8 55 9 90q-101 -104 -281 -104q-225 0 -341.5 166t-116.5 529q0 695 458 695q178 0 281 -107q-1 49 -9 93zM315 681 q0 -134 14 -235t38 -164t59.5 -102t74.5 -54t88 -15t88 15t74.5 54t59 102t37.5 164t14 235t-14 235t-37.5 164t-59 102t-74.5 54t-88 15t-88 -15t-74.5 -54t-59.5 -102t-38 -164t-14 -235z" />
<glyph unicode="&#x153;" horiz-adv-x="1480" d="M1080 109q117 0 231 49l8 -8l-19 -132q-115 -32 -199 -32q-232 0 -330 133q-90 -133 -291 -133q-91 0 -158 26.5t-117.5 86t-76 161.5t-25.5 246q0 234 96.5 357.5t280.5 123.5q190 0 286 -132q88 132 284 132q166 0 246 -111t80 -311v-128h-521q0 -17 -2 -43 q10 -158 66.5 -221.5t160.5 -63.5zM480 98q99 0 149.5 81t54.5 265v41v38q-4 193 -52 272t-152 79q-110 0 -157.5 -88.5t-47.5 -308.5q0 -201 51 -290t154 -89zM1046 874q-92 0 -136.5 -68.5t-54.5 -231.5q1 -11 1 -34h356v45q0 127 -41 208t-125 81z" />
<glyph unicode="&#x178;" horiz-adv-x="1052" d="M621 598v-78q0 -320 2 -395t12 -125q-106 3 -212 0q10 50 11.5 125t1.5 395v65q-320 634 -396 777q52 -2 204 0q43 -92 138 -293.5t149 -315.5q97 193 293 609q14 -3 95.5 -3t96.5 3q-92 -184 -395 -764zM239 1528q0 44 27.5 71t70.5 27t70.5 -27t27.5 -71t-27.5 -71 t-70.5 -27t-70.5 27t-27.5 71zM628 1528q0 44 27 71t71 27t71 -27t27 -71t-27 -71t-71 -27t-71 27t-27 71z" />
<glyph unicode="&#x2c6;" horiz-adv-x="745" d="M575 1128l-204 146l-203 -146h-86l221 263h137l222 -263h-87z" />
<glyph unicode="&#x2dc;" horiz-adv-x="679" d="M111 1161l-66 13q7 41 17.5 71t30 58.5t53.5 43.5t81 15q50 0 96 -23.5t85 -47t73 -23.5q28 0 49 24t28 68l69 -12q-8 -87 -50.5 -142t-121.5 -55q-50 0 -96.5 23.5t-87.5 47t-76 23.5q-33 0 -52 -22.5t-32 -61.5z" />
<glyph unicode="&#x2000;" horiz-adv-x="822" />
<glyph unicode="&#x2001;" horiz-adv-x="1645" />
<glyph unicode="&#x2002;" horiz-adv-x="822" />
<glyph unicode="&#x2003;" horiz-adv-x="1645" />
<glyph unicode="&#x2004;" horiz-adv-x="548" />
<glyph unicode="&#x2005;" horiz-adv-x="411" />
<glyph unicode="&#x2006;" horiz-adv-x="274" />
<glyph unicode="&#x2007;" horiz-adv-x="274" />
<glyph unicode="&#x2008;" horiz-adv-x="205" />
<glyph unicode="&#x2009;" horiz-adv-x="329" />
<glyph unicode="&#x200a;" horiz-adv-x="91" />
<glyph unicode="&#x2010;" horiz-adv-x="962" d="M650 544h-338q-90 0 -146 -4q1 8 1 64t-1 67q66 -4 146 -4h338q91 0 147 4q-1 -8 -1 -64.5t1 -66.5q-66 4 -147 4z" />
<glyph unicode="&#x2011;" horiz-adv-x="962" d="M650 544h-338q-90 0 -146 -4q1 8 1 64t-1 67q66 -4 146 -4h338q91 0 147 4q-1 -8 -1 -64.5t1 -66.5q-66 4 -147 4z" />
<glyph unicode="&#x2012;" horiz-adv-x="962" d="M650 544h-338q-90 0 -146 -4q1 8 1 64t-1 67q66 -4 146 -4h338q91 0 147 4q-1 -8 -1 -64.5t1 -66.5q-66 4 -147 4z" />
<glyph unicode="&#x2013;" horiz-adv-x="1069" d="M759 544h-447q-90 0 -146 -4q1 8 1 64t-1 67q66 -4 146 -4h447q90 0 146 4q-1 -8 -1 -64.5t1 -66.5q-66 4 -146 4z" />
<glyph unicode="&#x2014;" horiz-adv-x="1420" d="M1147 544h-874q-90 0 -146 -4q1 8 1 64t-1 67q66 -4 146 -4h874q90 0 146 4q-1 -8 -1 -64t1 -67q-66 4 -146 4z" />
<glyph unicode="&#x2018;" horiz-adv-x="438" d="M264 1360h84q-8 -20 -20.5 -54t-33 -120.5t-20.5 -151.5q0 -81 13 -155q-87 3 -176 0v94q0 87 32 169t121 218z" />
<glyph unicode="&#x2019;" horiz-adv-x="438" d="M172 881h-84q8 20 20.5 53.5t33 120t20.5 151.5q0 88 -12 156q87 -3 176 0v-94q0 -87 -32.5 -169t-121.5 -218z" />
<glyph unicode="&#x201a;" horiz-adv-x="428" d="M182 -305h-84q8 20 20.5 53t33 119t20.5 151q0 88 -12 156q87 -3 176 0v-94q0 -87 -32 -167.5t-122 -217.5z" />
<glyph unicode="&#x201c;" horiz-adv-x="739" d="M567 1360h84q-8 -20 -20 -54t-32.5 -120.5t-20.5 -151.5q0 -87 12 -155q-87 3 -176 0v94q0 87 32 169t121 218zM264 1360h84q-8 -20 -20.5 -54t-33 -120.5t-20.5 -151.5q0 -81 13 -155q-87 3 -176 0v94q0 87 32 169t121 218z" />
<glyph unicode="&#x201d;" horiz-adv-x="739" d="M172 881h-84q8 20 20.5 53.5t33 120t20.5 151.5q0 88 -12 156q87 -3 176 0v-94q0 -87 -32.5 -169t-121.5 -218zM475 881h-84q8 20 20.5 53.5t33 120t20.5 151.5q0 88 -12 156q87 -3 176 0v-94q0 -87 -32.5 -169t-121.5 -218z" />
<glyph unicode="&#x201e;" horiz-adv-x="729" d="M184 -305h-84q8 20 19.5 53t31 119t19.5 151q0 88 -12 156q87 -3 176 0v-94q0 -88 -31 -169.5t-119 -215.5zM487 -305h-84q8 20 19.5 53t31 119t19.5 151q0 88 -12 156q87 -3 176 0v-94q0 -88 -31 -169.5t-119 -215.5z" />
<glyph unicode="&#x2022;" horiz-adv-x="563" d="M128 608q0 69 42.5 112.5t111.5 43.5t111 -43.5t42 -112.5t-42 -112t-111 -43t-111.5 43t-42.5 112z" />
<glyph unicode="&#x2026;" horiz-adv-x="1302" d="M126 97q0 44 27.5 71.5t70.5 27.5q44 0 71.5 -28t27.5 -71t-27.5 -70.5t-71.5 -27.5t-71 27.5t-27 70.5zM554 97q0 44 27.5 71.5t70.5 27.5q44 0 71.5 -28t27.5 -71t-27.5 -70.5t-71.5 -27.5t-71 27.5t-27 70.5zM982 97q0 44 27.5 71.5t70.5 27.5q44 0 71.5 -28t27.5 -71 t-27.5 -70.5t-71.5 -27.5t-71 27.5t-27 70.5z" />
<glyph unicode="&#x202f;" horiz-adv-x="329" />
<glyph unicode="&#x2039;" horiz-adv-x="593" d="M446 178h-127l-174 404l174 403h127l-120 -403z" />
<glyph unicode="&#x203a;" horiz-adv-x="593" d="M274 178h-129l123 404l-123 403h129l172 -403z" />
<glyph unicode="&#x205f;" horiz-adv-x="411" />
<glyph unicode="&#x20ac;" d="M581 489h-178q9 -113 29.5 -187.5t54 -115t72.5 -56t94 -15.5q115 0 227 43l9 -8l-20 -132q-147 -32 -215 -32q-208 0 -309.5 115.5t-125.5 387.5q-58 0 -117 -4q1 8 1 59t-1 62q59 -4 110 -4q-1 31 -1 98q0 63 2 93q-43 0 -111 -5q1 8 1 59.5t-1 61.5q67 -4 120 -4 q29 238 135.5 354.5t296.5 116.5q159 0 237 -50q-42 -91 -48 -130h-23q-61 51 -173 51q-46 0 -81.5 -14.5t-68 -50.5t-55.5 -105.5t-34 -171.5h173q90 0 146 4q-1 -8 -1 -59t1 -62q-83 5 -146 5h-182q-2 -33 -2 -105q0 -59 1 -86h183q90 0 146 4q-1 -8 -1 -59.5t1 -61.5 q-66 4 -146 4z" />
<glyph unicode="&#x2122;" horiz-adv-x="1427" d="M909 930l-127 231v-211q0 -160 2 -212.5t11 -102.5q-78 2 -158 0q9 48 10.5 100.5t1.5 214.5v310h-223v-310q0 -167 1.5 -216.5t10.5 -98.5q-77 2 -157 0q9 48 10.5 100.5t1.5 214.5v310h-77q-72 0 -138 -5q1 8 1 55.5t-1 57.5q92 -6 138 -6h587l162 -297l157 297h150 v-412q0 -167 1.5 -216.5t10.5 -98.5q-78 2 -158 0q9 50 11 105t2 210v211l-129 -231q-14 2 -49.5 2t-51.5 -2z" />
<glyph unicode="&#x25fc;" d="M0 973h973v-973h-973v973z" />
</font>
</defs>
</svg>
