<?xml version="1.0" standalone="no"?>
<!DOCTYPE svg PUBLIC "-//W3C//DTD SVG 1.1//EN" "http://www.w3.org/Graphics/SVG/1.1/DTD/svg11.dtd" >
<svg xmlns="http://www.w3.org/2000/svg" xmlns:xlink="http://www.w3.org/1999/xlink" version="1.1">
<metadata></metadata>
<defs>
<font id="chulacharasnewregular" horiz-adv-x="950" >
<font-face units-per-em="2048" ascent="1638" descent="-410" />
<missing-glyph horiz-adv-x="530" />
<glyph unicode="&#xfb01;" horiz-adv-x="864" d="M44 797v85h146v72q0 138 65.5 206t182.5 68q16 0 31.5 -1t29.5 -2l30 -2v-85q-14 1 -29 2q-13 1 -29 2t-31 1q-81 0 -114 -46.5t-33 -147.5v-67h431v-882h-99v797h-332v-797h-103v797h-146z" />
<glyph unicode="&#xfb02;" horiz-adv-x="901" d="M44 797v85h146v72q0 69 22 120t60 85.5t89 51.5t109 17t109 -17t89 -51.5t60 -85.5t22 -120v-954h-103v949q0 101 -48 147.5t-129 46.5t-129 -46.5t-48 -147.5v-67h193v-85h-193v-797h-103v797h-146z" />
<glyph horiz-adv-x="0" />
<glyph unicode="&#xd;" horiz-adv-x="805" />
<glyph unicode=" "  horiz-adv-x="530" />
<glyph unicode="&#x09;" horiz-adv-x="530" />
<glyph unicode="&#xa0;" horiz-adv-x="530" />
<glyph unicode="!" horiz-adv-x="568" d="M196 76q0 38 25 63.5t62 25.5q38 0 63.5 -25.5t25.5 -63.5q0 -36 -25.5 -61t-63.5 -25q-37 0 -62 25t-25 61zM221 1017v211h125v-211l-24 -707h-76z" />
<glyph unicode="&#x22;" horiz-adv-x="475" d="M98 844v384h87v-384h-87zM286 844v384h88v-384h-88z" />
<glyph unicode="#" d="M47 390v100h204l32 238h-189v100h206l54 362h100l-54 -362h233l54 362h100l-54 -362h171v-100h-185l-32 -238h172v-100h-189l-54 -390h-99l51 390h-233l-59 -390h-101l59 390h-187zM352 490h234l34 238h-233z" />
<glyph unicode="$" d="M62 346h111q0 -59 19 -110t53.5 -89.5t82.5 -61.5t106 -26v507q-69 17 -131 39.5t-108 59.5t-73 92t-27 137q0 69 27 125.5t73 97t107.5 63t131.5 22.5v123h90v-123q69 0 128 -19.5t103 -57.5t70 -93.5t29 -127.5h-112q-2 46 -19 84t-46.5 65t-68.5 42t-84 15v-455 q83 -21 150 -44.5t114 -62.5t72.5 -100.5t25.5 -158.5q0 -76 -31.5 -134.5t-83 -99t-116.5 -63t-131 -26.5v-129h-90v129q-145 8 -238 79t-124 219q-7 21 -7 40t-3 42zM204 898q0 -56 18 -93.5t49.5 -63t73.5 -42t89 -29.5v440q-49 0 -91 -15.5t-73 -43.5t-48.5 -67 t-17.5 -86zM524 59q51 0 97.5 18.5t81 51.5t55 79t20.5 100q0 63 -20 103.5t-54.5 67t-80.5 42.5t-99 28v-490z" />
<glyph unicode="%" horiz-adv-x="1517" d="M113 888q0 87 21.5 152.5t59 110t89 67t111.5 22.5t111.5 -22.5t89 -67t59 -110t21.5 -152.5t-21.5 -152.5t-59 -110t-89 -67t-111.5 -22.5t-111.5 22.5t-89 67t-59 110t-21.5 152.5zM213 888q0 -139 48 -200.5t133 -61.5t133 61.5t48 200.5t-48 200.5t-133 61.5 t-133 -61.5t-48 -200.5zM327 0l759 1228h105l-756 -1228h-108zM842 352q0 87 21.5 152.5t59 110t89 67t111.5 22.5t111.5 -22.5t89 -67t59 -110t21.5 -152.5t-21.5 -152.5t-59 -110t-89 -67t-111.5 -22.5t-111.5 22.5t-89 67t-59 110t-21.5 152.5zM942 352q0 -139 48 -200.5 t133 -61.5t133 61.5t48 200.5t-48 200.5t-133 61.5t-133 -61.5t-48 -200.5z" />
<glyph unicode="&#x26;" horiz-adv-x="1138" d="M69 333q0 70 24 127.5t64.5 104t94 83t112.5 64.5q-27 30 -51 61.5t-42 65t-28.5 70.5t-10.5 79q0 58 21.5 103t59 75.5t88 46t107.5 15.5q58 0 106 -19t81.5 -51t52 -75.5t18.5 -92.5q0 -60 -19.5 -105.5t-52.5 -81.5t-77 -65t-93 -57l310 -363q31 54 39.5 114t8.5 122 h101q-3 -41 -8 -83t-14.5 -82.5t-24.5 -79.5t-38 -75l201 -234h-139l-119 145q-39 -48 -81 -81.5t-89.5 -55.5t-101 -32t-115.5 -10q-81 0 -151.5 26.5t-122 74.5t-81.5 115.5t-30 150.5zM185 325q0 -62 21.5 -111t59 -83.5t88 -53t109.5 -18.5q98 0 173.5 44.5t137.5 120.5 l-348 416q-51 -24 -95.5 -58t-76.5 -74.5t-50.5 -87t-18.5 -95.5zM335 988q0 -28 14 -59t34 -61.5t42.5 -58.5t39.5 -50q26 15 53 31t51 35t44 42.5t32 53.5q16 35 13.5 73t-22 69.5t-54 51.5t-82.5 20q-32 0 -61.5 -10.5t-52.5 -29.5t-37 -46t-14 -61z" />
<glyph unicode="'" horiz-adv-x="379" d="M145 844v384h89v-384h-89z" />
<glyph unicode="(" horiz-adv-x="568" d="M94 470q0 119 19.5 222t57 198t91 185.5t122.5 183.5h88q-126 -182 -193.5 -379t-67.5 -417q0 -108 18.5 -211.5t53 -202t82.5 -192.5t107 -182h-88q-69 96 -123 187t-91 186t-56.5 198t-19.5 224z" />
<glyph unicode=")" horiz-adv-x="568" d="M95 -325q128 181 194.5 378.5t66.5 418.5q0 108 -18.5 211t-52.5 201.5t-82.5 192t-107.5 182.5h88q69 -99 123.5 -189t92 -183.5t57 -196t19.5 -225.5q0 -119 -19.5 -222.5t-57 -198.5t-92 -185.5t-123.5 -183.5h-88z" />
<glyph unicode="*" horiz-adv-x="662" d="M75 1030l31 72l187 -72v198h73v-198l194 69l26 -75l-195 -61l131 -181l-68 -41l-126 182l-134 -180l-61 47l132 173z" />
<glyph unicode="+" d="M50 376v100h372v375h106v-375h372v-100h-372v-376h-106v376h-372z" />
<glyph unicode="," horiz-adv-x="475" d="M111 -202q29 24 51.5 44t38 42t23.5 47.5t8 61.5q-9 -3 -21 -3q-36 0 -62 25t-26 61q0 38 26 63.5t62 25.5q26 0 45 -9.5t31 -26t17.5 -39.5t5.5 -49q0 -170 -149 -280z" />
<glyph unicode="-" horiz-adv-x="530" d="M60 395v85h410v-85h-410z" />
<glyph unicode="." horiz-adv-x="475" d="M148 76q0 38 24.5 63.5t61.5 25.5t62.5 -25.5t25.5 -63.5q0 -36 -25.5 -61t-62.5 -25t-61.5 25t-24.5 61z" />
<glyph unicode="/" horiz-adv-x="550" d="M10 -300l428 1559h102l-428 -1559h-102z" />
<glyph unicode="0" d="M68 591q0 76 6.5 150.5t23 142.5t45.5 126t74.5 101t109 67t149.5 24q90 0 154.5 -26.5t109.5 -72.5t72.5 -107.5t42.5 -130.5t20 -142t5 -143q0 -80 -7 -155.5t-24.5 -142.5t-47 -123t-74.5 -96.5t-107 -63t-144 -22.5q-125 0 -204.5 49t-124.5 133t-62 195.5t-17 236.5 zM176 580q0 -116 14.5 -210.5t49.5 -162t92.5 -104t143.5 -36.5q64 0 111.5 22.5t80 60.5t53 89.5t32 110t15.5 120t4 121.5q0 65 -4.5 128.5t-17 121.5t-34 107t-55 85t-80.5 56.5t-110 20.5q-89 0 -146.5 -45.5t-90.5 -119.5t-45.5 -169.5t-12.5 -195.5z" />
<glyph unicode="1" d="M267 955v98l269 149h89v-1202h-108v1088z" />
<glyph unicode="2" d="M93 0v80q0 79 28.5 139.5t74.5 109.5t105 89.5t121 77.5t121 74.5t105 80.5t74.5 95.5t28.5 119.5q0 61 -19 107t-53.5 76.5t-83 45.5t-106.5 15q-60 0 -110 -19.5t-86 -55.5t-56 -88.5t-20 -118.5h-113q0 84 28 153t79 118t122.5 76t158.5 27q91 0 161 -25.5 t117.5 -69.5t72 -104t24.5 -130q0 -79 -27 -139.5t-71 -109t-101 -87.5t-117 -75.5t-118.5 -73t-106.5 -79t-80 -94t-39 -117.5h660v-98h-774z" />
<glyph unicode="3" d="M77 335h110q9 -133 79 -200.5t209 -67.5q76 0 132.5 22t93 59t54.5 85t18 100q0 62 -15.5 107t-50 74t-88.5 43.5t-131 16.5h-101v87h101q56 0 102 15t79 45t51 73.5t18 100.5t-21 97.5t-56 67t-81.5 38.5t-97.5 12q-60 0 -110.5 -16.5t-87.5 -48t-57.5 -77t-20.5 -104.5 h-111q1 75 29 137t78 107t121 69.5t160 24.5q70 0 136 -20.5t116.5 -60t81 -97.5t30.5 -132q0 -95 -46 -162.5t-134 -104.5q66 -20 107.5 -52.5t65.5 -72t33 -82.5t9 -85q0 -68 -24 -132t-74 -114t-126.5 -80t-182.5 -30q-101 0 -175 25.5t-122.5 72.5t-73 113t-27.5 147z " />
<glyph unicode="4" d="M62 296v94l561 800h96v-800h169v-94h-169v-296h-108v296h-549zM177 390h434v627z" />
<glyph unicode="5" d="M59 312h108q9 -62 35 -107.5t65 -76.5t89.5 -46t108.5 -15q69 0 122.5 24t90 65t56 97t19.5 121q0 69 -20.5 125.5t-59 97t-94 62.5t-125.5 22q-81 0 -143.5 -29t-116.5 -98l-91 14l99 622h595v-92h-504l-73 -404q34 23 64 38t60 23.5t63 12t75 3.5q82 0 152 -27 t120.5 -78t79 -125t28.5 -167q0 -95 -31.5 -168.5t-84 -124.5t-121.5 -77.5t-143 -26.5q-86 0 -160 17t-130 56.5t-91 103.5t-42 158z" />
<glyph unicode="6" d="M79 552q0 71 7 146.5t25 147.5t48.5 136.5t78 113.5t113.5 77.5t154 28.5q73 0 134.5 -18.5t107 -55.5t74 -92t36.5 -128h-111q-9 46 -27.5 83t-47 63.5t-67 41t-87.5 14.5q-73 0 -125 -24.5t-87.5 -66t-57 -96.5t-34.5 -115.5t-19.5 -122.5t-11.5 -119q18 34 46.5 68 t67.5 60t88.5 42.5t110.5 16.5q92 0 162.5 -27t118 -77t72 -121.5t24.5 -161.5q0 -185 -96.5 -287t-285.5 -102q-89 0 -164.5 30t-130.5 97.5t-85.5 177.5t-30.5 270zM225 364q0 -51 13.5 -103.5t45 -95.5t82.5 -70.5t126 -27.5q77 0 129 27t83 70t44 97t13 108 q0 141 -64 216.5t-207 75.5q-62 0 -111.5 -23.5t-83.5 -64t-52 -94.5t-18 -115z" />
<glyph unicode="7" d="M101 1088v102h766v-94q-85 -98 -153.5 -201t-121.5 -205t-91.5 -200.5t-64.5 -187.5t-40 -166t-17 -136h-115q6 86 27.5 180.5t55 192t76.5 194.5t93.5 189t106 176.5t113.5 155.5h-635z" />
<glyph unicode="8" d="M68 334q0 111 58 186t157 112q-87 45 -129.5 108.5t-42.5 151.5q0 65 23.5 121.5t69 98.5t112.5 66t154 24t154 -24t112.5 -66t69 -98.5t23.5 -121.5q0 -88 -42.5 -151.5t-129.5 -108.5q99 -37 157 -112t58 -186q0 -83 -26.5 -149.5t-78 -112.5t-126.5 -70.5t-171 -24.5 t-171 24.5t-126.5 70.5t-78 112.5t-26.5 149.5zM177 331q0 -62 20.5 -111t59 -83t92.5 -52t121 -18t121 18t92 52t59 83t21 111q0 65 -21.5 112.5t-60.5 78t-93 45t-118 14.5t-118 -14.5t-93 -45t-60.5 -78t-21.5 -112.5zM219 903q0 -65 20.5 -109t55.5 -71t80 -38.5 t95 -11.5q49 0 94.5 11.5t80.5 38.5t55.5 71t20.5 109q0 44 -16 82t-48 65.5t-79 43.5t-108 16q-62 0 -108.5 -16t-78.5 -43.5t-48 -65.5t-16 -82z" />
<glyph unicode="9" d="M70 805q0 85 23.5 157.5t71.5 126t121 83.5t171 30q113 0 189 -43t122.5 -121t66 -185.5t19.5 -236.5q0 -152 -28.5 -270.5t-81.5 -200.5t-129.5 -125t-172.5 -43q-71 0 -132 17t-107.5 52.5t-75.5 89.5t-35 128h111q21 -95 76.5 -146t157.5 -51q64 0 112 23t82.5 62 t56.5 91t35.5 109.5t18.5 117t5 114.5l-3 5q-48 -82 -125 -126.5t-177 -44.5q-85 0 -154 27t-117.5 77.5t-74.5 122t-26 160.5zM178 803q0 -142 72.5 -217t206.5 -75q65 0 116 24t85.5 64.5t52.5 94t18 113.5q0 67 -18 122t-52.5 95t-85.5 62t-116 24q-70 -2 -122 -24 t-87 -61.5t-52.5 -95.5t-17.5 -126z" />
<glyph unicode=":" horiz-adv-x="475" d="M148 76q0 38 24.5 63.5t61.5 25.5t62.5 -25.5t25.5 -63.5q0 -36 -25.5 -61t-62.5 -25t-61.5 25t-24.5 61zM148 761q0 37 24.5 63t61.5 26t62.5 -26t25.5 -63t-25.5 -62t-62.5 -25t-61.5 25t-24.5 62z" />
<glyph unicode=";" horiz-adv-x="475" d="M130 -202q29 24 51.5 44t38 42t23.5 47.5t8 61.5q-9 -3 -21 -3q-36 0 -62 25t-26 61q0 38 26 63.5t62 25.5q26 0 45 -9.5t31 -26t17.5 -39.5t5.5 -49q0 -170 -149 -280zM148 761q0 37 24.5 63t61.5 26t62.5 -26t25.5 -63t-25.5 -62t-62.5 -25t-61.5 25t-24.5 62z" />
<glyph unicode="&#x3c;" d="M80 400v90l810 382v-109l-677 -317l677 -338v-108z" />
<glyph unicode="=" d="M70 211v100h810v-100h-810zM70 546v100h810v-100h-810z" />
<glyph unicode="&#x3e;" d="M60 0v108l676 338l-676 317v109l810 -382v-90z" />
<glyph unicode="?" horiz-adv-x="851" d="M67 860q0 82 25.5 149.5t74 116t119.5 75.5t161 27q88 0 155 -22.5t112 -64.5t68 -101t23 -132q0 -62 -25 -107.5t-62.5 -84t-81 -73.5t-81 -74t-62.5 -86.5t-25 -111.5v-61h-100v61q0 70 24.5 124.5t61 98.5t79 81.5t79 75t61 78t24.5 90.5q0 45 -16 85t-48 69.5t-79 47 t-110 17.5q-66 0 -117.5 -20t-87 -56t-54 -87.5t-18.5 -114.5h-100zM333 76q0 38 25.5 63.5t62.5 25.5t62 -25.5t25 -63.5q0 -36 -25 -61t-62 -25t-62.5 25t-25.5 61z" />
<glyph unicode="@" horiz-adv-x="1424" d="M67 520q0 152 52.5 277t143.5 214.5t213 138.5t260 49q146 0 260.5 -43.5t194 -121t121.5 -185t42 -235.5q0 -100 -29 -183.5t-81.5 -143.5t-125.5 -93.5t-162 -33.5q-65 0 -103 34t-38 88q-35 -57 -89 -86t-114 -29q-106 0 -164 69.5t-58 191.5q0 93 27.5 172t75 136.5 t111.5 90t137 32.5q72 0 116.5 -30t63.5 -77l25 73h102l-127 -444q-7 -23 -9.5 -43t-2.5 -37q0 -28 13.5 -43.5t45.5 -15.5q63 0 116 26.5t91 75.5t59.5 119t21.5 157q0 110 -36 201t-103 156t-162 101t-213 36q-122 0 -227 -43.5t-182.5 -121.5t-121.5 -187t-44 -240 q0 -143 41.5 -252t116.5 -183.5t179 -112.5t228 -38q100 0 179 24.5t143 60.5l39 -84q-78 -46 -171 -68.5t-190 -22.5q-142 0 -263.5 42.5t-211 126.5t-140 210.5t-50.5 294.5zM493 432q0 -87 34 -133.5t103 -46.5q72 0 125 44.5t77 121.5l53 222q0 57 -35 94t-107 37 q-59 0 -105 -25.5t-78.5 -70.5t-49.5 -107.5t-17 -135.5z" />
<glyph unicode="A" horiz-adv-x="1135" d="M25 0l483 1228h132l470 -1228h-120l-140 384h-561l-144 -384h-120zM330 485h480l-239 645z" />
<glyph unicode="B" horiz-adv-x="1138" d="M140 0v1228h454q104 0 179.5 -24t125 -66.5t73.5 -100.5t24 -126q0 -65 -19 -113.5t-49 -81.5t-67 -51.5t-73 -25.5v-3q57 -12 103.5 -38t79.5 -64t51 -87.5t18 -107.5q0 -85 -28 -148.5t-79.5 -106t-125.5 -63.5t-166 -21h-501zM256 98h332q174 0 255 57t81 184 q0 56 -17.5 99.5t-57 73.5t-102.5 45.5t-153 15.5h-338v-475zM256 674h336q78 0 132.5 17.5t89 49t50.5 75t16 95.5q0 53 -15.5 94t-51 68.5t-94.5 42t-146 14.5h-317v-456z" />
<glyph unicode="C" horiz-adv-x="1231" d="M90 614q0 162 41.5 283.5t116 201.5t176.5 120t223 40q99 0 182 -25.5t146 -74t104.5 -118.5t57.5 -158h-117q-33 143 -128 211t-262 68q-99 0 -177.5 -34.5t-133.5 -103.5t-84 -171t-29 -237q0 -141 30.5 -244.5t87 -171t137 -100.5t179.5 -33q84 0 150.5 23t115 66 t80.5 103t47 134h117q-16 -89 -54.5 -167t-103.5 -136t-157.5 -91t-216.5 -33q-104 0 -199.5 37.5t-168.5 116.5t-116.5 201.5t-43.5 292.5z" />
<glyph unicode="D" horiz-adv-x="1231" d="M140 0v1228h388q145 0 259 -43.5t193 -124t120 -193.5t41 -251q0 -143 -41.5 -257.5t-120.5 -194t-193 -122t-258 -42.5h-388zM256 98h247q150 0 250 42t160.5 113.5t86 165t25.5 197.5q0 250 -132.5 382t-389.5 132h-247v-1032z" />
<glyph unicode="E" horiz-adv-x="1042" d="M140 0v1228h804v-98h-688v-453h623v-101h-623v-478h700v-98h-816z" />
<glyph unicode="F" horiz-adv-x="970" d="M140 0v1228h795v-98h-679v-453h620v-101h-620v-576h-116z" />
<glyph unicode="G" horiz-adv-x="1327" d="M90 610q0 145 39 264.5t112 205t178 132.5t238 47q97 0 182.5 -23t152.5 -70.5t113.5 -120.5t65.5 -173h-119q-15 69 -49 123t-84 91t-114.5 56.5t-140.5 19.5q-104 0 -188.5 -35t-144.5 -105t-92.5 -175t-32.5 -246q0 -126 27.5 -225.5t83 -168t139 -104.5t195.5 -36 q102 0 179.5 36.5t130.5 100t81 149t31 183.5h-413v99h523v-635h-98v221q-25 -50 -65.5 -96.5t-97 -81.5t-130.5 -56t-166 -21q-116 0 -214 40t-169.5 120.5t-112 201t-40.5 282.5z" />
<glyph unicode="H" horiz-adv-x="1234" d="M140 0v1228h116v-537h723v537h115v-1228h-114v591h-725v-591h-115z" />
<glyph unicode="I" horiz-adv-x="476" d="M180 0v1228h116v-1228h-116z" />
<glyph unicode="J" horiz-adv-x="880" d="M23 374h113q0 -63 14.5 -114t44.5 -87t75.5 -55.5t107.5 -19.5q126 0 184 67t58 209v854h115v-859q0 -179 -94 -274t-263 -95q-87 0 -153.5 26t-111.5 74.5t-67.5 118t-22.5 155.5z" />
<glyph unicode="K" horiz-adv-x="1100" d="M140 0v1228h116v-695l643 695h143l-514 -555l542 -673h-143l-475 591l-196 -211v-380h-116z" />
<glyph unicode="L" horiz-adv-x="940" d="M140 0v1228h116v-1130h659v-98h-775z" />
<glyph unicode="M" horiz-adv-x="1435" d="M140 0v1228h139l440 -1083h5l433 1083h138v-1228h-116v1005h-3l-403 -1005h-111l-403 1005h-3v-1005h-116z" />
<glyph unicode="N" horiz-adv-x="1230" d="M140 0v1228h130l702 -1031h3v1031h115v-1228h-113l-720 1058h-2v-1058h-115z" />
<glyph unicode="O" horiz-adv-x="1327" d="M90 611q0 136 37 254t108.5 205.5t177 138t242.5 50.5q144 0 253 -50.5t182 -138t110 -205.5t37 -254q0 -131 -36.5 -248t-108.5 -205.5t-180 -140t-251 -51.5q-142 0 -249 51.5t-178.5 140t-107.5 205.5t-36 248zM206 611q0 -108 26.5 -206.5t82 -173.5t142 -119.5 t205.5 -44.5q120 0 206.5 45t143 120t83 173.5t26.5 205.5q0 129 -31.5 231t-91 173.5t-144.5 109t-193 37.5q-119 0 -205 -45.5t-141.5 -121.5t-82 -176t-26.5 -208z" />
<glyph unicode="P" horiz-adv-x="1050" d="M140 0v1228h422q120 0 202 -34t132.5 -88t72 -122.5t21.5 -137.5q0 -70 -21.5 -138.5t-72 -123t-132.5 -88.5t-202 -34h-307v-462h-115zM255 560h276q90 0 155 21t107 58.5t61.5 90t19.5 116.5t-19.5 116t-61.5 89.5t-107 58t-155 20.5h-276v-570z" />
<glyph unicode="Q" horiz-adv-x="1327" d="M90 611q0 129 34.5 246t104.5 206.5t176 142.5t250 53q130 0 236.5 -42.5t183 -124.5t118.5 -203t42 -278q0 -149 -46 -276.5t-139 -218.5l162 -126l-64 -78l-180 139q-132 -85 -309 -85q-142 0 -248.5 51.5t-178 140t-107 205.5t-35.5 248zM206 611q0 -109 26.5 -207.5 t82 -173.5t142 -119t205.5 -44q65 0 117.5 14t97.5 40l-138 108l62 81l165 -127q79 75 116 186.5t37 241.5q0 137 -35 240t-97 172t-146 104t-182 35q-120 0 -205.5 -46.5t-140.5 -123t-81 -176t-26 -205.5z" />
<glyph unicode="R" horiz-adv-x="1138" d="M140 0v1228h468q102 0 181.5 -24.5t134.5 -71t83.5 -114t28.5 -152.5q0 -59 -18.5 -117.5t-57.5 -107.5t-98.5 -85t-141.5 -51l292 -503v-2h-134l-276 497h-347v-497h-115zM255 595h361q65 0 120.5 17t96.5 51t64.5 83.5t23.5 114.5q0 69 -26 119.5t-69 83.5t-98 49.5 t-113 16.5h-360v-535z" />
<glyph unicode="S" horiz-adv-x="1042" d="M72 366h113q7 -78 30 -134.5t65 -93.5t105 -54.5t150 -17.5q82 0 141.5 21t98.5 56.5t57.5 81.5t18.5 97q0 72 -32 117t-84.5 73.5t-120 45.5t-137.5 34t-137.5 38.5t-120 58.5t-84.5 95.5t-32 148.5q0 67 27 126t79.5 103.5t130.5 70.5t179 26q103 0 180.5 -29t129 -79 t77 -116t25.5 -141h-111q0 70 -25 120.5t-67 83.5t-96.5 49t-112.5 16q-152 0 -227 -62t-75 -172q0 -69 32 -112t85 -69.5t120.5 -42.5t137.5 -32t137.5 -37.5t120.5 -59.5t85 -97.5t32 -151.5q0 -174 -114.5 -267.5t-331.5 -93.5q-96 0 -177 25t-141 74.5t-94.5 124.5 t-36.5 176z" />
<glyph unicode="T" horiz-adv-x="940" d="M25 1130v98h890v-98h-388v-1130h-116v1130h-386z" />
<glyph unicode="U" horiz-adv-x="1228" d="M138 500v728h115v-720q0 -105 20.5 -182t64 -127.5t112 -75.5t164.5 -25t164 25t112 75.5t64.5 127.5t20.5 182v720h115v-728q0 -117 -27.5 -210t-85.5 -157.5t-148 -98.5t-215 -34t-215 34t-148 98.5t-85.5 157.5t-27.5 210z" />
<glyph unicode="V" horiz-adv-x="1042" d="M30 1228h121l371 -1090l369 1090h121l-426 -1228h-130z" />
<glyph unicode="W" horiz-adv-x="1514" d="M22 1228h117l267 -1065h3l283 1065h131l279 -1065h3l268 1065h119l-323 -1228h-127l-286 1084h-3l-283 -1084h-130z" />
<glyph unicode="X" horiz-adv-x="1042" d="M31 0l423 633l-405 595h134l336 -516l338 516h133l-401 -595l420 -633h-132l-358 542l-356 -542h-132z" />
<glyph unicode="Y" horiz-adv-x="1040" d="M20 1228h132l365 -591l368 591h135l-444 -692v-536h-116v526z" />
<glyph unicode="Z" horiz-adv-x="1042" d="M72 0v98l753 1032h-706v98h854v-88l-758 -1042h763v-98h-906z" />
<glyph unicode="[" horiz-adv-x="568" d="M155 -325v1584h325v-85h-216v-1413h214v-86h-323z" />
<glyph unicode="\" horiz-adv-x="550" d="M10 1259h102l428 -1559h-102z" />
<glyph unicode="]" horiz-adv-x="568" d="M88 -239h217v1413h-214v85h322v-1584h-325v86z" />
<glyph unicode="^" horiz-adv-x="1125" d="M123 418l394 772h89l393 -772h-95l-344 668l-336 -668h-101z" />
<glyph unicode="_" horiz-adv-x="851" d="M0 -129h851v-85h-851v85z" />
<glyph unicode="`" horiz-adv-x="568" d="M76 1216h133l191 -239h-88z" />
<glyph unicode="a" horiz-adv-x="901" d="M86 234q0 121 95.5 191.5t295.5 84.5l225 16v78q0 98 -58.5 154t-183.5 56q-118 0 -177.5 -49t-73.5 -139h-103q7 66 35 118t74 88t108 55t137 19q169 0 257 -78t88 -220v-608h-103v139q-27 -43 -62.5 -73.5t-77 -50t-87 -29t-92.5 -9.5q-70 0 -125 17.5t-93.5 51 t-58.5 81t-20 107.5zM199 232q0 -75 51.5 -120t148.5 -45q64 0 119.5 20t96.5 57.5t64 91t23 120.5v83l-216 -16q-142 -11 -214.5 -55t-72.5 -136z" />
<glyph unicode="b" horiz-adv-x="967" d="M121 0v1228h103v-477q15 30 42 58t64 49.5t83 34.5t100 13q88 0 159 -33t121 -93t77 -145.5t27 -190.5t-25.5 -190.5t-73.5 -146t-117.5 -93t-157.5 -32.5q-106 0 -182 47t-117 122v-151h-103zM224 444q0 -89 21 -158t59 -116t90.5 -72t115.5 -25q77 0 130 28.5t86 79 t47.5 118t14.5 145.5t-14.5 145.5t-47.5 118t-86 79t-130 28.5q-63 0 -115.5 -24t-90.5 -71t-59 -116t-21 -160z" />
<glyph unicode="c" horiz-adv-x="948" d="M79 438q0 107 29 193.5t82 147.5t128 94t167 33q73 0 135.5 -20t109.5 -57.5t78 -90.5t43 -120h-105q-12 47 -37 83.5t-59.5 62t-76.5 38.5t-88 13q-65 0 -119.5 -23t-93.5 -70t-61 -118t-22 -166q0 -92 21.5 -161.5t60.5 -116t93.5 -70t120.5 -23.5q60 0 107.5 16 t81.5 45.5t54.5 71t27.5 92.5h110q-12 -67 -39.5 -124.5t-74 -100t-112.5 -66.5t-155 -24q-91 0 -166 30t-128 88.5t-82.5 144.5t-29.5 198z" />
<glyph unicode="d" horiz-adv-x="967" d="M70 444q0 105 27 190.5t77 145.5t121 93t159 33q54 0 100 -13t83 -34.5t64 -49.5t42 -58v477h104v-1228h-104v151q-41 -75 -116.5 -122t-181.5 -47q-88 0 -157.5 32.5t-118 93t-74 146t-25.5 190.5zM179 444q0 -78 14.5 -145.5t47.5 -118t86 -79t130 -28.5q63 0 115.5 25 t90.5 72t59 116t21 158q0 91 -21 160t-59 116t-90.5 71t-115.5 24q-77 0 -130 -28.5t-86 -79t-47.5 -118t-14.5 -145.5z" />
<glyph unicode="e" horiz-adv-x="948" d="M75 436q0 101 28 187t81 149t128 98.5t170 35.5q97 0 170 -32.5t122 -95t73.5 -153.5t24.5 -207h-687q0 -76 20 -140.5t58 -111t93 -73t126 -26.5q51 0 94.5 12.5t76.5 37t54.5 60t29.5 81.5h114q-11 -62 -38 -113.5t-71.5 -89t-109 -58t-150.5 -20.5q-102 0 -178.5 33.5 t-127 94.5t-76 145.5t-25.5 185.5zM185 503h577q0 68 -18 125t-53.5 98.5t-87.5 65t-121 23.5q-68 0 -120 -24t-88.5 -66t-59 -99t-29.5 -123z" />
<glyph unicode="f" horiz-adv-x="554" d="M44 797v85h146v72q0 138 65.5 206t182.5 68q16 0 31.5 -1t29.5 -2l30 -2v-85q-14 1 -29 2q-13 1 -29 2t-31 1q-81 0 -113.5 -46.5t-32.5 -147.5v-67h192v-85h-192v-797h-104v797h-146z" />
<glyph unicode="g" horiz-adv-x="967" d="M70 438q0 105 25.5 190.5t74 146t118 93t157.5 32.5q106 0 181.5 -47t116.5 -122v151h104v-849q0 -106 -28 -182.5t-79.5 -126t-124.5 -73t-163 -23.5q-77 0 -138.5 18.5t-106.5 51.5t-73 79.5t-37 103.5h104q20 -80 83 -123.5t168 -43.5q143 0 217 76t74 238v103 q-15 -30 -42 -58t-64 -49.5t-83 -34.5t-100 -13q-88 0 -159 32.5t-121 93t-77 146t-27 190.5zM179 438q0 -78 14.5 -145.5t47.5 -118t86 -79t130 -28.5q63 0 115.5 24t90.5 71t59 116t21 160q0 88 -21 157.5t-59 116.5t-90.5 72t-115.5 25q-77 0 -130 -28.5t-86 -79 t-47.5 -118t-14.5 -145.5z" />
<glyph unicode="h" horiz-adv-x="936" d="M121 0v1228h104v-468q12 24 35 48t56.5 43.5t77 31.5t95.5 12q334 0 334 -343v-552h-104v552q0 132 -64.5 195t-176.5 63q-54 0 -100.5 -20.5t-80 -55.5t-53 -82t-19.5 -100v-552h-104z" />
<glyph unicode="i" horiz-adv-x="396" d="M139 1074v152h118v-152h-118zM145 0v882h104v-882h-104z" />
<glyph unicode="j" horiz-adv-x="377" d="M-51 -249h25q47 0 80 8.5t54 27.5t31 50t10 76v969h104v-971q0 -122 -67.5 -184t-193.5 -62h-43v86zM145 1074v152h113v-152h-113z" />
<glyph unicode="k" horiz-adv-x="840" d="M113 0v1228h104v-804l447 458h130l-357 -365l373 -517h-122l-321 445l-150 -154v-291h-104z" />
<glyph unicode="l" horiz-adv-x="406" d="M151 0v1228h104v-1228h-104z" />
<glyph unicode="m" horiz-adv-x="1345" d="M121 0v882h104v-110q12 28 34 51t51 39t63.5 24.5t72.5 8.5q95 0 154 -33t88 -99q38 63 99 97.5t149 34.5q151 0 217 -82t66 -249v-564h-104v564q0 127 -47.5 186.5t-142.5 59.5q-47 0 -84.5 -18.5t-64 -51.5t-40.5 -78t-14 -98v-564h-104v564q0 63 -8.5 109.5t-29.5 77 t-56.5 45t-88.5 14.5q-54 0 -93.5 -18.5t-65.5 -51.5t-38.5 -78t-12.5 -98v-564h-104z" />
<glyph unicode="n" horiz-adv-x="948" d="M121 0v882h104v-122q12 24 35 48t56.5 43.5t77 31.5t95.5 12q334 0 334 -343v-552h-104v552q0 132 -64.5 195t-176.5 63q-54 0 -100.5 -20.5t-80 -55.5t-53 -82t-19.5 -100v-552h-104z" />
<glyph unicode="o" horiz-adv-x="948" d="M67 441q0 96 25.5 181t76.5 148t127.5 99.5t178.5 36.5t178.5 -36.5t127.5 -99.5t76.5 -148t25.5 -181q0 -116 -32 -202.5t-87 -145t-129.5 -87.5t-159.5 -29t-159.5 29t-129.5 87.5t-87 145t-32 202.5zM175 441q0 -82 19 -150.5t56.5 -118t94 -77t130.5 -27.5 t130.5 27.5t94 77t56.5 118t19 150.5q0 72 -16.5 139.5t-52.5 119.5t-93 83.5t-138 31.5t-138 -31.5t-93 -83.5t-52.5 -119.5t-16.5 -139.5z" />
<glyph unicode="p" horiz-adv-x="967" d="M121 -347v1229h103v-151q41 75 117 122t182 47q88 0 157.5 -32.5t117.5 -93t73.5 -146t25.5 -190.5t-27 -190.5t-77 -146t-121 -93t-159 -32.5q-54 0 -100 13t-83 34.5t-64 49.5t-42 58v-478h-103zM224 438q0 -91 21 -160t59 -116t90.5 -71t115.5 -24q77 0 130 28.5 t86 79t47.5 118t14.5 145.5t-14.5 145.5t-47.5 118t-86 79t-130 28.5q-63 0 -115.5 -25t-90.5 -72t-59 -116.5t-21 -157.5z" />
<glyph unicode="q" horiz-adv-x="967" d="M70 438q0 105 25.5 190.5t74 146t118 93t157.5 32.5q106 0 181.5 -47t116.5 -122v151h104v-1229h-104v478q-15 -30 -42 -58t-64 -49.5t-83 -34.5t-100 -13q-88 0 -159 32.5t-121 93t-77 146t-27 190.5zM179 438q0 -78 14.5 -145.5t47.5 -118t86 -79t130 -28.5 q63 0 115.5 24t90.5 71t59 116t21 160q0 88 -21 157.5t-59 116.5t-90.5 72t-115.5 25q-77 0 -130 -28.5t-86 -79t-47.5 -118t-14.5 -145.5z" />
<glyph unicode="r" horiz-adv-x="650" d="M150 0v548q0 75 21 136.5t62.5 105.5t103 68t142.5 24h136v-90h-129q-112 0 -172 -61.5t-60 -182.5v-548h-104z" />
<glyph unicode="s" horiz-adv-x="851" d="M76 251h103q35 -184 255 -184q58 0 101.5 13t72 36t42.5 55t14 71q0 44 -24.5 72t-64 46.5t-90.5 31.5t-104 25.5t-104 29t-90.5 43t-64 65.5t-24.5 98q0 53 22 99.5t63.5 80.5t100 53.5t130.5 19.5t130.5 -13t102 -43.5t71 -80.5t36.5 -124h-101q-8 49 -28.5 82 t-52 52.5t-72 27.5t-87.5 8q-50 0 -88.5 -11.5t-65 -32.5t-40 -49.5t-13.5 -62.5q0 -43 24.5 -70.5t64.5 -46t91 -30.5t104 -25t104 -29t91 -42t64.5 -65.5t24.5 -98.5q0 -63 -25 -113.5t-70.5 -86.5t-109 -55.5t-141.5 -19.5q-82 0 -146 21.5t-108 59t-69 87.5t-29 106z " />
<glyph unicode="t" horiz-adv-x="586" d="M34 797v85h149v246h104v-246h227v-85h-227v-557q0 -45 7.5 -74.5t24 -47.5t43 -25.5t65.5 -7.5q22 0 41.5 2t34.5 4q18 3 32 7v-85q-12 -4 -30 -7q-16 -2 -40 -4t-58 -2q-51 0 -92 14t-70.5 42t-45.5 70t-16 97v574h-149z" />
<glyph unicode="u" horiz-adv-x="939" d="M121 356v526h104v-530q0 -67 13.5 -118t42 -85.5t73.5 -52t109 -17.5q127 0 194.5 69t67.5 204v530h104v-882h-104v127q-13 -27 -36.5 -52.5t-56.5 -44.5t-75.5 -30.5t-93.5 -11.5q-91 0 -155.5 25.5t-106 73.5t-61 116t-19.5 153z" />
<glyph unicode="v" horiz-adv-x="832" d="M32 882h111l275 -756l271 756h111l-328 -882h-114z" />
<glyph unicode="w" horiz-adv-x="1224" d="M22 882h104l230 -753l206 753h112l195 -744l233 744h100l-283 -882h-109l-194 743h-5l-193 -743h-125z" />
<glyph unicode="x" horiz-adv-x="851" d="M31 0l338 456l-310 426h124l245 -350l251 350h128l-319 -426l332 -456h-123l-269 382l-271 -382h-126z" />
<glyph unicode="y" horiz-adv-x="851" d="M44 882h113l271 -759l269 759h110l-497 -1333h-108l172 444z" />
<glyph unicode="z" horiz-adv-x="851" d="M82 0v92l545 704h-519v86h653v-74l-560 -722h581v-86h-700z" />
<glyph unicode="{" horiz-adv-x="568" d="M76 445v45q48 13 76 27t42.5 34.5t18.5 49.5t4 73v329q0 289 248 310v-67q-77 -15 -108.5 -55t-31.5 -120v-349q0 -50 -4.5 -91.5t-19.5 -73.5t-42.5 -54t-73.5 -33v-5q43 -9 70.5 -28t43 -47.5t21 -67.5t5.5 -88v-362q0 -80 31.5 -120.5t108.5 -56.5v-67 q-248 21 -248 311v329q0 39 -5.5 68.5t-21 51t-43 35.5t-71.5 22z" />
<glyph unicode="|" horiz-adv-x="380" d="M140 -360v1640h100v-1640h-100z" />
<glyph unicode="}" horiz-adv-x="568" d="M98 -305q77 16 108.5 56.5t31.5 120.5v362q0 49 5.5 88t21 67.5t43 47.5t70.5 28v5q-46 11 -73.5 33t-42.5 54t-19.5 73.5t-4.5 91.5v349q0 80 -31.5 120t-108.5 55v67q248 -21 248 -310v-329q0 -44 4 -73t18.5 -49.5t42.5 -34.5t76 -27v-45q-44 -8 -71.5 -22t-43 -35.5 t-21 -51t-5.5 -68.5v-329q0 -290 -248 -311v67z" />
<glyph unicode="~" horiz-adv-x="1125" d="M138 377q17 29 39.5 60t52 56.5t66 42t81.5 16.5q48 0 97.5 -19t98.5 -41.5t95 -41.5t85 -19q28 0 53.5 14.5t46.5 36.5t38 48t30 49l67 -57q-19 -36 -42 -69.5t-52 -59.5t-64.5 -42t-78.5 -16q-48 0 -95.5 19t-94.5 41.5t-93 41.5t-91 19q-34 0 -61.5 -15.5t-49.5 -39 t-39.5 -51.5t-32.5 -53z" />
<glyph unicode="&#xa1;" horiz-adv-x="568" d="M196 834q0 37 25 62t62 25q38 0 63.5 -25t25.5 -62t-25.5 -62.5t-63.5 -25.5q-37 0 -62 25.5t-25 62.5zM221 62l25 539h76l24 -539v-382h-125v382z" />
<glyph unicode="&#xa2;" d="M76 441q0 112 31 199t85.5 146.5t128.5 90.5t161 31q30 0 54 -1.5t47 -8.5l69 207h81l-75 -230q159 -67 192 -269h-104q-36 122 -119 170l-233 -697q23 -7 45 -9.5t43 -2.5q119 0 186.5 63t84.5 175h109q-8 -67 -37 -126.5t-77.5 -104.5t-115 -71t-150.5 -26q-30 0 -59 3 t-57 10l-77 -229h-80l84 254q-114 57 -165.5 167t-51.5 259zM185 441q0 -49 8.5 -97.5t25.5 -92t43.5 -78.5t62.5 -57l227 691q-15 5 -32.5 6.5t-37.5 1.5q-78 0 -134 -32.5t-92.5 -85t-53.5 -119.5t-17 -137z" />
<glyph unicode="&#xa3;" d="M84 533v90h164q-11 23 -25.5 51t-28.5 61t-23.5 70.5t-9.5 80.5q0 75 23.5 133.5t68 99t107 62t140.5 21.5q81 0 145 -22.5t109 -66.5t69 -109t24 -150h-107q-7 132 -65 194t-173 62q-51 0 -94 -14.5t-74 -43.5t-48 -72t-17 -100q0 -35 9.5 -67.5t24.5 -64t34 -62.5 t38 -63h261v-90h-230q7 -21 13 -49.5t6 -53.5q0 -49 -7.5 -94.5t-26 -87.5t-50 -80.5t-79.5 -73.5q18 2 35 3.5t38 2t47.5 0.5h63.5h396v-100h-741l-5 91q52 14 93 42.5t69.5 68.5t43.5 90t15 108q0 34 -9.5 71.5t-24.5 61.5h-199z" />
<glyph unicode="&#xa4;" d="M47 511q0 38 4.5 71.5t14 64.5t25 61t38.5 61l-75 75l91 89l75 -74q57 45 122.5 65.5t137.5 20.5t131 -22.5t120 -63.5l74 74l89 -89l-74 -75q44 -62 64 -124.5t20 -141.5q0 -36 -6 -67.5t-16.5 -60.5t-26.5 -58t-35 -59l74 -69l-89 -91l-74 72q-115 -85 -266 -85 q-72 0 -130.5 23.5t-114.5 61.5l-75 -72l-91 91l75 69q-45 62 -63.5 121.5t-18.5 131.5zM167 511q0 -63 24 -118t65.5 -96.5t96.5 -65.5t117 -24q65 0 122 23.5t99 65.5t66.5 98.5t24.5 122.5q0 62 -24 117t-65 96.5t-96 65.5t-117 24q-67 0 -124 -23.5t-99 -64.5t-66 -97.5 t-24 -123.5z" />
<glyph unicode="&#xa5;" d="M7 1228h131l334 -591l346 591h124l-292 -487h169v-93h-226l-64 -112v-71h290v-93h-290v-372h-108v372h-293v93h293v71l-67 112h-226v93h172z" />
<glyph unicode="&#xa6;" horiz-adv-x="379" d="M139 -300v600h100v-600h-100zM139 554v596h100v-596h-100z" />
<glyph unicode="&#xa7;" d="M78 571q0 46 15 84.5t40.5 69.5t59 54.5t71.5 38.5q-20 15 -38 36t-32 47t-22.5 56.5t-8.5 63.5q0 48 21.5 91.5t63.5 76t103.5 51.5t140.5 19q74 0 134 -19t102 -56t65 -92t23 -127h-99q0 100 -60 152t-172 52q-102 0 -157 -39t-55 -109q0 -47 25.5 -86.5t67.5 -74.5 t96 -67t110 -64t110 -66t96 -72t67.5 -82.5t25.5 -98.5q0 -51 -14 -90t-38 -70.5t-57.5 -57t-72.5 -47.5q47 -37 77 -79t30 -101q0 -66 -28.5 -117t-75.5 -86t-106.5 -53t-121.5 -18q-78 0 -140 21.5t-106.5 61.5t-69.5 97t-28 129h102q0 -102 64 -160.5t180 -58.5 q47 0 87.5 11.5t70.5 33.5t47 52t17 68q0 40 -20 72.5t-50.5 59.5t-67 50.5t-70.5 44.5l-224 142q-42 26 -75 53t-56 57t-35 66t-12 80zM178 579q0 -34 12 -61t32 -48.5t45.5 -40t52.5 -35.5l292 -189q30 12 58 30t49.5 41.5t35 53t13.5 64.5t-13.5 63t-35 50.5t-48 40 t-51.5 32.5l-283 174q-34 -11 -63 -27.5t-50.5 -39t-33.5 -49.5t-12 -59z" />
<glyph unicode="&#xa8;" horiz-adv-x="568" d="M76 1074v152h118v-152h-118zM393 1074v152h118v-152h-118z" />
<glyph unicode="&#xa9;" horiz-adv-x="1364" d="M40 616q0 135 48.5 252.5t134.5 204t203.5 136.5t255.5 50t255.5 -50t203.5 -136.5t134.5 -204t48.5 -252.5q0 -137 -48.5 -255.5t-134.5 -206t-203.5 -138t-255.5 -50.5t-255.5 50.5t-203.5 138t-134.5 206t-48.5 255.5zM138 616q0 -119 40.5 -222t113 -179.5 t172.5 -120t218 -43.5t218 43.5t172.5 120t113 179.5t40.5 222q0 117 -40.5 219t-113 177.5t-172.5 118.5t-218 43q-120 0 -220 -42.5t-172 -117t-112 -176.5t-40 -222zM352 623q0 79 24.5 146.5t70 116.5t111 76.5t146.5 27.5q58 0 110 -16t92.5 -46.5t67.5 -75.5t36 -103 h-93q-16 76 -73 121.5t-137 45.5q-65 0 -113 -23.5t-79.5 -63.5t-47 -93t-15.5 -113q0 -59 17 -113t50 -96t81 -67t110 -25q38 0 73 12t63 34.5t46.5 55t24.5 74.5h93q-8 -59 -34 -105.5t-66 -78.5t-91 -49t-109 -17q-81 0 -147.5 28t-113 78.5t-72 119t-25.5 149.5z" />
<glyph unicode="&#xaa;" horiz-adv-x="650" d="M94 841q0 32 12 62.5t38 54.5t66 38.5t97 14.5h164v51q0 68 -37 97.5t-99 29.5q-60 0 -94 -27t-42 -78h-89q4 38 21 70t46.5 55.5t69.5 36.5t90 13q100 0 159.5 -50.5t59.5 -149.5v-372h-85v67q-21 -36 -69 -60.5t-117 -24.5q-38 0 -72.5 13t-61 35.5t-42 54t-15.5 69.5z M182 841q0 -42 29.5 -72t82.5 -30q42 0 75 13.5t55.5 38.5t34.5 59t12 76v19h-164q-67 0 -96 -27t-29 -77z" />
<glyph unicode="&#xab;" d="M100 437v8l289 285h127l-289 -289l289 -289h-127zM425 437v8l299 285h126l-299 -289l299 -289h-126z" />
<glyph unicode="&#xac;" horiz-adv-x="1125" d="M138 542v103h850v-453h-109v350h-741z" />
<glyph unicode="&#xad;" horiz-adv-x="530" d="M60 395v85h410v-85h-410z" />
<glyph unicode="&#xae;" horiz-adv-x="1364" d="M40 616q0 135 48.5 252.5t134.5 204t203.5 136.5t255.5 50t255.5 -50t203.5 -136.5t134.5 -204t48.5 -252.5q0 -137 -48.5 -255.5t-134.5 -206t-203.5 -138t-255.5 -50.5t-255.5 50.5t-203.5 138t-134.5 206t-48.5 255.5zM138 616q0 -119 40.5 -222t113 -179.5 t172.5 -120t218 -43.5t218 43.5t172.5 120t113 179.5t40.5 222q0 117 -40.5 219t-113 177.5t-172.5 118.5t-218 43q-120 0 -220 -42.5t-172 -117t-112 -176.5t-40 -222zM444 253v723h305q67 0 117 -17t83 -45.5t49 -67t16 -81.5q0 -50 -16 -88t-43 -64.5t-62.5 -42 t-75.5 -20.5l190 -297h-97l-186 293h-192v-293h-88zM532 620h196q105 0 150.5 34t45.5 113q0 67 -50 104t-136 37h-206v-288z" />
<glyph unicode="&#xaf;" horiz-adv-x="600" d="M47 1045v75h505v-75h-505z" />
<glyph unicode="&#xb0;" horiz-adv-x="684" d="M84 948q0 59 19 106.5t53.5 80.5t82 51t103.5 18t103.5 -18t82 -51t53.5 -80.5t19 -106.5t-19 -106.5t-53.5 -80.5t-82 -51t-103.5 -18t-103.5 18t-82 51t-53.5 80.5t-19 106.5zM162 948q0 -42 13 -76t37 -57.5t57 -36t73 -12.5t73 12.5t57 36t37 57.5t13 76t-13 76 t-37 57.5t-57 36t-73 12.5t-73 -12.5t-57 -36t-37 -57.5t-13 -76z" />
<glyph unicode="&#xb1;" d="M70 0v100h810v-100h-810zM70 476v100h353v305h104v-305h353v-100h-353v-306h-104v306h-353z" />
<glyph unicode="&#xb2;" horiz-adv-x="650" d="M85 539v74l314 280q37 34 58 68t21 84q0 66 -33.5 100t-111.5 34t-114 -43t-36 -120h-94q0 51 16 95.5t47 77t76.5 51.5t104.5 19t104 -17.5t75 -46.5t45 -67t15 -80q0 -38 -8.5 -67t-23 -53t-35 -45.5t-44.5 -43.5l-236 -220h350v-80h-490z" />
<glyph unicode="&#xb3;" horiz-adv-x="650" d="M75 749h93q0 -69 40.5 -106t112.5 -37q82 0 122.5 36.5t40.5 100.5q0 68 -37.5 98.5t-112.5 31.5h-70v80h78q60 0 92 32.5t32 87.5q0 53 -35 82t-106 29t-111.5 -33t-40.5 -90h-89q0 47 17.5 84t49.5 62.5t76.5 38.5t98.5 13q51 0 93.5 -12t73 -35.5t47.5 -58t17 -79.5 q0 -58 -25 -99t-75 -62q57 -14 87.5 -56.5t30.5 -113.5q0 -45 -16 -84.5t-47.5 -69t-79.5 -46.5t-111 -17q-51 0 -96 14.5t-78.5 42.5t-52.5 70t-19 96z" />
<glyph unicode="&#xb4;" horiz-adv-x="568" d="M185 977l189 239h131l-231 -239h-89z" />
<glyph unicode="&#xb5;" d="M123 -347v1229h101v-567q0 -57 17 -102.5t49 -78t78 -50t103 -17.5q66 0 113 23t78 64.5t45.5 99.5t14.5 128v500h101v-882h-101v123q-16 -26 -38 -52t-53 -47t-73 -34t-97 -13q-89 0 -147.5 31t-89.5 73v-428h-101z" />
<glyph unicode="&#xb6;" horiz-adv-x="1110" d="M113 898q0 163 99 246.5t280 83.5h50v-1479h-101v824q-66 0 -125.5 26t-104.5 70t-71.5 103.5t-26.5 125.5zM761 -251v1479h101v-1479h-101z" />
<glyph unicode="&#xb7;" horiz-adv-x="475" d="M152 596q0 37 26 60t59 23t58 -23t25 -60q0 -33 -23 -57.5t-60 -24.5t-61 24.5t-24 57.5z" />
<glyph unicode="&#xb8;" horiz-adv-x="600" d="M127 -320l25 52q25 -11 52 -18t56 -7q18 0 38 4t36.5 13t27.5 24t11 38q0 18 -7.5 30.5t-19.5 20t-28 10.5t-32 3q-36 0 -76 -13l-25 23l104 140h66l-79 -101q16 7 30.5 8.5t31.5 1.5q28 0 51 -8t39.5 -20.5t27 -27.5t13.5 -30q7 -47 -5.5 -80.5t-39.5 -55t-64 -31.5 t-79 -10q-74 0 -154 34z" />
<glyph unicode="&#xb9;" horiz-adv-x="650" d="M133 1105v75l174 79h82v-720h-94v637z" />
<glyph unicode="&#xba;" horiz-adv-x="650" d="M68 960q0 69 16.5 124.5t48.5 94t80 59.5t110 21t109.5 -21t80 -59.5t49 -94t16.5 -124.5t-16.5 -124.5t-49 -94t-80 -59.5t-109.5 -21q-61 0 -108.5 21t-80 59.5t-49.5 94t-17 124.5zM153 960q0 -105 43.5 -167t126.5 -62t126.5 62t43.5 167t-43.5 167t-126.5 62 t-126.5 -62t-43.5 -167z" />
<glyph unicode="&#xbb;" d="M100 152l299 289l-299 289h126l299 -285v-8l-299 -285h-126zM434 152l289 289l-289 289h127l289 -285v-8l-289 -285h-127z" />
<glyph unicode="&#xbc;" horiz-adv-x="1421" d="M111 1105v75l174 79h82v-720h-94v637zM277 0l759 1228h105l-756 -1228h-108zM800 159v75l362 481h84v-481h108v-75h-108v-159h-90v159h-356zM905 234h251v336z" />
<glyph unicode="&#xbd;" horiz-adv-x="1421" d="M111 1105v75l174 79h82v-720h-94v637zM227 0l759 1228h105l-756 -1228h-108zM867 0v74l314 280q37 34 58 68t21 84q0 66 -33.5 100t-111.5 34t-114 -43t-36 -120h-94q0 51 16 95.5t47 77t76.5 51.5t104.5 19t104 -17.5t75 -46.5t45 -67t15 -80q0 -38 -8.5 -67t-23 -53 t-35 -45.5t-44.5 -43.5l-236 -220h350v-80h-490z" />
<glyph unicode="&#xbe;" horiz-adv-x="1421" d="M98 749h93q0 -69 40.5 -106t112.5 -37q82 0 122.5 36.5t40.5 100.5q0 68 -37.5 98.5t-112.5 31.5h-70v80h78q60 0 92 32.5t32 87.5q0 53 -35 82t-106 29t-111.5 -33t-40.5 -90h-89q0 47 17.5 84t49.5 62.5t76.5 38.5t98.5 13q51 0 93.5 -12t73 -35.5t47.5 -58t17 -79.5 q0 -58 -25 -99t-75 -62q57 -14 87.5 -56.5t30.5 -113.5q0 -45 -16 -84.5t-47.5 -69t-79.5 -46.5t-111 -17q-51 0 -96 14.5t-78.5 42.5t-52.5 70t-19 96zM347 0l759 1228h105l-756 -1228h-108zM800 159v75l362 481h84v-481h108v-75h-108v-159h-90v159h-356zM905 234h251v336z " />
<glyph unicode="&#xbf;" horiz-adv-x="851" d="M49 -34q0 49 15 89.5t40 75t57.5 65.5t66 62t66 64t58.5 72q13 22 20 47t9.5 50.5t2.5 52v52.5h101q0 -45 -2.5 -87.5t-12 -82t-28.5 -76.5t-52 -72q-37 -40 -78 -77t-75.5 -74.5t-57 -78.5t-22.5 -89q0 -46 17.5 -86t51 -70t83 -47t114.5 -17q63 0 112.5 22t83 60.5 t50.5 91.5t15 116h103q7 -87 -18 -157.5t-75 -120.5t-120.5 -77.5t-152.5 -27.5q-89 0 -158 23t-116.5 65t-72.5 101t-25 131zM369 756v152h126v-152h-126z" />
<glyph unicode="&#xc0;" horiz-adv-x="1138" d="M25 0l483 1228h132l470 -1228h-120l-140 384h-561l-144 -384h-120zM330 485h480l-239 645zM407 1610h132l191 -238h-87z" />
<glyph unicode="&#xc1;" horiz-adv-x="1138" d="M25 0l483 1228h132l470 -1228h-120l-140 384h-561l-144 -384h-120zM330 485h480l-239 645zM407 1372l189 238h131l-232 -238h-88z" />
<glyph unicode="&#xc2;" horiz-adv-x="1138" d="M25 0l483 1228h132l470 -1228h-120l-140 384h-561l-144 -384h-120zM320 1372l193 238h117l190 -238h-111l-139 175l-139 -175h-111zM330 485h480l-239 645z" />
<glyph unicode="&#xc3;" horiz-adv-x="1138" d="M25 0l483 1228h132l470 -1228h-120l-140 384h-561l-144 -384h-120zM303 1368q4 30 16.5 59.5t33 53.5t48 38.5t62.5 14.5q32 0 61.5 -12t58.5 -26t59 -26t63 -12q18 0 30.5 7.5t20.5 19.5t13.5 27.5t8.5 30.5h65q0 -28 -9.5 -57.5t-27.5 -54t-43.5 -40t-57.5 -15.5 q-35 0 -67.5 12t-63 26.5t-59.5 26.5t-59 12q-39 0 -58 -25t-26 -60h-69zM330 485h480l-239 645z" />
<glyph unicode="&#xc4;" horiz-adv-x="1138" d="M25 0l483 1228h132l470 -1228h-120l-140 384h-561l-144 -384h-120zM330 485h480l-239 645zM350 1373v173h113v-173h-113zM673 1373v173h112v-173h-112z" />
<glyph unicode="&#xc5;" horiz-adv-x="1138" d="M25 0l464 1181q-44 21 -70.5 62t-26.5 96q0 39 14 71t38 55t56.5 36t70.5 13t70.5 -13t56.5 -36t38 -55t14 -71q0 -54 -25.5 -94t-67.5 -61l453 -1184h-120l-140 384h-561l-144 -384h-120zM330 485h480l-239 645zM462 1339q0 -49 30.5 -79.5t78.5 -30.5t78.5 30.5 t30.5 79.5t-30.5 79.5t-78.5 30.5t-78.5 -30.5t-30.5 -79.5z" />
<glyph unicode="&#xc6;" horiz-adv-x="1706" d="M7 0l725 1228h886v-98h-637v-443h572v-101h-572v-488h639v-98h-755v384h-515l-227 -384h-116zM409 485h456v645h-74z" />
<glyph unicode="&#xc7;" horiz-adv-x="1231" d="M83 614q0 175 43.5 297.5t120 200t180.5 112.5t225 35q96 0 177 -24.5t143 -73t102.5 -121t55.5 -168.5h-121q-18 78 -51 133t-81 90t-111.5 51t-142.5 16q-112 0 -192 -44.5t-131.5 -119.5t-76 -174t-24.5 -208q0 -68 9 -135.5t29.5 -128.5t53.5 -113t81.5 -90.5 t113 -60t147.5 -21.5q80 0 143.5 25.5t111.5 70.5t81 107t52 136h122q-20 -87 -58 -165t-99 -137.5t-148 -95.5t-205 -40l-57 -69q15 7 30 8.5t31 1.5q24 0 48 -7.5t42.5 -22.5t30 -38t11.5 -53q0 -38 -15 -64.5t-40.5 -44t-60 -25.5t-73.5 -8q-74 0 -154 34l25 52 q26 -11 52.5 -18t56.5 -7q18 0 37.5 4t35.5 13t26.5 24t10.5 38q0 37 -25.5 50.5t-58.5 13.5q-22 0 -37 -3t-38 -10l-26 23l81 108q-129 7 -221 62t-150 142.5t-85 201.5t-27 240z" />
<glyph unicode="&#xc8;" horiz-adv-x="1042" d="M139 0v1228h804v-98h-687v-443h622v-101h-622v-488h699v-98h-816zM459 1610h132l190 -238h-87z" />
<glyph unicode="&#xc9;" horiz-adv-x="1042" d="M139 0v1228h804v-98h-687v-443h622v-101h-622v-488h699v-98h-816zM505 1372l189 238h131l-232 -238h-88z" />
<glyph unicode="&#xca;" horiz-adv-x="1042" d="M139 0v1228h804v-98h-687v-443h622v-101h-622v-488h699v-98h-816zM369 1372l193 238h117l190 -238h-110l-141 175l-138 -175h-111z" />
<glyph unicode="&#xcb;" horiz-adv-x="1042" d="M139 0v1228h804v-98h-687v-443h622v-101h-622v-488h699v-98h-816zM417 1372v172h112v-172h-112zM740 1372v172h111v-172h-111z" />
<glyph unicode="&#xcc;" horiz-adv-x="475" d="M76 1610h133l191 -238h-88zM177 0v1228h116v-1228h-116z" />
<glyph unicode="&#xcd;" horiz-adv-x="475" d="M81 1372l189 238h130l-231 -238h-88zM177 0v1228h116v-1228h-116z" />
<glyph unicode="&#xce;" horiz-adv-x="475" d="M-9 1372l193 238h117l190 -238h-110l-141 175l-138 -175h-111zM177 0v1228h116v-1228h-116z" />
<glyph unicode="&#xcf;" horiz-adv-x="475" d="M24 1373v173h112v-173h-112zM177 0v1228h116v-1228h-116zM346 1373v173h113v-173h-113z" />
<glyph unicode="&#xd0;" horiz-adv-x="1231" d="M18 561v101h121v566h388q148 0 262 -37t192 -112.5t118.5 -191t40.5 -271.5q0 -143 -38.5 -257.5t-115.5 -194t-191.5 -122t-267.5 -42.5h-388v561h-121zM253 98h249q149 0 249 42.5t161 114t86.5 165.5t25.5 196q0 256 -126.5 385t-395.5 129h-249v-468h276v-101h-276 v-463z" />
<glyph unicode="&#xd1;" horiz-adv-x="1231" d="M139 0v1228h130l702 -1031h3v1031h115v-1228h-113l-720 1058h-2v-1058h-115zM350 1371q3 30 13.5 59.5t30.5 53t49.5 38.5t70.5 15q32 0 60.5 -12t56 -26t54 -26t53.5 -12q37 0 49.5 24t13.5 61h78q0 -35 -8.5 -65t-25.5 -53t-42.5 -36t-59.5 -13q-35 0 -66.5 12 t-61 26.5t-56 26.5t-51.5 12q-30 0 -49.5 -20.5t-22.5 -64.5h-86z" />
<glyph unicode="&#xd2;" horiz-adv-x="1327" d="M91 611q0 136 36.5 254t108 205.5t177 138t242.5 50.5q144 0 253 -50.5t181.5 -138t109.5 -205.5t37 -254q0 -131 -36.5 -248t-108.5 -205.5t-179.5 -140t-250.5 -51.5q-142 0 -248.5 51.5t-178 140t-107.5 205.5t-36 248zM207 611q0 -108 26.5 -206.5t82 -173.5 t141.5 -119.5t205 -44.5q120 0 206.5 45t142.5 120t82.5 173.5t26.5 205.5q0 129 -31.5 231t-90.5 173.5t-144 109t-193 37.5q-119 0 -204.5 -45.5t-141 -121.5t-82 -176t-26.5 -208zM500 1610h133l190 -238h-87z" />
<glyph unicode="&#xd3;" horiz-adv-x="1327" d="M91 611q0 136 36.5 254t108 205.5t177 138t242.5 50.5q144 0 253 -50.5t181.5 -138t109.5 -205.5t37 -254q0 -131 -36.5 -248t-108.5 -205.5t-179.5 -140t-250.5 -51.5q-142 0 -248.5 51.5t-178 140t-107.5 205.5t-36 248zM207 611q0 -108 26.5 -206.5t82 -173.5 t141.5 -119.5t205 -44.5q120 0 206.5 45t142.5 120t82.5 173.5t26.5 205.5q0 129 -31.5 231t-90.5 173.5t-144 109t-193 37.5q-119 0 -204.5 -45.5t-141 -121.5t-82 -176t-26.5 -208zM503 1372l189 238h131l-232 -238h-88z" />
<glyph unicode="&#xd4;" horiz-adv-x="1327" d="M91 611q0 136 36.5 254t108 205.5t177 138t242.5 50.5q144 0 253 -50.5t181.5 -138t109.5 -205.5t37 -254q0 -131 -36.5 -248t-108.5 -205.5t-179.5 -140t-250.5 -51.5q-142 0 -248.5 51.5t-178 140t-107.5 205.5t-36 248zM207 611q0 -108 26.5 -206.5t82 -173.5 t141.5 -119.5t205 -44.5q120 0 206.5 45t142.5 120t82.5 173.5t26.5 205.5q0 129 -31.5 231t-90.5 173.5t-144 109t-193 37.5q-119 0 -204.5 -45.5t-141 -121.5t-82 -176t-26.5 -208zM413 1372l193 238h118l189 -238h-110l-141 175l-138 -175h-111z" />
<glyph unicode="&#xd5;" horiz-adv-x="1327" d="M91 611q0 136 36.5 254t108 205.5t177 138t242.5 50.5q144 0 253 -50.5t181.5 -138t109.5 -205.5t37 -254q0 -131 -36.5 -248t-108.5 -205.5t-179.5 -140t-250.5 -51.5q-142 0 -248.5 51.5t-178 140t-107.5 205.5t-36 248zM207 611q0 -108 26.5 -206.5t82 -173.5 t141.5 -119.5t205 -44.5q120 0 206.5 45t142.5 120t82.5 173.5t26.5 205.5q0 129 -31.5 231t-90.5 173.5t-144 109t-193 37.5q-119 0 -204.5 -45.5t-141 -121.5t-82 -176t-26.5 -208zM390 1368q4 30 16 59.5t32.5 53.5t48 38.5t62.5 14.5q32 0 61.5 -12t58.5 -26t58.5 -26 t62.5 -12q18 0 31 7.5t21.5 19.5t13.5 27.5t8 30.5h65q0 -28 -9.5 -57.5t-27.5 -54t-43.5 -40t-58.5 -15.5q-35 0 -67 12t-62.5 26.5t-60 26.5t-58.5 12q-39 0 -58.5 -25t-26.5 -60h-67z" />
<glyph unicode="&#xd6;" horiz-adv-x="1327" d="M91 611q0 136 36.5 254t108 205.5t177 138t242.5 50.5q144 0 253 -50.5t181.5 -138t109.5 -205.5t37 -254q0 -131 -36.5 -248t-108.5 -205.5t-179.5 -140t-250.5 -51.5q-142 0 -248.5 51.5t-178 140t-107.5 205.5t-36 248zM207 611q0 -108 26.5 -206.5t82 -173.5 t141.5 -119.5t205 -44.5q120 0 206.5 45t142.5 120t82.5 173.5t26.5 205.5q0 129 -31.5 231t-90.5 173.5t-144 109t-193 37.5q-119 0 -204.5 -45.5t-141 -121.5t-82 -176t-26.5 -208zM446 1373v173h112v-173h-112zM769 1373v173h112v-173h-112z" />
<glyph unicode="&#xd7;" d="M109 132l294 293l-293 293l72 71l292 -293l294 295l71 -71l-295 -295l294 -294l-70 -71l-294 294l-294 -293z" />
<glyph unicode="&#xd8;" horiz-adv-x="1327" d="M72 -5l152 172q-72 88 -105.5 199t-33.5 245q0 137 38 255.5t111 205.5t178 137t240 50q118 0 216.5 -33.5t178.5 -113.5l143 163l64 -59l-146 -171q24 -28 46 -70.5t39.5 -97t27.5 -121.5t10 -145q0 -131 -36.5 -248t-108.5 -205.5t-180 -140t-251 -51.5 q-118 0 -209 36.5t-163 100.5l-144 -165zM202 611q0 -107 23 -195.5t72 -164.5l679 779q-25 27 -56 51t-70 42t-87.5 28.5t-107.5 10.5q-119 0 -204.5 -46.5t-140.5 -123t-81.5 -176t-26.5 -205.5zM354 183q54 -54 129 -85t175 -31q119 0 205.5 45t142.5 120t82.5 173.5 t26.5 205.5q0 92 -20 180t-65 164z" />
<glyph unicode="&#xd9;" horiz-adv-x="1228" d="M138 500v728h116v-720q0 -105 20 -182t63.5 -127.5t112 -75.5t164.5 -25t164 25t112 75.5t64.5 127.5t20.5 182v720h115v-728q0 -117 -27.5 -210t-85.5 -157.5t-148 -98.5t-215 -34t-215 34t-148 98.5t-85.5 157.5t-27.5 210zM453 1610h132l190 -238h-87z" />
<glyph unicode="&#xda;" horiz-adv-x="1228" d="M138 500v728h116v-720q0 -105 20 -182t63.5 -127.5t112 -75.5t164.5 -25t164 25t112 75.5t64.5 127.5t20.5 182v720h115v-728q0 -117 -27.5 -210t-85.5 -157.5t-148 -98.5t-215 -34t-215 34t-148 98.5t-85.5 157.5t-27.5 210zM453 1372l189 238h131l-232 -238h-88z" />
<glyph unicode="&#xdb;" horiz-adv-x="1228" d="M138 500v728h116v-720q0 -105 20 -182t63.5 -127.5t112 -75.5t164.5 -25t164 25t112 75.5t64.5 127.5t20.5 182v720h115v-728q0 -117 -27.5 -210t-85.5 -157.5t-148 -98.5t-215 -34t-215 34t-148 98.5t-85.5 157.5t-27.5 210zM363 1372l193 238h117l190 -238h-111 l-139 175l-139 -175h-111z" />
<glyph unicode="&#xdc;" horiz-adv-x="1231" d="M138 500v728h115v-720q0 -105 20.5 -182t64 -127.5t112 -75.5t164.5 -25t164 25t112 75.5t64.5 127.5t20.5 182v720h115v-728q0 -117 -27.5 -210t-85.5 -157.5t-148 -98.5t-215 -34t-215 34t-148 98.5t-85.5 157.5t-27.5 210zM397 1373v173h112v-173h-112zM720 1373v173 h112v-173h-112z" />
<glyph unicode="&#xdd;" horiz-adv-x="1042" d="M20 1228h132l365 -591l368 591h135l-444 -692v-536h-116v526zM360 1372l189 238h131l-232 -238h-88z" />
<glyph unicode="&#xde;" horiz-adv-x="1042" d="M133 0v1228h118v-225h289q120 0 204.5 -32.5t137.5 -85.5t77 -119.5t24 -135.5q0 -94 -32.5 -164.5t-93.5 -117t-148.5 -69.5t-197.5 -23h-260v-256h-118zM251 354h266q181 0 265.5 68.5t84.5 214.5q0 130 -86.5 197.5t-251.5 67.5h-278v-548z" />
<glyph unicode="&#xdf;" horiz-adv-x="942" d="M88 0v882q0 87 27.5 155.5t76.5 116t117 72.5t149 25q78 0 142.5 -23.5t110.5 -66.5t71.5 -103.5t25.5 -134.5q0 -90 -46 -159t-122 -106q102 -29 157 -108.5t55 -201.5q0 -177 -94 -269t-275 -92q-10 0 -30 1.5t-41.5 3.5t-39 4t-23.5 4v90q9 -2 28 -4.5t40.5 -4.5 t41 -3t27.5 -1q60 0 107.5 15.5t81 48t51.5 82.5t18 119q0 61 -15.5 110.5t-47 84t-78.5 53.5t-109 19h-44v88h38q100 0 158 59.5t58 169.5q0 56 -18.5 100t-51.5 74t-77 45.5t-95 15.5q-127 0 -196.5 -68.5t-69.5 -210.5v-882h-108z" />
<glyph unicode="&#xe0;" horiz-adv-x="898" d="M86 234q0 121 95.5 191.5t295.5 84.5l225 16v78q0 98 -58.5 154t-183.5 56q-118 0 -177.5 -49t-73.5 -139h-103q7 66 35 118t74 88t108 55t137 19q169 0 257 -78t88 -220v-608h-103v139q-27 -43 -62.5 -73.5t-77 -50t-87 -29t-92.5 -9.5q-70 0 -125 17.5t-93.5 51 t-58.5 81t-20 107.5zM199 232q0 -75 51.5 -120t148.5 -45q64 0 119.5 20t96.5 57.5t64 91t23 120.5v83l-216 -16q-142 -11 -214.5 -55t-72.5 -136zM286 1267h132l190 -237h-86z" />
<glyph unicode="&#xe1;" horiz-adv-x="898" d="M86 234q0 121 95.5 191.5t295.5 84.5l225 16v78q0 98 -58.5 154t-183.5 56q-118 0 -177.5 -49t-73.5 -139h-103q7 66 35 118t74 88t108 55t137 19q169 0 257 -78t88 -220v-608h-103v139q-27 -43 -62.5 -73.5t-77 -50t-87 -29t-92.5 -9.5q-70 0 -125 17.5t-93.5 51 t-58.5 81t-20 107.5zM199 232q0 -75 51.5 -120t148.5 -45q64 0 119.5 20t96.5 57.5t64 91t23 120.5v83l-216 -16q-142 -11 -214.5 -55t-72.5 -136zM337 1030l189 237h132l-232 -237h-89z" />
<glyph unicode="&#xe2;" horiz-adv-x="898" d="M86 234q0 121 95.5 191.5t295.5 84.5l225 16v78q0 98 -58.5 154t-183.5 56q-118 0 -177.5 -49t-73.5 -139h-103q7 66 35 118t74 88t108 55t137 19q169 0 257 -78t88 -220v-608h-103v139q-27 -43 -62.5 -73.5t-77 -50t-87 -29t-92.5 -9.5q-70 0 -125 17.5t-93.5 51 t-58.5 81t-20 107.5zM199 232q0 -75 51.5 -120t148.5 -45q64 0 119.5 20t96.5 57.5t64 91t23 120.5v83l-216 -16q-142 -11 -214.5 -55t-72.5 -136zM236 1030l192 237h117l191 -237h-111l-140 174l-139 -174h-110z" />
<glyph unicode="&#xe3;" horiz-adv-x="898" d="M86 234q0 121 95.5 191.5t295.5 84.5l225 16v78q0 98 -58.5 154t-183.5 56q-118 0 -177.5 -49t-73.5 -139h-103q7 66 35 118t74 88t108 55t137 19q169 0 257 -78t88 -220v-608h-103v139q-27 -43 -62.5 -73.5t-77 -50t-87 -29t-92.5 -9.5q-70 0 -125 17.5t-93.5 51 t-58.5 81t-20 107.5zM199 232q0 -75 51.5 -120t148.5 -45q64 0 119.5 20t96.5 57.5t64 91t23 120.5v83l-216 -16q-142 -11 -214.5 -55t-72.5 -136zM221 1017q4 30 16.5 59.5t33 53t48.5 38t63 14.5q31 0 60.5 -12t58.5 -26t59 -26t63 -12q18 0 30.5 7.5t21 19.5t14 27.5 t8.5 31.5h64q0 -28 -9.5 -57.5t-27.5 -54t-43.5 -40.5t-57.5 -16q-35 0 -67.5 12t-63 27t-59.5 27t-59 12q-39 0 -58 -25.5t-26 -59.5h-69z" />
<glyph unicode="&#xe4;" horiz-adv-x="898" d="M86 234q0 121 95.5 191.5t295.5 84.5l225 16v78q0 98 -58.5 154t-183.5 56q-118 0 -177.5 -49t-73.5 -139h-103q7 66 35 118t74 88t108 55t137 19q169 0 257 -78t88 -220v-608h-103v139q-27 -43 -62.5 -73.5t-77 -50t-87 -29t-92.5 -9.5q-70 0 -125 17.5t-93.5 51 t-58.5 81t-20 107.5zM199 232q0 -75 51.5 -120t148.5 -45q64 0 119.5 20t96.5 57.5t64 91t23 120.5v83l-216 -16q-142 -11 -214.5 -55t-72.5 -136zM283 1030v173h113v-173h-113zM606 1030v173h112v-173h-112z" />
<glyph unicode="&#xe5;" horiz-adv-x="898" d="M86 234q0 121 95.5 191.5t295.5 84.5l225 16v78q0 98 -58.5 154t-183.5 56q-118 0 -177.5 -49t-73.5 -139h-103q7 66 35 118t74 88t108 55t137 19q169 0 257 -78t88 -220v-608h-103v139q-27 -43 -62.5 -73.5t-77 -50t-87 -29t-92.5 -9.5q-70 0 -125 17.5t-93.5 51 t-58.5 81t-20 107.5zM199 232q0 -75 51.5 -120t148.5 -45q64 0 119.5 20t96.5 57.5t64 91t23 120.5v83l-216 -16q-142 -11 -214.5 -55t-72.5 -136zM318 1138q0 39 14 71t38 55t56.5 36t70.5 13t70.5 -13t56.5 -36t38 -55t14 -71t-14 -71t-38 -55t-56.5 -36t-70.5 -13 t-70.5 13t-56.5 36t-38 55t-14 71zM388 1138q0 -49 30.5 -79.5t78.5 -30.5t78.5 30.5t30.5 79.5t-30.5 79.5t-78.5 30.5t-78.5 -30.5t-30.5 -79.5z" />
<glyph unicode="&#xe6;" horiz-adv-x="1517" d="M67 224q0 118 75 189.5t232 89.5l96 11q67 8 106.5 15.5t60.5 19t27 29t6 45.5q0 57 -12 94t-37.5 58.5t-67 30.5t-99.5 9q-51 0 -93 -10.5t-73.5 -33t-52 -59.5t-26.5 -89h-106q5 74 34 127.5t75.5 88.5t107.5 52t131 17q43 0 90 -6.5t89.5 -23.5t77 -45.5t53.5 -71.5 q31 43 64 71.5t70.5 45.5t80 23.5t92.5 6.5q112 0 185 -38.5t115.5 -105t59.5 -155.5t17 -191h-667q0 -72 16.5 -135.5t52 -111.5t91.5 -76t136 -28q102 0 165 56t93 151h105q-33 -149 -128.5 -223t-244.5 -74q-221 0 -342 193q-23 -33 -53 -67t-73.5 -62t-103 -46 t-140.5 -18q-59 0 -111 14.5t-90.5 45t-61 77t-22.5 110.5zM175 239q0 -87 50.5 -129.5t133.5 -42.5q78 0 136 20.5t97 58t58.5 88.5t19.5 113v120q-40 -21 -92 -30.5t-107 -16t-108 -14.5t-95 -26t-67.5 -51.5t-25.5 -89.5zM778 503h558q0 62 -17 118.5t-50.5 99.5 t-84.5 68.5t-118 25.5q-81 0 -136 -31.5t-89 -78t-48.5 -101.5t-14.5 -101z" />
<glyph unicode="&#xe7;" d="M79 441q0 92 26.5 176.5t77.5 149t127 103t175 38.5q155 0 250 -73.5t116 -228.5h-102q-30 100 -95 154.5t-169 54.5q-78 0 -134 -32.5t-92 -85t-53 -119.5t-17 -137q0 -71 16.5 -138t52.5 -119.5t92 -84.5t135 -32q119 0 186 63t85 175h111q-15 -73 -44.5 -132.5 t-75.5 -102t-108.5 -66.5t-143.5 -27l-61 -78q15 7 30.5 8.5t30.5 1.5q22 0 46 -7t44 -22t32.5 -37t12.5 -52q0 -38 -16 -65.5t-42.5 -45t-61 -26t-72.5 -8.5q-36 0 -75 8.5t-80 25.5l27 52q29 -11 54 -18t54 -7q18 0 38.5 4t37 13t27.5 24t11 38q0 18 -7.5 30.5t-19.5 20 t-27.5 10.5t-31.5 3q-37 0 -77 -13l-23 23l88 122q-92 8 -159 46t-110.5 99.5t-64.5 141.5t-21 172z" />
<glyph unicode="&#xe8;" horiz-adv-x="948" d="M75 436q0 101 28 187t81 149t128 98.5t170 35.5q97 0 170 -32.5t122 -95t73.5 -153.5t24.5 -207h-687q0 -76 20 -140.5t58 -111t93 -73t126 -26.5q51 0 94.5 12.5t76.5 37t54.5 60t29.5 81.5h114q-11 -62 -38 -113.5t-71.5 -89t-109 -58t-150.5 -20.5q-102 0 -178.5 33.5 t-127 94.5t-76 145.5t-25.5 185.5zM185 503h577q0 68 -18 125t-53.5 98.5t-87.5 65t-121 23.5q-68 0 -120 -24t-88.5 -66t-59 -99t-29.5 -123zM311 1267h133l190 -237h-87z" />
<glyph unicode="&#xe9;" horiz-adv-x="948" d="M75 436q0 101 28 187t81 149t128 98.5t170 35.5q97 0 170 -32.5t122 -95t73.5 -153.5t24.5 -207h-687q0 -76 20 -140.5t58 -111t93 -73t126 -26.5q51 0 94.5 12.5t76.5 37t54.5 60t29.5 81.5h114q-11 -62 -38 -113.5t-71.5 -89t-109 -58t-150.5 -20.5q-102 0 -178.5 33.5 t-127 94.5t-76 145.5t-25.5 185.5zM185 503h577q0 68 -18 125t-53.5 98.5t-87.5 65t-121 23.5q-68 0 -120 -24t-88.5 -66t-59 -99t-29.5 -123zM311 1030l189 237h131l-231 -237h-89z" />
<glyph unicode="&#xea;" horiz-adv-x="948" d="M75 436q0 101 28 187t81 149t128 98.5t170 35.5q97 0 170 -32.5t122 -95t73.5 -153.5t24.5 -207h-687q0 -76 20 -140.5t58 -111t93 -73t126 -26.5q51 0 94.5 12.5t76.5 37t54.5 60t29.5 81.5h114q-11 -62 -38 -113.5t-71.5 -89t-109 -58t-150.5 -20.5q-102 0 -178.5 33.5 t-127 94.5t-76 145.5t-25.5 185.5zM185 503h577q0 68 -18 125t-53.5 98.5t-87.5 65t-121 23.5q-68 0 -120 -24t-88.5 -66t-59 -99t-29.5 -123zM221 1030l194 237h117l190 -237h-111l-139 174l-139 -174h-112z" />
<glyph unicode="&#xeb;" horiz-adv-x="948" d="M75 436q0 101 28 187t81 149t128 98.5t170 35.5q97 0 170 -32.5t122 -95t73.5 -153.5t24.5 -207h-687q0 -76 20 -140.5t58 -111t93 -73t126 -26.5q51 0 94.5 12.5t76.5 37t54.5 60t29.5 81.5h114q-11 -62 -38 -113.5t-71.5 -89t-109 -58t-150.5 -20.5q-102 0 -178.5 33.5 t-127 94.5t-76 145.5t-25.5 185.5zM185 503h577q0 68 -18 125t-53.5 98.5t-87.5 65t-121 23.5q-68 0 -120 -24t-88.5 -66t-59 -99t-29.5 -123zM255 1030v173h111v-173h-111zM577 1030v173h112v-173h-112z" />
<glyph unicode="&#xec;" horiz-adv-x="377" d="M29 1267h131l192 -237h-88zM139 0v882h100v-882h-100z" />
<glyph unicode="&#xed;" horiz-adv-x="377" d="M29 1030l188 237h130l-231 -237h-87zM139 0v882h100v-882h-100z" />
<glyph unicode="&#xee;" horiz-adv-x="377" d="M-62 1030l193 237h117l190 -237h-110l-139 174l-140 -174h-111zM139 0v882h100v-882h-100z" />
<glyph unicode="&#xef;" horiz-adv-x="377" d="M-3 1030v172h111v-172h-111zM139 0v882h100v-882h-100zM268 1030v172h111v-172h-111z" />
<glyph unicode="&#xf0;" d="M64 441q0 89 23.5 173t72.5 149.5t125 105t182 39.5q42 0 75 -3.5t62 -12.5t56 -24.5t57 -39.5q-26 82 -74.5 151.5t-111.5 124.5l-125 -105l-69 44l131 109q-36 24 -74 43t-78 33l45 65q45 -19 88 -40.5t83 -47.5l119 98l67 -44l-122 -101q65 -53 117.5 -120.5 t90 -155.5t58 -197t20.5 -244q0 -104 -29 -189.5t-82 -146.5t-128 -94.5t-168 -33.5q-84 0 -158.5 29t-131 87.5t-89 145t-32.5 202.5zM173 441q0 -82 19.5 -150.5t57.5 -118t94.5 -77.5t130.5 -28q81 0 137.5 32t92.5 84.5t52.5 119.5t16.5 138q0 78 -16.5 146t-52.5 118.5 t-92.5 80t-137.5 29.5t-138.5 -31.5t-94 -83.5t-53 -119.5t-16.5 -139.5z" />
<glyph unicode="&#xf1;" horiz-adv-x="948" d="M121 0v882h104v-122q12 24 35 48t56.5 43.5t77 31.5t95.5 12q334 0 334 -343v-552h-104v552q0 132 -64.5 195t-176.5 63q-54 0 -100.5 -20.5t-80 -55.5t-53 -82t-19.5 -100v-552h-104zM203 1021q3 30 13.5 59.5t30.5 53t49.5 38.5t70.5 15q32 0 60.5 -12t56 -26t54 -26 t53.5 -12q37 0 49.5 24t13.5 61h78q0 -35 -8.5 -65t-25.5 -53t-42.5 -36t-59.5 -13q-35 0 -66.5 12t-61 26.5t-56 26.5t-51.5 12q-30 0 -49.5 -20.5t-22.5 -64.5h-86z" />
<glyph unicode="&#xf2;" horiz-adv-x="948" d="M67 441q0 96 25.5 181t76.5 148t127.5 99.5t178.5 36.5q103 0 179.5 -36t127 -98.5t75.5 -147.5t25 -183q0 -104 -29 -189.5t-82.5 -146.5t-128.5 -94.5t-167 -33.5q-85 0 -159.5 29t-129.5 87.5t-87 145t-32 202.5zM175 441q0 -82 19 -150.5t56.5 -118t94 -77.5 t130.5 -28q81 0 137.5 31.5t92.5 83.5t52.5 119.5t16.5 139.5q0 78 -16.5 146t-52.5 118.5t-92.5 80t-137.5 29.5t-138 -31.5t-93 -83.5t-52.5 -119.5t-16.5 -139.5zM311 1267h133l190 -237h-87z" />
<glyph unicode="&#xf3;" horiz-adv-x="948" d="M67 441q0 96 25.5 181t76.5 148t127.5 99.5t178.5 36.5q103 0 179.5 -36t127 -98.5t75.5 -147.5t25 -183q0 -104 -29 -189.5t-82.5 -146.5t-128.5 -94.5t-167 -33.5q-85 0 -159.5 29t-129.5 87.5t-87 145t-32 202.5zM175 441q0 -82 19 -150.5t56.5 -118t94 -77.5 t130.5 -28q81 0 137.5 31.5t92.5 83.5t52.5 119.5t16.5 139.5q0 78 -16.5 146t-52.5 118.5t-92.5 80t-137.5 29.5t-138 -31.5t-93 -83.5t-52.5 -119.5t-16.5 -139.5zM311 1030l189 237h131l-231 -237h-89z" />
<glyph unicode="&#xf4;" horiz-adv-x="948" d="M67 441q0 96 25.5 181t76.5 148t127.5 99.5t178.5 36.5q103 0 179.5 -36t127 -98.5t75.5 -147.5t25 -183q0 -104 -29 -189.5t-82.5 -146.5t-128.5 -94.5t-167 -33.5q-85 0 -159.5 29t-129.5 87.5t-87 145t-32 202.5zM175 441q0 -82 19 -150.5t56.5 -118t94 -77.5 t130.5 -28q81 0 137.5 31.5t92.5 83.5t52.5 119.5t16.5 139.5q0 78 -16.5 146t-52.5 118.5t-92.5 80t-137.5 29.5t-138 -31.5t-93 -83.5t-52.5 -119.5t-16.5 -139.5zM221 1030l194 237h117l190 -237h-111l-139 174l-139 -174h-112z" />
<glyph unicode="&#xf5;" horiz-adv-x="948" d="M67 441q0 96 25.5 181t76.5 148t127.5 99.5t178.5 36.5q103 0 179.5 -36t127 -98.5t75.5 -147.5t25 -183q0 -104 -29 -189.5t-82.5 -146.5t-128.5 -94.5t-167 -33.5q-85 0 -159.5 29t-129.5 87.5t-87 145t-32 202.5zM175 441q0 -82 19 -150.5t56.5 -118t94 -77.5 t130.5 -28q81 0 137.5 31.5t92.5 83.5t52.5 119.5t16.5 139.5q0 78 -16.5 146t-52.5 118.5t-92.5 80t-137.5 29.5t-138 -31.5t-93 -83.5t-52.5 -119.5t-16.5 -139.5zM198 1021q4 30 16.5 60t32.5 53.5t48 38t63 14.5q31 0 60.5 -12t58.5 -26t58.5 -26t62.5 -12 q19 0 31.5 7.5t21 20t14 28t8.5 30.5h64q0 -28 -9.5 -57.5t-27 -54t-43.5 -40t-59 -15.5q-35 0 -67 12t-62.5 26t-60 26t-58.5 12q-38 0 -58 -25t-27 -60h-67z" />
<glyph unicode="&#xf6;" horiz-adv-x="948" d="M67 441q0 96 25.5 181t76.5 148t127.5 99.5t178.5 36.5q103 0 179.5 -36t127 -98.5t75.5 -147.5t25 -183q0 -104 -29 -189.5t-82.5 -146.5t-128.5 -94.5t-167 -33.5q-85 0 -159.5 29t-129.5 87.5t-87 145t-32 202.5zM175 441q0 -82 19 -150.5t56.5 -118t94 -77.5 t130.5 -28q81 0 137.5 31.5t92.5 83.5t52.5 119.5t16.5 139.5q0 78 -16.5 146t-52.5 118.5t-92.5 80t-137.5 29.5t-138 -31.5t-93 -83.5t-52.5 -119.5t-16.5 -139.5zM255 1030v173h111v-173h-111zM577 1030v173h112v-173h-112z" />
<glyph unicode="&#xf7;" d="M50 376v100h850v-100h-850zM412 0v150h127v-150h-127zM412 702v149h127v-149h-127z" />
<glyph unicode="&#xf8;" d="M59 10l98 116q-47 64 -68.5 144t-21.5 171q0 96 25.5 181t77 148.5t128.5 100.5t180 37q84 0 146.5 -22.5t116.5 -67.5l87 105l60 -54l-93 -110q47 -62 70 -142.5t23 -175.5q0 -104 -27.5 -189.5t-80 -146.5t-129 -94.5t-173.5 -33.5q-95 0 -160.5 27.5t-103.5 64.5 l-93 -108zM177 441q0 -80 15.5 -136t36.5 -94l445 527q-23 30 -71.5 53.5t-124.5 23.5q-80 0 -137 -31.5t-93.5 -83.5t-53.5 -119.5t-17 -139.5zM276 145q39 -38 93.5 -58t108.5 -20q81 0 137.5 31.5t92 83.5t52 119.5t16.5 139.5q0 64 -10 125t-42 111z" />
<glyph unicode="&#xf9;" horiz-adv-x="948" d="M121 356v526h103v-530q0 -134 55.5 -203.5t183.5 -69.5q127 0 194.5 69t67.5 204v530h104v-882h-104v127q-13 -27 -36.5 -52.5t-56.5 -44.5t-75.5 -30.5t-93.5 -11.5q-91 0 -155.5 25.5t-106 73.5t-61 116t-19.5 153zM311 1267h133l190 -237h-87z" />
<glyph unicode="&#xfa;" horiz-adv-x="948" d="M121 356v526h103v-530q0 -134 55.5 -203.5t183.5 -69.5q127 0 194.5 69t67.5 204v530h104v-882h-104v127q-13 -27 -36.5 -52.5t-56.5 -44.5t-75.5 -30.5t-93.5 -11.5q-91 0 -155.5 25.5t-106 73.5t-61 116t-19.5 153zM311 1030l189 237h131l-231 -237h-89z" />
<glyph unicode="&#xfb;" horiz-adv-x="948" d="M121 356v526h103v-530q0 -134 55.5 -203.5t183.5 -69.5q127 0 194.5 69t67.5 204v530h104v-882h-104v127q-13 -27 -36.5 -52.5t-56.5 -44.5t-75.5 -30.5t-93.5 -11.5q-91 0 -155.5 25.5t-106 73.5t-61 116t-19.5 153zM221 1030l194 237h117l190 -237h-111l-139 174 l-139 -174h-112z" />
<glyph unicode="&#xfc;" horiz-adv-x="948" d="M121 356v526h103v-530q0 -134 55.5 -203.5t183.5 -69.5q127 0 194.5 69t67.5 204v530h104v-882h-104v127q-13 -27 -36.5 -52.5t-56.5 -44.5t-75.5 -30.5t-93.5 -11.5q-91 0 -155.5 25.5t-106 73.5t-61 116t-19.5 153zM255 1030v173h111v-173h-111zM577 1030v173h112v-173 h-112z" />
<glyph unicode="&#xfd;" horiz-adv-x="851" d="M31 882h114l283 -759l281 759h111l-510 -1333h-101l165 444zM265 1030l189 237h131l-232 -237h-88z" />
<glyph unicode="&#xfe;" horiz-adv-x="1042" d="M133 -347v1575h106v-500q23 43 58.5 77t77 56.5t86 34.5t86.5 12q108 0 184 -36t124 -98.5t70.5 -147t22.5 -182.5q0 -93 -24 -178t-72.5 -149t-123 -102t-176.5 -38q-45 0 -91 10t-88 30.5t-77 51.5t-59 73v-489h-104zM237 438q0 -74 21 -141.5t59.5 -118.5t94 -81 t124.5 -30q78 0 135.5 31t95 85.5t56 128t18.5 158.5q0 84 -23.5 148.5t-64.5 108t-96.5 66t-120.5 22.5q-73 0 -129 -28.5t-93.5 -78.5t-57 -119.5t-19.5 -150.5z" />
<glyph unicode="&#xff;" horiz-adv-x="851" d="M31 882h114l283 -759l281 759h111l-510 -1333h-101l165 444zM208 1030v173h112v-173h-112zM530 1030v173h113v-173h-113z" />
<glyph unicode="&#x152;" horiz-adv-x="1993" d="M91 611q0 136 35 254t104.5 205.5t173.5 138t241 50.5q87 0 158 -19t128 -53.5t101.5 -83.5t77.5 -110v235h784v-98h-687v-443h622v-101h-622v-488h699v-98h-796v232q-33 -60 -76.5 -109t-100 -84t-127 -54t-155.5 -19q-142 0 -247 51.5t-174.5 140t-104 205.5t-34.5 248 zM207 611q0 -108 25 -206.5t78.5 -173.5t138 -119.5t203.5 -44.5q120 0 205 45t139 120t79 173.5t25 205.5q0 129 -30 231t-87 173.5t-140.5 109t-191.5 37.5q-119 0 -203 -45.5t-137.5 -121.5t-78.5 -176t-25 -208z" />
<glyph unicode="&#x153;" horiz-adv-x="1610" d="M62 441q0 96 23.5 181t72.5 148.5t124.5 100.5t180.5 37q125 0 211.5 -49.5t143.5 -164.5q114 214 348 214q77 0 135 -19t100 -52t69 -79.5t43.5 -100.5t23 -115t6.5 -124h-671q-4 -31 0.5 -69t18 -77t37 -76t57.5 -65.5t80 -46t104 -17.5q49 0 91.5 15t76 42t56.5 65 t34 85h103q-15 -74 -48 -130t-80 -93t-106.5 -55.5t-129.5 -18.5q-64 0 -118 16t-97.5 44.5t-77 68t-55.5 86.5q-54 -111 -150 -163t-214 -52q-89 0 -161.5 32.5t-123.5 92.5t-79 146t-28 193zM170 426q0 -74 18 -139.5t54.5 -114t92 -77t130.5 -28.5q73 0 128.5 29t93 81 t56 124t18.5 159q0 78 -19 143t-57 112t-95.5 73.5t-135.5 26.5q-70 0 -124 -27t-90.5 -77.5t-54 -122.5t-15.5 -162zM872 503h561q0 66 -15.5 123t-48 99t-84 66t-123.5 24q-66 0 -118.5 -25.5t-90 -68.5t-58.5 -99.5t-23 -118.5z" />
<glyph unicode="&#x178;" horiz-adv-x="1042" d="M20 1228h132l365 -591l368 591h135l-444 -692v-536h-116v526zM303 1373v173h113v-173h-113zM626 1373v173h112v-173h-112z" />
<glyph unicode="&#x2c6;" horiz-adv-x="600" d="M49 977l193 239h118l190 -239h-111l-140 176l-139 -176h-111z" />
<glyph unicode="&#x2dc;" horiz-adv-x="600" d="M35 999q3 30 13.5 59.5t30.5 53t49.5 38.5t70.5 15q32 0 60.5 -12t56 -26t54 -26t53.5 -12q37 0 49.5 24t13.5 61h78q0 -35 -8.5 -65t-25.5 -53t-42.5 -36t-59.5 -13q-35 0 -66.5 12t-61 26.5t-56 26.5t-51.5 12q-30 0 -49.5 -20.5t-22.5 -64.5h-86z" />
<glyph unicode="&#x2000;" horiz-adv-x="805" />
<glyph unicode="&#x2001;" horiz-adv-x="1610" />
<glyph unicode="&#x2002;" horiz-adv-x="805" />
<glyph unicode="&#x2003;" horiz-adv-x="1610" />
<glyph unicode="&#x2004;" horiz-adv-x="536" />
<glyph unicode="&#x2005;" horiz-adv-x="402" />
<glyph unicode="&#x2006;" horiz-adv-x="268" />
<glyph unicode="&#x2007;" horiz-adv-x="268" />
<glyph unicode="&#x2008;" horiz-adv-x="201" />
<glyph unicode="&#x2009;" horiz-adv-x="322" />
<glyph unicode="&#x200a;" horiz-adv-x="89" />
<glyph unicode="&#x2010;" horiz-adv-x="530" d="M60 395v85h410v-85h-410z" />
<glyph unicode="&#x2011;" horiz-adv-x="530" d="M60 395v85h410v-85h-410z" />
<glyph unicode="&#x2012;" horiz-adv-x="530" d="M60 395v85h410v-85h-410z" />
<glyph unicode="&#x2013;" horiz-adv-x="850" d="M0 395v85h850v-85h-850z" />
<glyph unicode="&#x2014;" horiz-adv-x="1700" d="M0 395v85h1700v-85h-1700z" />
<glyph unicode="&#x2018;" horiz-adv-x="379" d="M95 996q0 33 7.5 70t21.5 73t33 66.5t42 50.5l57 -39q-11 -9 -25.5 -27t-27 -41.5t-21.5 -50.5t-9 -53q8 2 21 2q37 0 62 -25t25 -62t-25 -62.5t-62 -25.5q-53 0 -76 35.5t-23 88.5z" />
<glyph unicode="&#x2019;" horiz-adv-x="379" d="M106 1146q0 36 25.5 62t62.5 26q52 0 74.5 -36t22.5 -88q0 -33 -7.5 -70.5t-21 -73.5t-32.5 -67t-41 -50l-58 39q11 9 25.5 27t27 41.5t21.5 50.5t9 54q-4 -3 -9 -3h-11q-37 0 -62.5 25t-25.5 63z" />
<glyph unicode="&#x201a;" horiz-adv-x="379" d="M98 76q0 38 25 63.5t62 25.5q53 0 75.5 -35.5t22.5 -88.5q0 -32 -7 -70t-20.5 -74t-32.5 -67t-43 -49l-57 39q11 8 25.5 26t27.5 42t22 51t9 54q-8 -3 -22 -3q-37 0 -62 25t-25 61z" />
<glyph unicode="&#x201c;" horiz-adv-x="662" d="M108 996q0 33 7.5 70t21 73t32.5 66.5t42 50.5l57 -39q-11 -9 -25.5 -27t-27 -41.5t-21.5 -50.5t-9 -53q5 2 10 2h12q37 0 61.5 -25t24.5 -62t-24.5 -62.5t-61.5 -25.5q-53 0 -76 35.5t-23 88.5zM369 996q0 33 7.5 70t21 73t32.5 66.5t42 50.5l57 -39q-11 -9 -25.5 -27 t-27 -41.5t-21.5 -50.5t-9 -53q4 2 9.5 2h11.5q38 0 62.5 -25t24.5 -62t-24.5 -62.5t-62.5 -25.5q-26 0 -44.5 9.5t-30.5 26t-17.5 39.5t-5.5 49z" />
<glyph unicode="&#x201d;" horiz-adv-x="662" d="M108 1147q0 38 26 63.5t62 25.5q26 0 44.5 -9.5t30 -26t17 -39.5t5.5 -49q0 -32 -7.5 -70t-20.5 -74t-32 -66.5t-41 -49.5l-59 39q11 8 25.5 26t27.5 42t22 51t9 54q-5 -4 -9.5 -3.5t-11.5 0.5q-36 0 -62 25t-26 61zM369 1147q0 38 25 63.5t62 25.5q52 0 75 -35.5 t23 -88.5q0 -32 -7 -70t-20.5 -74t-32.5 -67t-43 -49l-57 39q11 8 25.5 26t27.5 42t22 51t9 54q-9 -3 -22 -3q-37 0 -62 25t-25 61z" />
<glyph unicode="&#x201e;" horiz-adv-x="662" d="M108 85q0 38 26 63t62 25q26 0 44.5 -9.5t30 -26t17 -39.5t5.5 -49q0 -33 -7.5 -70.5t-20.5 -73.5t-32 -67t-41 -50l-59 40q11 8 25.5 26.5t27.5 42.5t22 50.5t9 52.5q-5 -3 -9.5 -3h-11.5q-18 0 -34 7t-28 19t-19 28t-7 34zM369 85q0 38 25 63t62 25q52 0 75 -35.5 t23 -88.5q0 -33 -7 -70.5t-20.5 -73.5t-32.5 -67t-43 -50l-57 40q11 8 25.5 26.5t27.5 42.5t22 50.5t9 52.5l-10 -2t-12 -1q-37 0 -62 26t-25 62z" />
<glyph unicode="&#x2022;" horiz-adv-x="851" d="M119 611q0 64 24.5 120.5t66 98.5t97.5 66.5t119 24.5q64 0 120.5 -24.5t97.5 -66.5t65 -98.5t24 -120.5q0 -62 -24 -117.5t-65 -96.5t-97.5 -65t-120.5 -24q-63 0 -119 24t-97.5 65t-66 96.5t-24.5 117.5z" />
<glyph unicode="&#x2026;" horiz-adv-x="1706" d="M199 76q0 38 25 63.5t62 25.5t62.5 -25.5t25.5 -63.5q0 -36 -25.5 -61t-62.5 -25t-62 25t-25 61zM766 76q0 38 25.5 63.5t62.5 25.5q38 0 63 -25.5t25 -63.5q0 -36 -25 -61t-63 -25q-37 0 -62.5 25t-25.5 61zM1335 76q0 38 24.5 63.5t61.5 25.5q38 0 63 -25.5t25 -63.5 q0 -36 -25 -61t-63 -25q-37 0 -61.5 25t-24.5 61z" />
<glyph unicode="&#x202f;" horiz-adv-x="322" />
<glyph unicode="&#x2039;" horiz-adv-x="620" d="M100 437v8l289 285h131l-299 -289l299 -289h-131z" />
<glyph unicode="&#x203a;" horiz-adv-x="620" d="M100 152l299 289l-299 289h131l289 -285v-8l-289 -285h-131z" />
<glyph unicode="&#x205f;" horiz-adv-x="402" />
<glyph unicode="&#x20ac;" d="M34 412v93h136q-2 23 -2.5 40.5t-0.5 43.5v72h-129v92h139q15 113 53.5 197t94 140t125 84t147.5 28q63 0 113 -14.5t88.5 -41.5t65 -64.5t42.5 -83.5l-87 -41q-26 81 -83.5 117t-138.5 36q-60 0 -112 -23.5t-92.5 -69t-68.5 -112t-39 -152.5h362v-92h-369 q-1 -19 -1.5 -35.5t-0.5 -34.5q0 -26 0.5 -44.5t1.5 -41.5h369v-93h-358q13 -91 37 -156.5t61 -107.5t88 -61.5t118 -19.5q64 0 119.5 26t102.5 74l59 -66q-48 -56 -120.5 -90t-160.5 -34q-80 0 -148 22t-121 73t-90.5 134.5t-56.5 205.5h-143z" />
<glyph unicode="&#x2122;" horiz-adv-x="1603" d="M49 1159v69h547v-69h-230v-648h-88v648h-229zM678 511v717h102l246 -531h3l244 531h102v-717h-86v562h-3l-231 -502h-57l-232 502h-2v-562h-86z" />
<glyph unicode="&#x25fc;" horiz-adv-x="880" d="M0 0v880h880v-880h-880z" />
</font>
</defs>
</svg>
