<?xml version="1.0" standalone="no"?>
<!DOCTYPE svg PUBLIC "-//W3C//DTD SVG 1.1//EN" "http://www.w3.org/Graphics/SVG/1.1/DTD/svg11.dtd" >
<svg xmlns="http://www.w3.org/2000/svg" xmlns:xlink="http://www.w3.org/1999/xlink" version="1.1">
<metadata></metadata>
<defs>
<font id="chulabhorn_likit_textbold" horiz-adv-x="1228" >
<font-face units-per-em="2048" ascent="1638" descent="-410" />
<missing-glyph horiz-adv-x="532" />
<glyph unicode="&#xfb01;" horiz-adv-x="1443" d="M12 975q0 43 27 72.5t82 29.5h106v113q0 186 96.5 278.5t276.5 92.5q258 0 258 -131q0 -96 -108 -97q-27 0 -68 8q-45 8 -78 9q-63 0 -93 -37t-30 -109v-127h207q57 0 83 -29.5t26 -72.5q0 -47 -26 -78t-83 -31h-207v-788q0 -45 -37.5 -69.5t-89.5 -24.5q-51 0 -89 24.5 t-38 69.5v629q0 66 21.5 106.5t54.5 52.5h-182q-55 0 -82 32t-27 77zM992 1331q0 63 42 104.5t105 41.5t105.5 -41t42.5 -105q0 -63 -42 -104t-106 -41q-63 0 -105 41t-42 104zM1012 78v909q0 43 38 66.5t89 23.5t89 -23.5t38 -66.5v-909q0 -45 -38 -69.5t-89 -24.5 t-89 24.5t-38 69.5z" />
<glyph unicode="&#xfb02;" horiz-adv-x="1468" d="M12 975q0 43 27 72.5t82 29.5h106v113q0 186 96.5 278.5t276.5 92.5q258 0 258 -131q0 -96 -108 -97q-27 0 -68 8q-45 8 -78 9q-63 0 -93 -37t-30 -109v-127h207q57 0 83 -29.5t26 -72.5q0 -47 -26 -78t-83 -31h-207v-788q0 -45 -37.5 -69.5t-89.5 -24.5q-51 0 -89 24.5 t-38 69.5v629q0 66 21.5 106.5t54.5 52.5h-182q-55 0 -82 32t-27 77zM1024 129v1329q0 43 38 66.5t89 23.5t89 -23.5t38 -66.5v-1237q0 -27 6.5 -44t20.5 -46q8 -14 14.5 -28.5t6.5 -28.5q0 -41 -43 -65.5t-99 -24.5q-160 0 -160 145z" />
<glyph horiz-adv-x="0" />
<glyph horiz-adv-x="0" />
<glyph unicode="&#xd;" horiz-adv-x="532" />
<glyph unicode=" "  horiz-adv-x="532" />
<glyph unicode="&#x09;" horiz-adv-x="532" />
<glyph unicode="&#xa0;" horiz-adv-x="532" />
<glyph unicode="!" horiz-adv-x="483" d="M86 129q0 68 44 112t112 44t111.5 -44t43.5 -112t-44 -112t-111 -44q-68 0 -112 44t-44 112zM119 1362q-2 49 34.5 75.5t88.5 26.5q51 0 88 -26.5t35 -75.5l-19 -860q-2 -43 -30.5 -64.5t-73.5 -21.5t-74 21.5t-31 64.5z" />
<glyph unicode="&#x22;" horiz-adv-x="794" d="M102 1386q-2 37 32 57.5t83 20.5t83 -20.5t32 -57.5l-25 -458q-2 -35 -28.5 -54.5t-61.5 -19.5t-61.5 19.5t-28.5 54.5zM462 1386q-2 37 32 57.5t83 20.5t83 -20.5t32 -57.5l-25 -458q-2 -35 -28.5 -54.5t-61.5 -19.5t-61.5 19.5t-28.5 54.5z" />
<glyph unicode="#" horiz-adv-x="1441" d="M20 516q0 35 18.5 61.5t51.5 26.5h211l53 234h-176q-33 0 -51 28.5t-18 65.5q0 35 18 61.5t51 26.5h217l80 346q10 45 48 71.5t83 26.5q47 0 75 -29.5t28 -78.5q0 -27 -4 -41l-70 -295h323l80 346q10 45 46 71.5t81 26.5q51 0 79 -32.5t28 -79.5q0 -10 -4 -35l-70 -297 h160q31 0 47 -26.5t16 -63.5q0 -39 -16 -65.5t-47 -26.5h-203l-53 -234h168q31 0 47 -26.5t16 -63.5q0 -39 -16.5 -65.5t-46.5 -26.5h-211l-82 -348q-10 -43 -47 -66.5t-82 -23.5q-49 0 -76 22.5t-27 65.5q0 10 5 39l71 311h-323l-82 -348q-10 -43 -44 -66.5t-77 -23.5 q-51 0 -81 23.5t-30 68.5q0 10 4 35l72 311h-170q-33 0 -51.5 28.5t-18.5 65.5zM539 604h323l56 234h-324z" />
<glyph unicode="$" horiz-adv-x="1134" d="M16 324q0 47 39 77.5t97 30.5q39 0 67.5 -16.5t40.5 -44.5q27 -61 88.5 -105.5t140.5 -58.5v436q-227 66 -325 165t-98 261t114.5 270.5t308.5 130.5v142q0 39 28 62.5t71 23.5q41 0 68.5 -24.5t27.5 -61.5v-146q170 -25 276.5 -107.5t106.5 -191.5q0 -47 -37 -77.5 t-92 -30.5q-37 0 -65.5 16.5t-41.5 42.5q-37 82 -147 113v-412q221 -59 316.5 -155.5t95.5 -260.5q0 -174 -106.5 -284.5t-305.5 -138.5v-226q0 -39 -27.5 -62.5t-70.5 -23.5q-41 0 -69 24.5t-28 61.5v219q-129 12 -237.5 63.5t-172 127.5t-63.5 160zM319 1071 q0 -68 41 -115t129 -79v362q-82 -16 -126 -59t-44 -109zM684 215q158 41 158 188q0 59 -38 102.5t-120 76.5v-367z" />
<glyph unicode="%" horiz-adv-x="1361" d="M41 1163q0 145 86 231.5t233 86.5q145 0 231.5 -86t86.5 -232q0 -145 -86 -231t-234 -86q-145 0 -231 86t-86 231zM86 53q0 29 23 58l1030 1308q39 47 82 47q29 0 49 -19.5t20 -47.5q0 -33 -26 -66l-1031 -1308q-31 -39 -75 -39q-29 0 -50.5 19.5t-21.5 47.5zM225 1163 q0 -68 36 -109.5t99 -41.5q62 0 98 42t36 109q0 68 -36 110t-100 42q-61 0 -97 -42t-36 -110zM684 291q0 145 86 231t234 86q145 0 231 -86t86 -231t-86 -231.5t-234 -86.5q-145 0 -231 86t-86 232zM868 291q0 -68 36 -110t100 -42q61 0 97 42t36 110t-36 109.5t-100 41.5 q-61 0 -97 -42t-36 -109z" />
<glyph unicode="&#x26;" horiz-adv-x="1343" d="M29 383q0 233 278 401q-100 182 -100 334q0 104 52 187.5t145.5 129.5t211.5 46q182 0 286 -93.5t104 -259.5q0 -238 -344 -446q121 -141 268 -281q70 68 107.5 154t37.5 174q0 41 33 68.5t84 27.5q53 0 87 -29.5t34 -74.5q0 -111 -64.5 -239t-171.5 -222l19 -16 q47 -43 112 -43q49 0 80 -29t31 -74q0 -51 -42 -82.5t-108 -31.5q-74 0 -123 23.5t-133 94.5q-78 -61 -179 -95t-212 -34q-229 0 -361 111t-132 299zM289 406q0 -101 70.5 -156t199.5 -55q104 0 199 47q-217 201 -348 383q-55 -41 -88 -98.5t-33 -120.5zM461 1108 q0 -127 88 -272q96 61 150.5 136t54.5 146q0 61 -40 98t-106 37q-147 0 -147 -145z" />
<glyph unicode="'" horiz-adv-x="434" d="M102 1386q-2 37 32 57.5t83 20.5t83 -20.5t32 -57.5l-25 -458q-2 -35 -28.5 -54.5t-61.5 -19.5t-61.5 19.5t-28.5 54.5z" />
<glyph unicode="(" horiz-adv-x="667" d="M135 604q0 293 82 547t238 438q33 39 73 39q37 0 66 -27.5t29 -68.5q0 -31 -21 -64q-90 -141 -153.5 -383.5t-63.5 -480.5t63.5 -480.5t153.5 -383.5q20 -33 21 -66q0 -39 -28 -66.5t-65 -27.5q-42 0 -75 39q-156 184 -238 438t-82 547z" />
<glyph unicode=")" horiz-adv-x="667" d="M45 -326q0 33 21 66q90 141 153.5 384t63.5 480q0 238 -63.5 480.5t-153.5 383.5q-20 33 -21 64q0 41 28.5 68.5t65.5 27.5q41 0 74 -39q156 -184 237.5 -438t81.5 -547t-81.5 -547t-237.5 -438q-33 -39 -76 -39q-37 0 -64.5 27.5t-27.5 66.5z" />
<glyph unicode="*" horiz-adv-x="962" d="M49 1167q0 55 34 102.5t81 47.5q39 0 78 -39l34 -35q47 -49 77 -72.5t71 -40.5q23 -8 22 -32q0 -18 -14 -30.5t-35 -6.5q-45 14 -96 14q-23 0 -137 -8q-57 -2 -86 26.5t-29 73.5zM141 829q0 55 66 86l37 17q68 31 101.5 51.5t62.5 52.5q12 14 28 15q14 0 25.5 -12.5 t11.5 -26.5q0 -12 -8 -23q-27 -31 -40 -63.5t-30 -96.5l-14 -57q-12 -43 -37 -62.5t-55 -19.5q-53 0 -100.5 44t-47.5 95zM354 1419q0 45 38 71t89 26t89 -25t38 -70q0 -29 -14 -57q-45 -90 -60.5 -130t-15.5 -91q0 -16 -11 -25.5t-26 -9.5q-14 0 -25.5 9t-11.5 26 q0 51 -15 91t-60 130q-14 29 -15 55zM489 1012q0 16 12.5 27.5t26.5 11.5t27 -15q29 -33 62.5 -53t101.5 -51l37 -17q66 -31 65 -86q0 -51 -47 -95t-100 -44q-31 0 -55.5 19.5t-36.5 62.5l-15 57q-16 63 -29.5 96t-39.5 64q-8 10 -9 23zM516 1098q0 25 23 32q41 16 70.5 40 t76.5 73l35 35q39 39 78 39q47 0 80.5 -47t33.5 -101q0 -47 -28.5 -75.5t-85.5 -26.5q-115 8 -137 8q-51 0 -97 -14q-4 -2 -12 -2q-16 0 -26.5 12t-10.5 27z" />
<glyph unicode="+" horiz-adv-x="1239" d="M90 711q0 41 18.5 71.5t51.5 30.5h340v338q0 43 34.5 67.5t81.5 24.5t81 -24.5t34 -67.5v-338h346q33 0 52.5 -30.5t19.5 -71.5t-19.5 -72t-52.5 -31h-346v-340q0 -43 -33.5 -66.5t-81.5 -23.5q-47 0 -81.5 23.5t-34.5 66.5v340h-340q-33 0 -51.5 31t-18.5 72z" />
<glyph unicode="," horiz-adv-x="581" d="M123 127q0 74 51 116t123 42t123 -50.5t51 -140.5q0 -117 -56.5 -231.5t-183.5 -190.5q-16 -10 -36 -10t-34 10.5t-14 30.5t17 37q59 59 94 123.5t45 122.5q-8 -2 -22 -2q-68 0 -113 35.5t-45 107.5z" />
<glyph unicode="-" horiz-adv-x="909" d="M98 625q0 43 21.5 73.5t60.5 30.5h551q37 0 58.5 -30.5t21.5 -71.5t-21.5 -73t-58.5 -32h-551q-39 0 -60.5 31t-21.5 72z" />
<glyph unicode="." horiz-adv-x="581" d="M135 129q0 68 44 112t112 44t111.5 -44t43.5 -112t-44 -112t-111 -44q-68 0 -112 44t-44 112z" />
<glyph unicode="/" horiz-adv-x="745" d="M-25 -328q0 8 5 25l528 1857q10 37 42 55.5t71 18.5q53 0 90 -25.5t37 -68.5q0 -8 -5 -29l-532 -1853q-10 -37 -41 -54.5t-70 -17.5q-51 0 -88 24.5t-37 67.5z" />
<glyph unicode="0" horiz-adv-x="1423" d="M115 717q0 367 154.5 565.5t445.5 198.5q287 0 440.5 -198t153.5 -562q0 -358 -155 -553t-443 -195q-289 0 -442.5 193.5t-153.5 550.5zM365 721q0 -260 90 -401.5t260 -141.5q166 0 255 140.5t89 398.5q0 268 -89 413.5t-259 145.5q-168 0 -257 -144.5t-89 -410.5z" />
<glyph unicode="1" horiz-adv-x="1087" d="M133 1184q0 27 12.5 52.5t36.5 39.5l199 123q98 61 197 61q66 0 110.5 -39t44.5 -110v-1114h185q45 0 70.5 -30t25.5 -69t-25.5 -68.5t-70.5 -29.5h-689q-37 0 -58 29.5t-21 68.5q0 41 21.5 70t57.5 29h254v911q0 49 6 98l-149 -98q-53 -35 -104 -35q-45 0 -74 34t-29 77 z" />
<glyph unicode="2" horiz-adv-x="1171" d="M94 1137q0 92 64.5 170.5t174 126t236.5 47.5q223 0 352.5 -120t129.5 -337q0 -221 -142.5 -441.5t-373.5 -377.5h485q43 0 65.5 -31t22.5 -72t-22.5 -71.5t-65.5 -30.5h-830q-37 0 -58 30.5t-21 71.5q0 37 16 67t45 42q106 43 254.5 160.5t261.5 287.5t113 359 q0 125 -67.5 191.5t-180.5 66.5q-70 0 -122 -25.5t-79.5 -62.5t-29.5 -74q-2 -43 -34 -67.5t-73 -24.5q-49 0 -85 30.5t-36 84.5z" />
<glyph unicode="3" horiz-adv-x="1239" d="M94 322q0 53 36 83.5t85 30.5q41 0 71.5 -24.5t35.5 -67.5q4 -37 36.5 -74t96 -62.5t153.5 -25.5q131 0 204 68.5t73 189.5q0 88 -43 145.5t-115 82.5q-82 -18 -174 -19q-47 0 -73.5 29t-26.5 67q0 39 25.5 67t70.5 28q147 0 220 59t73 168q0 98 -67.5 153.5t-194.5 55.5 q-66 0 -117 -25.5t-80 -63.5t-31 -73q-2 -43 -33.5 -67.5t-72.5 -24.5q-49 0 -85 30.5t-36 84.5q0 94 62.5 173t174 125t248.5 46q217 0 347 -105.5t130 -298.5q0 -102 -41.5 -184t-117.5 -137q86 -35 144 -116t58 -204q0 -209 -136 -334t-390 -125q-152 0 -268.5 46.5 t-179 125t-62.5 173.5z" />
<glyph unicode="4" horiz-adv-x="1312" d="M76 426q0 49 28 84q86 100 208 281.5t221.5 349.5t117.5 223q16 49 49 74.5t76 25.5q59 0 91 -33.5t32 -87.5q0 -39 -20 -86q-57 -125 -207 -354t-279 -395h406v276q0 57 36.5 90t86.5 33q49 0 85.5 -32.5t36.5 -90.5v-276h82q47 0 74 -31t27 -71q0 -41 -26.5 -72 t-74.5 -31h-82v-223q0 -45 -35.5 -70.5t-84.5 -25.5t-85 25.5t-36 70.5v96q0 76 51 127h-664q-53 0 -83.5 37t-30.5 86z" />
<glyph unicode="5" horiz-adv-x="1325" d="M109 307q0 43 31.5 68.5t74.5 25.5q39 0 74 -23.5t47 -68.5q14 -53 95 -93t204 -40q152 0 243 84t91 227q0 147 -88 223t-217 76q-104 0 -173 -24.5t-141 -67.5q-35 -23 -57.5 -33t-44.5 -10q-51 0 -80 27t-29 65q0 33 17.5 59.5t50.5 41.5l47 530q4 33 27.5 55.5 t58.5 22.5h731q49 0 76 -30.5t27 -71.5t-27 -72t-76 -31h-618l-23 -309q121 47 270 47q140 0 256.5 -54t187 -165t70.5 -272q0 -156 -73.5 -275t-208.5 -183.5t-316 -64.5q-160 0 -275.5 53.5t-173.5 131t-58 151.5z" />
<glyph unicode="6" horiz-adv-x="1263" d="M100 508q0 195 87 387t240 341.5t339 219.5q23 8 45 8q41 0 66.5 -25.5t25.5 -60.5q0 -27 -15.5 -50t-43.5 -40q-147 -80 -238.5 -168t-138.5 -188q88 43 219 43q152 0 265.5 -63.5t175 -175t61.5 -253.5q0 -145 -68.5 -262t-190.5 -183.5t-276 -66.5q-166 0 -290.5 65.5 t-193.5 186.5t-69 285zM344 477q0 -131 86 -216t219 -85q127 0 210 86t83 217t-80 216t-205 85q-137 0 -225 -85t-88 -218z" />
<glyph unicode="7" horiz-adv-x="1130" d="M41 1350q0 41 24.5 71.5t67.5 30.5h871q51 0 78.5 -31.5t27.5 -79.5q0 -29 -12.5 -56.5t-34.5 -45.5q-229 -195 -327.5 -466t-98.5 -558v-115q0 -55 -37 -85.5t-86 -30.5q-51 0 -88 30.5t-37 85.5v115q0 158 42 349.5t134 375.5t236 307h-668q-43 0 -67.5 31t-24.5 72z " />
<glyph unicode="8" horiz-adv-x="1376" d="M123 399q0 123 84 219.5t227 141.5q-123 53 -191.5 134t-68.5 212q0 113 64.5 196.5t183.5 131t274 47.5q152 0 266.5 -46t177 -131t62.5 -196q0 -104 -62.5 -186t-174.5 -125q135 -57 211.5 -148.5t76.5 -238.5q0 -129 -70.5 -228.5t-199.5 -155t-299 -55.5 q-168 0 -295 53.5t-196.5 150.5t-69.5 224zM369 401q0 -109 88 -174t231 -65t231.5 65.5t88.5 173.5q0 80 -49.5 132.5t-121 83t-198.5 71.5q-127 -51 -198.5 -126t-71.5 -161zM420 1104q0 -88 79 -135t240 -95q102 29 159.5 88.5t57.5 141.5q0 84 -73.5 136t-194.5 52 t-194.5 -52t-73.5 -136z" />
<glyph unicode="9" horiz-adv-x="1263" d="M76 963q0 145 68.5 264t192.5 186.5t281 67.5q254 0 399.5 -143.5t145.5 -395.5q0 -195 -87 -394.5t-239.5 -352t-338.5 -213.5q-23 -8 -45 -9q-41 0 -67 26t-26 60q0 27 15.5 50.5t44.5 40.5q285 156 389 368q-82 -51 -217 -51q-154 0 -271.5 61.5t-181 173t-63.5 261.5 zM322 967q0 -137 82.5 -221t209.5 -84q84 0 155 40.5t111 111.5t40 155t-40 154.5t-110 111.5t-156 41q-82 0 -149.5 -41t-105 -111.5t-37.5 -156.5z" />
<glyph unicode=":" horiz-adv-x="581" d="M135 129q0 68 44 112t112 44t111.5 -44t43.5 -112t-44 -112t-111 -44q-68 0 -112 44t-44 112zM135 940q0 68 44 112t112 44t111.5 -44t43.5 -112t-44 -112t-111 -44q-68 0 -112 44t-44 112z" />
<glyph unicode=";" horiz-adv-x="581" d="M123 127q0 74 51 116t123 42t123 -50.5t51 -140.5q0 -117 -56.5 -231.5t-183.5 -190.5q-16 -10 -36 -10t-34 10.5t-14 30.5t17 37q59 59 94 123.5t45 122.5q-8 -2 -22 -2q-68 0 -113 35.5t-45 107.5zM143 940q0 68 44 112t112 44t111.5 -44t43.5 -112t-44 -112t-111 -44 q-68 0 -112 44t-44 112z" />
<glyph unicode="&#x3c;" horiz-adv-x="1181" d="M72 698q0 27 13 50.5t38 35.5l833 394q20 10 48 10q43 0 71.5 -30t28.5 -68q0 -57 -62 -86l-645 -306l645 -305q29 -12 43.5 -34.5t14.5 -47.5q0 -39 -30 -70.5t-71 -31.5q-18 0 -43 10l-833 393q-25 12 -38 36t-13 50z" />
<glyph unicode="=" horiz-adv-x="1239" d="M90 494q0 102 111 102h835q61 0 87 -28.5t26 -73.5t-25.5 -74t-87.5 -29h-835q-111 0 -111 103zM90 930q0 102 111 102h835q61 0 87 -28.5t26 -73.5t-25.5 -74t-87.5 -29h-835q-111 0 -111 103z" />
<glyph unicode="&#x3e;" horiz-adv-x="1181" d="M78 1090q0 39 28.5 68.5t71.5 29.5q27 0 47 -10l834 -394q25 -12 38 -35.5t13 -50.5t-13.5 -50t-37.5 -36l-834 -393q-25 -10 -43 -10q-41 0 -70.5 31.5t-29.5 70.5q0 25 14.5 47.5t42.5 34.5l645 305l-645 306q-61 29 -61 86z" />
<glyph unicode="?" horiz-adv-x="948" d="M49 1178q0 92 60.5 160.5t160 105.5t209.5 37q197 0 308.5 -86t111.5 -240q0 -125 -58.5 -211t-160.5 -180q-66 -61 -94.5 -97t-30.5 -75l-4 -109q-2 -31 -33 -48t-69 -17q-41 0 -72 17.5t-33 47.5l-4 107q-2 86 35 143.5t112 126.5q55 53 86 89t52.5 86t21.5 116 q0 70 -49 111t-133 41q-92 0 -138 -41t-53 -103q-2 -39 -34.5 -61.5t-75.5 -22.5q-47 0 -81 26.5t-34 76.5zM293 127q0 68 44 112t112 44t111.5 -44t43.5 -112t-44 -112t-111 -44q-68 0 -112 44t-44 112z" />
<glyph unicode="@" horiz-adv-x="2111" d="M70 444q0 272 127 501t368.5 364t569.5 135q260 0 466.5 -108.5t323.5 -295t117 -409.5q0 -193 -66.5 -325t-177 -197.5t-237.5 -65.5q-104 0 -184.5 31.5t-123.5 91.5q-57 -57 -128.5 -90t-151.5 -33q-98 0 -182 41t-135.5 124t-51.5 204q0 150 69.5 280.5t196.5 210.5 t293 80t257 -85t91 -226q0 -37 -6 -78l-41 -234q-6 -33 19.5 -62.5t87.5 -29.5q57 0 106 39t80 117t31 192q0 174 -87 308.5t-237.5 208t-335.5 73.5q-246 0 -428 -102.5t-279 -275.5t-97 -379q0 -199 92 -344.5t253.5 -221.5t364.5 -76q168 0 275.5 28t208.5 91 q23 12 41 13q41 0 74.5 -37t33.5 -80t-39 -74q-106 -82 -252.5 -130t-355.5 -48q-285 0 -500 115.5t-332.5 315.5t-117.5 443zM852 420q0 -78 47 -122t121 -44q90 0 188 47q0 41 9 80l40 213q4 16 5 47q0 59 -32 91t-89 32q-80 0 -146.5 -51t-104.5 -131t-38 -162z" />
<glyph unicode="A" horiz-adv-x="1269" d="M6 100q0 27 10 52l514 1126q-14 33 -14 76q0 55 37 82.5t90 27.5q45 0 79 -21.5t50 -64.5l483 -1241q8 -20 9 -43q0 -45 -37 -77.5t-86 -32.5q-39 0 -74 22.5t-51 67.5l-98 260h-556l-118 -277q-14 -35 -41 -54t-78 -19q-57 0 -88 34.5t-31 81.5zM461 559h373l-105 279 q-43 117 -72 235q-25 -119 -75 -235z" />
<glyph unicode="B" horiz-adv-x="1429" d="M137 1339q0 49 28 81t68 32h598q225 0 347 -103.5t122 -293.5q0 -106 -47 -189.5t-129 -126.5q103 -47 156 -129t53 -194q0 -125 -61.5 -219.5t-174 -145.5t-261.5 -51h-486q-147 0 -147 139v930q0 51 25.5 92t70.5 64h-66q-41 0 -68.5 32.5t-27.5 81.5zM463 227h389 q96 0 158.5 54.5t62.5 140.5t-64.5 142.5t-164.5 56.5h-381v-394zM463 842h375q88 0 145 54t57 138t-58 137.5t-148 53.5h-371v-383z" />
<glyph unicode="C" horiz-adv-x="1443" d="M139 705q0 231 84 407t238.5 272.5t359.5 96.5q199 0 339 -83t181 -222q6 -20 7 -43q0 -51 -36 -82t-95 -31q-41 0 -72 17.5t-37 43.5q-16 70 -104.5 121t-190.5 51q-125 0 -217 -67.5t-142.5 -191.5t-50.5 -289q0 -231 106.5 -368.5t287.5 -137.5q119 0 194.5 44 t116.5 134q35 78 123 78q55 0 91 -36t36 -89q0 -27 -10 -54q-57 -141 -206 -223t-349 -82q-199 0 -346.5 89.5t-227.5 255t-80 389.5z" />
<glyph unicode="D" horiz-adv-x="1546" d="M137 1339q0 49 26.5 81t67.5 32h476q336 0 518 -189.5t182 -539.5q0 -213 -88 -377t-247 -255t-363 -91h-426q-37 0 -58.5 22.5t-21.5 61.5v985q0 51 25.5 92t70.5 64h-68q-41 0 -67.5 31.5t-26.5 82.5zM463 227h225q135 0 238.5 61.5t160 173t56.5 257.5 q0 254 -112.5 380t-342.5 126h-225v-998z" />
<glyph unicode="E" horiz-adv-x="1236" d="M137 1339q0 49 28 81t68 32h807q33 0 54.5 -31.5t21.5 -81.5q0 -51 -21.5 -82.5t-54.5 -31.5h-577v-391h538q29 0 48.5 -31t19.5 -80q0 -47 -19.5 -79t-48.5 -32h-538v-385h577q33 0 54.5 -31.5t21.5 -82.5q0 -49 -20.5 -81t-51.5 -32h-704q-66 0 -101.5 36t-35.5 101 v932q0 51 25.5 92t70.5 64h-66q-41 0 -68.5 32.5t-27.5 81.5z" />
<glyph unicode="F" horiz-adv-x="1142" d="M137 1339q0 49 28 81t68 32h805q33 0 54.5 -31.5t21.5 -81.5q0 -51 -21.5 -82.5t-54.5 -31.5h-575v-414h538q29 0 47.5 -30.5t18.5 -80.5q0 -51 -18.5 -81.5t-47.5 -30.5h-538v-514q0 -39 -37 -64.5t-92 -25.5q-57 0 -94 25.5t-37 64.5v995q0 51 25.5 92t70.5 64h-66 q-41 0 -68.5 32.5t-27.5 81.5z" />
<glyph unicode="G" horiz-adv-x="1503" d="M139 707q0 240 83 413.5t238.5 267t370.5 93.5q154 0 284 -49.5t206 -133.5t76 -182q0 -43 -37 -72.5t-92 -29.5q-76 0 -111 67q-37 76 -130 124t-200 48q-203 0 -313.5 -142t-110.5 -404q0 -248 106.5 -378t311.5 -130q158 0 251 67.5t93 182.5q0 63 27 96h-250 q-57 0 -93 32.5t-36 84.5q0 49 37 81.5t92 32.5h262q104 0 151.5 -40t47.5 -128v-61q0 -279 -152.5 -427.5t-437.5 -148.5q-319 0 -496.5 193.5t-177.5 542.5z" />
<glyph unicode="H" horiz-adv-x="1587" d="M203 74v1300q0 41 40 65.5t91 24.5t90 -23.5t39 -66.5v-534h661v534q0 41 40 65.5t91 24.5q54 0 91.5 -23.5t37.5 -66.5v-1300q0 -43 -37.5 -66.5t-91.5 -23.5q-51 0 -91 24.5t-40 65.5v538h-661v-538q0 -43 -39 -66.5t-90 -23.5q-53 0 -92 23.5t-39 66.5z" />
<glyph unicode="I" horiz-adv-x="690" d="M215 74v1300q0 43 39 66.5t92 23.5t91 -23.5t38 -66.5v-1300q0 -41 -39 -65.5t-90 -24.5q-53 0 -92 24.5t-39 65.5z" />
<glyph unicode="J" horiz-adv-x="778" d="M-117 -193q0 45 32 84t73 39q16 0 29.5 -6t25.5 -14q53 -37 127 -37q59 0 94 36t35 93v1372q0 43 39 66.5t92 23.5t91 -23.5t38 -66.5v-1360q0 -166 -100.5 -262t-270.5 -96q-102 0 -175.5 29.5t-104.5 60.5q-25 25 -25 61z" />
<glyph unicode="K" horiz-adv-x="1386" d="M203 74v1302q0 41 39 64.5t92 23.5q51 0 90 -23.5t39 -64.5v-540h117q35 0 55 10t45 39l455 528q45 51 102 51q49 0 85 -33.5t36 -80.5t-35 -84l-473 -523l489 -540q39 -45 39 -94q0 -51 -37.5 -88t-89.5 -37q-59 0 -100 47l-475 528q-20 23 -47 39t-51 16h-115v-540 q0 -43 -39 -66.5t-90 -23.5q-53 0 -92 23.5t-39 66.5z" />
<glyph unicode="L" horiz-adv-x="1110" d="M203 129v1245q0 43 39 66.5t92 23.5t91 -23.5t38 -66.5v-1147h567q39 0 61.5 -32.5t22.5 -79.5t-22.5 -81t-61.5 -34h-698q-59 0 -94 31.5t-35 97.5z" />
<glyph unicode="M" horiz-adv-x="1994" d="M172 1329q0 57 43 96t113 39q111 0 155 -90l398 -803q23 -49 54.5 -137t51.5 -160q16 70 43 155t45 126l340 801q23 53 79 80.5t114 27.5q75 0 129.5 -50t54.5 -134v-1214q0 -37 -38 -59.5t-89 -22.5q-49 0 -84 21.5t-35 60.5v755q0 141 21 371l-25 -68 q-90 -229 -145 -360l-277 -660q-4 -25 -4 -36q0 -39 -40 -61.5t-89 -22.5q-57 0 -96 21.5t-39 62.5q0 86 -70 221l-241 473q-12 23 -39 94q-10 23 -45 109t-72 155q63 -201 64 -303v-749q0 -39 -37 -61.5t-86 -22.5t-86 22.5t-37 61.5v1161q-31 47 -31 100z" />
<glyph unicode="N" horiz-adv-x="1552" d="M174 1343q0 49 40 85t108 36q49 0 74.5 -20.5t64.5 -69.5l409 -547q78 -104 167 -269t126 -284q-55 387 -55 537v561q0 45 37 68.5t84 23.5q51 0 86 -23.5t35 -68.5v-1306q0 -37 -37 -59.5t-86 -22.5t-86 22.5t-37 59.5q0 25 -16.5 52t-57.5 83l-29 37l-530 714 q-45 59 -92 144q4 -14 22.5 -81t28.5 -134.5t10 -126.5v-688q0 -37 -36.5 -59.5t-84.5 -22.5q-47 0 -83.5 22.5t-36.5 59.5v1165q-25 72 -25 112z" />
<glyph unicode="O" horiz-adv-x="1613" d="M139 721q0 231 82 403t232.5 264.5t353.5 92.5q205 0 355.5 -92.5t231.5 -263.5t81 -400q0 -227 -81 -398t-232.5 -263.5t-354.5 -92.5q-205 0 -355.5 91.5t-231.5 261.5t-81 397zM403 725q0 -244 109 -385t299 -141q186 0 292.5 140t106.5 382q0 248 -108.5 390 t-298.5 142q-186 0 -293 -141t-107 -387z" />
<glyph unicode="P" horiz-adv-x="1288" d="M137 1337q0 47 25.5 81t70.5 34h472q264 0 407 -124t143 -349t-144 -352t-406 -127h-242v-422q0 -43 -37 -68.5t-90 -25.5t-93 25.5t-40 68.5v991q0 49 23.5 91t70.5 65h-64q-45 0 -70.5 33.5t-25.5 78.5zM463 727h262q121 0 193.5 68.5t72.5 181.5t-72.5 180.5 t-193.5 67.5h-262v-498z" />
<glyph unicode="Q" horiz-adv-x="1613" d="M139 721q0 231 82 403t232.5 264.5t353.5 92.5q205 0 355.5 -92.5t231.5 -263.5t81 -400q0 -215 -73 -380t-209 -261t-321 -111l-129 -135q80 39 166 39q57 0 148 -29q69 -22 109 -22h3q102 0 166 68q36 38 78 38h2q47 0 77 -29.5t30 -72.5q0 -53 -41 -100 q-51 -59 -118 -93t-165 -34q-43 0 -81 10t-91 31q-53 20 -87 29.5t-75 9.5q-47 0 -85 -12.5t-83 -35.5q-27 -12 -55.5 -22t-52.5 -10q-66 0 -99.5 35.5t-33.5 80.5q0 41 17 73t54 69l129 125q-242 47 -379 241.5t-137 493.5zM403 725q0 -244 109 -385t299 -141 q186 0 292.5 140t106.5 382q0 248 -108.5 390t-298.5 142q-186 0 -293 -141t-107 -387z" />
<glyph unicode="R" horiz-adv-x="1357" d="M137 1339q0 47 24.5 80t71.5 33h467q274 0 415.5 -123t141.5 -350q0 -150 -64.5 -255.5t-184.5 -160.5l231 -387q25 -41 25 -78q0 -51 -39 -82.5t-90 -31.5q-37 0 -70 18t-53 53l-254 451q-18 -2 -58 -2h-235v-426q0 -45 -38 -69.5t-89 -24.5q-55 0 -95 25.5t-40 68.5 v991q0 49 23.5 91t70.5 65h-64q-47 0 -71.5 33.5t-24.5 80.5zM465 731h250q115 0 189.5 69.5t74.5 178.5t-74 177.5t-190 68.5h-250v-494z" />
<glyph unicode="S" horiz-adv-x="1206" d="M57 324q0 49 41 78.5t95 29.5q37 0 66.5 -15.5t41.5 -45.5q29 -70 115 -121t205 -51q125 0 186 49t61 139q0 57 -40 98t-97 69t-168 69q-147 55 -236 102t-155 131t-66 213q0 131 67 224t178.5 140.5t244.5 47.5q135 0 253 -40t188.5 -110.5t70.5 -156.5q0 -49 -39 -79 t-90 -30q-37 0 -72 17.5t-55 54.5q-29 51 -97.5 83.5t-168.5 32.5t-155.5 -39.5t-55.5 -111.5q0 -66 42 -112t103.5 -75.5t171.5 -70.5q143 -53 231.5 -99.5t151 -129.5t62.5 -212q0 -209 -146.5 -320.5t-394.5 -111.5q-137 0 -261 48.5t-201 129t-77 175.5z" />
<glyph unicode="T" horiz-adv-x="1249" d="M4 1339q0 45 27.5 79t74.5 34h1039q47 0 73.5 -34t26.5 -81q0 -45 -26.5 -78.5t-73.5 -33.5h-389v-1147q0 -43 -39 -68.5t-92 -25.5t-92 25.5t-39 68.5v991q0 49 23.5 91t70.5 65h-482q-47 0 -74.5 33.5t-27.5 80.5z" />
<glyph unicode="U" horiz-adv-x="1501" d="M160 532v842q0 43 39 66.5t92 23.5t91 -23.5t38 -66.5v-837q0 -154 89 -246t245 -92q150 0 237.5 92t87.5 246v837q0 43 39 66.5t92 23.5t91 -23.5t38 -66.5v-842q0 -156 -72.5 -283.5t-206.5 -202.5t-310 -75q-177 0 -311 75t-206.5 203t-72.5 283z" />
<glyph unicode="V" horiz-adv-x="1347" d="M53 1341q0 55 41 89t94 34q37 0 69 -19.5t48 -58.5l287 -706q25 -61 74 -217q8 -33 28 -94l15 41q61 188 92 260l211 485q45 106 45 211q0 47 38 72.5t89 25.5q55 0 95 -28.5t40 -79.5q0 -49 -11.5 -104.5t-47.5 -135.5l-459 -989q6 -20 6 -43q0 -47 -39 -73.5t-88 -26.5 q-53 0 -91 26.5t-38 73.5q0 86 -49 201l-434 993q-14 31 -15 63z" />
<glyph unicode="W" horiz-adv-x="1980" d="M49 1341q0 55 41 89t94 34q41 0 73 -20.5t44 -57.5l248 -755q20 -57 47 -166l12 -49q12 31 21.5 58.5t19.5 51.5q14 43 39 105l215 547l-35 100q-14 43 -14 63q0 55 38 89t91 34q39 0 71.5 -19.5t45.5 -58.5l250 -755q25 -80 51 -197q31 121 57 197l191 524 q45 125 45 211q0 47 37.5 72.5t89.5 25.5q55 0 95 -29.5t40 -80.5q-1 -82 -60 -238l-378 -989q6 -20 6 -43q0 -47 -39 -73.5t-88 -26.5q-53 0 -91 26.5t-38 73.5q0 45 -12.5 88t-36.5 113l-154 438q-18 55 -39 133l-10 41q-18 -51 -23 -66l-41 -108l-252 -596q6 -20 7 -43 q0 -47 -39 -73.5t-88 -26.5q-53 0 -91 26.5t-38 73.5q0 41 -10.5 82t-22.5 74.5t-17 44.5l-338 993q-2 6 -8 25.5t-6 37.5z" />
<glyph unicode="X" horiz-adv-x="1298" d="M35 100q0 90 127 240l332 397l-388 510q-38 50 -38 98q0 53 36.5 86t88.5 33q72 0 122 -65l357 -469l221 274q98 123 98 170q0 41 38 65.5t89 24.5q53 0 91 -30.5t38 -83.5q0 -49 -34.5 -106.5t-96.5 -133.5l-299 -371l412 -542q35 -45 35 -97q0 -51 -38 -83.5t-91 -32.5 q-31 0 -59.5 14t-49.5 41l-383 502l-246 -295q-98 -119 -98 -170q0 -43 -36 -66.5t-85 -23.5q-57 0 -100 29.5t-43 84.5z" />
<glyph unicode="Y" horiz-adv-x="1171" d="M18 1348q0 51 41 83.5t93 32.5q27 0 56.5 -14t43.5 -41l225 -420q35 -61 58.5 -116.5t60.5 -165.5q31 92 54.5 146t66.5 136l108 203q29 53 47.5 101t18.5 71q0 47 38 73.5t99 26.5q55 0 92 -27.5t37 -72.5q0 -35 -16.5 -93.5t-53.5 -121.5l-362 -623v-473q0 -31 -39 -50 t-90 -19q-53 0 -92 19.5t-39 49.5v473l-426 750q-12 23 -16.5 36t-4.5 36z" />
<glyph unicode="Z" horiz-adv-x="1107" d="M37 1210q0 47 38 104.5t105.5 97.5t153.5 40h561q72 0 115 -42t43 -107q0 -66 -47 -136l-631 -905q68 27 129 27l98 -17q149 -30 189 -30h2q14 0 23 10t24 31q25 35 50 55t73 20q51 0 79.5 -27.5t28.5 -80.5q0 -45 -28.5 -105.5t-79 -102.5t-113.5 -42q-100 0 -561 86 v-14q0 -41 -36 -64.5t-83 -23.5q-49 0 -85 22.5t-36 63.5q0 121 49 192l561 813q66 94 160 144h-436q-41 0 -69.5 -17.5t-57.5 -48.5q-31 -29 -49.5 -41t-46.5 -12q-51 0 -87 30.5t-36 79.5z" />
<glyph unicode="[" horiz-adv-x="669" d="M164 -295v1798q0 59 32.5 92t92.5 33h289q33 0 51 -28.5t18 -69.5t-18.5 -70.5t-50.5 -29.5h-185v-1651h185q33 0 52 -30t19 -71q0 -39 -19.5 -68.5t-51.5 -29.5h-289q-59 0 -92 33t-33 92z" />
<glyph unicode="\" horiz-adv-x="745" d="M-2 1534q0 43 37 68.5t90 25.5q39 0 70.5 -18.5t42.5 -55.5l528 -1857q4 -16 4 -25q0 -43 -37 -67.5t-88 -24.5q-39 0 -69.5 17.5t-40.5 54.5l-533 1853q-4 20 -4 29z" />
<glyph unicode="]" horiz-adv-x="669" d="M20 -322q0 41 19.5 71t52.5 30h184v1651h-184q-33 0 -51 29.5t-18 70.5t18 69.5t51 28.5h289q59 0 92 -32.5t33 -92.5v-1798q0 -59 -33 -92t-92 -33h-289q-33 0 -52.5 30t-19.5 68z" />
<glyph unicode="^" horiz-adv-x="948" d="M39 653q0 31 10 56l324 694q12 29 40.5 44t63.5 15q33 0 60.5 -14t42.5 -43l317 -690q12 -27 12 -62q0 -37 -34.5 -60.5t-77.5 -23.5q-66 0 -88 52l-238 520l-231 -520q-12 -27 -35 -40.5t-51 -13.5q-43 0 -79 24.5t-36 61.5z" />
<glyph unicode="_" horiz-adv-x="821" d="M-90 -166q0 35 22.5 59.5t61.5 24.5h837q37 0 58.5 -24.5t21.5 -59.5q0 -33 -21.5 -57.5t-58.5 -24.5h-837q-39 0 -61.5 24.5t-22.5 57.5z" />
<glyph unicode="`" d="M395 1534q0 51 42 95t93 44q39 0 68 -31l276 -292q20 -20 21 -52q0 -37 -29.5 -67.5t-66.5 -30.5q-22 1 -45 17l-320 243q-39 31 -39 74z" />
<glyph unicode="a" horiz-adv-x="1247" d="M137 293q0 158 117 239.5t330 120.5q133 25 188 53.5t55 77.5q0 106 -192 107q-80 0 -147.5 -25.5t-86.5 -62.5q-35 -72 -118 -72q-43 0 -80 28.5t-37 84.5q0 61 67.5 122.5t177 100.5t224.5 39q199 0 322.5 -85t123.5 -286v-481q0 -27 10.5 -46.5t28.5 -41.5 q31 -35 31 -60q0 -53 -47 -87.5t-109 -34.5q-68 0 -113.5 38.5t-45.5 114.5q0 25 10 60q-68 -102 -166 -161t-215 -59q-143 0 -235.5 83t-92.5 233zM391 322q0 -66 40 -99t108 -33q57 0 124.5 23t115.5 73t48 128v172q-20 -31 -94 -64t-170 -55q-172 -39 -172 -145z" />
<glyph unicode="b" horiz-adv-x="1429" d="M147 104q0 27 17 72q8 23 15 48.5t7 51.5v1182q0 43 38 66.5t87 23.5q53 0 91 -23.5t38 -66.5v-518q70 82 166 124t207 42q168 0 283.5 -76t173 -202t57.5 -277q0 -143 -54 -274.5t-173 -215.5t-301 -84q-98 0 -196.5 39t-174.5 142q2 -8 2 -27q0 -70 -36 -108.5 t-97 -38.5q-72 0 -111 34.5t-39 85.5zM440 553q0 -168 84 -264t230 -96q143 0 229 96t86 260q0 158 -86 250t-227 92q-145 0 -230.5 -91t-85.5 -247z" />
<glyph unicode="c" horiz-adv-x="1165" d="M102 545q0 172 70 299t195 194.5t286 67.5q127 0 227.5 -36t157 -99.5t56.5 -139.5q0 -47 -39 -75.5t-88 -28.5q-35 0 -61.5 14.5t-37.5 40.5q-16 43 -76.5 76t-142.5 33q-135 0 -214 -95.5t-79 -263.5t76 -257t215 -89q88 0 147.5 40t82.5 114q8 29 36.5 44t69.5 15 q51 0 83 -29.5t32 -68.5q0 -76 -52.5 -151.5t-157 -127t-255.5 -51.5q-162 0 -282 69t-184.5 198t-64.5 307z" />
<glyph unicode="d" horiz-adv-x="1429" d="M102 539q0 141 62.5 272t181.5 213t283 82q231 0 360 -158v510q0 43 38 66.5t89 23.5t89 -23.5t38 -66.5v-1218q0 -33 21 -70q2 -4 10 -24.5t8 -47.5q0 -53 -41 -83.5t-96 -30.5q-61 0 -104.5 31.5t-43.5 93.5q0 51 2 75q-66 -104 -166 -155.5t-227 -51.5 q-178 0 -290.5 81t-163 209t-50.5 272zM360 549q0 -164 84 -260t230 -96q143 0 229 98t86 264q0 154 -88 245t-231 91t-226.5 -92t-83.5 -250z" />
<glyph unicode="e" horiz-adv-x="1249" d="M102 524q0 176 68 308.5t189.5 203t285.5 70.5q137 0 250 -57.5t177.5 -162t64.5 -241.5q0 -86 -59.5 -141t-172.5 -55h-551q20 -129 96 -199t193 -70q94 0 152.5 29t99.5 84q31 43 94 43q45 0 81 -30t36 -75q0 -72 -72.5 -131t-181.5 -94t-209 -35q-252 0 -396.5 145.5 t-144.5 407.5zM360 651h545q-4 106 -77.5 176t-176.5 70q-114 0 -190 -63.5t-101 -182.5z" />
<glyph unicode="f" horiz-adv-x="833" d="M12 975q0 43 27 72.5t82 29.5h106v113q0 186 96.5 278.5t276.5 92.5q258 0 258 -131q0 -96 -108 -97q-27 0 -68 8q-45 8 -78 9q-63 0 -93 -37t-30 -109v-127h207q57 0 83 -29.5t26 -72.5q0 -47 -26 -78t-83 -31h-207v-788q0 -45 -37.5 -69.5t-89.5 -24.5q-51 0 -89 24.5 t-38 69.5v629q0 66 21.5 106.5t54.5 52.5h-182q-55 0 -82 32t-27 77z" />
<glyph unicode="g" horiz-adv-x="1120" d="M61 -123q0 82 48.5 137.5t138.5 79.5q-117 55 -117 174q0 68 49 112t125 64q-90 47 -143 126t-53 184q0 162 123.5 257t316.5 95q55 0 129 -16q61 -12 86 -13q76 0 118 5t85 16q37 8 51 8q29 0 49 -22.5t20 -75.5q0 -96 -79 -97q-35 0 -111 23q88 -66 88 -193 q0 -158 -114.5 -255t-327.5 -97q-170 0 -170 -74q0 -31 21.5 -47t74.5 -18l258 -10q164 -6 259 -81t95 -231q0 -166 -137 -258t-381 -92q-250 0 -376 84t-126 215zM303 -100q0 -63 70.5 -106.5t195.5 -43.5q129 0 200 44t71 118q0 129 -172 135l-234 8h-16 q-61 -25 -88 -62.5t-27 -92.5zM346 748q0 -84 57.5 -137.5t143.5 -53.5t143.5 54.5t57.5 140.5q0 82 -57.5 134t-139.5 52q-88 0 -146.5 -53.5t-58.5 -136.5z" />
<glyph unicode="h" horiz-adv-x="1366" d="M186 78v1380q0 43 38 66.5t89 23.5t89 -23.5t38 -66.5v-581q70 106 159 157t210 51q104 0 197.5 -46t150.5 -137t57 -218v-444q0 -25 6.5 -40.5t16.5 -35.5q23 -33 23 -70q0 -47 -38 -78.5t-104 -31.5q-158 0 -157 145v520q0 106 -66 163.5t-162 57.5q-127 0 -210 -81.5 t-83 -210.5v-500q0 -45 -37.5 -69.5t-89.5 -24.5q-51 0 -89 24.5t-38 69.5z" />
<glyph unicode="i" horiz-adv-x="610" d="M158 1331q0 63 42 104.5t105 41.5t105.5 -41t42.5 -105q0 -63 -42 -104t-106 -41q-63 0 -105 41t-42 104zM178 78v909q0 43 38 66.5t89 23.5t89 -23.5t38 -66.5v-909q0 -45 -38 -69.5t-89 -24.5t-89 24.5t-38 69.5z" />
<glyph unicode="j" horiz-adv-x="673" d="M-141 -276q0 45 25.5 78.5t70.5 33.5q20 0 72 -10q78 -10 84 -10q57 0 94 25.5t37 80.5v1065q0 43 37.5 66.5t89.5 23.5q51 0 89 -23.5t38 -66.5v-1063q0 -158 -97.5 -248t-248.5 -90q-136 0 -213.5 29t-77.5 109zM221 1331q0 63 42 104.5t106 41.5q63 0 105 -41t42 -105 q0 -63 -42 -104t-105 -41q-64 0 -106 41t-42 104z" />
<glyph unicode="k" horiz-adv-x="1185" d="M186 78v1380q0 43 38 66.5t89 23.5t89 -23.5t38 -66.5v-794h68q49 0 98 43l242 221q57 57 57 92q0 27 28 42t73 15q63 0 95 -35.5t32 -89.5q0 -82 -78 -153l-283 -252l348 -367q23 -23 23 -57q0 -51 -45 -95t-97 -44q-37 0 -65 30l-352 387q-45 49 -76 50h-68v-373 q0 -45 -36.5 -69.5t-88.5 -24.5q-51 0 -90 24.5t-39 69.5z" />
<glyph unicode="l" horiz-adv-x="634" d="M190 129v1329q0 43 38 66.5t89 23.5t89 -23.5t38 -66.5v-1237q0 -27 6.5 -44t20.5 -46q8 -14 14.5 -28.5t6.5 -28.5q0 -41 -43 -65.5t-99 -24.5q-160 0 -160 145z" />
<glyph unicode="m" horiz-adv-x="2097" d="M152 948q0 59 43 94t100 35t99 -38t42 -105v-33q59 76 147.5 130t209.5 54q115 0 211 -51t143 -153q138 204 381 204h2q104 0 198.5 -45t155 -138t60.5 -226v-436q0 -39 24 -76q8 -14 15.5 -31.5t7.5 -38.5q0 -47 -38 -78.5t-104 -31.5q-78 0 -118.5 36.5t-40.5 108.5 v469q0 123 -62.5 197.5t-169.5 74.5q-115 0 -192.5 -69.5t-77.5 -233.5v-495q0 -41 -37 -64.5t-86 -23.5q-51 0 -88 23.5t-37 64.5v526q0 119 -62.5 195.5t-172.5 76.5q-121 0 -195 -82.5t-74 -220.5v-489q0 -45 -38 -69.5t-89 -24.5t-89 24.5t-38 69.5v723q0 33 -5 52 t-13 42q-12 33 -12 53z" />
<glyph unicode="n" horiz-adv-x="1363" d="M152 948q0 59 43 94t100 35t99 -38t42 -105v-60q68 109 158 160t211 51q106 0 199.5 -46t149.5 -137t56 -218v-444q0 -39 25 -76q8 -14 15 -31.5t7 -38.5q0 -47 -37.5 -78.5t-103.5 -31.5q-160 0 -160 145v520q0 106 -65.5 163.5t-161.5 57.5q-127 0 -210 -81.5 t-83 -210.5v-500q0 -45 -38 -69.5t-89 -24.5t-89 24.5t-38 69.5v723q0 33 -5 52t-13 42q-12 33 -12 53z" />
<glyph unicode="o" horiz-adv-x="1323" d="M102 537q0 174 70 303t198 197.5t300 68.5q168 0 291.5 -68.5t191.5 -195.5t68 -301t-68 -303t-195 -198t-299 -69q-170 0 -295.5 69t-193.5 195.5t-68 301.5zM360 541q0 -162 84 -258.5t226 -96.5q135 0 214 94.5t79 256.5q0 164 -82 259t-222 95q-139 0 -219 -94.5 t-80 -255.5z" />
<glyph unicode="p" horiz-adv-x="1425" d="M152 969q0 49 38.5 78.5t96.5 29.5q66 0 102.5 -36.5t44.5 -98.5q80 84 177.5 124t195.5 40q166 0 282.5 -76t175 -202t58.5 -277q0 -143 -54.5 -273.5t-173 -215.5t-300.5 -85q-100 0 -196.5 44.5t-162.5 125.5v-466q0 -45 -38 -70t-89 -25t-89 24.5t-38 70.5v1120 q0 37 -4 58.5t-14 45.5q-12 37 -12 64zM436 553q0 -166 84 -263t223 -97q148 0 235 96t87 260q0 158 -86 250t-231 92q-141 0 -226.5 -94.5t-85.5 -243.5z" />
<glyph unicode="q" horiz-adv-x="1429" d="M102 539q0 141 62.5 272t181.5 213t283 82q238 0 362 -160q14 131 139 131q62 0 100 -30.5t38 -75.5q0 -29 -13 -66q-12 -45 -12 -84v-1140q0 -45 -38 -70t-89 -25t-89 24.5t-38 70.5v456q-63 -78 -152 -119t-198 -41q-188 0 -309 82t-174.5 209t-53.5 271zM360 549 q0 -162 85 -259t231 -97q141 0 227 98t86 262q0 156 -86 247t-231 91q-143 0 -227.5 -92t-84.5 -250z" />
<glyph unicode="r" horiz-adv-x="919" d="M152 948q0 59 43 94t100 35t99 -38t42 -105v-35q49 84 127 135t172 51q88 0 134 -35.5t46 -93.5q0 -51 -33.5 -84.5t-82.5 -33.5q-23 0 -42.5 4t-25.5 6q-41 12 -72 12q-96 0 -159.5 -73.5t-63.5 -198.5v-514q0 -43 -38 -66.5t-89 -23.5t-89 23.5t-38 66.5v727 q0 33 -5 52t-13 42q-12 33 -12 53z" />
<glyph unicode="s" horiz-adv-x="1005" d="M49 246q0 49 37 78.5t84 29.5q29 0 57.5 -12t40.5 -35q66 -121 240 -121q86 0 125 31t39 82q0 59 -54.5 91t-171.5 67q-111 33 -183.5 66.5t-123.5 97t-51 165.5q0 145 110.5 232.5t299.5 87.5q111 0 203 -35t146 -91t54 -118q0 -49 -38 -78.5t-87 -29.5q-31 0 -57.5 14 t-40.5 39q-20 37 -70.5 60.5t-118.5 23.5q-66 0 -106.5 -26.5t-40.5 -78.5q0 -51 51 -78.5t160 -58.5q115 -33 189.5 -65.5t129 -100t54.5 -176.5q0 -94 -52.5 -171t-149.5 -121t-224 -44q-117 0 -220.5 35t-167 97.5t-63.5 142.5z" />
<glyph unicode="t" horiz-adv-x="772" d="M-4 975q0 43 26.5 72.5t81.5 29.5h105v203q0 43 38 66.5t87 23.5q53 0 91 -23.5t38 -66.5v-203h190q57 0 83 -29.5t26 -72.5q0 -47 -25.5 -78t-83.5 -31h-190v-559q0 -112 98 -112h2q31 0 76 12q33 8 49 8q41 0 66.5 -24.5t25.5 -69.5q0 -78 -75.5 -111t-174.5 -33 q-322 0 -321 320v410q0 66 21.5 106.5t54.5 52.5h-181q-55 0 -81.5 31t-26.5 78z" />
<glyph unicode="u" horiz-adv-x="1361" d="M127 948q0 59 43 94t100 35t99.5 -38t42.5 -105v-537q0 -106 65.5 -155t163.5 -49q117 0 193.5 70.5t76.5 203.5v518q0 45 38 68.5t89 23.5t89 -23.5t38 -68.5v-745q0 -33 21 -70q2 -4 10 -24.5t8 -47.5q0 -53 -41 -83.5t-96 -30.5q-61 0 -104 31.5t-43 93.5q0 37 2 55 q-74 -100 -162 -143.5t-197 -43.5q-111 0 -203 46.5t-147 136.5t-55 219v422q0 33 -5.5 52t-13.5 42q-12 33 -12 53z" />
<glyph unicode="v" horiz-adv-x="1181" d="M57 963q0 49 31 81.5t80 32.5q45 0 75.5 -22.5t59.5 -75.5l236 -447q49 -100 75 -186q35 119 70 186l145 283q23 43 29 86t6 103q0 33 34 53t89 20q68 0 104.5 -35.5t36.5 -99.5q0 -69 -47 -151l-356 -633q10 -37 10 -86q0 -43 -35.5 -65.5t-85.5 -22.5q-51 0 -88 23.5 t-37 64.5q0 47 -11 91t-48 109l-352 617q-20 35 -21 74z" />
<glyph unicode="w" horiz-adv-x="1835" d="M53 963q0 49 31 81.5t80 32.5q47 0 78.5 -23.5t56.5 -74.5l240 -524q2 -4 30 -86q16 57 33 86l217 391q-24 47 -24 96q0 59 33.5 97t99.5 38q49 0 76.5 -22.5t40.5 -54t26 -91.5q16 -78 33 -110l168 -348q6 -10 14 -37t14 -43q14 57 25 80l168 374q20 49 24.5 85t4.5 94 q0 33 33.5 53t89.5 20q68 0 104.5 -35.5t36.5 -99.5q0 -57 -47 -151l-318 -633q10 -37 11 -86q0 -43 -36 -65.5t-85 -22.5q-51 0 -88 23.5t-37 64.5q0 84 -60 200l-151 301q-14 29 -35 91q-16 -59 -35 -89l-243 -417q10 -37 10 -86q0 -43 -36 -65.5t-85 -22.5 q-51 0 -88 23.5t-37 64.5t-12.5 85t-46.5 115l-293 617q-20 41 -21 74z" />
<glyph unicode="x" horiz-adv-x="1107" d="M41 86q0 43 18.5 88t71.5 100l272 279l-288 336q-31 37 -31 80q0 45 35 76.5t82 31.5q57 0 98 -49l279 -323l145 155q45 47 45 113q0 47 33 75.5t98 28.5q63 0 99 -35.5t36 -91.5q0 -74 -61 -137l-256 -270l332 -383q18 -20 18 -58q0 -47 -34 -82.5t-81 -35.5 q-37 0 -59.5 13t-48.5 44l-301 350l-178 -186q-35 -37 -47.5 -63.5t-12.5 -57.5q0 -100 -135 -100q-59 0 -94 28.5t-35 73.5z" />
<glyph unicode="y" horiz-adv-x="1120" d="M49 961q0 51 40 83.5t93 32.5q39 0 73 -22.5t50 -65.5l270 -756h19l201 637q9 26 9 63v8q-1 42 -1 54q0 39 38 60.5t91 21.5q57 0 100 -24.5t43 -69.5q0 -31 -7 -62.5t-34 -105.5l-325 -946q-55 -158 -132 -220.5t-221 -62.5q-161 0 -161 112q0 44 24.5 71.5t61.5 27.5 q16 0 32.5 -2t34.5 -2q106 0 146 119l36 115q-61 2 -97 21.5t-53.5 47t-35.5 76.5l-285 739q-10 27 -10 50z" />
<glyph unicode="z" horiz-adv-x="1042" d="M57 76q0 96 60 166l438 510q63 76 145 125h-354q-10 0 -23.5 -9.5t-27.5 -21.5q-29 -25 -51.5 -38t-48.5 -13q-45 0 -76 28.5t-31 94.5q0 33 34 70.5t82 63t87 25.5h592q49 0 77.5 -25.5t28.5 -64.5q0 -18 -7 -40.5t-19 -39.5l-566 -655q246 -47 332 -47q18 0 28.5 6 t26.5 20q18 18 37 28.5t53 10.5q54 0 81.5 -26.5t27.5 -65.5q0 -49 -34 -89t-81 -64.5t-77 -24.5q-115 0 -255.5 20.5t-228.5 47.5q-2 -39 -38 -61.5t-85 -22.5q-51 0 -89 24.5t-38 67.5z" />
<glyph unicode="{" horiz-adv-x="741" d="M88 608q0 49 22.5 83t65.5 34q66 0 121 36t49 113l-37 396q-2 18 -2 51q0 123 60.5 192.5t183.5 104.5q27 8 55 8q47 0 74 -25.5t27 -70.5q0 -29 -15.5 -54.5t-44.5 -35.5q-68 -25 -94.5 -65t-20.5 -103l37 -400q8 -88 -45 -159.5t-137 -96.5q188 -59 188 -262 q0 -31 -2 -47l-36 -370q-6 -63 20.5 -103.5t93.5 -64.5q29 -10 44.5 -36t15.5 -55q0 -45 -28 -70.5t-73 -25.5q-31 0 -55 8q-123 39 -183.5 106.5t-60.5 186.5q0 37 2 56l37 380q8 90 -48 131.5t-126 41.5q-41 0 -64.5 34.5t-23.5 81.5z" />
<glyph unicode="|" horiz-adv-x="571" d="M188 -309v1796q0 51 29 78.5t70 27.5q39 0 67.5 -27.5t28.5 -78.5v-1796q0 -51 -28.5 -80t-67.5 -29t-69 29t-30 80z" />
<glyph unicode="}" horiz-adv-x="741" d="M31 -322q0 29 15 54.5t44 36.5q68 25 94.5 64.5t20.5 103.5l-37 370q-2 16 -2 47q0 203 188 262q-84 25 -137 96.5t-45 159.5l37 400q6 63 -20.5 103t-94.5 65q-29 10 -44 35.5t-15 54.5q0 45 26.5 70.5t73.5 25.5q29 0 55 -8q123 -35 183.5 -104.5t60.5 -192.5 q0 -33 -2 -51l-37 -396q-6 -78 49.5 -113.5t120.5 -35.5q43 0 65.5 -34t22.5 -83q0 -47 -23.5 -81.5t-64.5 -34.5q-70 0 -126 -41t-48 -132l37 -380q2 -18 2 -56q0 -119 -60.5 -186.5t-183.5 -106.5q-24 -8 -55 -8q-45 0 -72.5 25.5t-27.5 70.5z" />
<glyph unicode="~" horiz-adv-x="1230" d="M98 557q0 78 33 144.5t93.5 106.5t142.5 40q80 0 147.5 -32t155.5 -89q57 -39 93 -57.5t66 -18.5q47 0 70 30t31 79q8 39 37.5 60.5t66.5 21.5q43 0 73 -27t26 -74q-12 -150 -87 -217t-184 -67q-80 0 -148.5 31.5t-156.5 89.5q-57 37 -93 55t-67 18q-45 0 -68.5 -27.5 t-25.5 -62.5q-2 -43 -31.5 -66.5t-70.5 -23.5t-72 23.5t-31 62.5z" />
<glyph unicode="&#xa1;" horiz-adv-x="483" d="M86 950q0 68 44 112t112 44q67 0 111 -44t44 -112t-44 -111.5t-111 -43.5q-68 0 -112 44t-44 111zM119 -283l18 861q2 43 31 64.5t74 21.5t73.5 -21.5t30.5 -64.5l19 -861q2 -49 -35 -75.5t-88 -26.5t-88 26.5t-35 75.5z" />
<glyph unicode="&#xa2;" horiz-adv-x="1165" d="M102 541q0 217 115 363.5t315 182.5v146q0 39 28 62.5t71 23.5q41 0 68.5 -24.5t27.5 -61.5v-139q162 -14 264.5 -91t102.5 -182q0 -43 -36 -72.5t-89 -29.5q-35 0 -60.5 15.5t-36.5 39.5q-14 37 -53 65.5t-92 41.5v-693q117 31 152 146q8 31 35.5 48t66.5 17 q47 0 82 -26.5t35 -63.5q0 -78 -50.5 -149.5t-135.5 -120.5t-185 -62v-223q0 -39 -27.5 -62.5t-70.5 -23.5q-41 0 -69 24.5t-28 61.5v226q-203 29 -316.5 177t-113.5 384zM350 528q0 -131 46 -215t136 -114v669q-88 -37 -135 -125t-47 -215z" />
<glyph unicode="&#xa3;" d="M100 684q0 41 29 70.5t82 29.5h55q-43 94 -63.5 152.5t-20.5 130.5q0 215 141.5 314.5t364.5 99.5q152 0 263.5 -45t170 -121t58.5 -164q0 -57 -37 -85t-90 -28q-43 0 -77 16.5t-40 41.5q-16 63 -80.5 111t-169.5 48q-117 0 -183.5 -53t-66.5 -147q0 -39 12.5 -77 t36.5 -95q29 -61 41 -99h379q53 0 82 -29.5t29 -70.5t-29 -71.5t-82 -30.5h-342v-11q0 -190 -117 -348h617q39 0 62.5 -30.5t23.5 -79.5t-23.5 -81t-62.5 -32h-840q-47 0 -73.5 39t-26.5 92q0 29 9 55.5t26 42.5q96 100 132 170t36 176v7h-115q-51 0 -81 30.5t-30 71.5z" />
<glyph unicode="&#xa4;" horiz-adv-x="1241" d="M84 231q0 33 25 58l124 125q-72 115 -71 254q0 139 71 254l-124 125q-25 25 -25 59q0 41 36 77t79 36q33 0 57 -25l131 -131q109 57 240 57q129 0 231 -53l127 127q25 25 59 25q41 0 77 -36t36 -79q0 -33 -24 -57l-119 -119q78 -113 78 -260q0 -143 -76 -262l117 -117 q25 -25 24 -60q0 -41 -36 -76.5t-79 -35.5q-33 0 -57 24l-127 127q-100 -55 -231 -55q-137 0 -240 59l-131 -131q-25 -25 -59 -24q-41 0 -77 35.5t-36 78.5zM391 668q0 -104 66.5 -173t169.5 -69q102 0 168.5 68.5t66.5 173.5q0 104 -66.5 171.5t-168.5 67.5t-169 -67.5 t-67 -171.5z" />
<glyph unicode="&#xa5;" horiz-adv-x="1232" d="M47 1348q0 51 41 83.5t92 32.5q27 0 56.5 -14t44.5 -41l225 -420q35 -61 58.5 -116.5t60.5 -165.5q31 92 54 146t66 136l109 203q29 53 47.5 101t18.5 71q0 47 37.5 73.5t99.5 26.5q55 0 92 -27.5t37 -72.5q0 -35 -16.5 -93.5t-53.5 -121.5l-194 -336h157q43 0 69 -28.5 t26 -67.5q0 -37 -25 -64.5t-70 -27.5h-268l-55 -97h323q43 0 69 -28.5t26 -67.5q0 -37 -25 -64.5t-70 -27.5h-325v-287q0 -31 -39 -50t-90 -19q-53 0 -92 19.5t-39 49.5v287h-308q-43 0 -68.5 28.5t-25.5 67.5t24.5 65.5t69.5 26.5h306l-54 97h-252q-43 0 -68.5 28.5 t-25.5 67.5t24.5 65.5t69.5 26.5h144l-262 463q-12 23 -16.5 36t-4.5 36z" />
<glyph unicode="&#xa6;" horiz-adv-x="571" d="M188 289q0 51 29 78.5t70 27.5q39 0 67.5 -27.5t28.5 -78.5v-598q0 -51 -28.5 -80t-67.5 -29t-69 29t-30 80v598zM188 889v598q0 51 29 78.5t70 27.5q39 0 67.5 -27.5t28.5 -78.5v-598q0 -51 -28.5 -80t-67.5 -29t-69 29t-30 80z" />
<glyph unicode="&#xa7;" horiz-adv-x="1038" d="M20 647q0 102 57.5 164.5t162.5 87.5q-63 43 -99.5 107.5t-36.5 140.5q0 102 58.5 178t158 116t218.5 40q111 0 205 -34t149 -94.5t55 -138.5q0 -43 -45 -67.5t-102 -24.5q-41 0 -75 15.5t-42 44.5q-10 35 -55 56.5t-113 21.5t-109.5 -32t-41.5 -91q0 -70 65.5 -109 t194.5 -78q121 -37 200.5 -73.5t136 -104t56.5 -174.5q0 -92 -56.5 -161.5t-158.5 -90.5q147 -96 147 -270t-121.5 -271.5t-322.5 -97.5q-143 0 -248.5 46t-160 112.5t-54.5 128.5q0 55 42 89t97 34q43 0 78 -21.5t53 -64.5q18 -47 70.5 -75t124.5 -28q82 0 133 40t51 108 q0 72 -72.5 117t-222.5 100q-117 43 -193.5 83t-130 106.5t-53.5 164.5zM279 676q0 -53 28.5 -86t90 -60.5t202.5 -80.5q74 0 117 30.5t43 89.5q0 70 -72 114t-217 95q-35 10 -61 10q-55 0 -93 -30.5t-38 -81.5z" />
<glyph unicode="&#xa8;" d="M254 1352q0 59 39 97t98 38t98 -38t39 -97t-38.5 -97t-98.5 -38q-59 0 -98 37.5t-39 97.5zM700 1352q0 59 39 97t99 38q59 0 98 -38t39 -97t-39 -97t-98 -38q-60 0 -99 37.5t-39 97.5z" />
<glyph unicode="&#xa9;" horiz-adv-x="1929" d="M106 625q0 244 111 439.5t306.5 306t441.5 110.5t441.5 -110.5t306 -306.5t110.5 -439q0 -246 -110.5 -441.5t-306.5 -306t-441 -110.5q-244 0 -440.5 110.5t-307.5 307t-111 440.5zM289 625q0 -195 87 -351.5t241.5 -245.5t347.5 -89q192 0 345.5 89t240.5 245.5 t87 351.5t-87 351.5t-240.5 244.5t-345.5 88q-193 0 -347.5 -88t-241.5 -245t-87 -351zM522 623q0 225 129 355t355 130q92 0 176 -39t135 -103.5t51 -134.5q0 -33 -25.5 -52t-68.5 -19q-35 0 -58.5 12t-31.5 33q-23 59 -72 96t-108 37q-119 0 -190 -86t-71 -227 q0 -152 68 -235t193 -83q66 0 111.5 34t66.5 99q8 25 31.5 40.5t54.5 15.5q41 0 67.5 -23.5t26.5 -62.5q0 -74 -52.5 -136.5t-140.5 -99.5t-194 -37q-135 0 -237.5 60.5t-159 170t-56.5 255.5z" />
<glyph unicode="&#xaa;" horiz-adv-x="856" d="M39 856q0 129 84 190.5t244 94.5q106 20 150 39.5t44 50.5q0 29 -36 46t-97 17q-63 0 -110.5 -17t-61.5 -40q-16 -27 -38.5 -40t-59.5 -13q-41 0 -65.5 21.5t-24.5 64.5q0 47 47 92t129 73.5t176 28.5q338 0 338 -276v-363q0 -20 6 -32.5t20 -30.5q10 -12 17.5 -25.5 t7.5 -29.5q0 -41 -34 -68t-83 -27q-51 0 -90 33t-39 88l2 27q-39 -70 -110.5 -111t-165.5 -41q-109 0 -179.5 67.5t-70.5 180.5zM238 881q0 -92 106 -93q45 0 95 23t84 71t34 119v50q-45 -37 -154 -60q-84 -16 -124.5 -38.5t-40.5 -71.5z" />
<glyph unicode="&#xab;" horiz-adv-x="1191" d="M78 553q0 45 39 90l276 338q43 55 101 55q37 0 61.5 -22.5t24.5 -59.5t-29 -77l-219 -322l217 -332q18 -27 18 -53q0 -37 -29.5 -63.5t-66.5 -26.5q-47 0 -76 37l-278 350q-39 47 -39 86zM619 553q0 45 39 90l276 338q43 55 101 55q37 0 61.5 -22.5t24.5 -59.5t-29 -77 l-219 -322l217 -332q18 -27 18 -53q0 -37 -29.5 -63.5t-66.5 -26.5q-47 0 -76 37l-278 350q-39 47 -39 86z" />
<glyph unicode="&#xac;" horiz-adv-x="1173" d="M82 719q0 41 23.5 70.5t64.5 29.5h745q74 0 105 -27.5t31 -95.5v-354q0 -41 -33 -63.5t-78 -22.5t-78 22.5t-33 63.5v272h-659q-41 0 -64.5 31t-23.5 74z" />
<glyph unicode="&#xad;" horiz-adv-x="909" d="M98 625q0 43 21.5 73.5t60.5 30.5h551q37 0 58.5 -30.5t21.5 -71.5t-21.5 -73t-58.5 -32h-551q-39 0 -60.5 31t-21.5 72z" />
<glyph unicode="&#xae;" horiz-adv-x="1929" d="M106 623q0 246 111 441.5t306.5 306t441.5 110.5q245 0 441 -110.5t306.5 -306.5t110.5 -441q0 -244 -110.5 -439.5t-306.5 -306t-441 -110.5q-246 0 -441.5 110.5t-306.5 306t-111 439.5zM289 623q0 -197 87 -352.5t241.5 -243.5t347.5 -88q192 0 345.5 88t240.5 243.5 t87 352.5t-87 353.5t-240.5 244.5t-345.5 88q-193 0 -347.5 -88t-241.5 -245t-87 -353zM592 1016q0 35 17.5 60.5t47.5 25.5h338q158 0 248 -79t90 -216q0 -96 -46 -169t-128 -108l168 -256q14 -23 14 -47q0 -37 -30.5 -63.5t-71.5 -26.5q-53 0 -88 56l-188 305h-111v-301 q0 -27 -30.5 -43.5t-71.5 -16.5t-72 16.5t-31 43.5v655q0 47 19 78h-9q-31 0 -48 25.5t-17 60.5zM852 668h131q68 0 109 36.5t41 100.5q0 63 -41 94t-109 31h-131v-262z" />
<glyph unicode="&#xaf;" d="M223 1438q0 35 19.5 61.5t56.5 26.5h631q37 0 56.5 -26.5t19.5 -63.5q0 -35 -19.5 -61.5t-56.5 -26.5h-631q-37 0 -56.5 26.5t-19.5 63.5z" />
<glyph unicode="&#xb0;" horiz-adv-x="753" d="M45 1161q0 90 43 164t119 115t170 41t170 -41t119 -115t43 -164t-43 -163.5t-119 -114.5t-170 -41t-170 41t-119 114.5t-43 163.5zM201 1161q0 -76 50 -126t126 -50q78 0 127 50t49 126q0 78 -49 127t-127 49q-76 0 -126 -49t-50 -127z" />
<glyph unicode="&#xb1;" d="M90 141q0 37 24.5 63.5t69.5 26.5h858q45 0 71 -26.5t26 -63.5t-26 -63.5t-71 -26.5h-858q-45 0 -69.5 26.5t-24.5 63.5zM90 782q0 35 18.5 60.5t51.5 25.5h356v299q0 43 29.5 68t68.5 25q41 0 70 -25t29 -68v-299h354q33 0 52.5 -25.5t19.5 -60.5t-19.5 -60.5 t-52.5 -25.5h-354v-325q0 -41 -29 -64.5t-70 -23.5t-69.5 23.5t-28.5 64.5v325h-356q-33 0 -51.5 26t-18.5 60z" />
<glyph unicode="&#xb2;" horiz-adv-x="835" d="M94 1249q0 66 47 118t120 81t147 29q143 0 236 -77t93 -233q0 -113 -75.5 -233.5t-200.5 -192.5h235q37 0 56.5 -25.5t19.5 -62.5q0 -35 -19.5 -61.5t-56.5 -26.5h-475q-45 0 -70.5 22.5t-25.5 61.5q0 37 18.5 61.5t49.5 34.5q49 16 129.5 76t143 150t62.5 192 q0 63 -35.5 100t-99.5 37q-41 0 -72.5 -20t-41.5 -53q-20 -66 -91 -66q-47 0 -70.5 25.5t-23.5 62.5z" />
<glyph unicode="&#xb3;" horiz-adv-x="884" d="M94 772q0 45 29 71.5t72 26.5q78 0 106 -67q14 -35 48 -56.5t87 -21.5q57 0 98 33t41 94q0 57 -38 90q-63 -20 -142 -20q-47 0 -72.5 27.5t-25.5 66.5q0 29 23.5 52.5t62.5 23.5q90 0 131 31.5t41 80.5q0 45 -34 70.5t-89 25.5q-43 0 -78 -20t-51 -53q-25 -51 -88 -51 q-43 0 -70.5 23.5t-27.5 66.5q0 59 43 107t115.5 76t158.5 28q154 0 239 -73t85 -200q0 -109 -82 -184q45 -27 72.5 -77t27.5 -124q0 -68 -33.5 -129t-110.5 -101t-198 -40q-106 0 -183 32.5t-117 85t-40 105.5z" />
<glyph unicode="&#xb4;" d="M428 1298q0 31 21 52l276 292q29 31 68 31q51 0 93 -44t42 -95q0 -43 -39 -74l-320 -243q-23 -16 -45 -17q-37 0 -66.5 31t-29.5 67z" />
<glyph unicode="&#xb5;" horiz-adv-x="1366" d="M131 948q0 59 43 94t100 35t99.5 -38t42.5 -105v-537q0 -106 65.5 -155t163.5 -49q117 0 193.5 70.5t76.5 203.5v518q0 45 38 68.5t89 23.5t89 -23.5t38 -68.5v-745q0 -33 21 -70q2 -4 10 -24.5t8 -47.5q0 -53 -41 -83.5t-96 -30.5q-61 0 -104 31.5t-43 93.5q0 37 2 55 q-74 -100 -162 -143.5t-197 -43.5q-139 0 -241 68q92 -254 92 -403q0 -41 -38 -62.5t-89 -21.5q-53 0 -91 21.5t-38 62.5v1159q0 33 -5 52t-14 42q-12 33 -12 53z" />
<glyph unicode="&#xb6;" horiz-adv-x="1234" d="M39 1092q0 92 38 174t113.5 134t184.5 52h647v-1634q0 -37 -28.5 -58.5t-67.5 -21.5q-37 0 -64.5 21.5t-27.5 58.5v1462h-179v-1462q0 -37 -28.5 -58.5t-67.5 -21.5q-37 0 -64.5 21.5t-27.5 58.5v921h-53q-201 0 -288 96.5t-87 256.5z" />
<glyph unicode="&#xb7;" horiz-adv-x="581" d="M135 713q0 68 44 112t112 44t111.5 -44t43.5 -112t-44 -112t-111 -44q-68 0 -112 44t-44 112z" />
<glyph unicode="&#xb8;" d="M383 -340q0 29 18.5 52.5t44.5 23.5q23 0 43 -21q18 -16 54.5 -28.5t74.5 -12.5q45 0 73 19.5t28 56.5q0 33 -22.5 49.5t-53.5 16.5q-20 0 -49 -13q-29 -12 -45 -12q-35 0 -62.5 21.5t-27.5 54.5q0 23 14 45l59 108h162l-57 -92q25 6 55 6q84 0 143.5 -45t59.5 -139 q0 -98 -75 -154.5t-185 -56.5q-74 0 -136.5 19.5t-97.5 54.5q-18 18 -18 47z" />
<glyph unicode="&#xb9;" horiz-adv-x="849" d="M133 653q0 37 19.5 62.5t56.5 25.5h174v402q0 78 12 112l-119 -51q-16 -8 -38 -8q-37 0 -62.5 28.5t-25.5 65.5q0 53 51 78q96 47 163.5 71.5t114.5 24.5q109 0 109 -137v-586h112q37 0 56.5 -25.5t19.5 -62.5q0 -35 -19.5 -61.5t-56.5 -26.5h-491q-37 0 -56.5 26.5 t-19.5 61.5z" />
<glyph unicode="&#xba;" horiz-adv-x="1040" d="M86 1038q0 201 120 322t320 121q195 0 311.5 -120t116.5 -319q0 -133 -54 -234t-152.5 -155.5t-229.5 -54.5q-129 0 -227 54.5t-151.5 154.5t-53.5 231zM295 1042q0 -121 63.5 -193.5t167.5 -72.5q101 0 160 72t59 190q0 121 -62 193t-165 72q-102 0 -162.5 -71 t-60.5 -190z" />
<glyph unicode="&#xbb;" horiz-adv-x="1191" d="M72 954q0 37 24.5 59.5t61.5 22.5q57 0 100 -55l277 -338q39 -45 38 -90q0 -39 -38 -86l-279 -350q-29 -37 -76 -37q-37 0 -66.5 26.5t-29.5 63.5q0 27 18 53l217 332l-219 322q-29 41 -28 77zM612 954q0 37 25 59.5t61 22.5q57 0 101 -55l276 -338q39 -45 39 -90 q0 -39 -39 -86l-278 -350q-29 -37 -76 -37q-37 0 -66.5 26.5t-29.5 63.5q0 27 18 53l217 332l-219 322q-29 41 -29 77z" />
<glyph unicode="&#xbc;" horiz-adv-x="2111" d="M133 653q0 37 19.5 62.5t56.5 25.5h174v402q0 78 12 112l-119 -51q-16 -8 -38 -8q-37 0 -62.5 28.5t-25.5 65.5q0 53 51 78q96 47 163.5 71.5t114.5 24.5q109 0 109 -137v-586h112q37 0 56.5 -25.5t19.5 -62.5q0 -35 -19.5 -61.5t-56.5 -26.5h-491q-37 0 -56.5 26.5 t-19.5 61.5zM508 72q0 37 26 65l1104 1284q23 29 62 29t68.5 -26.5t29.5 -65.5q0 -37 -29 -68l-1077 -1251q-43 -51 -96 -51q-37 0 -62.5 24.5t-25.5 59.5zM1248 285q0 43 30 80q123 147 217.5 276t100.5 172q6 37 34.5 57.5t65.5 20.5q49 0 78 -27.5t29 -72.5 q0 -59 -101.5 -193.5t-212.5 -244.5h209v100q0 43 31 68.5t69 25.5q41 0 70 -24.5t29 -69.5v-100h69q43 0 69 -27t26 -63q0 -35 -25 -60.5t-70 -25.5h-69v-129q0 -29 -31 -46.5t-70 -17.5t-66.5 16.5t-27.5 47.5v59q0 39 25 70h-367q-53 0 -82.5 32.5t-29.5 75.5z" />
<glyph unicode="&#xbd;" horiz-adv-x="2244" d="M133 653q0 37 19.5 62.5t56.5 25.5h174v402q0 78 12 112l-119 -51q-16 -8 -38 -8q-37 0 -62.5 28.5t-25.5 65.5q0 53 51 78q96 47 163.5 71.5t114.5 24.5q109 0 109 -137v-586h112q37 0 56.5 -25.5t19.5 -62.5q0 -35 -19.5 -61.5t-56.5 -26.5h-491q-37 0 -56.5 26.5 t-19.5 61.5zM533 74q0 37 26 65l1104 1284q23 29 62 29t68.5 -26.5t29.5 -65.5q0 -37 -29 -68l-1077 -1251q-43 -51 -96 -51q-37 0 -62.5 24.5t-25.5 59.5zM1493 684q0 66 47 118t120 81t147 29q143 0 236 -77t93 -233q0 -113 -75.5 -233.5t-200.5 -192.5h235 q37 0 56.5 -25.5t19.5 -62.5q0 -35 -19.5 -61.5t-56.5 -26.5h-475q-45 0 -70.5 22.5t-25.5 61.5q0 37 18.5 61.5t49.5 34.5q49 16 129.5 76t143 150t62.5 192q0 63 -35.5 100t-99.5 37q-41 0 -72.5 -20t-41.5 -53q-20 -66 -91 -66q-47 0 -70.5 25.5t-23.5 62.5z" />
<glyph unicode="&#xbe;" horiz-adv-x="2131" d="M94 772q0 45 29 71.5t72 26.5q78 0 106 -67q14 -35 48 -56.5t87 -21.5q57 0 98 33t41 94q0 57 -38 90q-63 -20 -142 -20q-47 0 -72.5 27.5t-25.5 66.5q0 29 23.5 52.5t62.5 23.5q90 0 131 31.5t41 80.5q0 45 -34 70.5t-89 25.5q-43 0 -78 -20t-51 -53q-25 -51 -88 -51 q-43 0 -70.5 23.5t-27.5 66.5q0 59 43 107t115.5 76t158.5 28q154 0 239 -73t85 -200q0 -109 -82 -184q45 -27 72.5 -77t27.5 -124q0 -68 -33.5 -129t-110.5 -101t-198 -40q-106 0 -183 32.5t-117 85t-40 105.5zM533 74q0 37 26 65l1104 1284q23 29 62 29t68.5 -26.5 t29.5 -65.5q0 -37 -29 -68l-1077 -1251q-43 -51 -96 -51q-37 0 -62.5 24.5t-25.5 59.5zM1268 285q0 43 30 80q123 147 217.5 276t100.5 172q6 37 34.5 57.5t65.5 20.5q49 0 78 -27.5t29 -72.5q0 -59 -101.5 -193.5t-212.5 -244.5h209v100q0 43 31 68.5t69 25.5 q41 0 70 -24.5t29 -69.5v-100h69q43 0 69 -27t26 -63q0 -35 -25 -60.5t-70 -25.5h-69v-129q0 -29 -31 -46.5t-70 -17.5t-66.5 16.5t-27.5 47.5v59q0 39 25 70h-367q-53 0 -82.5 32.5t-29.5 75.5z" />
<glyph unicode="&#xbf;" horiz-adv-x="948" d="M49 -78q0 125 58.5 211t160.5 180q66 61 94.5 97t30.5 75l4 109q2 31 33 48t70 17q41 0 71.5 -17t32.5 -48l4 -107q2 -86 -34.5 -143t-112.5 -127q-55 -53 -86 -89t-52.5 -86t-21.5 -116q0 -70 49 -110.5t133 -40.5q92 0 138.5 41t52.5 102q2 39 34.5 61.5t75.5 22.5 q47 0 81 -26.5t34 -75.5q0 -92 -60.5 -161t-159.5 -105.5t-210 -36.5q-197 0 -308.5 86t-111.5 239zM344 950q0 68 44 112t112 44q67 0 111 -44t44 -112t-44 -111.5t-111 -43.5q-68 0 -112 44t-44 111z" />
<glyph unicode="&#xc0;" horiz-adv-x="1269" d="M6 100q0 27 10 52l514 1126q-14 33 -14 76q0 55 37 82.5t90 27.5q45 0 79 -21.5t50 -64.5l483 -1241q8 -20 9 -43q0 -45 -37 -77.5t-86 -32.5q-39 0 -74 22.5t-51 67.5l-98 260h-556l-118 -277q-14 -35 -41 -54t-78 -19q-57 0 -88 34.5t-31 81.5zM417 1878q0 49 38 92 t85 43q35 0 64 -26l288 -269q27 -25 27 -55q0 -35 -28.5 -63.5t-63.5 -28.5q-21 0 -39 12l-328 217q-43 29 -43 78zM461 559h373l-105 279q-43 117 -72 235q-25 -119 -75 -235z" />
<glyph unicode="&#xc1;" horiz-adv-x="1269" d="M6 100q0 27 10 52l514 1126q-14 33 -14 76q0 55 37 82.5t90 27.5q45 0 79 -21.5t50 -64.5l483 -1241q8 -20 9 -43q0 -45 -37 -77.5t-86 -32.5q-39 0 -74 22.5t-51 67.5l-98 260h-556l-118 -277q-14 -35 -41 -54t-78 -19q-57 0 -88 34.5t-31 81.5zM417 1663q0 31 27 55 l289 269q29 27 63 26q47 0 85 -43t38 -92t-43 -78l-328 -217q-18 -12 -39 -12q-36 0 -64 28.5t-28 63.5zM461 559h373l-105 279q-43 117 -72 235q-25 -119 -75 -235z" />
<glyph unicode="&#xc2;" horiz-adv-x="1269" d="M6 100q0 27 10 52l514 1126q-14 33 -14 76q0 55 37 82.5t90 27.5q45 0 79 -21.5t50 -64.5l483 -1241q8 -20 9 -43q0 -45 -37 -77.5t-86 -32.5q-39 0 -74 22.5t-51 67.5l-98 260h-556l-118 -277q-14 -35 -41 -54t-78 -19q-57 0 -88 34.5t-31 81.5zM254 1659q0 43 49 76 l226 149q51 33 72.5 44t41.5 11t44 -12t71 -43l227 -151q45 -29 45 -74q0 -33 -23.5 -58.5t-51.5 -25.5q-13 0 -25 6l-287 145l-286 -141q-12 -6 -25 -6q-29 0 -53.5 24.5t-24.5 55.5zM461 559h373l-105 279q-43 117 -72 235q-25 -119 -75 -235z" />
<glyph unicode="&#xc3;" horiz-adv-x="1269" d="M6 100q0 27 10 52l514 1126q-14 33 -14 76q0 55 37 82.5t90 27.5q45 0 79 -21.5t50 -64.5l483 -1241q8 -20 9 -43q0 -45 -37 -77.5t-86 -32.5q-39 0 -74 22.5t-51 67.5l-98 260h-556l-118 -277q-14 -35 -41 -54t-78 -19q-57 0 -88 34.5t-31 81.5zM200 1647 q0 84 50.5 161.5t169.5 77.5q63 0 120.5 -16.5t133.5 -46.5q63 -25 101 -36t73 -11q23 0 45 17t24 42q2 27 26.5 41t57.5 14q35 0 59.5 -19.5t24.5 -55.5q0 -94 -52 -162t-153 -68q-63 0 -123.5 16.5t-140.5 47.5q-68 25 -107.5 36t-76.5 11q-33 0 -47.5 -23.5t-16.5 -48.5 t-24.5 -37t-54.5 -12q-35 0 -62 19.5t-27 52.5zM461 559h373l-105 279q-43 117 -72 235q-25 -119 -75 -235z" />
<glyph unicode="&#xc4;" horiz-adv-x="1269" d="M6 100q0 27 10 52l514 1126q-14 33 -14 76q0 55 37 82.5t90 27.5q45 0 79 -21.5t50 -64.5l483 -1241q8 -20 9 -43q0 -45 -37 -77.5t-86 -32.5q-39 0 -74 22.5t-51 67.5l-98 260h-556l-118 -277q-14 -35 -41 -54t-78 -19q-57 0 -88 34.5t-31 81.5zM283 1745q0 59 39 97 t98 38t98 -38t39 -97t-38.5 -97t-98.5 -38q-59 0 -98 38t-39 97zM461 559h373l-105 279q-43 117 -72 235q-25 -119 -75 -235zM729 1745q0 59 39 97t99 38q59 0 98 -38t39 -97t-39 -97t-98 -38q-60 0 -99 38t-39 97z" />
<glyph unicode="&#xc5;" horiz-adv-x="1269" d="M6 100q0 27 10 52l514 1126q-14 33 -14 76q0 55 37 82.5t90 27.5q45 0 79 -21.5t50 -64.5l483 -1241q8 -20 9 -43q0 -45 -37 -77.5t-86 -32.5q-39 0 -74 22.5t-51 67.5l-98 260h-556l-118 -277q-14 -35 -41 -54t-78 -19q-57 0 -88 34.5t-31 81.5zM365 1829 q0 113 79 186.5t199 73.5q121 0 200 -73.5t79 -186.5t-79 -186.5t-200 -73.5q-120 0 -199 73.5t-79 186.5zM461 559h373l-105 279q-43 117 -72 235q-25 -119 -75 -235zM523 1829q0 -53 33.5 -89t86.5 -36q52 0 85.5 36t33.5 89t-33.5 89t-85.5 36q-53 0 -86.5 -36t-33.5 -89 z" />
<glyph unicode="&#xc6;" horiz-adv-x="2129" d="M84 92q0 41 27 88l692 1215q16 29 36.5 43t55.5 14h1038q35 0 55.5 -36t20.5 -83t-20.5 -83t-55.5 -36h-575v-387h536q33 0 50.5 -34.5t17.5 -81.5t-17.5 -82t-50.5 -35h-536v-358h575q37 0 56.5 -35t19.5 -82q0 -49 -18.5 -84t-53.5 -35h-704q-63 0 -100 34t-37 103v197 h-621l-143 -258q-23 -41 -59.5 -66.5t-71.5 -25.5q-51 0 -84 30.5t-33 77.5zM600 559h496v655h-131z" />
<glyph unicode="&#xc7;" horiz-adv-x="1443" d="M139 705q0 231 84 407t238.5 272.5t359.5 96.5q199 0 339 -83t181 -222q6 -20 7 -43q0 -51 -36 -82t-95 -31q-41 0 -72 17.5t-37 43.5q-16 70 -104.5 121t-190.5 51q-125 0 -217 -67.5t-142.5 -191.5t-50.5 -289q0 -231 106.5 -368.5t287.5 -137.5q119 0 194.5 44 t116.5 134q35 78 123 78q55 0 91 -36t36 -89q0 -27 -10 -54q-51 -129 -180.5 -208.5t-305.5 -94.5l-28 -45q25 6 55 6q84 0 143.5 -45t59.5 -139q0 -98 -75 -154.5t-186 -56.5q-74 0 -136 19.5t-97 54.5q-18 18 -18 47t18 52.5t45 23.5q23 0 43 -21q18 -16 54 -28.5 t75 -12.5q45 0 72.5 19.5t27.5 56.5q0 33 -22.5 49.5t-52.5 16.5q-20 0 -49 -13q-29 -12 -46 -12q-35 0 -62.5 21.5t-27.5 54.5q0 23 15 45l35 63q-174 18 -301.5 112.5t-196 252.5t-68.5 365z" />
<glyph unicode="&#xc8;" horiz-adv-x="1236" d="M137 1339q0 49 28 81t68 32h807q33 0 54.5 -31.5t21.5 -81.5q0 -51 -21.5 -82.5t-54.5 -31.5h-577v-391h538q29 0 48.5 -31t19.5 -80q0 -47 -19.5 -79t-48.5 -32h-538v-385h577q33 0 54.5 -31.5t21.5 -82.5q0 -49 -20.5 -81t-51.5 -32h-704q-66 0 -101.5 36t-35.5 101 v932q0 51 25.5 92t70.5 64h-66q-41 0 -68.5 32.5t-27.5 81.5zM397 1878q0 49 38 92t85 43q35 0 64 -26l288 -269q27 -25 27 -55q0 -35 -28.5 -63.5t-63.5 -28.5q-21 0 -39 12l-328 217q-43 29 -43 78z" />
<glyph unicode="&#xc9;" horiz-adv-x="1236" d="M137 1339q0 49 28 81t68 32h807q33 0 54.5 -31.5t21.5 -81.5q0 -51 -21.5 -82.5t-54.5 -31.5h-577v-391h538q29 0 48.5 -31t19.5 -80q0 -47 -19.5 -79t-48.5 -32h-538v-385h577q33 0 54.5 -31.5t21.5 -82.5q0 -49 -20.5 -81t-51.5 -32h-704q-66 0 -101.5 36t-35.5 101 v932q0 51 25.5 92t70.5 64h-66q-41 0 -68.5 32.5t-27.5 81.5zM397 1663q0 31 27 55l289 269q29 27 63 26q47 0 85 -43t38 -92t-43 -78l-328 -217q-18 -12 -39 -12q-36 0 -64 28.5t-28 63.5z" />
<glyph unicode="&#xca;" horiz-adv-x="1236" d="M137 1339q0 49 28 81t68 32h807q33 0 54.5 -31.5t21.5 -81.5q0 -51 -21.5 -82.5t-54.5 -31.5h-577v-391h538q29 0 48.5 -31t19.5 -80q0 -47 -19.5 -79t-48.5 -32h-538v-385h577q33 0 54.5 -31.5t21.5 -82.5q0 -49 -20.5 -81t-51.5 -32h-704q-66 0 -101.5 36t-35.5 101 v932q0 51 25.5 92t70.5 64h-66q-41 0 -68.5 32.5t-27.5 81.5zM233 1659q0 43 49 76l226 149q51 33 72.5 44t41.5 11t44 -12t71 -43l227 -151q45 -29 45 -74q0 -33 -23.5 -58.5t-51.5 -25.5q-13 0 -25 6l-287 145l-286 -141q-12 -6 -25 -6q-29 0 -53.5 24.5t-24.5 55.5z" />
<glyph unicode="&#xcb;" horiz-adv-x="1236" d="M137 1339q0 49 28 81t68 32h807q33 0 54.5 -31.5t21.5 -81.5q0 -51 -21.5 -82.5t-54.5 -31.5h-577v-391h538q29 0 48.5 -31t19.5 -80q0 -47 -19.5 -79t-48.5 -32h-538v-385h577q33 0 54.5 -31.5t21.5 -82.5q0 -49 -20.5 -81t-51.5 -32h-704q-66 0 -101.5 36t-35.5 101 v932q0 51 25.5 92t70.5 64h-66q-41 0 -68.5 32.5t-27.5 81.5zM262 1745q0 59 39 97t98 38t98 -38t39 -97t-38.5 -97t-98.5 -38q-59 0 -98 38t-39 97zM708 1745q0 59 39 97t99 38q59 0 98 -38t39 -97t-39 -97t-98 -38q-60 0 -99 38t-39 97z" />
<glyph unicode="&#xcc;" horiz-adv-x="690" d="M121 1878q0 49 38 92t85 43q35 0 64 -26l288 -269q27 -25 27 -55q0 -35 -28.5 -63.5t-63.5 -28.5q-21 0 -39 12l-328 217q-43 29 -43 78zM215 74v1300q0 43 39 66.5t92 23.5t91 -23.5t38 -66.5v-1300q0 -41 -39 -65.5t-90 -24.5q-53 0 -92 24.5t-39 65.5z" />
<glyph unicode="&#xcd;" horiz-adv-x="690" d="M121 1663q0 31 27 55l289 269q29 27 63 26q47 0 85 -43t38 -92t-43 -78l-328 -217q-18 -12 -39 -12q-36 0 -64 28.5t-28 63.5zM215 74v1300q0 43 39 66.5t92 23.5t91 -23.5t38 -66.5v-1300q0 -41 -39 -65.5t-90 -24.5q-53 0 -92 24.5t-39 65.5z" />
<glyph unicode="&#xce;" horiz-adv-x="690" d="M-43 1659q0 43 49 76l226 149q51 33 72.5 44t41.5 11t44 -12t71 -43l227 -151q45 -29 45 -74q0 -33 -23.5 -58.5t-51.5 -25.5q-13 0 -25 6l-287 145l-286 -141q-12 -6 -25 -6q-29 0 -53.5 24.5t-24.5 55.5zM215 74v1300q0 43 39 66.5t92 23.5t91 -23.5t38 -66.5v-1300 q0 -41 -39 -65.5t-90 -24.5q-53 0 -92 24.5t-39 65.5z" />
<glyph unicode="&#xcf;" horiz-adv-x="690" d="M-14 1745q0 59 39 97t98 38t98 -38t39 -97t-38.5 -97t-98.5 -38q-59 0 -98 38t-39 97zM215 74v1300q0 43 39 66.5t92 23.5t91 -23.5t38 -66.5v-1300q0 -41 -39 -65.5t-90 -24.5q-53 0 -92 24.5t-39 65.5zM432 1745q0 59 39 97t99 38q59 0 98 -38t39 -97t-39 -97t-98 -38 q-60 0 -99 38t-39 97z" />
<glyph unicode="&#xd0;" horiz-adv-x="1554" d="M29 696q0 43 23.5 76t66.5 33h92v264q0 51 25.5 92t70.5 64h-67q-41 0 -68 31.5t-27 82.5q0 49 27 81t68 32h475q336 0 518 -189.5t182 -539.5q0 -213 -88 -377t-246.5 -255t-363.5 -91h-426q-37 0 -58.5 22.5t-21.5 61.5v502h-92q-43 0 -66.5 32.5t-23.5 77.5zM471 227 h225q135 0 238.5 61.5t160 173t56.5 257.5q0 254 -112.5 380t-342.5 126h-225v-420h191q43 0 66.5 -33t23.5 -76q0 -45 -23.5 -77.5t-66.5 -32.5h-191v-359z" />
<glyph unicode="&#xd1;" horiz-adv-x="1552" d="M174 1343q0 49 40 85t108 36q49 0 74.5 -20.5t64.5 -69.5l409 -547q78 -104 167 -269t126 -284q-55 387 -55 537v561q0 45 37 68.5t84 23.5q51 0 86 -23.5t35 -68.5v-1306q0 -37 -37 -59.5t-86 -22.5t-86 22.5t-37 59.5q0 25 -16.5 52t-57.5 83l-29 37l-530 714 q-45 59 -92 144q4 -14 22.5 -81t28.5 -134.5t10 -126.5v-688q0 -37 -36.5 -59.5t-84.5 -22.5q-47 0 -83.5 22.5t-36.5 59.5v1165q-25 72 -25 112zM319 1647q0 84 50.5 161.5t169.5 77.5q63 0 120.5 -16.5t133.5 -46.5q63 -25 101 -36t73 -11q23 0 45 17t24 42q2 27 26.5 41 t57.5 14q35 0 59.5 -19.5t24.5 -55.5q0 -94 -52 -162t-153 -68q-63 0 -123.5 16.5t-140.5 47.5q-68 25 -107.5 36t-76.5 11q-33 0 -47.5 -23.5t-16.5 -48.5t-24.5 -37t-54.5 -12q-35 0 -62 19.5t-27 52.5z" />
<glyph unicode="&#xd2;" horiz-adv-x="1613" d="M139 721q0 231 82 403t232.5 264.5t353.5 92.5q205 0 355.5 -92.5t231.5 -263.5t81 -400q0 -227 -81 -398t-232.5 -263.5t-354.5 -92.5q-205 0 -355.5 91.5t-231.5 261.5t-81 397zM403 725q0 -244 109 -385t299 -141q186 0 292.5 140t106.5 382q0 248 -108.5 390 t-298.5 142q-186 0 -293 -141t-107 -387zM581 1878q0 49 38 92t85 43q35 0 64 -26l288 -269q27 -25 27 -55q0 -35 -28.5 -63.5t-63.5 -28.5q-21 0 -39 12l-328 217q-43 29 -43 78z" />
<glyph unicode="&#xd3;" horiz-adv-x="1613" d="M139 721q0 231 82 403t232.5 264.5t353.5 92.5q205 0 355.5 -92.5t231.5 -263.5t81 -400q0 -227 -81 -398t-232.5 -263.5t-354.5 -92.5q-205 0 -355.5 91.5t-231.5 261.5t-81 397zM403 725q0 -244 109 -385t299 -141q186 0 292.5 140t106.5 382q0 248 -108.5 390 t-298.5 142q-186 0 -293 -141t-107 -387zM581 1663q0 31 27 55l289 269q29 27 63 26q47 0 85 -43t38 -92t-43 -78l-328 -217q-18 -12 -39 -12q-36 0 -64 28.5t-28 63.5z" />
<glyph unicode="&#xd4;" horiz-adv-x="1613" d="M139 721q0 231 82 403t232.5 264.5t353.5 92.5q205 0 355.5 -92.5t231.5 -263.5t81 -400q0 -227 -81 -398t-232.5 -263.5t-354.5 -92.5q-205 0 -355.5 91.5t-231.5 261.5t-81 397zM403 725q0 -244 109 -385t299 -141q186 0 292.5 140t106.5 382q0 248 -108.5 390 t-298.5 142q-186 0 -293 -141t-107 -387zM418 1659q0 43 49 76l226 149q51 33 72.5 44t41.5 11t44 -12t71 -43l227 -151q45 -29 45 -74q0 -33 -23.5 -58.5t-51.5 -25.5q-13 0 -25 6l-287 145l-286 -141q-12 -6 -25 -6q-29 0 -53.5 24.5t-24.5 55.5z" />
<glyph unicode="&#xd5;" horiz-adv-x="1613" d="M139 721q0 231 82 403t232.5 264.5t353.5 92.5q205 0 355.5 -92.5t231.5 -263.5t81 -400q0 -227 -81 -398t-232.5 -263.5t-354.5 -92.5q-205 0 -355.5 91.5t-231.5 261.5t-81 397zM364 1647q0 84 50.5 161.5t169.5 77.5q63 0 120.5 -16.5t133.5 -46.5q63 -25 101 -36 t73 -11q23 0 45 17t24 42q2 27 26.5 41t57.5 14q35 0 59.5 -19.5t24.5 -55.5q0 -94 -52 -162t-153 -68q-63 0 -123.5 16.5t-140.5 47.5q-68 25 -107.5 36t-76.5 11q-33 0 -47.5 -23.5t-16.5 -48.5t-24.5 -37t-54.5 -12q-35 0 -62 19.5t-27 52.5zM403 725q0 -244 109 -385 t299 -141q186 0 292.5 140t106.5 382q0 248 -108.5 390t-298.5 142q-186 0 -293 -141t-107 -387z" />
<glyph unicode="&#xd6;" horiz-adv-x="1613" d="M139 721q0 231 82 403t232.5 264.5t353.5 92.5q205 0 355.5 -92.5t231.5 -263.5t81 -400q0 -227 -81 -398t-232.5 -263.5t-354.5 -92.5q-205 0 -355.5 91.5t-231.5 261.5t-81 397zM403 725q0 -244 109 -385t299 -141q186 0 292.5 140t106.5 382q0 248 -108.5 390 t-298.5 142q-186 0 -293 -141t-107 -387zM447 1745q0 59 39 97t98 38t98 -38t39 -97t-38.5 -97t-98.5 -38q-59 0 -98 38t-39 97zM893 1745q0 59 39 97t99 38q59 0 98 -38t39 -97t-39 -97t-98 -38q-60 0 -99 38t-39 97z" />
<glyph unicode="&#xd7;" horiz-adv-x="1048" d="M82 387q0 33 24 57l267 267l-267 266q-25 25 -24 57q0 45 37 83t82 38q33 0 57 -25l268 -266l262 262q27 27 62 27q45 0 81 -37t36 -80q0 -35 -27 -61l-262 -262l262 -264q27 -27 27 -62q0 -45 -37 -81t-80 -36q-37 0 -62 25l-264 264l-266 -266q-25 -25 -57 -25 q-43 0 -81 37t-38 82z" />
<glyph unicode="&#xd8;" horiz-adv-x="1613" d="M139 721q0 231 82 403t232.5 264.5t353.5 92.5q147 0 274 -51l86 149q12 20 33 30.5t43 10.5q51 0 98.5 -37t47.5 -84q0 -23 -11 -41l-96 -168q92 -100 142.5 -243.5t50.5 -321.5q0 -227 -81 -398t-232.5 -263.5t-354.5 -92.5q-139 0 -262 45l-92 -159q-23 -41 -74 -41 t-98.5 37.5t-47.5 85.5q0 20 11 38l98 173q-98 98 -150.5 244.5t-52.5 326.5zM403 725q0 -205 78 -338l480 836q-70 31 -158 30q-186 0 -293 -141t-107 -387zM666 225q61 -27 145 -26q186 0 292.5 140t106.5 382q0 195 -69 328z" />
<glyph unicode="&#xd9;" horiz-adv-x="1501" d="M160 532v842q0 43 39 66.5t92 23.5t91 -23.5t38 -66.5v-837q0 -154 89 -246t245 -92q150 0 237.5 92t87.5 246v837q0 43 39 66.5t92 23.5t91 -23.5t38 -66.5v-842q0 -156 -72.5 -283.5t-206.5 -202.5t-310 -75q-177 0 -311 75t-206.5 203t-72.5 283zM526 1878q0 49 38 92 t85 43q35 0 64 -26l288 -269q27 -25 27 -55q0 -35 -28.5 -63.5t-63.5 -28.5q-21 0 -39 12l-328 217q-43 29 -43 78z" />
<glyph unicode="&#xda;" horiz-adv-x="1501" d="M160 532v842q0 43 39 66.5t92 23.5t91 -23.5t38 -66.5v-837q0 -154 89 -246t245 -92q150 0 237.5 92t87.5 246v837q0 43 39 66.5t92 23.5t91 -23.5t38 -66.5v-842q0 -156 -72.5 -283.5t-206.5 -202.5t-310 -75q-177 0 -311 75t-206.5 203t-72.5 283zM526 1663q0 31 27 55 l289 269q29 27 63 26q47 0 85 -43t38 -92t-43 -78l-328 -217q-18 -12 -39 -12q-36 0 -64 28.5t-28 63.5z" />
<glyph unicode="&#xdb;" horiz-adv-x="1501" d="M160 532v842q0 43 39 66.5t92 23.5t91 -23.5t38 -66.5v-837q0 -154 89 -246t245 -92q150 0 237.5 92t87.5 246v837q0 43 39 66.5t92 23.5t91 -23.5t38 -66.5v-842q0 -156 -72.5 -283.5t-206.5 -202.5t-310 -75q-177 0 -311 75t-206.5 203t-72.5 283zM362 1659q0 43 49 76 l226 149q51 33 72.5 44t41.5 11t44 -12t71 -43l227 -151q45 -29 45 -74q0 -33 -23.5 -58.5t-51.5 -25.5q-13 0 -25 6l-287 145l-286 -141q-12 -6 -25 -6q-29 0 -53.5 24.5t-24.5 55.5z" />
<glyph unicode="&#xdc;" horiz-adv-x="1501" d="M160 532v842q0 43 39 66.5t92 23.5t91 -23.5t38 -66.5v-837q0 -154 89 -246t245 -92q150 0 237.5 92t87.5 246v837q0 43 39 66.5t92 23.5t91 -23.5t38 -66.5v-842q0 -156 -72.5 -283.5t-206.5 -202.5t-310 -75q-177 0 -311 75t-206.5 203t-72.5 283zM391 1745q0 59 39 97 t98 38t98 -38t39 -97t-38.5 -97t-98.5 -38q-59 0 -98 38t-39 97zM837 1745q0 59 39 97t99 38q59 0 98 -38t39 -97t-39 -97t-98 -38q-60 0 -99 38t-39 97z" />
<glyph unicode="&#xdd;" horiz-adv-x="1171" d="M18 1348q0 51 41 83.5t93 32.5q27 0 56.5 -14t43.5 -41l225 -420q35 -61 58.5 -116.5t60.5 -165.5q31 92 54.5 146t66.5 136l108 203q29 53 47.5 101t18.5 71q0 47 38 73.5t99 26.5q55 0 92 -27.5t37 -72.5q0 -35 -16.5 -93.5t-53.5 -121.5l-362 -623v-473q0 -31 -39 -50 t-90 -19q-53 0 -92 19.5t-39 49.5v473l-426 750q-12 23 -16.5 36t-4.5 36zM360 1663q0 31 27 55l289 269q29 27 63 26q47 0 85 -43t38 -92t-43 -78l-328 -217q-18 -12 -39 -12q-36 0 -64 28.5t-28 63.5z" />
<glyph unicode="&#xde;" horiz-adv-x="1318" d="M203 78v1302q0 43 40 69t93 26t91 -25t38 -70v-194h240q166 0 290.5 -55.5t192 -158t67.5 -239.5q0 -139 -67.5 -242.5t-192.5 -159t-290 -55.5h-240v-198q0 -43 -38 -68.5t-91 -25.5t-93 25.5t-40 68.5zM465 504h262q111 0 180.5 63.5t69.5 163.5q0 98 -70.5 161.5 t-179.5 63.5h-262v-452z" />
<glyph unicode="&#xdf;" horiz-adv-x="1355" d="M152 84v911q0 156 59 283t182 202.5t307 75.5q160 0 283 -82.5t190.5 -225t71.5 -314.5q-82 12 -141 12q-100 0 -143 -29.5t-43 -78.5q0 -41 35.5 -75t113.5 -85q80 -51 132 -94t89 -107.5t37 -150.5q0 -102 -52 -180t-139 -120t-190 -42q-113 0 -194.5 36.5t-124.5 90 t-43 100.5q0 53 40 87t89 34q59 0 80 -47q14 -31 52 -57.5t93 -26.5q70 0 107.5 32.5t37.5 90.5q0 55 -42 95t-134 99q-82 51 -131 91t-85 99.5t-36 139.5q0 115 80 188.5t219 83.5q-33 111 -98.5 167t-173.5 56q-127 0 -202 -93t-75 -240v-926q0 -47 -37.5 -73.5 t-86.5 -26.5q-51 0 -89 26.5t-38 73.5z" />
<glyph unicode="&#xe0;" horiz-adv-x="1247" d="M137 293q0 158 117 239.5t330 120.5q133 25 188 53.5t55 77.5q0 106 -192 107q-80 0 -147.5 -25.5t-86.5 -62.5q-35 -72 -118 -72q-43 0 -80 28.5t-37 84.5q0 61 67.5 122.5t177 100.5t224.5 39q199 0 322.5 -85t123.5 -286v-481q0 -27 10.5 -46.5t28.5 -41.5 q31 -35 31 -60q0 -53 -47 -87.5t-109 -34.5q-68 0 -113.5 38.5t-45.5 114.5q0 25 10 60q-68 -102 -166 -161t-215 -59q-143 0 -235.5 83t-92.5 233zM358 1534q0 51 42 95t93 44q39 0 68 -31l276 -292q20 -20 21 -52q0 -37 -29.5 -67.5t-66.5 -30.5q-22 1 -45 17l-320 243 q-39 31 -39 74zM391 322q0 -66 40 -99t108 -33q57 0 124.5 23t115.5 73t48 128v172q-20 -31 -94 -64t-170 -55q-172 -39 -172 -145z" />
<glyph unicode="&#xe1;" horiz-adv-x="1247" d="M137 293q0 158 117 239.5t330 120.5q133 25 188 53.5t55 77.5q0 106 -192 107q-80 0 -147.5 -25.5t-86.5 -62.5q-35 -72 -118 -72q-43 0 -80 28.5t-37 84.5q0 61 67.5 122.5t177 100.5t224.5 39q199 0 322.5 -85t123.5 -286v-481q0 -27 10.5 -46.5t28.5 -41.5 q31 -35 31 -60q0 -53 -47 -87.5t-109 -34.5q-68 0 -113.5 38.5t-45.5 114.5q0 25 10 60q-68 -102 -166 -161t-215 -59q-143 0 -235.5 83t-92.5 233zM391 322q0 -66 40 -99t108 -33q57 0 124.5 23t115.5 73t48 128v172q-20 -31 -94 -64t-170 -55q-172 -39 -172 -145z M391 1298q0 31 21 52l276 292q29 31 68 31q51 0 93 -44t42 -95q0 -43 -39 -74l-320 -243q-23 -16 -45 -17q-37 0 -66.5 31t-29.5 67z" />
<glyph unicode="&#xe2;" horiz-adv-x="1247" d="M137 293q0 158 117 239.5t330 120.5q133 25 188 53.5t55 77.5q0 106 -192 107q-80 0 -147.5 -25.5t-86.5 -62.5q-35 -72 -118 -72q-43 0 -80 28.5t-37 84.5q0 61 67.5 122.5t177 100.5t224.5 39q199 0 322.5 -85t123.5 -286v-481q0 -27 10.5 -46.5t28.5 -41.5 q31 -35 31 -60q0 -53 -47 -87.5t-109 -34.5q-68 0 -113.5 38.5t-45.5 114.5q0 25 10 60q-68 -102 -166 -161t-215 -59q-143 0 -235.5 83t-92.5 233zM245 1288q0 23 15 39l254 277q45 51 116 51q72 0 117 -51l254 -277q14 -16 14 -39q0 -31 -25.5 -58.5t-55.5 -27.5 q-18 0 -31 10l-273 201l-272 -201q-12 -10 -31 -10q-30 0 -56 27.5t-26 58.5zM391 322q0 -66 40 -99t108 -33q57 0 124.5 23t115.5 73t48 128v172q-20 -31 -94 -64t-170 -55q-172 -39 -172 -145z" />
<glyph unicode="&#xe3;" horiz-adv-x="1247" d="M137 293q0 158 117 239.5t330 120.5q133 25 188 53.5t55 77.5q0 106 -192 107q-80 0 -147.5 -25.5t-86.5 -62.5q-35 -72 -118 -72q-43 0 -80 28.5t-37 84.5q0 61 67.5 122.5t177 100.5t224.5 39q199 0 322.5 -85t123.5 -286v-481q0 -27 10.5 -46.5t28.5 -41.5 q31 -35 31 -60q0 -53 -47 -87.5t-109 -34.5q-68 0 -113.5 38.5t-45.5 114.5q0 25 10 60q-68 -102 -166 -161t-215 -59q-143 0 -235.5 83t-92.5 233zM248 1374q0 84 49 162t168 78q49 0 88 -15.5t90 -46.5q39 -25 68.5 -37t60.5 -12q23 0 45.5 17.5t24.5 42.5q2 27 26.5 41 t57.5 14q35 0 59.5 -19.5t24.5 -56.5q0 -94 -51.5 -161.5t-147.5 -67.5q-63 0 -113.5 18.5t-107.5 50.5q-39 20 -63.5 30.5t-47.5 10.5q-33 0 -47 -23.5t-16 -47.5q-2 -25 -24.5 -37t-55.5 -12q-35 0 -61.5 19t-26.5 52zM391 322q0 -66 40 -99t108 -33q57 0 124.5 23 t115.5 73t48 128v172q-20 -31 -94 -64t-170 -55q-172 -39 -172 -145z" />
<glyph unicode="&#xe4;" horiz-adv-x="1247" d="M137 293q0 158 117 239.5t330 120.5q133 25 188 53.5t55 77.5q0 106 -192 107q-80 0 -147.5 -25.5t-86.5 -62.5q-35 -72 -118 -72q-43 0 -80 28.5t-37 84.5q0 61 67.5 122.5t177 100.5t224.5 39q199 0 322.5 -85t123.5 -286v-481q0 -27 10.5 -46.5t28.5 -41.5 q31 -35 31 -60q0 -53 -47 -87.5t-109 -34.5q-68 0 -113.5 38.5t-45.5 114.5q0 25 10 60q-68 -102 -166 -161t-215 -59q-143 0 -235.5 83t-92.5 233zM268 1352q0 59 39 97t98 38t98 -38t39 -97t-38.5 -97t-98.5 -38q-59 0 -98 37.5t-39 97.5zM391 322q0 -66 40 -99t108 -33 q57 0 124.5 23t115.5 73t48 128v172q-20 -31 -94 -64t-170 -55q-172 -39 -172 -145zM714 1352q0 59 39 97t99 38q59 0 98 -38t39 -97t-39 -97t-98 -38q-60 0 -99 37.5t-39 97.5z" />
<glyph unicode="&#xe5;" horiz-adv-x="1247" d="M137 293q0 158 117 239.5t330 120.5q133 25 188 53.5t55 77.5q0 106 -192 107q-80 0 -147.5 -25.5t-86.5 -62.5q-35 -72 -118 -72q-43 0 -80 28.5t-37 84.5q0 61 67.5 122.5t177 100.5t224.5 39q199 0 322.5 -85t123.5 -286v-481q0 -27 10.5 -46.5t28.5 -41.5 q31 -35 31 -60q0 -53 -47 -87.5t-109 -34.5q-68 0 -113.5 38.5t-45.5 114.5q0 25 10 60q-68 -102 -166 -161t-215 -59q-143 0 -235.5 83t-92.5 233zM350 1450q0 113 79 186.5t199 73.5q121 0 200 -73.5t79 -186.5t-79 -186.5t-200 -73.5q-120 0 -199 73.5t-79 186.5z M391 322q0 -66 40 -99t108 -33q57 0 124.5 23t115.5 73t48 128v172q-20 -31 -94 -64t-170 -55q-172 -39 -172 -145zM516 1450q0 -49 31.5 -82t80.5 -33q48 0 79.5 33t31.5 82t-31.5 82t-79.5 33q-49 0 -80.5 -33t-31.5 -82z" />
<glyph unicode="&#xe6;" horiz-adv-x="1974" d="M137 293q0 156 115 235.5t332 124.5q115 25 179 54.5t64 72.5q0 51 -50 77t-142 26q-78 0 -143.5 -26t-90.5 -62q-43 -68 -131 -68q-39 0 -71.5 26.5t-32.5 82.5q0 61 68.5 122.5t178 100.5t222.5 39q244 0 352 -164q135 164 383 164q137 0 250 -57.5t177.5 -161 t64.5 -238.5q0 -88 -48.5 -142.5t-144.5 -54.5h-590q20 -127 96 -195.5t193 -68.5q96 0 153.5 29t98.5 84q31 43 94 43q45 0 81 -30t36 -75q0 -31 -10 -53q-23 -53 -91.5 -101t-164 -77t-197.5 -29q-150 0 -257 57.5t-165 159.5q-66 -104 -185.5 -159.5t-254.5 -55.5 q-170 0 -269.5 83t-99.5 237zM391 322q0 -66 40 -99t108 -33q57 0 124.5 23t115.5 73t48 128v172q-20 -29 -94 -61.5t-168 -57.5q-174 -45 -174 -145zM1085 647h545q-4 106 -77.5 175t-176.5 69q-114 0 -190 -63.5t-101 -180.5z" />
<glyph unicode="&#xe7;" horiz-adv-x="1165" d="M102 545q0 172 70 299t195 194.5t286 67.5q127 0 227.5 -36t157 -99.5t56.5 -139.5q0 -47 -39 -75.5t-88 -28.5q-35 0 -61.5 14.5t-37.5 40.5q-16 43 -76.5 76t-142.5 33q-135 0 -214 -95.5t-79 -263.5t76 -257t215 -89q88 0 147.5 40t82.5 114q8 29 36.5 44t69.5 15 q51 0 83 -29.5t32 -68.5q0 -70 -45 -141.5t-137.5 -123.5t-225.5 -63l-26 -45q25 6 55 6q84 0 143.5 -45t59.5 -139q0 -98 -75 -154.5t-185 -56.5q-74 0 -136.5 19.5t-97.5 54.5q-18 18 -18 47t18 52.5t45 23.5q23 0 43 -21q18 -16 54 -28.5t75 -12.5q45 0 72.5 19.5 t27.5 56.5q0 33 -22.5 49.5t-52.5 16.5q-20 0 -49 -13q-29 -12 -46 -12q-35 0 -62.5 21.5t-27.5 54.5q0 23 15 45l37 65q-203 29 -319 178.5t-116 389.5z" />
<glyph unicode="&#xe8;" horiz-adv-x="1249" d="M102 524q0 176 68 308.5t189.5 203t285.5 70.5q137 0 250 -57.5t177.5 -162t64.5 -241.5q0 -86 -59.5 -141t-172.5 -55h-551q20 -129 96 -199t193 -70q94 0 152.5 29t99.5 84q31 43 94 43q45 0 81 -30t36 -75q0 -72 -72.5 -131t-181.5 -94t-209 -35q-252 0 -396.5 145.5 t-144.5 407.5zM352 1534q0 51 42 95t93 44q39 0 68 -31l276 -292q20 -20 21 -52q0 -37 -29.5 -67.5t-66.5 -30.5q-22 1 -45 17l-320 243q-39 31 -39 74zM360 651h545q-4 106 -77.5 176t-176.5 70q-114 0 -190 -63.5t-101 -182.5z" />
<glyph unicode="&#xe9;" horiz-adv-x="1249" d="M102 524q0 176 68 308.5t189.5 203t285.5 70.5q137 0 250 -57.5t177.5 -162t64.5 -241.5q0 -86 -59.5 -141t-172.5 -55h-551q20 -129 96 -199t193 -70q94 0 152.5 29t99.5 84q31 43 94 43q45 0 81 -30t36 -75q0 -72 -72.5 -131t-181.5 -94t-209 -35q-252 0 -396.5 145.5 t-144.5 407.5zM360 651h545q-4 106 -77.5 176t-176.5 70q-114 0 -190 -63.5t-101 -182.5zM385 1298q0 31 21 52l276 292q29 31 68 31q51 0 93 -44t42 -95q0 -43 -39 -74l-320 -243q-23 -16 -45 -17q-37 0 -66.5 31t-29.5 67z" />
<glyph unicode="&#xea;" horiz-adv-x="1249" d="M102 524q0 176 68 308.5t189.5 203t285.5 70.5q137 0 250 -57.5t177.5 -162t64.5 -241.5q0 -86 -59.5 -141t-172.5 -55h-551q20 -129 96 -199t193 -70q94 0 152.5 29t99.5 84q31 43 94 43q45 0 81 -30t36 -75q0 -72 -72.5 -131t-181.5 -94t-209 -35q-252 0 -396.5 145.5 t-144.5 407.5zM239 1288q0 23 15 39l254 277q45 51 116 51q72 0 117 -51l254 -277q14 -16 14 -39q0 -31 -25.5 -58.5t-55.5 -27.5q-18 0 -31 10l-273 201l-272 -201q-12 -10 -31 -10q-30 0 -56 27.5t-26 58.5zM360 651h545q-4 106 -77.5 176t-176.5 70q-114 0 -190 -63.5 t-101 -182.5z" />
<glyph unicode="&#xeb;" horiz-adv-x="1249" d="M102 524q0 176 68 308.5t189.5 203t285.5 70.5q137 0 250 -57.5t177.5 -162t64.5 -241.5q0 -86 -59.5 -141t-172.5 -55h-551q20 -129 96 -199t193 -70q94 0 152.5 29t99.5 84q31 43 94 43q45 0 81 -30t36 -75q0 -72 -72.5 -131t-181.5 -94t-209 -35q-252 0 -396.5 145.5 t-144.5 407.5zM262 1352q0 59 39 97t98 38t98 -38t39 -97t-38.5 -97t-98.5 -38q-59 0 -98 37.5t-39 97.5zM360 651h545q-4 106 -77.5 176t-176.5 70q-114 0 -190 -63.5t-101 -182.5zM708 1352q0 59 39 97t99 38q59 0 98 -38t39 -97t-39 -97t-98 -38q-60 0 -99 37.5t-39 97.5 z" />
<glyph unicode="&#xec;" horiz-adv-x="610" d="M35 1534q0 51 42 95t93 44q39 0 68 -31l276 -292q20 -20 21 -52q0 -37 -29.5 -67.5t-66.5 -30.5q-22 1 -45 17l-320 243q-39 31 -39 74zM178 78v909q0 43 38 66.5t89 23.5t89 -23.5t38 -66.5v-909q0 -45 -38 -69.5t-89 -24.5t-89 24.5t-38 69.5z" />
<glyph unicode="&#xed;" horiz-adv-x="610" d="M68 1298q0 31 21 52l276 292q29 31 68 31q51 0 93 -44t42 -95q0 -43 -39 -74l-320 -243q-23 -16 -45 -17q-37 0 -66.5 31t-29.5 67zM178 78v909q0 43 38 66.5t89 23.5t89 -23.5t38 -66.5v-909q0 -45 -38 -69.5t-89 -24.5t-89 24.5t-38 69.5z" />
<glyph unicode="&#xee;" horiz-adv-x="610" d="M-78 1288q0 23 15 39l254 277q45 51 116 51q72 0 117 -51l254 -277q14 -16 14 -39q0 -31 -25.5 -58.5t-55.5 -27.5q-18 0 -31 10l-273 201l-272 -201q-12 -10 -31 -10q-30 0 -56 27.5t-26 58.5zM178 78v909q0 43 38 66.5t89 23.5t89 -23.5t38 -66.5v-909q0 -45 -38 -69.5 t-89 -24.5t-89 24.5t-38 69.5z" />
<glyph unicode="&#xef;" horiz-adv-x="610" d="M-35 1331q0 59 39 97t98 38t98.5 -37.5t39.5 -97.5q0 -59 -39 -97t-99 -38q-59 0 -98 38t-39 97zM178 78v909q0 43 38 66.5t89 23.5t89 -23.5t38 -66.5v-909q0 -45 -38 -69.5t-89 -24.5t-89 24.5t-38 69.5zM371 1331q0 59 39 97t98 38t98 -37.5t39 -97.5q0 -59 -39 -97 t-98 -38t-98 38t-39 97z" />
<glyph unicode="&#xf0;" horiz-adv-x="1335" d="M102 535q0 141 61.5 270t184.5 211t299 82q168 0 281 -94q-63 137 -195 274l-121 -80q-23 -14 -45 -14q-27 0 -44 19.5t-17 45.5q0 39 35 62l92 63q-78 66 -119 94q-47 35 -47 82q0 39 31.5 69t81.5 30q61 0 120 -45q72 -55 123 -101l129 88q18 12 37 13q27 0 47.5 -21.5 t20.5 -50.5q0 -35 -33 -57l-102 -70q322 -344 321 -809q0 -197 -76.5 -336t-209 -211t-295.5 -72q-205 0 -330 81t-177.5 206t-52.5 271zM354 545q0 -162 85 -257t235 -95q143 0 230 97t87 261q0 152 -88 242t-233 90q-147 0 -231.5 -91.5t-84.5 -246.5z" />
<glyph unicode="&#xf1;" horiz-adv-x="1363" d="M152 948q0 59 43 94t100 35t99 -38t42 -105v-60q68 109 158 160t211 51q106 0 199.5 -46t149.5 -137t56 -218v-444q0 -39 25 -76q8 -14 15 -31.5t7 -38.5q0 -47 -37.5 -78.5t-103.5 -31.5q-160 0 -160 145v520q0 106 -65.5 163.5t-161.5 57.5q-127 0 -210 -81.5 t-83 -210.5v-500q0 -45 -38 -69.5t-89 -24.5t-89 24.5t-38 69.5v723q0 33 -5 52t-13 42q-12 33 -12 53zM307 1374q0 84 49 162t168 78q49 0 88 -15.5t90 -46.5q39 -25 68.5 -37t60.5 -12q23 0 45.5 17.5t24.5 42.5q2 27 26.5 41t57.5 14q35 0 59.5 -19.5t24.5 -56.5 q0 -94 -51.5 -161.5t-147.5 -67.5q-63 0 -113.5 18.5t-107.5 50.5q-39 20 -63.5 30.5t-47.5 10.5q-33 0 -47 -23.5t-16 -47.5q-2 -25 -24.5 -37t-55.5 -12q-35 0 -61.5 19t-26.5 52z" />
<glyph unicode="&#xf2;" horiz-adv-x="1323" d="M102 537q0 174 70 303t198 197.5t300 68.5q168 0 291.5 -68.5t191.5 -195.5t68 -301t-68 -303t-195 -198t-299 -69q-170 0 -295.5 69t-193.5 195.5t-68 301.5zM360 541q0 -162 84 -258.5t226 -96.5q135 0 214 94.5t79 256.5q0 164 -82 259t-222 95q-139 0 -219 -94.5 t-80 -255.5zM399 1534q0 51 42 95t93 44q39 0 68 -31l276 -292q20 -20 21 -52q0 -37 -29.5 -67.5t-66.5 -30.5q-22 1 -45 17l-320 243q-39 31 -39 74z" />
<glyph unicode="&#xf3;" horiz-adv-x="1323" d="M102 537q0 174 70 303t198 197.5t300 68.5q168 0 291.5 -68.5t191.5 -195.5t68 -301t-68 -303t-195 -198t-299 -69q-170 0 -295.5 69t-193.5 195.5t-68 301.5zM360 541q0 -162 84 -258.5t226 -96.5q135 0 214 94.5t79 256.5q0 164 -82 259t-222 95q-139 0 -219 -94.5 t-80 -255.5zM432 1298q0 31 21 52l276 292q29 31 68 31q51 0 93 -44t42 -95q0 -43 -39 -74l-320 -243q-23 -16 -45 -17q-37 0 -66.5 31t-29.5 67z" />
<glyph unicode="&#xf4;" horiz-adv-x="1323" d="M102 537q0 174 70 303t198 197.5t300 68.5q168 0 291.5 -68.5t191.5 -195.5t68 -301t-68 -303t-195 -198t-299 -69q-170 0 -295.5 69t-193.5 195.5t-68 301.5zM286 1288q0 23 15 39l254 277q45 51 116 51q72 0 117 -51l254 -277q14 -16 14 -39q0 -31 -25.5 -58.5 t-55.5 -27.5q-18 0 -31 10l-273 201l-272 -201q-12 -10 -31 -10q-30 0 -56 27.5t-26 58.5zM360 541q0 -162 84 -258.5t226 -96.5q135 0 214 94.5t79 256.5q0 164 -82 259t-222 95q-139 0 -219 -94.5t-80 -255.5z" />
<glyph unicode="&#xf5;" horiz-adv-x="1323" d="M102 537q0 174 70 303t198 197.5t300 68.5q168 0 291.5 -68.5t191.5 -195.5t68 -301t-68 -303t-195 -198t-299 -69q-170 0 -295.5 69t-193.5 195.5t-68 301.5zM289 1374q0 84 49 162t168 78q49 0 88 -15.5t90 -46.5q39 -25 68.5 -37t60.5 -12q23 0 45.5 17.5t24.5 42.5 q2 27 26.5 41t57.5 14q35 0 59.5 -19.5t24.5 -56.5q0 -94 -51.5 -161.5t-147.5 -67.5q-63 0 -113.5 18.5t-107.5 50.5q-39 20 -63.5 30.5t-47.5 10.5q-33 0 -47 -23.5t-16 -47.5q-2 -25 -24.5 -37t-55.5 -12q-35 0 -61.5 19t-26.5 52zM360 541q0 -162 84 -258.5t226 -96.5 q135 0 214 94.5t79 256.5q0 164 -82 259t-222 95q-139 0 -219 -94.5t-80 -255.5z" />
<glyph unicode="&#xf6;" horiz-adv-x="1323" d="M102 537q0 174 70 303t198 197.5t300 68.5q168 0 291.5 -68.5t191.5 -195.5t68 -301t-68 -303t-195 -198t-299 -69q-170 0 -295.5 69t-193.5 195.5t-68 301.5zM309 1352q0 59 39 97t98 38t98 -38t39 -97t-38.5 -97t-98.5 -38q-59 0 -98 37.5t-39 97.5zM360 541 q0 -162 84 -258.5t226 -96.5q135 0 214 94.5t79 256.5q0 164 -82 259t-222 95q-139 0 -219 -94.5t-80 -255.5zM755 1352q0 59 39 97t99 38q59 0 98 -38t39 -97t-39 -97t-98 -38q-60 0 -99 37.5t-39 97.5z" />
<glyph unicode="&#xf7;" horiz-adv-x="1239" d="M90 711q0 102 111 102h835q61 0 87 -28.5t26 -73.5t-25.5 -74t-87.5 -29h-835q-111 0 -111 103zM485 377q0 59 38 98t98 39q59 0 97 -39t38 -98t-38 -98t-97 -39q-60 0 -98 38.5t-38 98.5zM485 1044q0 59 38 98.5t98 39.5q59 0 97 -39t38 -99q0 -59 -38 -98t-97 -39 q-60 0 -98 39t-38 98z" />
<glyph unicode="&#xf8;" horiz-adv-x="1323" d="M102 537q0 174 70 303t198 197.5t300 68.5q104 0 200 -29l88 154q29 51 89 51q47 0 84.5 -32.5t37.5 -80.5q0 -25 -14 -51l-90 -155q156 -152 156 -422q0 -174 -68 -303t-195 -198t-299 -69q-80 0 -157 17l-84 -146q-29 -51 -88 -51q-47 0 -85 33t-38 80q0 25 14 51 l74 129q-92 74 -142.5 188.5t-50.5 264.5zM360 541q1 -142 64 -234l330 572q-43 12 -95 12q-139 0 -219 -94.5t-80 -255.5zM618 190q33 -4 52 -4q135 0 214 94.5t79 256.5q0 111 -37 186z" />
<glyph unicode="&#xf9;" horiz-adv-x="1361" d="M127 948q0 59 43 94t100 35t99.5 -38t42.5 -105v-537q0 -106 65.5 -155t163.5 -49q117 0 193.5 70.5t76.5 203.5v518q0 45 38 68.5t89 23.5t89 -23.5t38 -68.5v-745q0 -33 21 -70q2 -4 10 -24.5t8 -47.5q0 -53 -41 -83.5t-96 -30.5q-61 0 -104 31.5t-43 93.5q0 37 2 55 q-74 -100 -162 -143.5t-197 -43.5q-111 0 -203 46.5t-147 136.5t-55 219v422q0 33 -5.5 52t-13.5 42q-12 33 -12 53zM411 1534q0 51 42 95t93 44q39 0 68 -31l276 -292q20 -20 21 -52q0 -37 -29.5 -67.5t-66.5 -30.5q-22 1 -45 17l-320 243q-39 31 -39 74z" />
<glyph unicode="&#xfa;" horiz-adv-x="1361" d="M127 948q0 59 43 94t100 35t99.5 -38t42.5 -105v-537q0 -106 65.5 -155t163.5 -49q117 0 193.5 70.5t76.5 203.5v518q0 45 38 68.5t89 23.5t89 -23.5t38 -68.5v-745q0 -33 21 -70q2 -4 10 -24.5t8 -47.5q0 -53 -41 -83.5t-96 -30.5q-61 0 -104 31.5t-43 93.5q0 37 2 55 q-74 -100 -162 -143.5t-197 -43.5q-111 0 -203 46.5t-147 136.5t-55 219v422q0 33 -5.5 52t-13.5 42q-12 33 -12 53zM444 1298q0 31 21 52l276 292q29 31 68 31q51 0 93 -44t42 -95q0 -43 -39 -74l-320 -243q-23 -16 -45 -17q-37 0 -66.5 31t-29.5 67z" />
<glyph unicode="&#xfb;" horiz-adv-x="1361" d="M127 948q0 59 43 94t100 35t99.5 -38t42.5 -105v-537q0 -106 65.5 -155t163.5 -49q117 0 193.5 70.5t76.5 203.5v518q0 45 38 68.5t89 23.5t89 -23.5t38 -68.5v-745q0 -33 21 -70q2 -4 10 -24.5t8 -47.5q0 -53 -41 -83.5t-96 -30.5q-61 0 -104 31.5t-43 93.5q0 37 2 55 q-74 -100 -162 -143.5t-197 -43.5q-111 0 -203 46.5t-147 136.5t-55 219v422q0 33 -5.5 52t-13.5 42q-12 33 -12 53zM299 1288q0 23 15 39l254 277q45 51 116 51q72 0 117 -51l254 -277q14 -16 14 -39q0 -31 -25.5 -58.5t-55.5 -27.5q-18 0 -31 10l-273 201l-272 -201 q-12 -10 -31 -10q-30 0 -56 27.5t-26 58.5z" />
<glyph unicode="&#xfc;" horiz-adv-x="1361" d="M127 948q0 59 43 94t100 35t99.5 -38t42.5 -105v-537q0 -106 65.5 -155t163.5 -49q117 0 193.5 70.5t76.5 203.5v518q0 45 38 68.5t89 23.5t89 -23.5t38 -68.5v-745q0 -33 21 -70q2 -4 10 -24.5t8 -47.5q0 -53 -41 -83.5t-96 -30.5q-61 0 -104 31.5t-43 93.5q0 37 2 55 q-74 -100 -162 -143.5t-197 -43.5q-111 0 -203 46.5t-147 136.5t-55 219v422q0 33 -5.5 52t-13.5 42q-12 33 -12 53zM322 1352q0 59 39 97t98 38t98 -38t39 -97t-38.5 -97t-98.5 -38q-59 0 -98 37.5t-39 97.5zM768 1352q0 59 39 97t99 38q59 0 98 -38t39 -97t-39 -97 t-98 -38q-60 0 -99 37.5t-39 97.5z" />
<glyph unicode="&#xfd;" horiz-adv-x="1120" d="M49 961q0 51 40 83.5t93 32.5q39 0 73 -22.5t50 -65.5l270 -756h19l201 637q10 29 9 71t-1 54q0 39 38 60.5t91 21.5q57 0 100 -24.5t43 -69.5q0 -31 -7 -62.5t-34 -105.5l-325 -946q-55 -158 -132 -220.5t-221 -62.5q-162 0 -161 113q0 43 24.5 70.5t61.5 27.5 q16 0 32.5 -2t34.5 -2q106 0 146 119l36 115q-61 2 -97 21.5t-53.5 47t-35.5 76.5l-285 739q-10 27 -10 50zM338 1298q0 31 21 52l276 292q29 31 68 31q51 0 93 -44t42 -95q0 -43 -39 -74l-320 -243q-23 -16 -45 -17q-37 0 -66.5 31t-29.5 67z" />
<glyph unicode="&#xfe;" horiz-adv-x="1423" d="M186 -319v1773q0 45 38 69.5t89 24.5t89 -24.5t38 -69.5v-516q78 82 174.5 121t196.5 39q164 0 279.5 -76t173 -201t57.5 -274q0 -141 -53.5 -271.5t-171 -214.5t-297.5 -84q-100 0 -196.5 44.5t-162.5 125.5v-466q0 -45 -37.5 -70t-89.5 -25q-51 0 -89 24.5t-38 70.5z M438 549q0 -164 84 -260t223 -96q148 0 235 95t87 257q0 156 -86 248t-231 92q-141 0 -226.5 -91.5t-85.5 -244.5z" />
<glyph unicode="&#xff;" horiz-adv-x="1120" d="M49 961q0 51 40 83.5t93 32.5q39 0 73 -22.5t50 -65.5l270 -756h19l201 637q10 29 9 71t-1 54q0 39 38 60.5t91 21.5q57 0 100 -24.5t43 -69.5q0 -31 -7 -62.5t-34 -105.5l-325 -946q-55 -158 -132 -220.5t-221 -62.5q-162 0 -161 113q0 43 24.5 70.5t61.5 27.5 q16 0 32.5 -2t34.5 -2q106 0 146 119l36 115q-61 2 -97 21.5t-53.5 47t-35.5 76.5l-285 739q-10 27 -10 50zM215 1352q0 59 39 97t98 38t98 -38t39 -97t-38.5 -97t-98.5 -38q-59 0 -98 37.5t-39 97.5zM661 1352q0 59 39 97t99 38q59 0 98 -38t39 -97t-39 -97t-98 -38 q-60 0 -99 37.5t-39 97.5z" />
<glyph unicode="&#x152;" horiz-adv-x="2078" d="M139 719q0 223 82 388t232.5 255t353.5 90h1075q35 0 55.5 -36t20.5 -83t-20.5 -81.5t-55.5 -34.5h-575v-390h536q33 0 50.5 -34.5t17.5 -81.5t-17.5 -82t-50.5 -35h-536v-358h575q37 0 56.5 -35t19.5 -82q0 -49 -18.5 -84t-53.5 -35h-1079q-205 0 -355.5 88t-231.5 251 t-81 380zM403 723q0 -223 110 -356.5t298 -133.5h233v984h-241q-186 0 -293 -134.5t-107 -359.5z" />
<glyph unicode="&#x153;" horiz-adv-x="2113" d="M102 532q0 172 70 300.5t198 197t300 68.5q133 0 240.5 -56.5t181.5 -160.5q74 104 181 160.5t236 56.5q137 0 250 -57.5t177.5 -161t64.5 -238.5q0 -88 -48 -142.5t-145 -54.5h-589q20 -127 96 -195.5t192 -68.5q96 0 153.5 29t98.5 84q31 43 94 43q45 0 81 -30t36 -75 q0 -31 -10 -53q-23 -53 -91.5 -101t-163.5 -77t-198 -29q-135 0 -247.5 56.5t-182.5 162.5q-76 -106 -181 -162.5t-237 -56.5q-170 0 -295.5 69t-193.5 194.5t-68 297.5zM356 537q0 -162 85 -257.5t229 -95.5q137 0 217 94.5t80 253.5q0 164 -83 259.5t-225 95.5 q-139 0 -221 -94.5t-82 -255.5zM1225 647h544q-4 106 -77.5 175t-175.5 69q-115 0 -191 -63.5t-100 -180.5z" />
<glyph unicode="&#x178;" horiz-adv-x="1171" d="M18 1348q0 51 41 83.5t93 32.5q27 0 56.5 -14t43.5 -41l225 -420q35 -61 58.5 -116.5t60.5 -165.5q31 92 54.5 146t66.5 136l108 203q29 53 47.5 101t18.5 71q0 47 38 73.5t99 26.5q55 0 92 -27.5t37 -72.5q0 -35 -16.5 -93.5t-53.5 -121.5l-362 -623v-473q0 -31 -39 -50 t-90 -19q-53 0 -92 19.5t-39 49.5v473l-426 750q-12 23 -16.5 36t-4.5 36zM225 1745q0 59 39 97t98 38t98 -38t39 -97t-38.5 -97t-98.5 -38q-59 0 -98 38t-39 97zM671 1745q0 59 39 97t99 38q59 0 98 -38t39 -97t-39 -97t-98 -38q-60 0 -99 38t-39 97z" />
<glyph unicode="&#x2c6;" d="M231 1288q0 23 15 39l254 277q45 51 116 51q72 0 117 -51l254 -277q14 -16 14 -39q0 -31 -25.5 -58.5t-55.5 -27.5q-18 0 -31 10l-273 201l-272 -201q-12 -10 -31 -10q-30 0 -56 27.5t-26 58.5z" />
<glyph unicode="&#x2dc;" d="M252 1374q0 84 49 162t168 78q49 0 88 -15.5t90 -46.5q39 -25 68.5 -37t60.5 -12q23 0 45.5 17.5t24.5 42.5q2 27 26.5 41t57.5 14q35 0 59.5 -19.5t24.5 -56.5q0 -94 -51.5 -161.5t-147.5 -67.5q-63 0 -113.5 18.5t-107.5 50.5q-39 20 -63.5 30.5t-47.5 10.5 q-33 0 -47 -23.5t-16 -47.5q-2 -25 -24.5 -37t-55.5 -12q-35 0 -61.5 19t-26.5 52z" />
<glyph unicode="&#x2000;" horiz-adv-x="1044" />
<glyph unicode="&#x2001;" horiz-adv-x="2089" />
<glyph unicode="&#x2002;" horiz-adv-x="1044" />
<glyph unicode="&#x2003;" horiz-adv-x="2089" />
<glyph unicode="&#x2004;" horiz-adv-x="696" />
<glyph unicode="&#x2005;" horiz-adv-x="522" />
<glyph unicode="&#x2006;" horiz-adv-x="348" />
<glyph unicode="&#x2007;" horiz-adv-x="348" />
<glyph unicode="&#x2008;" horiz-adv-x="261" />
<glyph unicode="&#x2009;" horiz-adv-x="417" />
<glyph unicode="&#x200a;" horiz-adv-x="116" />
<glyph unicode="&#x2010;" horiz-adv-x="909" d="M98 625q0 43 21.5 73.5t60.5 30.5h551q37 0 58.5 -30.5t21.5 -71.5t-21.5 -73t-58.5 -32h-551q-39 0 -60.5 31t-21.5 72z" />
<glyph unicode="&#x2011;" horiz-adv-x="909" d="M98 625q0 43 21.5 73.5t60.5 30.5h551q37 0 58.5 -30.5t21.5 -71.5t-21.5 -73t-58.5 -32h-551q-39 0 -60.5 31t-21.5 72z" />
<glyph unicode="&#x2012;" horiz-adv-x="909" d="M98 625q0 43 21.5 73.5t60.5 30.5h551q37 0 58.5 -30.5t21.5 -71.5t-21.5 -73t-58.5 -32h-551q-39 0 -60.5 31t-21.5 72z" />
<glyph unicode="&#x2013;" horiz-adv-x="1476" d="M74 625q0 43 21.5 73.5t60.5 30.5h1167q37 0 58.5 -30.5t21.5 -71.5t-21.5 -73t-58.5 -32h-1167q-39 0 -60.5 31t-21.5 72z" />
<glyph unicode="&#x2014;" horiz-adv-x="2031" d="M74 625q0 43 21.5 73.5t60.5 30.5h1722q37 0 58.5 -30.5t21.5 -71.5t-21.5 -73t-58.5 -32h-1722q-39 0 -60.5 31t-21.5 72z" />
<glyph unicode="&#x2018;" horiz-adv-x="552" d="M123 1047q0 117 68.5 242.5t187.5 185.5q12 6 24 6q20 0 33 -12.5t13 -30.5t-11 -31q-135 -168 -143 -252q6 2 18 2q68 0 113 -36t45 -107q0 -74 -48 -116t-118 -42q-72 0 -127 50t-55 141z" />
<glyph unicode="&#x2019;" horiz-adv-x="552" d="M82 1323q0 74 48 116t118 42q71 0 126.5 -50.5t55.5 -140.5q0 -117 -68.5 -242.5t-187.5 -185.5q-12 -6 -24 -6q-18 0 -32 13.5t-14 29.5q0 18 11 31q135 168 143 252q-6 -2 -18 -2q-68 0 -113 35.5t-45 107.5z" />
<glyph unicode="&#x201a;" horiz-adv-x="552" d="M107 127q0 74 51 116t123 42t123 -50.5t51 -140.5q0 -117 -56.5 -231.5t-183.5 -190.5q-16 -10 -36 -10t-34 10.5t-14 30.5t17 37q59 59 94 123.5t45 122.5q-8 -2 -22 -2q-68 0 -113 35.5t-45 107.5z" />
<glyph unicode="&#x201c;" horiz-adv-x="995" d="M123 1047q0 117 68.5 242.5t187.5 185.5q12 6 24 6q20 0 33 -12.5t13 -30.5t-11 -31q-135 -168 -143 -252q6 2 18 2q68 0 113 -36t45 -107q0 -74 -48 -116t-118 -42q-72 0 -127 50t-55 141zM565 1047q0 117 68.5 242.5t187.5 185.5q12 6 24 6q20 0 33 -12.5t13 -30.5 t-11 -31q-135 -168 -143 -252q6 2 18 2q68 0 113 -36t45 -107q0 -74 -48 -116t-118 -42q-72 0 -127 50t-55 141z" />
<glyph unicode="&#x201d;" horiz-adv-x="995" d="M82 1323q0 74 48 116t118 42q71 0 126.5 -50.5t55.5 -140.5q0 -117 -68.5 -242.5t-187.5 -185.5q-12 -6 -24 -6q-18 0 -32 13.5t-14 29.5q0 18 11 31q135 168 143 252q-6 -2 -18 -2q-68 0 -113 35.5t-45 107.5zM524 1323q0 74 48.5 116t117.5 42q72 0 127 -50.5 t55 -140.5q0 -117 -68.5 -242.5t-187.5 -185.5q-12 -6 -24 -6q-18 0 -31.5 13.5t-13.5 29.5q0 18 10 31q135 168 143 252q-6 -2 -18 -2q-68 0 -113 35.5t-45 107.5z" />
<glyph unicode="&#x201e;" horiz-adv-x="995" d="M107 127q0 74 51 116t123 42t123 -50.5t51 -140.5q0 -117 -56.5 -231.5t-183.5 -190.5q-16 -10 -36 -10t-34 10.5t-14 30.5t17 37q59 59 94 123.5t45 122.5q-8 -2 -22 -2q-68 0 -113 35.5t-45 107.5zM549 127q0 74 51 116t123 42t123 -50.5t51 -140.5 q0 -117 -56.5 -231.5t-183.5 -190.5q-16 -10 -36 -10t-34 10.5t-14 30.5t17 37q59 59 94 123.5t45 122.5q-8 -2 -22 -2q-68 0 -113 35.5t-45 107.5z" />
<glyph unicode="&#x2022;" horiz-adv-x="823" d="M164 686q0 109 70.5 178.5t177.5 69.5q106 0 176.5 -69.5t70.5 -178.5t-70.5 -178.5t-176.5 -69.5q-107 0 -177.5 70t-70.5 178z" />
<glyph unicode="&#x2026;" horiz-adv-x="1744" d="M135 129q0 68 44 112t112 44t111.5 -44t43.5 -112t-44 -112t-111 -44q-68 0 -112 44t-44 112zM717 129q0 68 44 112t112 44t111.5 -44t43.5 -112t-44 -112t-111 -44q-68 0 -112 44t-44 112zM1298 129q0 68 44 112t112 44t111.5 -44t43.5 -112t-44 -112t-111 -44 q-68 0 -112 44t-44 112z" />
<glyph unicode="&#x202f;" horiz-adv-x="417" />
<glyph unicode="&#x2039;" horiz-adv-x="651" d="M78 553q0 45 39 90l276 338q43 55 101 55q37 0 61.5 -22.5t24.5 -59.5t-29 -77l-219 -322l217 -332q18 -27 18 -53q0 -37 -29.5 -63.5t-66.5 -26.5q-47 0 -76 37l-278 350q-39 47 -39 86z" />
<glyph unicode="&#x203a;" horiz-adv-x="651" d="M72 954q0 37 24.5 59.5t61.5 22.5q57 0 100 -55l277 -338q39 -45 38 -90q0 -39 -38 -86l-279 -350q-29 -37 -76 -37q-37 0 -66.5 26.5t-29.5 63.5q0 27 18 53l217 332l-219 322q-29 41 -28 77z" />
<glyph unicode="&#x205f;" horiz-adv-x="522" />
<glyph unicode="&#x20ac;" horiz-adv-x="1382" d="M49 567q0 39 24.5 65.5t69.5 26.5h119v43q0 35 2 54h-121q-43 0 -68.5 28.5t-25.5 67.5t24.5 65.5t69.5 26.5h142q51 250 202.5 393.5t372.5 143.5q115 0 216.5 -46t162.5 -126t61 -174q0 -53 -36.5 -84t-96.5 -31q-33 0 -65.5 16.5t-34.5 44.5q-4 33 -29.5 71t-75 65.5 t-116.5 27.5q-109 0 -186.5 -81t-114.5 -220h344q43 0 68.5 -28.5t25.5 -67.5q0 -37 -24.5 -64.5t-69.5 -27.5h-371q-2 -16 -2 -54v-43h320q43 0 68.5 -28.5t25.5 -67.5q0 -37 -24.5 -64.5t-69.5 -27.5h-289q37 -125 113.5 -193.5t179.5 -68.5q94 0 156.5 49t78.5 121 q8 39 41 59.5t74 20.5q57 0 91 -32t34 -87q0 -96 -61.5 -180t-170 -135.5t-243.5 -51.5q-213 0 -359.5 130t-195.5 368h-142q-43 0 -68.5 28.5t-25.5 67.5z" />
<glyph unicode="&#x2122;" horiz-adv-x="1978" d="M31 1366q0 35 21.5 60.5t60.5 25.5h594q39 0 60 -25.5t21 -60.5q0 -37 -21.5 -62.5t-59.5 -25.5h-205v-604q0 -29 -26.5 -45.5t-63.5 -16.5q-39 0 -66 16.5t-27 45.5v528q0 49 43 76h-249q-39 0 -60.5 25.5t-21.5 62.5zM893 1358q0 47 38 76.5t89 29.5q43 0 81 -23.5 t58 -70.5l174 -412q18 -43 49 -135q20 76 41 127l156 412q18 49 61 75.5t95 26.5q55 0 95 -31.5t40 -86.5v-668q0 -31 -26.5 -48.5t-63.5 -17.5t-62.5 17.5t-25.5 48.5v414q0 45 10 202q-31 -127 -80 -235l-162 -369q4 -16 4 -33q0 -45 -82 -45q-35 0 -60.5 13.5t-25.5 36.5 t-32 88l-21 41l-121 266q-18 43 -57 211q20 -162 20 -301v-289q0 -31 -26.5 -48.5t-63.5 -17.5t-62.5 17.5t-25.5 48.5v627q-14 27 -14 53z" />
<glyph unicode="&#x25fc;" horiz-adv-x="1075" d="M0 0v1075h1075v-1075h-1075z" />
</font>
</defs>
</svg>
