<?xml version="1.0" standalone="no"?>
<!DOCTYPE svg PUBLIC "-//W3C//DTD SVG 1.1//EN" "http://www.w3.org/Graphics/SVG/1.1/DTD/svg11.dtd" >
<svg xmlns="http://www.w3.org/2000/svg" xmlns:xlink="http://www.w3.org/1999/xlink" version="1.1">
<metadata></metadata>
<defs>
<font id="chulacharasnewbold_italic" horiz-adv-x="980" >
<font-face units-per-em="2048" ascent="1638" descent="-410" />
<missing-glyph horiz-adv-x="530" />
<glyph unicode="&#xfb01;" horiz-adv-x="910" d="M147 753l24 135h144l11 60q9 54 37.5 104.5t74 89.5t108 62.5t140.5 23.5h97l-24 -135h-74q-79 0 -120 -39t-54 -110l-10 -56h465l-156 -888h-183l132 753h-282l-132 -753h-186l132 753h-144z" />
<glyph unicode="&#xfb02;" horiz-adv-x="926" d="M147 753l24 135h144l11 60q9 54 37.5 104.5t74 89.5t108 62.5t140.5 23.5h356l-216 -1228h-183l192 1093h-150q-79 0 -120 -39t-54 -110l-10 -56h188l-24 -135h-188l-132 -753h-186l132 753h-144z" />
<glyph horiz-adv-x="0" />
<glyph unicode="&#xd;" horiz-adv-x="805" />
<glyph unicode=" "  horiz-adv-x="530" />
<glyph unicode="&#x09;" horiz-adv-x="530" />
<glyph unicode="&#xa0;" horiz-adv-x="530" />
<glyph unicode="!" horiz-adv-x="589" d="M190 101q4 24 17 44.5t31 36t40 24t45 8.5q25 0 44.5 -8.5t32.5 -24t18 -36t1 -44.5t-16.5 -45t-31 -36t-41 -24t-47.5 -9q-23 0 -42 9t-32 24t-18 36t-1 45zM272 358q20 155 38 292q8 58 16.5 118.5t16.5 116t15 101.5t12 76l29 166h207l-29 -166q-5 -30 -14 -76 t-20.5 -101.5t-24 -116t-24.5 -118.5q-29 -137 -62 -292h-160z" />
<glyph unicode="&#x22;" horiz-adv-x="560" d="M209 839l66 374h170l-66 -374h-170zM480 839l66 374h165l-66 -374h-165z" />
<glyph unicode="#" horiz-adv-x="1076" d="M79 366l27 153h200l73 218h-188l27 150h212l114 341h187l-114 -341h236l114 341h185l-114 -341h163l-27 -150h-186l-72 -218h174l-27 -153h-198l-122 -366h-186l122 366h-237l-122 -366h-187l122 366h-176zM493 519h237l73 218h-237z" />
<glyph unicode="$" d="M128 185.5q-14 68.5 3 163.5h192q-9 -53 -6 -92t19.5 -66.5t46.5 -45.5t75 -29l75 423q-65 20 -121.5 44.5t-95.5 61.5t-55.5 91.5t-2.5 134.5q12 67 47.5 122.5t88 97t117.5 66.5t136 30l21 118h111l-21 -118q69 -5 124.5 -26t92.5 -59.5t53 -95t7 -132.5h-195 q11 80 -15.5 118.5t-92.5 49.5l-66 -377q74 -21 135.5 -46.5t103 -65.5t57.5 -100.5t0 -152.5q-12 -72 -47.5 -131t-89.5 -102t-125.5 -68.5t-156.5 -30.5l-22 -123h-111l22 123q-83 7 -147 32t-103.5 71t-53.5 114.5zM449 809.5q5 -27.5 20 -47t39 -33t54 -24.5l59 337 q-69 -8 -113.5 -52.5t-56.5 -112.5q-7 -40 -2 -67.5zM568 113q46 4 82 20t61.5 41.5t41.5 59t23 71.5q8 45 0.5 77t-26.5 55t-48 38.5t-65 27.5z" />
<glyph unicode="%" horiz-adv-x="1590" d="M237 735.5q-12 65.5 3 152.5t50.5 152.5t85 110t110.5 67t127 22.5t119 -22.5t87 -67t46 -110t-3 -152.5t-50.5 -152.5t-85 -110t-110.5 -67t-127 -22.5t-119 22.5t-87 67t-46 110zM328 0l965 1228h175l-962 -1228h-178zM390 888q-20 -112 14 -167t108 -55t127 55t73 167 t-14 167t-108 55t-127 -55t-73 -167zM943 199.5q-12 65.5 3 152.5t50.5 152.5t85 110t110.5 67t127 22.5t119 -22.5t86.5 -67t46 -110t-2.5 -152.5t-50.5 -152.5t-85 -110t-110.5 -67t-127 -22.5t-119 22.5t-87 67t-46 110zM1096 352q-20 -112 13.5 -167t107.5 -55t127.5 55 t73.5 167t-14 167t-108 55t-127 -55t-73 -167z" />
<glyph unicode="&#x26;" horiz-adv-x="1177" d="M109 340q12 65 43.5 120t77.5 100t103.5 81t121.5 64q-20 28 -36.5 57t-27 60.5t-13.5 65.5t4 72q10 61 41.5 108t78.5 79t108 49t131 17q64 0 115 -18t85 -50.5t48 -79t4 -103.5t-36.5 -101.5t-64 -80t-84 -64.5t-95.5 -55l191 -271q22 41 40.5 90.5t27.5 98.5h173 q-11 -44 -24 -87t-29.5 -84.5t-37.5 -80.5t-49 -74l180 -253h-235l-76 111q-91 -74 -187 -109.5t-217 -35.5q-90 0 -163 27t-122 76t-70 118t-6 153zM308 333q-9 -51 1.5 -92.5t36.5 -70t65.5 -44t88.5 -15.5q38 0 78.5 10t78.5 27t71.5 40.5t57.5 50.5l-253 354 q-91 -44 -150.5 -110t-74.5 -150zM566.5 907.5q4.5 -24.5 15 -46t24.5 -40.5t28 -36q24 11 52 28.5t53 39.5t43.5 49t24.5 57q3 21 -1 41t-16 35.5t-32 25.5t-48 10q-58 0 -96.5 -30.5t-46.5 -80.5q-5 -28 -0.5 -52.5z" />
<glyph unicode="'" horiz-adv-x="291" d="M209 839l66 374h170l-66 -374h-170z" />
<glyph unicode="(" horiz-adv-x="589" d="M120.5 252q-2.5 101 18.5 218q20 114 58 214t93 192.5t127.5 182t162.5 182.5h177q-166 -189 -274 -382t-144 -396q-18 -101 -15.5 -200t22 -195.5t54 -191t81.5 -184.5h-174q-57 94 -98 183.5t-63.5 182.5t-25 194z" />
<glyph unicode=")" horiz-adv-x="589" d="M-17 -308q171 188 276.5 382t141.5 398q18 101 15 199.5t-22.5 195t-54.5 190t-82 184.5h178q55 -97 95.5 -186t62.5 -181t24 -192t-19 -217q-20 -114 -57.5 -214.5t-92 -194t-126.5 -183t-160 -181.5h-179z" />
<glyph unicode="*" horiz-adv-x="687" d="M203 977l80 131l157 -74l31 179h152l-31 -179q22 7 47 16.5t49.5 19l49 19t45.5 16.5l24 -129l-199 -55l101 -162l-145 -78l-88 163q-35 -37 -74 -81t-73 -82l-103 90l157 150z" />
<glyph unicode="+" d="M112 353l26 150h349l63 356h182l-63 -356h349l-26 -150h-349l-62 -353h-182l62 353h-349z" />
<glyph unicode="," horiz-adv-x="490" d="M59 -202q31 23 55.5 44.5t43.5 44.5t32.5 48.5t21.5 57.5q-23 1 -38.5 11.5t-24.5 25.5t-11.5 34t1.5 39q4 25 17 46t32 37t42 25t47 9q28 0 48.5 -11t32.5 -29.5t16 -43t-1 -52.5q-20 -115 -82 -200.5t-156 -152.5z" />
<glyph unicode="-" horiz-adv-x="530" d="M116 379l23 126h430l-23 -126h-430z" />
<glyph unicode="." horiz-adv-x="490" d="M146 103q4 25 17 46t32 37t41.5 25t46.5 9t43.5 -9t33 -25t19 -37t1.5 -46q-5 -24 -18 -45.5t-32 -37t-41.5 -24.5t-46.5 -9t-43.5 9t-32.5 24.5t-19 37t-1 45.5z" />
<glyph unicode="/" horiz-adv-x="620" d="M-42 -300l698 1559h175l-693 -1559h-180z" />
<glyph unicode="0" d="M135 346q-5 113 19 246q23 133 68 246t112.5 195t159 128t208.5 46t192 -46t114 -128t44 -195t-18 -246q-24 -133 -69 -246t-112.5 -195t-159 -128t-208.5 -46t-192 46t-114 128t-44 195zM342 593q-41 -233 2 -353.5t166 -120.5t209 120.5t127 353.5q42 233 -2 352.5 t-167 119.5t-208 -119.5t-127 -352.5z" />
<glyph unicode="1" d="M348 900l27 154l357 153h148l-212 -1207h-188l180 1021z" />
<glyph unicode="2" d="M62 0q20 114 64.5 196.5t112 146t155.5 116t195 107.5q49 25 100.5 55t93.5 69t68.5 89t26.5 116q0 39 -13.5 70t-38 52.5t-59 33t-75.5 11.5q-51 0 -94 -13.5t-77 -44t-57.5 -80t-36.5 -121.5h-200q9 93 46 167.5t98 127t144 81t185 28.5q93 0 163.5 -23t118 -63 t71.5 -94t24 -117q0 -96 -41.5 -171.5t-108 -136t-149 -107.5t-164.5 -86q-44 -21 -90 -46t-87.5 -56t-76 -69.5t-55.5 -85.5h633l-26 -152h-850z" />
<glyph unicode="3" d="M118 352h196q-18 -122 35.5 -177.5t164.5 -55.5q44 0 87 9.5t79.5 34t63.5 66t38 104.5q19 107 -30 154t-177 47h-71l24 140h74q51 0 90.5 11t68.5 35t48 63t29 95q7 41 -0.5 75.5t-29.5 59t-57.5 38.5t-83.5 14q-103 0 -172.5 -58.5t-89.5 -173.5h-191q17 95 59.5 165 t106.5 116.5t146 69.5t178 23q78 0 144 -21.5t111 -62.5t65 -101t7 -137q-17 -97 -68 -161.5t-143 -105.5q49 -14 82.5 -40.5t52 -63.5t22 -82.5t-5.5 -97.5q-13 -75 -50 -140t-96 -113t-140.5 -76t-183.5 -28q-223 0 -316 96t-67 279z" />
<glyph unicode="4" d="M89 281l22 122l708 791h168l-136 -773h163l-25 -140h-163l-49 -281h-190l49 281h-547zM331 421h330l82 464z" />
<glyph unicode="5" d="M109 327h192q-1 -58 11 -98t37.5 -64.5t65 -35t95.5 -10.5q59 0 108 19t86.5 53t62.5 82t35 106q22 128 -35 196.5t-177 68.5q-62 0 -127.5 -25t-119.5 -87l-157 14l178 648h707l-27 -154h-547l-82 -307q45 23 103 36t127 13q91 0 163 -27.5t118.5 -79t64.5 -126.5 t1 -170q-17 -94 -64.5 -168.5t-114.5 -126.5t-147.5 -79.5t-162.5 -27.5q-95 0 -171 17.5t-128 58t-77.5 108t-17.5 166.5z" />
<glyph unicode="6" d="M166.5 322.5q-3.5 106.5 19.5 234.5q28 162 81.5 284t125.5 203t160 122t186 41q81 0 145 -18t107.5 -55.5t64.5 -96.5t17 -140h-192q-2 81 -40.5 124.5t-116.5 43.5q-57 0 -108 -23.5t-94.5 -74.5t-78.5 -130.5t-62 -190.5q45 53 119.5 86.5t168.5 33.5 q95 0 163.5 -28.5t110 -80t55 -124.5t-2.5 -161q-16 -92 -55 -165.5t-100 -124.5t-143.5 -78t-185.5 -27q-119 0 -193.5 43t-111 119.5t-40 183zM351 283q5 -44 26.5 -80.5t61 -60t102.5 -23.5t110.5 23t81 59.5t53.5 82t28 90.5q22 122 -24 186.5t-164 64.5 q-52 0 -97.5 -18t-80.5 -51.5t-59.5 -81t-34.5 -105.5q-8 -42 -3 -86z" />
<glyph unicode="7" d="M273 1040l27 154h822l-23 -129q-133 -120 -234 -253.5t-175.5 -271t-124.5 -275t-81 -265.5h-202q34 126 90 265t130 277t163 266t189 232h-581z" />
<glyph unicode="8" d="M119 337q19 106 78.5 176.5t159.5 111.5q-71 32 -100.5 97.5t-10.5 169.5q11 62 49.5 119t99 100.5t139.5 69.5t170 26t160 -26t114 -69.5t63.5 -100.5t7.5 -119q-19 -104 -71 -169.5t-131 -97.5q84 -41 117.5 -111.5t14.5 -176.5q-15 -86 -57.5 -153.5t-107 -114 t-147.5 -70.5t-180 -24q-98 0 -173 24t-123.5 70.5t-67.5 114t-4 153.5zM312 253.5q8 -39.5 32.5 -69.5t66 -47.5t101.5 -17.5q58 0 105.5 17.5t83 47.5t58 69.5t30.5 83.5q10 55 -1 95.5t-38 67t-68.5 39.5t-92.5 13q-53 0 -99 -13t-82.5 -39.5t-61 -67t-34.5 -95.5 q-8 -44 0 -83.5zM434 876q-8 -44 3 -78.5t36 -58t61.5 -35.5t79.5 -12q42 0 81.5 12t72.5 35.5t56 58t31 78.5q7 43 -2 78t-32 60t-59.5 38t-82.5 13q-48 0 -89.5 -13t-73.5 -38t-53.5 -60t-28.5 -78z" />
<glyph unicode="9" d="M141 298h188q-1 -85 46 -132t134 -47q131 0 211.5 105.5t116.5 317.5q-40 -55 -112.5 -90t-166.5 -35q-101 0 -173.5 27t-117 78t-59 124t1.5 164q16 93 59 166.5t108 124.5t151 78.5t188 27.5q91 0 161.5 -35.5t113 -107t54.5 -178.5t-13 -250q-26 -145 -68.5 -266 t-107.5 -208.5t-156.5 -136t-215.5 -48.5q-180 0 -265.5 83.5t-77.5 237.5zM402 807q-21 -118 28 -183t172 -65q53 0 96 18.5t76 52t55 80.5t32 103q7 43 4 88t-22.5 81.5t-57.5 59.5t-101 23q-65 0 -114 -22.5t-83.5 -59t-55.5 -83t-29 -93.5z" />
<glyph unicode=":" horiz-adv-x="490" d="M146 103q4 25 17 46t32 37t41.5 25t46.5 9t43.5 -9t33 -25t19 -37t1.5 -46q-5 -24 -18 -45.5t-32 -37t-41.5 -24.5t-46.5 -9t-43.5 9t-32.5 24.5t-19 37t-1 45.5zM259 744q4 25 17 46t32 37t41.5 25t46.5 9t43.5 -9t33 -25t19 -37t1.5 -46q-5 -24 -18 -45.5t-32 -37 t-41.5 -24.5t-46.5 -9t-43.5 9t-32.5 24.5t-19 37t-1 45.5z" />
<glyph unicode=";" horiz-adv-x="490" d="M59 -202q31 23 55.5 44.5t43.5 44.5t32.5 48.5t21.5 57.5q-23 1 -38.5 11.5t-24.5 25.5t-11.5 34t1.5 39q4 25 17 46t32 37t42 25t47 9q28 0 48.5 -11t32.5 -29.5t16 -43t-1 -52.5q-20 -115 -82 -200.5t-156 -152.5zM253 749q4 23 16.5 43.5t31.5 36t42 24.5t47 9 t43.5 -9t33 -24.5t19.5 -36t2 -43.5q-5 -25 -18 -46t-32 -36.5t-41.5 -24.5t-46.5 -9t-44 9t-33 24.5t-19 36.5t-1 46z" />
<glyph unicode="&#x3c;" d="M132 410l20 114l930 397l-29 -165l-663 -289l559 -302l-30 -168z" />
<glyph unicode="=" d="M85 202l27 150h880l-27 -150h-880zM143 531l27 150h880l-27 -150h-880z" />
<glyph unicode="&#x3e;" d="M59 -3l30 168l665 302l-561 289l29 165l790 -397l-20 -114z" />
<glyph unicode="?" horiz-adv-x="880" d="M196 864q14 96 52 167.5t95.5 118.5t132 70.5t163.5 23.5q85 0 152.5 -20.5t115 -58.5t72.5 -91.5t25 -120.5q0 -58 -16.5 -103t-43.5 -81.5t-62 -65.5t-72.5 -55t-74 -51t-67 -53t-52 -61t-28.5 -75l-8 -50h-184l9 52q12 68 46.5 118t79.5 90.5t94 74.5t90 70.5 t67.5 79.5t26.5 101q0 31 -11 59t-33 49.5t-55.5 34.5t-78.5 13q-100 0 -165.5 -56t-86.5 -180h-183zM324 89q0 5 0.5 9.5t1.5 9.5q9 50 45.5 81t87.5 31q46 0 74.5 -28.5t28.5 -72.5q0 -5 -0.5 -10.5t-1.5 -11.5q-8 -49 -43 -79.5t-89 -30.5q-23 0 -42 8t-32.5 22 t-21.5 32.5t-8 39.5z" />
<glyph unicode="@" horiz-adv-x="1468" d="M161 521q16 92 54.5 178t95.5 161.5t130.5 138t160 107.5t183.5 70t202 25q138 0 244.5 -42.5t175.5 -119t95.5 -184t4.5 -236.5q-18 -101 -63.5 -187t-114.5 -150t-159.5 -100t-199.5 -36q-29 0 -53.5 7.5t-42 23.5t-26 41t-3.5 61q-18 -27 -44.5 -46.5t-55.5 -32 t-58 -18.5t-52 -6q-45 0 -78 18.5t-52.5 51.5t-25.5 78t3 99q14 80 53 158t97.5 140t133.5 100.5t161 38.5q19 0 40 -4.5t39.5 -13t33 -20.5t21.5 -26l17 38h157l-216 -460l-13.5 -31.5t-11.5 -37.5q-6 -31 43 -31q54 0 106.5 24.5t96.5 70.5t76.5 111t46.5 145 q18 101 0.5 183t-68 140.5t-133 90.5t-194.5 32q-122 0 -231.5 -41t-197 -115t-147.5 -177t-82 -227q-21 -117 0 -215t81 -169t157.5 -111t229.5 -40q93 0 178 21t149 53l39 -119q-81 -42 -182.5 -63.5t-206.5 -21.5q-167 0 -290.5 50t-199.5 139.5t-103 213.5t-1 272z M643 428q-11 -64 7.5 -94.5t61.5 -30.5q40 0 77 22.5t60 51.5l144 318q0 11 -8 19.5t-20 14t-26.5 8t-29.5 2.5q-50 0 -94 -26t-78.5 -69.5t-59 -99.5t-34.5 -116z" />
<glyph unicode="A" horiz-adv-x="1203" d="M3 0l724 1228h202l271 -1228h-199l-65 309h-535l-176 -309h-222zM485 457h420l-111 539z" />
<glyph unicode="B" horiz-adv-x="1177" d="M108 0l216 1228h495q102 0 174.5 -20.5t119 -58t68 -90t21.5 -117.5q0 -101 -51.5 -174.5t-147.5 -124.5q40 -16 70 -41.5t49.5 -57t29 -68.5t9.5 -76q0 -113 -39 -189.5t-105.5 -123t-156 -67t-190.5 -20.5h-562zM334 148h304q92 0 154 16.5t99 49.5t52.5 81.5 t15.5 111.5q0 39 -13.5 68t-44.5 47.5t-82 28t-125 9.5h-288zM433 709h292q55 0 105 12.5t87.5 39.5t59.5 71t22 109t-47.5 102.5t-159.5 37.5h-294z" />
<glyph unicode="C" horiz-adv-x="1275" d="M148 459q0 42 4 91t12 94q27 153 85.5 268t145.5 192t201.5 116t253.5 39q106 0 196 -25t154.5 -75.5t101 -126t36.5 -177.5v-11h-203q-2 71 -23 121.5t-60 82.5t-95 47t-127 15q-85 0 -160 -27t-135 -84.5t-103.5 -147.5t-65.5 -215q-8 -44 -12 -84t-4 -78 q0 -78 17.5 -142.5t55 -111.5t97.5 -73t144 -26q89 0 158.5 23t120 64t82.5 98t46 125h208q-22 -100 -71.5 -185t-127.5 -147.5t-185 -97.5t-244 -35q-122 0 -216 33.5t-157.5 96.5t-96.5 154.5t-33 208.5z" />
<glyph unicode="D" horiz-adv-x="1275" d="M108 0l216 1228h453q133 0 234 -35.5t168.5 -100t102 -154t34.5 -196.5q0 -67 -14 -146q-25 -143 -80 -254t-142 -187t-206.5 -115.5t-272.5 -39.5h-493zM334 148h236q136 0 230 37t155.5 99.5t95.5 145.5t50 176q13 71 13 136q0 160 -96 249.5t-294 89.5h-226z" />
<glyph unicode="E" horiz-adv-x="1078" d="M108 0l216 1228h889l-26 -147h-689l-65 -372h621l-27 -149h-621l-72 -412h700l-26 -148h-900z" />
<glyph unicode="F" d="M94 0l216 1228h876l-26 -147h-677l-65 -372h615l-27 -149h-615l-98 -560h-199z" />
<glyph unicode="G" horiz-adv-x="1373" d="M155 462q0 39 4 83t12 89q23 130 77.5 244t142 199t207.5 133.5t273 48.5q108 0 200 -23.5t160 -74t108 -129t43 -188.5h-207q-7 133 -86.5 199.5t-214.5 66.5q-101 0 -184.5 -29t-148 -90t-109 -155.5t-67.5 -226.5q-3 -16 -5 -36t-4 -40.5t-3 -39.5t-1 -33 q0 -80 21.5 -142.5t63.5 -106.5t104.5 -67t144.5 -23q102 0 178.5 28t132 79t91.5 123t57 160h-402l26 150h588l-116 -661h-165l32 183q-77 -108 -191 -162.5t-263 -54.5q-109 0 -200.5 32.5t-158 95.5t-103.5 155.5t-37 212.5z" />
<glyph unicode="H" horiz-adv-x="1275" d="M106 0l216 1228h199l-90 -510h643l90 510h199l-216 -1228h-199l100 570h-643l-100 -570h-199z" />
<glyph unicode="I" horiz-adv-x="564" d="M180 0l216 1228h204l-216 -1228h-204z" />
<glyph unicode="J" horiz-adv-x="930" d="M87 281q0 43 9 93h201q-8 -43 -8 -77q0 -78 39.5 -113.5t116.5 -35.5q104 0 156.5 60t72.5 176l149 844h202l-149 -846q-16 -92 -50.5 -163t-88.5 -119.5t-129 -74t-173 -25.5q-81 0 -145.5 18t-109.5 53.5t-69 88t-24 121.5z" />
<glyph unicode="K" horiz-adv-x="1167" d="M113 0l216 1228h199l-105 -587l651 587h247l-593 -532l397 -696h-230l-315 564l-201 -180l-67 -384h-199z" />
<glyph unicode="L" d="M108 0l216 1228h200l-190 -1080h657l-26 -148h-857z" />
<glyph unicode="M" horiz-adv-x="1471" d="M106 0l216 1228h250l196 -996l541 996h252l-216 -1228h-205l155 881l-482 -881h-178l-174 888l-156 -888h-199z" />
<glyph unicode="N" horiz-adv-x="1275" d="M116 0l216 1228h199l461 -907l159 907h200l-216 -1228h-203l-459 907l-158 -907h-199z" />
<glyph unicode="O" horiz-adv-x="1372" d="M156 478q0 166 53 308.5t147.5 247.5t226 165t289.5 60q133 0 234.5 -39t170 -107t103.5 -161.5t35 -201.5q0 -98 -20 -194.5t-60.5 -183.5t-101 -161.5t-141 -129t-181 -85t-220.5 -30.5q-135 0 -235.5 39t-167 107.5t-99.5 162t-33 203.5zM358 495q0 -83 19 -152 t60.5 -118.5t106.5 -77t157 -27.5q123 0 219 53t161 139.5t99 197t34 225.5q0 85 -23 153.5t-67 116.5t-108 74t-145 26q-113 0 -207 -47.5t-162 -130t-106 -194t-38 -238.5z" />
<glyph unicode="P" horiz-adv-x="1078" d="M103 0l216 1228h477q88 0 153.5 -16t111 -44t73.5 -66t42 -82t14 -92v-6q0 -45 -7 -90q-14 -79 -53.5 -150t-107 -124.5t-163.5 -85t-222 -31.5h-258l-77 -441h-199zM406 592h262q137 0 216 63.5t101 185.5q5 31 5 57q0 76 -42 122q-57 61 -196 61h-260z" />
<glyph unicode="Q" horiz-adv-x="1373" d="M156 478q0 166 53 308.5t147.5 247.5t226 165t289.5 60q133 0 234.5 -39t170 -107t103.5 -161.5t35 -201.5q0 -89 -16.5 -176.5t-50 -168.5t-83 -152t-115.5 -127l126 -106l-118 -124l-161 133q-66 -30 -142 -46.5t-164 -16.5q-135 0 -235.5 39t-167 107.5t-99.5 162 t-33 203.5zM358 495q0 -83 19 -152t60.5 -118.5t106.5 -77t157 -27.5q82 0 155 25l-121 101l123 126l157 -132q48 44 85.5 100t62.5 120.5t38 134t13 140.5q0 85 -23 153.5t-67 116.5t-108 74t-145 26q-113 0 -207 -47.5t-162 -130t-106 -194t-38 -238.5z" />
<glyph unicode="R" horiz-adv-x="1177" d="M106 0l216 1228h524q102 0 177 -25t124.5 -69t73.5 -104t24 -131q0 -81 -25 -146t-70 -114.5t-106.5 -84t-134.5 -54.5l201 -500h-234l-180 472h-308l-83 -472h-199zM414 620h322q67 0 122.5 18t95.5 52.5t62.5 85.5t22.5 118q0 43 -11.5 77.5t-37 58.5t-66.5 37t-99 13 h-330z" />
<glyph unicode="S" horiz-adv-x="1078" d="M102 311q0 21 1.5 44t6.5 47h195q-1 -9 -2 -30.5t-1 -36.5q0 -111 68.5 -162.5t210.5 -51.5q54 0 107 13t96 41t69.5 73t26.5 108q0 52 -28.5 85t-75.5 55t-106.5 37.5t-122 32.5t-122 39.5t-106.5 59t-75.5 90.5t-28.5 134q0 74 33.5 141t96.5 118t153 81t203 30 q105 0 187 -23.5t138.5 -66t85.5 -103t29 -135.5q0 -20 -1.5 -40t-5.5 -40h-196q3 16 4 30.5t1 28.5q0 52 -18 90t-51 62.5t-78.5 36t-100.5 11.5q-67 0 -119 -18t-87.5 -48t-54 -68t-18.5 -77q0 -47 29 -77.5t76 -52t107.5 -38t123 -34.5t123 -42t107.5 -60t76 -89t29 -129 q0 -97 -36 -173t-104 -129t-165 -81t-218 -28q-101 0 -185.5 22t-146 65t-96 107.5t-34.5 150.5z" />
<glyph unicode="T" d="M185 1081l26 147h978l-26 -147h-390l-190 -1081h-204l190 1081h-384z" />
<glyph unicode="U" horiz-adv-x="1275" d="M185 373q0 27 2.5 55t7.5 58l131 742h200l-130 -737q-5 -30 -8 -57t-3 -52q0 -122 65.5 -181.5t202.5 -59.5q86 0 151 21.5t111.5 65t76 109t45.5 154.5l130 737h200l-131 -742q-20 -116 -67 -208.5t-120.5 -157t-173.5 -99t-227 -34.5q-107 0 -192.5 26.5t-145.5 76 t-92.5 121t-32.5 162.5z" />
<glyph unicode="V" horiz-adv-x="1078" d="M211 1228h199l168 -952l500 952h222l-662 -1228h-196z" />
<glyph unicode="W" horiz-adv-x="1569" d="M201 1228h204l73 -913l408 913h202l85 -913l395 913h207l-554 -1228h-200l-79 970l-423 -970h-199z" />
<glyph unicode="X" horiz-adv-x="1078" d="M5 0l522 633l-328 595h228l232 -457l366 457h227l-496 -595l320 -633h-227l-231 475l-389 -475h-224z" />
<glyph unicode="Y" horiz-adv-x="1078" d="M227 1228h221l200 -549l392 549h242l-552 -716l-90 -512h-204l88 502z" />
<glyph unicode="Z" horiz-adv-x="1078" d="M18 0l23 131l923 950h-689l26 147h949l-22 -126l-926 -954h763l-26 -148h-1021z" />
<glyph unicode="[" horiz-adv-x="589" d="M66 -308l273 1549h401l-23 -133h-212l-226 -1281h209l-24 -135h-398z" />
<glyph unicode="\" horiz-adv-x="620" d="M231 1259h175l151 -1559h-181z" />
<glyph unicode="]" horiz-adv-x="589" d="M-3 -308l23 135h214l226 1281h-211l23 133h400l-273 -1549h-402z" />
<glyph unicode="^" horiz-adv-x="1165" d="M143 391l562 783h139l285 -783h-182l-206 576l-415 -576h-183z" />
<glyph unicode="_" horiz-adv-x="879" d="M-40 -204l23 135h886l-23 -135h-886z" />
<glyph unicode="`" horiz-adv-x="589" d="M221 1228h232l189 -278h-182z" />
<glyph unicode="a" horiz-adv-x="930" d="M110 208q0 76 31 132.5t87 95t133.5 60t171.5 27.5l223 15q5 24 10 49.5t5 51.5q0 29 -9 53.5t-28.5 42t-51.5 27t-77 9.5q-85 0 -137 -39.5t-80 -115.5h-182q19 66 55.5 120t89.5 92t121 59t151 21q78 0 139.5 -17.5t105 -50.5t66.5 -81t23 -109q0 -14 -1 -32t-4 -33 l-102 -585h-179l23 134q-50 -68 -136.5 -111t-203.5 -43q-58 0 -103 17t-76.5 47.5t-48 72t-16.5 91.5zM308 226q0 -21 7.5 -40.5t23.5 -34.5t40.5 -24t57.5 -9q50 0 98 20.5t88 57t68.5 86t38.5 106.5l3 20l-218 -15q-43 -3 -80.5 -13t-65.5 -29.5t-44.5 -50t-16.5 -74.5z " />
<glyph unicode="b" horiz-adv-x="1002" d="M104 0l216 1228h183l-72 -410q51 45 121 69t139 24q77 0 139 -24t105.5 -70t66.5 -111.5t23 -147.5q0 -27 -2.5 -55.5t-7.5 -58.5q-20 -110 -65.5 -196.5t-107.5 -146t-134.5 -90.5t-144.5 -31q-60 0 -102.5 11t-72.5 30t-48.5 43t-29.5 50l-20 -114h-186zM357 331 q0 -107 46.5 -158t133.5 -51q53 0 98.5 19.5t82.5 59.5t63.5 100.5t41.5 142.5q5 28 7.5 54.5t2.5 52.5q0 47 -10 87t-31.5 69t-56.5 45.5t-84 16.5q-115 0 -184 -78t-99 -247q-5 -32 -8 -60t-3 -53z" />
<glyph unicode="c" horiz-adv-x="977" d="M116 336q0 51 11 112q18 105 61 190t109 145t152.5 92.5t191.5 32.5q80 0 146.5 -17.5t114 -55t74 -96t26.5 -140.5v-16h-186q-5 95 -53.5 141.5t-136.5 46.5q-116 0 -198 -83t-111 -250q-9 -53 -9 -97q0 -112 54.5 -167t148.5 -55q50 0 89 9.5t69 31t52 56t40 84.5h197 q-51 -167 -168 -245t-304 -78q-90 0 -159 26t-116 73t-71 113t-24 147z" />
<glyph unicode="d" horiz-adv-x="1002" d="M131 330q0 27 3 55t8 59q19 108 63.5 194t109 147t145 93.5t170.5 32.5q89 0 142.5 -26.5t85.5 -66.5l72 410h183l-216 -1228h-186l20 114q-21 -26 -48 -50t-63.5 -43t-83 -30t-106.5 -11q-62 0 -116.5 23.5t-95 68t-64 109.5t-23.5 149zM323 335q0 -109 48 -161t135 -52 q106 0 180 79t103 243q12 70 12 125q0 104 -45 152t-136 48q-63 0 -111 -26t-83 -70t-57.5 -103.5t-34.5 -125.5q-5 -30 -8 -57t-3 -52z" />
<glyph unicode="e" d="M126 325q0 55 10 111q19 105 65 192t113.5 149.5t154 96.5t186.5 34q81 0 147.5 -21.5t113.5 -64t73 -106t26 -146.5q0 -25 -2.5 -51.5t-7.5 -55.5l-13 -72h-668q-6 -38 -6 -70q0 -100 54.5 -151t147.5 -51q45 0 86.5 10t76 31t61.5 52.5t44 74.5h180q-26 -70 -68 -127 t-101 -97.5t-135 -63t-169 -22.5q-88 0 -156.5 23.5t-116 68t-72 109t-24.5 147.5zM351 529h476q3 16 4 30.5t1 28.5q0 86 -50.5 134.5t-151.5 48.5q-100 0 -173.5 -61.5t-105.5 -180.5z" />
<glyph unicode="f" horiz-adv-x="557" d="M147 753l24 135h144l11 60q9 54 37.5 104.5t74 89.5t108 62.5t140.5 23.5h97l-24 -135h-74q-79 0 -120 -39t-54 -110l-10 -56h188l-24 -135h-188l-132 -753h-186l132 753h-144z" />
<glyph unicode="g" horiz-adv-x="990" d="M50 -112q0 6 1 13h189q0 -78 50.5 -116t135.5 -38q55 0 102 14t84 44t63 77.5t38 115.5l13 71q-26 -22 -57 -39t-65.5 -29t-70.5 -18t-70 -6q-92 0 -155.5 26t-103 71.5t-57 106.5t-17.5 132q0 63 12 131q18 104 60 188t105 143.5t145 92t181 32.5q42 0 77.5 -9.5 t64 -23.5t48 -31.5t29.5 -33.5l15 86h186l-147 -833q-38 -220 -168.5 -329.5t-335.5 -109.5q-87 0 -153 21t-110 56.5t-66.5 82.5t-22.5 99v13zM323 334q0 -47 10 -86.5t31.5 -68t56 -44.5t84.5 -16q116 0 185 78t99 247q12 70 12 122q0 55 -13 91t-37 57.5t-58 30t-76 8.5 q-49 0 -94 -18t-82 -56t-65 -96t-42 -139q-11 -61 -11 -110z" />
<glyph unicode="h" horiz-adv-x="967" d="M98 0l216 1229h186l-79 -451q21 24 49.5 46.5t63 39t75.5 26.5t87 10q64 0 116.5 -14.5t90 -45.5t58 -81t20.5 -120q0 -24 -2.5 -50t-7.5 -55l-94 -534h-186l94 534q6 37 6 68q0 81 -40 121t-112 40q-48 0 -91 -12.5t-77 -39.5t-58 -70.5t-35 -104.5l-94 -536h-186z" />
<glyph unicode="i" horiz-adv-x="436" d="M128 0l156 888h183l-156 -888h-183zM298 1012l35 198h196l-35 -198h-196z" />
<glyph unicode="j" horiz-adv-x="387" d="M-181 -318l24 135h74q77 0 126.5 40.5t65.5 132.5l158 898h182l-161 -914q-12 -71 -45 -125.5t-83.5 -91.5t-114.5 -56t-137 -19h-89zM284 1012l35 198h194l-35 -198h-194z" />
<glyph unicode="k" horiz-adv-x="879" d="M83 0l216 1229h182l-128 -725l442 384h220l-426 -375l274 -513h-210l-198 395l-143 -126l-47 -269h-182z" />
<glyph unicode="l" horiz-adv-x="420" d="M118 0l213 1213h184l-213 -1213h-184z" />
<glyph unicode="m" horiz-adv-x="1371" d="M88 0l156 888h186l-18 -103q21 24 45.5 45t54.5 36.5t65.5 24.5t78.5 9q81 0 133.5 -27.5t73.5 -91.5q22 22 49 43.5t59.5 38.5t70.5 27t80 10q119 0 183.5 -54.5t64.5 -176.5q0 -49 -10 -105l-99 -564h-186l99 564q3 19 5 36.5t2 32.5q0 68 -30.5 99t-85.5 31 q-79 0 -129.5 -46t-69.5 -151l-99 -566h-186l99 564q8 46 8 77q0 66 -29 94t-87 28q-79 0 -130 -48.5t-69 -151.5l-99 -563h-186z" />
<glyph unicode="n" horiz-adv-x="977" d="M98 0l156 888h186l-19 -110q21 24 49.5 46.5t63 39t75.5 26.5t87 10q64 0 116.5 -14.5t90 -45.5t58 -81t20.5 -120q0 -24 -2.5 -50t-7.5 -55l-94 -534h-186l94 534q6 37 6 68q0 81 -40 121t-112 40q-48 0 -91 -12.5t-77 -39.5t-58 -70.5t-35 -104.5l-94 -536h-186z" />
<glyph unicode="o" horiz-adv-x="977" d="M111 343q0 26 2.5 52.5t7.5 55.5q18 99 59.5 183t106.5 144.5t153.5 95t199.5 34.5q95 0 166 -28t118.5 -76.5t71.5 -115.5t24 -145q0 -56 -10 -112q-18 -104 -63 -188t-112 -143t-153 -91t-187 -32q-81 0 -151 24t-121.5 70.5t-81.5 114.5t-30 157zM303 353 q0 -52 12.5 -95t38.5 -74t64.5 -48t91.5 -17q68 0 121 25.5t92 68.5t64 99.5t36 118.5q5 26 7 55t2 52q0 50 -11.5 92.5t-36.5 73t-64.5 47.5t-94.5 17q-70 0 -123.5 -26t-92 -70t-63 -101t-35.5 -120q-4 -23 -6 -50t-2 -48z" />
<glyph unicode="p" horiz-adv-x="1002" d="M36 -322l214 1210h186l-15 -86q15 16 41 33.5t59 31.5t72 23.5t81 9.5q84 0 148 -23.5t107 -67.5t65 -107t22 -141q0 -53 -11 -117q-17 -92 -52.5 -176.5t-95 -149t-143.5 -103t-196 -38.5q-69 0 -131.5 23.5t-97.5 68.5l-69 -391h-184zM345 317q0 -103 44.5 -150.5 t136.5 -47.5q63 0 111 25.5t83.5 70t58 103.5t34.5 126q9 54 9 97q0 55 -13.5 95t-38 66t-58.5 38.5t-74 12.5q-52 0 -96 -13.5t-79.5 -48t-62 -94.5t-42.5 -153q-7 -36 -10 -67.5t-3 -59.5z" />
<glyph unicode="q" horiz-adv-x="1002" d="M139 313q0 63 12 131q18 104 60 188t105 143.5t145 92t181 32.5q42 0 77.5 -9.5t64 -23.5t48 -31.5t29.5 -33.5l15 86h186l-212 -1210h-184l69 391q-26 -22 -57 -39t-65.5 -29t-70.5 -18t-70 -6q-92 0 -155.5 26t-103 71.5t-57 106.5t-17.5 132zM332 334q0 -47 10 -86.5 t31.5 -68t56 -44.5t84.5 -16q116 0 185 78t99 247q12 70 12 122q0 55 -13 91t-37 57.5t-58 30t-76 8.5q-49 0 -94 -18t-82 -56t-65 -96t-42 -139q-11 -61 -11 -110z" />
<glyph unicode="r" horiz-adv-x="674" d="M110 0l92 522q14 79 45 146t83 116t126.5 76.5t174.5 27.5h159l-25 -140h-154q-95 0 -149.5 -55.5t-74.5 -170.5l-92 -522h-185z" />
<glyph unicode="s" horiz-adv-x="879" d="M101 235q0 30 6 63h182q-1 -8 -2 -24.5t-1 -24.5q0 -130 182 -130q32 0 69.5 8.5t69.5 26.5t53.5 46.5t21.5 69.5q0 28 -13.5 46.5t-38.5 31t-60 21t-77 17.5q-68 14 -123.5 31.5t-95.5 44.5t-62 68t-22 101q0 63 29 114t80 87.5t120.5 56t149.5 19.5q75 0 138.5 -13.5 t109.5 -43t71.5 -75.5t25.5 -110q0 -15 -1.5 -29t-3.5 -31h-179q3 19 3 36q0 35 -14 59.5t-37.5 40t-54.5 22.5t-66 7q-29 0 -60 -6t-57.5 -20.5t-43.5 -38t-17 -58.5t18 -55.5t49.5 -33t74 -22t91.5 -21.5q60 -15 108.5 -33.5t82.5 -45.5t52 -64.5t18 -91.5 q0 -67 -33 -122.5t-90.5 -96t-135 -63t-165.5 -22.5q-90 0 -156.5 19.5t-110 54t-64.5 81.5t-21 103z" />
<glyph unicode="t" horiz-adv-x="558" d="M139 753l24 135h134l41 230h184l-41 -230h192l-24 -135h-192l-89 -504q-6 -32 -6 -54q0 -39 19.5 -54.5t66.5 -15.5q18 0 37.5 0.5t36.5 2.5q19 2 37 4l-22 -126q-20 -4 -43 -7q-20 -3 -46.5 -5t-57.5 -2q-115 0 -165 41.5t-50 126.5q0 34 8 80l90 513h-134z" />
<glyph unicode="u" horiz-adv-x="970" d="M150 249q0 49 10 105l94 534h186l-94 -534q-6 -38 -6 -68q0 -81 40 -121t112 -40q48 0 90 12.5t74.5 39.5t55.5 70t34 105l94 536h186l-156 -888h-186l18 107q-21 -24 -48 -46t-60.5 -38t-73.5 -25.5t-86 -9.5q-64 0 -116 14.5t-89.5 45.5t-58 80.5t-20.5 120.5z" />
<glyph unicode="v" horiz-adv-x="880" d="M166 888h191l110 -677l349 677h205l-496 -888h-182z" />
<glyph unicode="w" horiz-adv-x="1275" d="M160 888h183l68 -667l298 667h179l56 -661l300 661h183l-442 -888h-176l-47 684l-292 -684h-192z" />
<glyph unicode="x" horiz-adv-x="879" d="M41 0l365 456l-220 432h203l146 -296l240 296h210l-372 -438l230 -450h-205l-141 317l-250 -317h-206z" />
<glyph unicode="y" horiz-adv-x="890" d="M86 -423l252 443l-177 868h192l120 -651l350 651h208l-746 -1311h-199z" />
<glyph unicode="z" horiz-adv-x="879" d="M68 0l21 121l598 632h-450l24 135h700l-18 -101l-619 -654h511l-23 -133h-744z" />
<glyph unicode="{" horiz-adv-x="589" d="M127 434l12 68q45 12 72.5 27t44 35.5t25 47t14.5 60.5l50 283q11 65 40 124t77 105t115 76t156 38l-18 -106q-69 -5 -110.5 -46t-56.5 -129l-54 -308q-14 -79 -60.5 -144.5t-127.5 -97.5q60 -19 86 -60.5t26 -98.5q0 -14 -1.5 -28t-3.5 -29l-58 -328q-3 -15 -4 -29 t-1 -26q0 -57 28 -85t82 -36l-18 -101q-74 6 -126 29.5t-85 59.5t-48.5 82t-15.5 98q0 17 2 35t5 37l50 284q2 14 4 27t2 25q0 40 -22 68.5t-81 42.5z" />
<glyph unicode="|" horiz-adv-x="390" d="M39 -360l289 1641h180l-289 -1641h-180z" />
<glyph unicode="}" horiz-adv-x="589" d="M0 -354l17 101q69 9 110.5 49.5t56.5 126.5l58 328q13 77 56.5 135t126.5 81q-35 16 -58 41t-35 56.5t-14 68.5t5 76l54 308q15 87 -12 128.5t-93 46.5l18 106q86 -8 143 -38t88.5 -76t39.5 -105t-3 -124l-50 -283q-6 -34 -7 -60.5t8 -47t31.5 -35.5t63.5 -27l-12 -68 q-41 -9 -68.5 -24.5t-44.5 -36t-26.5 -46.5t-15.5 -56l-50 -284q-11 -63 -40 -121.5t-76.5 -105t-115 -77t-155.5 -37.5z" />
<glyph unicode="~" horiz-adv-x="1165" d="M173 382q25 31 57 65.5t71.5 63t85.5 47t98 18.5q55 0 100 -17.5t85 -39t76.5 -39t75.5 -17.5q22 0 45 7t48.5 24.5t54 46t60.5 70.5l99 -87q-30 -40 -63.5 -77t-72.5 -65.5t-83 -46t-95 -17.5q-63 0 -109.5 17t-84 37t-69.5 37t-67 17q-19 0 -40 -4.5t-48 -20t-61.5 -45 t-79.5 -78.5z" />
<glyph unicode="&#xa1;" horiz-adv-x="589" d="M126 -333l29 166q5 30 14 76t20.5 101t24 115.5t24.5 119.5q29 137 62 292h160q-21 -155 -39 -292q-8 -59 -16 -119.5t-16 -115.5t-15 -101t-12 -76l-29 -166h-207zM313 794q4 24 16.5 45t31 36t41 24t47.5 9q23 0 42 -9t32 -24t18 -36t1 -45q-5 -24 -17.5 -44.5 t-30.5 -36t-40 -24t-45 -8.5q-25 0 -44.5 8.5t-32.5 24t-18.5 36t-0.5 44.5z" />
<glyph unicode="&#xa2;" d="M115.5 301q-2.5 65 10.5 137q16 94 60 179.5t111.5 150t156.5 102.5t196 38q50 0 88 -7l104 204h101l-115 -228q85 -34 130 -107.5t41 -196.5h-186q-11 97 -63 151l-302 -598q25 -7 62 -7q98 0 165.5 59.5t102.5 161.5h197q-30 -81 -75.5 -147.5t-106 -114.5 t-137.5 -74.5t-171 -26.5q-32 0 -58 3t-51 7l-114 -226h-101l127 252q-56 28 -93.5 71t-57 97.5t-22 119.5zM307.5 360.5q-1.5 -38.5 4.5 -73.5t19 -65t35 -52l305 596q-23 5 -46 5q-66 0 -118.5 -28.5t-91 -75.5t-63.5 -107t-36 -122q-7 -39 -8.5 -77.5z" />
<glyph unicode="&#xa3;" d="M82 0l14 121q42 25 86 58t79.5 74t58.5 89.5t23 104.5q0 32 -6 65h-184l24 138h129q-14 32 -26.5 78t-12.5 94q0 85 32.5 153t88.5 115t132.5 72t163.5 25q88 0 154.5 -20.5t111.5 -59.5t68 -94.5t23 -125.5q0 -21 -1.5 -38.5t-6.5 -41.5h-179q7 38 7 73q0 88 -45 126.5 t-134 38.5q-51 0 -92 -16.5t-70.5 -46t-45.5 -71t-16 -91.5q0 -48 16.5 -89.5t41.5 -80.5h251l-24 -138h-206q1 -11 1.5 -19t0.5 -16q0 -50 -16.5 -97t-45.5 -88t-69 -75t-86 -58h49h26t13.5 0.5t12.5 0.5h23h44h400l-28 -160h-780z" />
<glyph unicode="&#xa4;" horiz-adv-x="950" d="M73 196l87 72q-16 30 -25 59t-12.5 58.5t-1.5 61t8 67.5q13 72 40 132t78 117l-61 76l129 111l59 -78q65 43 130.5 61.5t137.5 18.5t124.5 -21t103.5 -59l92 78l86 -111l-89 -76q32 -60 39.5 -121t-5.5 -137q-13 -72 -42.5 -126t-78.5 -111l63 -72l-125 -108l-65 75 q-63 -42 -129 -61t-142 -19q-71 0 -123 20.5t-102 59.5l-86 -75zM270 514q-10 -58 3.5 -110t45.5 -91.5t80 -62.5t106 -23q60 0 117.5 22.5t104.5 62t79.5 93t43.5 114.5q10 58 -3 110t-44.5 91t-79.5 62t-107 23q-62 0 -120 -22t-104.5 -61t-78.5 -92t-43 -116z" />
<glyph unicode="&#xa5;" d="M181 257l25 143h259l21 121h-259l25 142h185l-210 550h222l163 -511l352 511h214l-401 -550h185l-25 -142h-259l-21 -121h259l-25 -143h-259l-45 -257h-192l45 257h-259z" />
<glyph unicode="&#xa6;" horiz-adv-x="390" d="M52 -284l110 619h180l-110 -619h-180zM195 524l109 616h180l-109 -616h-180z" />
<glyph unicode="&#xa7;" d="M118 57h170q-10 -54 -2.5 -93t29 -65t55.5 -38.5t78 -12.5q28 0 57 8t53.5 24t42.5 38.5t23 52.5q6 34 -3 62t-27 50.5t-41.5 40.5t-45.5 33l-212 143q-42 28 -72.5 55.5t-49.5 59t-25 68.5t2 83q7 38 25.5 73.5t45.5 66t61 55t73 42.5q-14 20 -24.5 39.5t-16.5 40.5 t-7 44.5t4 52.5q9 53 41 100.5t84 83t121.5 56.5t155.5 21q80 0 139.5 -24t96.5 -68t49.5 -107t-1.5 -141h-174q11 103 -21 153.5t-120 50.5q-32 0 -62 -8.5t-54 -25.5t-40 -41.5t-22 -56.5q-7 -38 12.5 -70.5t55 -61.5t82.5 -57t96 -57t95.5 -61t80 -70.5t50.5 -84 t7 -101.5q-8 -44 -29 -80t-50 -66.5t-65 -56.5t-74 -50q10 -11 21.5 -28t20 -39t12 -48.5t-1.5 -56.5q-12 -70 -50 -122t-92 -86t-120 -51t-135 -17q-82 0 -143.5 24t-100 69t-53.5 109.5t-5 145.5zM323 580q-3 -19 3 -39t19.5 -40.5t33 -40.5t42.5 -39l253 -170 q21 11 42.5 26.5t39.5 33.5t31.5 39t17.5 44q5 28 -4 51.5t-26 42t-38 34t-40 27.5l-242 163q-54 -26 -89 -56.5t-43 -75.5z" />
<glyph unicode="&#xa8;" horiz-adv-x="630" d="M215 1013l35 197h190l-35 -197h-190zM580 1013l35 197h191l-35 -197h-191z" />
<glyph unicode="&#xa9;" horiz-adv-x="1364" d="M152 616q24 138 91.5 256t167 204t225.5 134.5t267 48.5t250 -48.5t178 -134.5t95 -204t2 -256t-91.5 -256t-167 -204t-225.5 -134.5t-267 -48.5t-250 48.5t-178 134.5t-95 204t-2 256zM270.5 401q19.5 -98 74.5 -168.5t144 -110t207 -39.5t220.5 39.5t183 110t134 168.5 t74.5 215t1.5 215t-74.5 168.5t-144 110t-207 39.5t-220.5 -39.5t-183 -110t-134 -168.5t-74.5 -215t-1.5 -215zM451.5 465.5q-12.5 70.5 2.5 157.5q14 81 51.5 149.5t92.5 118t125 77.5t151 28q59 0 110 -16t87.5 -47.5t57 -79t19.5 -110.5h-131q-1 69 -43 104.5t-120 35.5 q-100 0 -166 -67.5t-89 -192.5q-47 -268 165 -268q161 0 207 149h134q-17 -63 -53.5 -111.5t-85 -82t-106 -50.5t-116.5 -17q-81 0 -142.5 26.5t-99.5 76t-50.5 120z" />
<glyph unicode="&#xaa;" horiz-adv-x="700" d="M234.5 776q-4.5 33 1.5 69q15 85 88 130.5t187 45.5h134l7 41q9 51 -15 74t-73 23q-47 0 -78.5 -19t-44.5 -56h-146q10 38 35 70t62 55.5t85.5 36.5t105.5 13t100.5 -12.5t71.5 -38t39 -63t2 -86.5l-65 -372h-145l10 57q-14 -13 -32.5 -27t-42 -26t-52.5 -19.5t-63 -7.5 q-56 0 -92 14.5t-55.5 39.5t-24 58zM384 844q-6 -37 14.5 -57.5t59.5 -20.5q71 0 113.5 42t56.5 117h-134q-53 0 -78.5 -23.5t-31.5 -57.5z" />
<glyph unicode="&#xab;" horiz-adv-x="1020" d="M177 437l1 8l273 305h201l-274 -309l165 -309h-201zM577 437l1 8l273 305h201l-274 -309l165 -309h-201z" />
<glyph unicode="&#xac;" horiz-adv-x="1165" d="M198 511l26 151h924l-85 -482h-191l59 331h-733z" />
<glyph unicode="&#xad;" horiz-adv-x="530" d="M116 379l23 126h430l-23 -126h-430z" />
<glyph unicode="&#xae;" horiz-adv-x="1364" d="M152 616q24 138 91.5 256t167 204t225.5 134.5t267 48.5t250 -48.5t178 -134.5t95 -204t2 -256t-91.5 -256t-167 -204t-225.5 -134.5t-267 -48.5t-250 48.5t-178 134.5t-95 204t-2 256zM270.5 401q19.5 -98 74.5 -168.5t144 -110t207 -39.5t220.5 39.5t183 110t134 168.5 t74.5 215t1.5 215t-74.5 168.5t-144 110t-207 39.5t-220.5 -39.5t-183 -110t-134 -168.5t-74.5 -215t-1.5 -215zM476 248l129 732h283q74 0 124.5 -17.5t80 -47.5t38.5 -70.5t1 -86.5q-9 -50 -29 -90t-48.5 -69t-65 -46.5t-78.5 -21.5l124 -283h-155l-114 278h-110l-49 -278 h-131zM676 638h152q80 0 118 33.5t48 89.5q4 26 0.5 47t-18 36t-40.5 23t-66 8h-152z" />
<glyph unicode="&#xaf;" horiz-adv-x="700" d="M237 1013l23 129h582l-23 -129h-582z" />
<glyph unicode="&#xb0;" horiz-adv-x="702" d="M247 946q10 55 40 104t73.5 86t96.5 58t108 21t100.5 -21t75.5 -58t43 -86t3 -104q-10 -58 -40 -107t-73.5 -85t-96 -56.5t-107.5 -20.5t-100.5 20.5t-76 56.5t-43.5 85t-3 107zM363 946q-6 -36 0.5 -65t23 -49.5t43 -32t59.5 -11.5t63.5 11.5t55 32t41 49.5t22.5 65 q6 35 0 63.5t-23 49t-43.5 31.5t-59.5 11t-63.5 -11t-54.5 -31.5t-41 -49t-23 -63.5z" />
<glyph unicode="&#xb1;" d="M60 0l26 150h860l-26 -150h-860zM144 477l26 150h339l49 276h182l-49 -276h339l-26 -150h-339l-49 -273h-182l49 273h-339z" />
<glyph unicode="&#xb2;" horiz-adv-x="700" d="M181 508l20 113l334 238q50 36 87.5 73.5t45.5 84.5q9 52 -17.5 86.5t-88.5 34.5q-69 0 -108 -42t-50 -106h-142q9 51 34.5 96.5t66 80t96.5 54.5t126 20q65 0 112.5 -17t77 -47t40 -70.5t2.5 -86.5q-8 -44 -29.5 -80t-50 -66t-61 -54t-61.5 -44l-221 -156h339l-20 -112 h-532z" />
<glyph unicode="&#xb3;" horiz-adv-x="700" d="M196 731h142q-5 -72 29 -99.5t96 -27.5q68 0 106 30t48 84q11 63 -19.5 88t-89.5 25h-47l17 96h44q57 0 87.5 27t41.5 85q7 42 -18.5 70.5t-86.5 28.5q-117 0 -158 -128h-136q10 49 37.5 91t67.5 73t91.5 49t110.5 18q57 0 104.5 -12.5t80.5 -37t48.5 -60.5t6.5 -83 q-9 -54 -46 -99t-104 -61q65 -11 94.5 -51t16.5 -112q-9 -50 -34 -92t-64.5 -72.5t-94 -48t-121.5 -17.5q-139 0 -199.5 60t-50.5 176z" />
<glyph unicode="&#xb4;" horiz-adv-x="589" d="M288 950l280 279h234l-338 -279h-176z" />
<glyph unicode="&#xb5;" d="M33 -328l214 1216h183l-101 -573q-17 -95 17.5 -145.5t133.5 -50.5q43 0 86.5 16.5t80.5 48.5t64 79t38 109l91 516h183l-156 -888h-183l16 94q-48 -61 -114 -89t-150 -28q-24 0 -48 5t-44.5 14t-36.5 22t-25 29l-66 -375h-183z" />
<glyph unicode="&#xb6;" horiz-adv-x="1110" d="M271 898q29 164 142 247t295 83h110l-261 -1479h-161l146 824q-66 0 -121 26t-92 70t-53.5 103.5t-4.5 125.5zM716 -251l261 1479h161l-261 -1479h-161z" />
<glyph unicode="&#xb7;" horiz-adv-x="475" d="M216 596q4 27 17.5 49t32 37.5t41.5 24t46 8.5q50 0 75.5 -32.5t16.5 -86.5q-4 -23 -15.5 -43.5t-28.5 -36t-40 -25t-50 -9.5q-25 0 -44.5 9.5t-32 25t-17.5 36t-1 43.5z" />
<glyph unicode="&#xb8;" horiz-adv-x="700" d="M51 -402l64 90q34 -26 69.5 -34t64.5 -8q31 0 57 9.5t45.5 24.5t31.5 34t15 38q4 21 -1 36.5t-16.5 25t-27.5 14.5t-35 5q-25 0 -51 -9t-45 -23l-46 44l151 162h126l-94 -98q11 0 19.5 1.5t16.5 1.5q53 0 83 -15t44 -38.5t15.5 -50.5t-2.5 -51q-8 -45 -35 -83t-67 -65.5 t-89.5 -43.5t-101.5 -16q-41 0 -88 11t-103 38z" />
<glyph unicode="&#xb9;" horiz-adv-x="700" d="M316 1042l21 118l189 81h137l-129 -733h-153l107 604z" />
<glyph unicode="&#xba;" horiz-adv-x="700" d="M231.5 835.5q-9.5 55.5 2.5 124.5t40.5 124.5t72 94t100 59.5t124.5 21t117.5 -21t79 -59.5t39 -94t-2.5 -124.5t-41 -124.5t-72.5 -94t-100 -59.5t-124.5 -21q-67 0 -116 21t-79 59.5t-39.5 94zM364.5 872.5q4.5 -37.5 20.5 -62.5t41 -37t58 -12q65 0 116 49t69 150 q17 101 -16 150t-99 49q-65 0 -116.5 -49.5t-68.5 -149.5q-9 -50 -4.5 -87.5z" />
<glyph unicode="&#xbb;" horiz-adv-x="1020" d="M123 132l273 309l-164 309h201l165 -305l-1 -8l-273 -305h-201zM523 132l273 309l-164 309h201l165 -305l-1 -8l-273 -305h-201z" />
<glyph unicode="&#xbc;" horiz-adv-x="1471" d="M232 -23l998 1210h179l-1001 -1210h-176zM266 1042l21 118l189 81h137l-129 -733h-153l107 604zM811 167l16 91l460 473h132l-80 -455h105l-19 -109h-105l-29 -167h-153l29 167h-356zM1011 276h175l38 216z" />
<glyph unicode="&#xbd;" horiz-adv-x="1471" d="M162 -23l999 1210h183l-1003 -1210h-179zM266 1042l21 118l189 81h137l-129 -733h-153l107 604zM848 0l20 113l334 238q50 36 87.5 73.5t45.5 84.5q9 52 -17.5 86.5t-88.5 34.5q-69 0 -108 -42t-50 -106h-142q9 51 34.5 96.5t66 80t96.5 54.5t126 20q65 0 112.5 -17 t77 -47t40 -70.5t2.5 -86.5q-8 -44 -29.5 -80t-50 -66t-61 -54t-61.5 -44l-221 -156h339l-20 -112h-532z" />
<glyph unicode="&#xbe;" horiz-adv-x="1471" d="M201 736h142q-5 -72 31.5 -102t98.5 -30q68 0 106 30t48 84q5 30 0 52.5t-23 37.5t-49.5 22t-79.5 7l17 96q77 0 118 26.5t52 87.5q3 17 -2 33.5t-18 29t-34.5 20.5t-51.5 8q-120 0 -161 -129h-136q10 49 37.5 91t68 73.5t92.5 49.5t112 18q57 0 104.5 -12.5t80.5 -37 t48.5 -60.5t6.5 -83q-9 -54 -45.5 -96t-103.5 -58q65 -11 94 -54t16 -115q-9 -50 -34 -92t-64.5 -72.5t-94 -48t-121.5 -17.5q-139 0 -202 62.5t-53 178.5zM297 -23l1001 1210h181l-1002 -1210h-180zM811 167l16 91l460 473h132l-80 -455h105l-19 -109h-105l-29 -167h-153 l29 167h-356zM1011 276h175l38 216z" />
<glyph unicode="&#xbf;" horiz-adv-x="880" d="M33 -58q0 58 16.5 103t43.5 81.5t62 65.5t72.5 55t74 51t67 53t52 61t28.5 75l8 50h184l-9 -52q-12 -68 -46.5 -118t-79.5 -90.5t-94 -74.5t-90 -70.5t-67.5 -79.5t-26.5 -101q0 -31 11 -59t33 -49.5t55.5 -34.5t78.5 -13q100 0 165.5 56t86.5 180h183 q-14 -96 -52 -167.5t-95.5 -118.5t-132.5 -70.5t-163 -23.5q-85 0 -152.5 20.5t-115 58.5t-72.5 91.5t-25 120.5zM475 776q0 5 0.5 10.5t1.5 11.5q8 49 43 79.5t89 30.5q22 0 41.5 -8t33 -22t21.5 -32.5t8 -39.5q0 -5 -0.5 -9.5t-1.5 -9.5q-9 -50 -45.5 -81t-87.5 -31 q-46 0 -74.5 28.5t-28.5 72.5z" />
<glyph unicode="&#xc0;" horiz-adv-x="1177" d="M-23 0l724 1228h202l271 -1228h-199l-65 309h-535l-176 -309h-222zM459 457h420l-111 539zM644 1651h232l188 -279h-181z" />
<glyph unicode="&#xc1;" horiz-adv-x="1177" d="M-23 0l724 1228h202l271 -1228h-199l-65 309h-535l-176 -309h-222zM459 457h420l-111 539zM596 1372l281 279h234l-338 -279h-177z" />
<glyph unicode="&#xc2;" horiz-adv-x="1177" d="M-23 0l724 1228h202l271 -1228h-199l-65 309h-535l-176 -309h-222zM459 457h420l-111 539zM509 1372l292 279h165l182 -279h-195l-96 162l-153 -162h-195z" />
<glyph unicode="&#xc3;" horiz-adv-x="1177" d="M-23 0l724 1228h202l271 -1228h-199l-65 309h-535l-176 -309h-222zM459 457h420l-111 539zM507 1360q8 36 23 75.5t41 72.5t65.5 54.5t96.5 21.5q31 0 59.5 -13t56.5 -28t57.5 -28t63.5 -13q23 0 42 25t31 73h134q-8 -43 -23 -84.5t-41.5 -74.5t-65.5 -53.5t-94 -20.5 q-33 0 -60 12t-52.5 27t-52.5 27t-58 12q-23 0 -47 -18t-37 -67h-139z" />
<glyph unicode="&#xc4;" horiz-adv-x="1177" d="M-23 0l724 1228h202l271 -1228h-199l-65 309h-535l-176 -309h-222zM459 457h420l-111 539zM542 1348l35 197h190l-35 -197h-190zM907 1348l35 197h191l-35 -197h-191z" />
<glyph unicode="&#xc5;" horiz-adv-x="1177" d="M-23 0l693 1175q-32 26 -46 66t-5 91q7 42 29 77.5t53 61t69.5 40t79.5 14.5t74.5 -14.5t55.5 -40t31 -61t2 -77.5q-8 -49 -35 -88t-65 -65l261 -1179h-199l-65 309h-535l-176 -309h-222zM459 457h420l-111 539zM721 1332q-7 -42 14.5 -68.5t64.5 -26.5t73.5 26.5 t37.5 68.5q8 42 -13.5 68.5t-64.5 26.5t-73.5 -26.5t-38.5 -68.5z" />
<glyph unicode="&#xc6;" horiz-adv-x="1802" d="M3 0l924 1228h1003l-26 -147h-650l-65 -372h588l-27 -149h-588l-72 -412h650l-26 -148h-849l65 369h-446l-280 -369h-201zM596 517h360l99 564h-30z" />
<glyph unicode="&#xc7;" horiz-adv-x="1275" d="M146.5 371.5q-9.5 114.5 13.5 242.5q31 175 99 297.5t164 200t214.5 112.5t249.5 35q105 0 189 -27.5t143 -81t90 -133t29 -183.5h-207q-6 74 -27.5 126.5t-58.5 85.5t-90.5 48.5t-123.5 15.5q-101 0 -180.5 -40.5t-138 -108.5t-96 -157.5t-54.5 -187.5 q-16 -93 -12.5 -181.5t36.5 -158.5t100.5 -112.5t178.5 -42.5q71 0 132 24t112.5 66.5t92.5 101.5t72 128h208q-35 -87 -85.5 -166.5t-120 -142.5t-158.5 -105t-201 -55l-60 -63q11 0 19 1.5t15 1.5q54 0 84.5 -15t44.5 -38.5t15.5 -50.5t-2.5 -51q-8 -45 -35 -83t-67 -65.5 t-89.5 -43.5t-102.5 -16q-41 0 -88 11t-103 38l64 90q35 -26 70 -34t64 -8q31 0 57 9.5t45.5 24.5t31.5 34t15 38q7 42 -17.5 61.5t-61.5 19.5q-26 0 -51.5 -9t-45.5 -23l-46 44l114 122q-145 6 -238.5 60t-143 142t-59 202.5z" />
<glyph unicode="&#xc8;" horiz-adv-x="1078" d="M108 0l216 1228h889l-26 -147h-689l-65 -372h621l-27 -149h-621l-72 -412h700l-26 -148h-900zM688 1651h232l188 -279h-181z" />
<glyph unicode="&#xc9;" horiz-adv-x="1078" d="M108 0l216 1228h889l-26 -147h-689l-65 -372h621l-27 -149h-621l-72 -412h700l-26 -148h-900zM702 1372l281 279h234l-339 -279h-176z" />
<glyph unicode="&#xca;" horiz-adv-x="1078" d="M108 0l216 1228h889l-26 -147h-689l-65 -372h621l-27 -149h-621l-72 -412h700l-26 -148h-900zM551 1372l292 279h165l182 -279h-196l-95 162l-153 -162h-195z" />
<glyph unicode="&#xcb;" horiz-adv-x="1078" d="M108 0l216 1228h889l-26 -147h-689l-65 -372h621l-27 -149h-621l-72 -412h700l-26 -148h-900zM498 1348l35 197h190l-35 -197h-190zM863 1348l35 197h191l-35 -197h-191z" />
<glyph unicode="&#xcc;" horiz-adv-x="490" d="M139 0l216 1228h204l-216 -1228h-204zM301 1651h232l188 -279h-181z" />
<glyph unicode="&#xcd;" horiz-adv-x="490" d="M139 0l216 1228h204l-216 -1228h-204zM254 1372l282 279h234l-339 -279h-177z" />
<glyph unicode="&#xce;" horiz-adv-x="490" d="M139 0l216 1228h204l-216 -1228h-204zM168 1372l292 279h165l182 -279h-195l-96 162l-153 -162h-195z" />
<glyph unicode="&#xcf;" horiz-adv-x="490" d="M139 0l216 1228h204l-216 -1228h-204zM200 1348l35 197h190l-35 -197h-190zM565 1348l35 197h191l-35 -197h-191z" />
<glyph unicode="&#xd0;" horiz-adv-x="1275" d="M83 576l26 148h126l89 504h480q145 0 250.5 -43.5t168.5 -124t83 -193.5t-4 -251q-27 -154 -89.5 -269.5t-157.5 -192.5t-221.5 -115.5t-282.5 -38.5h-443l101 576h-126zM331 148h217q114 0 206.5 27.5t162.5 84.5t116.5 145.5t67.5 210.5q41 235 -43.5 350t-307.5 115 h-255l-63 -357h278l-26 -148h-278z" />
<glyph unicode="&#xd1;" horiz-adv-x="1275" d="M103 0l216 1228h199l476 -963l170 963h199l-216 -1228h-202l-476 952l-167 -952h-199zM558 1364q7 36 22 75.5t41.5 72.5t66 54.5t95.5 21.5q31 0 59.5 -12.5t57 -28t58 -28t63.5 -12.5q22 0 41 25t31 74h134q-8 -44 -23.5 -86t-42 -75t-65.5 -53t-94 -20q-33 0 -60 12 t-52.5 27t-51.5 27t-57 12q-12 0 -24 -4t-23.5 -14t-21.5 -26.5t-16 -41.5h-138z" />
<glyph unicode="&#xd2;" horiz-adv-x="1373" d="M156 478q0 166 53 308.5t147.5 247.5t226 165t289.5 60q133 0 234.5 -39t170 -107t103.5 -161.5t35 -201.5q0 -98 -20 -194.5t-60.5 -183.5t-101 -161.5t-141 -129t-181 -85t-220.5 -30.5q-135 0 -235.5 39t-167 107.5t-99.5 162t-33 203.5zM358 495q0 -83 19 -152 t60.5 -118.5t106.5 -77t157 -27.5q123 0 219 53t161 139.5t99 197t34 225.5q0 85 -23 153.5t-67 116.5t-108 74t-145 26q-113 0 -207 -47.5t-162 -130t-106 -194t-38 -238.5zM742 1651h232l188 -279h-181z" />
<glyph unicode="&#xd3;" horiz-adv-x="1373" d="M156 478q0 166 53 308.5t147.5 247.5t226 165t289.5 60q133 0 234.5 -39t170 -107t103.5 -161.5t35 -201.5q0 -98 -20 -194.5t-60.5 -183.5t-101 -161.5t-141 -129t-181 -85t-220.5 -30.5q-135 0 -235.5 39t-167 107.5t-99.5 162t-33 203.5zM358 495q0 -83 19 -152 t60.5 -118.5t106.5 -77t157 -27.5q123 0 219 53t161 139.5t99 197t34 225.5q0 85 -23 153.5t-67 116.5t-108 74t-145 26q-113 0 -207 -47.5t-162 -130t-106 -194t-38 -238.5zM695 1372l280 279h235l-339 -279h-176z" />
<glyph unicode="&#xd4;" horiz-adv-x="1373" d="M156 478q0 166 53 308.5t147.5 247.5t226 165t289.5 60q133 0 234.5 -39t170 -107t103.5 -161.5t35 -201.5q0 -98 -20 -194.5t-60.5 -183.5t-101 -161.5t-141 -129t-181 -85t-220.5 -30.5q-135 0 -235.5 39t-167 107.5t-99.5 162t-33 203.5zM358 495q0 -83 19 -152 t60.5 -118.5t106.5 -77t157 -27.5q123 0 219 53t161 139.5t99 197t34 225.5q0 85 -23 153.5t-67 116.5t-108 74t-145 26q-113 0 -207 -47.5t-162 -130t-106 -194t-38 -238.5zM607 1372l292 279h166l181 -279h-195l-95 162l-153 -162h-196z" />
<glyph unicode="&#xd5;" horiz-adv-x="1373" d="M156 478q0 166 53 308.5t147.5 247.5t226 165t289.5 60q133 0 234.5 -39t170 -107t103.5 -161.5t35 -201.5q0 -98 -20 -194.5t-60.5 -183.5t-101 -161.5t-141 -129t-181 -85t-220.5 -30.5q-135 0 -235.5 39t-167 107.5t-99.5 162t-33 203.5zM358 495q0 -83 19 -152 t60.5 -118.5t106.5 -77t157 -27.5q123 0 219 53t161 139.5t99 197t34 225.5q0 85 -23 153.5t-67 116.5t-108 74t-145 26q-113 0 -207 -47.5t-162 -130t-106 -194t-38 -238.5zM606 1364q8 36 23.5 75.5t41.5 72.5t65.5 54.5t95.5 21.5q31 0 59.5 -12.5t57 -28t58 -28 t63.5 -12.5q22 0 41.5 25t30.5 74h134q-8 -44 -23.5 -86t-41.5 -75t-65.5 -53t-94.5 -20q-32 0 -59 12t-52.5 27t-52.5 27t-58 12q-23 0 -47 -18t-37 -68h-139z" />
<glyph unicode="&#xd6;" horiz-adv-x="1372" d="M156 478q0 166 53 308.5t147.5 247.5t226 165t289.5 60q133 0 234.5 -39t170 -107t103.5 -161.5t35 -201.5q0 -98 -20 -194.5t-60.5 -183.5t-101 -161.5t-141 -129t-181 -85t-220.5 -30.5q-135 0 -235.5 39t-167 107.5t-99.5 162t-33 203.5zM358 495q0 -83 19 -152 t60.5 -118.5t106.5 -77t157 -27.5q123 0 219 53t161 139.5t99 197t34 225.5q0 85 -23 153.5t-67 116.5t-108 74t-145 26q-113 0 -207 -47.5t-162 -130t-106 -194t-38 -238.5zM631 1348l35 197h190l-35 -197h-190zM996 1348l35 197h191l-35 -197h-191z" />
<glyph unicode="&#xd7;" d="M130 160l315 268l-221 268l141 120l221 -268l315 268l99 -120l-315 -268l221 -268l-141 -120l-221 268l-315 -268z" />
<glyph unicode="&#xd8;" horiz-adv-x="1373" d="M34 20l183 165q-53 88 -65.5 194t9.5 232q24 137 86.5 255.5t156.5 205.5t216 137t266 50q112 0 207 -29t164 -90l170 152l99 -100l-179 -165q18 -30 32 -73.5t21 -96.5t5.5 -115t-13.5 -131q-23 -131 -82 -248t-152 -205.5t-217.5 -140t-278.5 -51.5q-119 0 -205.5 28 t-146.5 82l-169 -155zM351.5 459q2.5 -71 20.5 -134l742 687q-38 41 -98.5 69.5t-152.5 28.5q-108 0 -193 -42.5t-147.5 -112t-102.5 -159.5t-57 -185q-14 -81 -11.5 -152zM445 204q45 -37 108 -60t138 -23q109 0 195.5 40.5t149.5 108t103 156.5t57 185q12 69 10 135.5 t-20 128.5z" />
<glyph unicode="&#xd9;" horiz-adv-x="1275" d="M183 373q0 27 2.5 55t7.5 58l131 742h200l-130 -737q-5 -30 -8 -57t-3 -52q0 -122 65.5 -181.5t202.5 -59.5q86 0 151 21.5t111.5 65t76 109t45.5 154.5l130 737h200l-131 -742q-20 -116 -67 -208.5t-120.5 -157t-173.5 -99t-227 -34.5q-107 0 -192.5 26.5t-145.5 76 t-92.5 121t-32.5 162.5zM693 1651h232l188 -279h-182z" />
<glyph unicode="&#xda;" horiz-adv-x="1275" d="M183 373q0 27 2.5 55t7.5 58l131 742h200l-130 -737q-5 -30 -8 -57t-3 -52q0 -122 65.5 -181.5t202.5 -59.5q86 0 151 21.5t111.5 65t76 109t45.5 154.5l130 737h200l-131 -742q-20 -116 -67 -208.5t-120.5 -157t-173.5 -99t-227 -34.5q-107 0 -192.5 26.5t-145.5 76 t-92.5 121t-32.5 162.5zM645 1372l281 279h234l-339 -279h-176z" />
<glyph unicode="&#xdb;" horiz-adv-x="1275" d="M183 373q0 27 2.5 55t7.5 58l131 742h200l-130 -737q-5 -30 -8 -57t-3 -52q0 -122 65.5 -181.5t202.5 -59.5q86 0 151 21.5t111.5 65t76 109t45.5 154.5l130 737h200l-131 -742q-20 -116 -67 -208.5t-120.5 -157t-173.5 -99t-227 -34.5q-107 0 -192.5 26.5t-145.5 76 t-92.5 121t-32.5 162.5zM559 1372l292 279h164l183 -279h-196l-96 162l-152 -162h-195z" />
<glyph unicode="&#xdc;" horiz-adv-x="1275" d="M183 373q0 27 2.5 55t7.5 58l131 742h200l-130 -737q-5 -30 -8 -57t-3 -52q0 -122 65.5 -181.5t202.5 -59.5q86 0 151 21.5t111.5 65t76 109t45.5 154.5l130 737h200l-131 -742q-20 -116 -67 -208.5t-120.5 -157t-173.5 -99t-227 -34.5q-107 0 -192.5 26.5t-145.5 76 t-92.5 121t-32.5 162.5zM587 1348l35 197h190l-35 -197h-190zM952 1348l35 197h191l-35 -197h-191z" />
<glyph unicode="&#xdd;" horiz-adv-x="1078" d="M227 1228h221l200 -549l392 549h242l-552 -716l-90 -512h-204l88 502zM547 1372l280 279h235l-339 -279h-176z" />
<glyph unicode="&#xde;" horiz-adv-x="1078" d="M103 0l216 1228h199l-40 -225h281q88 0 152.5 -14.5t109.5 -40.5t71.5 -61.5t39.5 -77t13.5 -87.5t-7.5 -92q-19 -108 -77.5 -180.5t-140 -116t-176.5 -61.5t-188 -18h-210l-44 -254h-199zM372 401h214q72 0 132 12t105 39.5t74.5 73t41.5 111.5q8 47 -1 87t-37.5 69 t-77.5 45t-121 16h-250z" />
<glyph unicode="&#xdf;" horiz-adv-x="1018" d="M80 0l152 864q15 85 53 156.5t99 123.5t143.5 80.5t187.5 28.5q85 0 152.5 -23t114 -63.5t71 -97t24.5 -122.5q0 -113 -60.5 -185t-169.5 -116q41 -6 74.5 -27t57 -53.5t36 -76t12.5 -94.5q0 -109 -34.5 -188t-95.5 -130t-146 -75.5t-185 -24.5q-13 0 -32 1.5t-39.5 3.5 t-39 5.5t-31.5 7.5l25 142q32 -5 62 -8t68 -3q60 0 107 19t79.5 54.5t49.5 85t17 109.5q0 46 -12.5 80.5t-40.5 57.5t-73 35t-109 12l23 134q54 2 102.5 16.5t85 44t58 74t21.5 105.5q0 33 -11.5 61.5t-34.5 49t-57 32.5t-79 12q-125 0 -196 -64t-95 -199l-148 -845h-186z " />
<glyph unicode="&#xe0;" horiz-adv-x="929" d="M110 208q0 76 31 132.5t87 95t133.5 60t171.5 27.5l223 15q5 24 10 49.5t5 51.5q0 29 -9 53.5t-28.5 42t-51.5 27t-77 9.5q-85 0 -137 -39.5t-80 -115.5h-182q19 66 55.5 120t89.5 92t121 59t151 21q78 0 139.5 -17.5t105 -50.5t66.5 -81t23 -109q0 -14 -1 -32t-4 -33 l-102 -585h-179l23 134q-50 -68 -136.5 -111t-203.5 -43q-58 0 -103 17t-76.5 47.5t-48 72t-16.5 91.5zM308 226q0 -21 7.5 -40.5t23.5 -34.5t40.5 -24t57.5 -9q50 0 98 20.5t88 57t68.5 86t38.5 106.5l3 20l-218 -15q-43 -3 -80.5 -13t-65.5 -29.5t-44.5 -50t-16.5 -74.5z M464 1308h232l190 -278h-182z" />
<glyph unicode="&#xe1;" horiz-adv-x="929" d="M110 208q0 76 31 132.5t87 95t133.5 60t171.5 27.5l223 15q5 24 10 49.5t5 51.5q0 29 -9 53.5t-28.5 42t-51.5 27t-77 9.5q-85 0 -137 -39.5t-80 -115.5h-182q19 66 55.5 120t89.5 92t121 59t151 21q78 0 139.5 -17.5t105 -50.5t66.5 -81t23 -109q0 -14 -1 -32t-4 -33 l-102 -585h-179l23 134q-50 -68 -136.5 -111t-203.5 -43q-58 0 -103 17t-76.5 47.5t-48 72t-16.5 91.5zM308 226q0 -21 7.5 -40.5t23.5 -34.5t40.5 -24t57.5 -9q50 0 98 20.5t88 57t68.5 86t38.5 106.5l3 20l-218 -15q-43 -3 -80.5 -13t-65.5 -29.5t-44.5 -50t-16.5 -74.5z M423 1030l279 278h234l-337 -278h-176z" />
<glyph unicode="&#xe2;" horiz-adv-x="929" d="M110 208q0 76 31 132.5t87 95t133.5 60t171.5 27.5l223 15q5 24 10 49.5t5 51.5q0 29 -9 53.5t-28.5 42t-51.5 27t-77 9.5q-85 0 -137 -39.5t-80 -115.5h-182q19 66 55.5 120t89.5 92t121 59t151 21q78 0 139.5 -17.5t105 -50.5t66.5 -81t23 -109q0 -14 -1 -32t-4 -33 l-102 -585h-179l23 134q-50 -68 -136.5 -111t-203.5 -43q-58 0 -103 17t-76.5 47.5t-48 72t-16.5 91.5zM308 226q0 -21 7.5 -40.5t23.5 -34.5t40.5 -24t57.5 -9q50 0 98 20.5t88 57t68.5 86t38.5 106.5l3 20l-218 -15q-43 -3 -80.5 -13t-65.5 -29.5t-44.5 -50t-16.5 -74.5z M350 1030l290 278h166l182 -278h-195l-95 162l-153 -162h-195z" />
<glyph unicode="&#xe3;" horiz-adv-x="929" d="M110 208q0 76 31 132.5t87 95t133.5 60t171.5 27.5l223 15q5 24 10 49.5t5 51.5q0 29 -9 53.5t-28.5 42t-51.5 27t-77 9.5q-85 0 -137 -39.5t-80 -115.5h-182q19 66 55.5 120t89.5 92t121 59t151 21q78 0 139.5 -17.5t105 -50.5t66.5 -81t23 -109q0 -14 -1 -32t-4 -33 l-102 -585h-179l23 134q-50 -68 -136.5 -111t-203.5 -43q-58 0 -103 17t-76.5 47.5t-48 72t-16.5 91.5zM308 226q0 -21 7.5 -40.5t23.5 -34.5t40.5 -24t57.5 -9q50 0 98 20.5t88 57t68.5 86t38.5 106.5l3 20l-218 -15q-43 -3 -80.5 -13t-65.5 -29.5t-44.5 -50t-16.5 -74.5z M324 1020q7 36 22 75.5t41.5 72.5t66 54.5t95.5 21.5q32 0 60.5 -13t56.5 -28t57.5 -28t63.5 -13q22 0 41.5 25t30.5 73h134q-8 -43 -23 -84.5t-41 -74.5t-65 -53.5t-94 -20.5q-33 0 -60.5 12t-53 27t-52 27t-57.5 12q-23 0 -47 -17.5t-38 -67.5h-138z" />
<glyph unicode="&#xe4;" horiz-adv-x="929" d="M110 208q0 76 31 132.5t87 95t133.5 60t171.5 27.5l223 15q5 24 10 49.5t5 51.5q0 29 -9 53.5t-28.5 42t-51.5 27t-77 9.5q-85 0 -137 -39.5t-80 -115.5h-182q19 66 55.5 120t89.5 92t121 59t151 21q78 0 139.5 -17.5t105 -50.5t66.5 -81t23 -109q0 -14 -1 -32t-4 -33 l-102 -585h-179l23 134q-50 -68 -136.5 -111t-203.5 -43q-58 0 -103 17t-76.5 47.5t-48 72t-16.5 91.5zM308 226q0 -21 7.5 -40.5t23.5 -34.5t40.5 -24t57.5 -9q50 0 98 20.5t88 57t68.5 86t38.5 106.5l3 20l-218 -15q-43 -3 -80.5 -13t-65.5 -29.5t-44.5 -50t-16.5 -74.5z M367 1030l38 217h191l-38 -217h-191zM733 1030l38 217h191l-38 -217h-191z" />
<glyph unicode="&#xe5;" horiz-adv-x="929" d="M110 208q0 76 31 132.5t87 95t133.5 60t171.5 27.5l223 15q5 24 10 49.5t5 51.5q0 29 -9 53.5t-28.5 42t-51.5 27t-77 9.5q-85 0 -137 -39.5t-80 -115.5h-182q19 66 55.5 120t89.5 92t121 59t151 21q78 0 139.5 -17.5t105 -50.5t66.5 -81t23 -109q0 -14 -1 -32t-4 -33 l-102 -585h-179l23 134q-50 -68 -136.5 -111t-203.5 -43q-58 0 -103 17t-76.5 47.5t-48 72t-16.5 91.5zM308 226q0 -21 7.5 -40.5t23.5 -34.5t40.5 -24t57.5 -9q50 0 98 20.5t88 57t68.5 86t38.5 106.5l3 20l-218 -15q-43 -3 -80.5 -13t-65.5 -29.5t-44.5 -50t-16.5 -74.5z M502 1192q7 40 28.5 75.5t52.5 61.5t69 41.5t78 15.5t72.5 -15.5t54.5 -41.5t31 -61.5t2 -75.5q-7 -41 -28.5 -76t-53 -61.5t-69.5 -41.5t-78 -15t-72.5 15t-54 41.5t-30.5 61.5t-2 76zM601 1192q-3 -20 1.5 -37t15 -30t26.5 -20.5t35 -7.5t37.5 7.5t33.5 20.5t26 30t14 37 q6 38 -17 65.5t-61 27.5q-19 0 -37.5 -7.5t-34 -20.5t-26 -29.5t-13.5 -35.5z" />
<glyph unicode="&#xe6;" horiz-adv-x="1575" d="M117 247q10 58 37 108.5t76.5 87.5t124 58.5t178.5 21.5h221l13 74q6 37 3 69t-20 55.5t-50 36.5t-86 13q-89 0 -143.5 -39.5t-82.5 -115.5h-182q19 66 58.5 120t96 92t127.5 59t154 21q102 0 173 -32.5t106 -95.5q64 61 146.5 94.5t182.5 33.5q93 0 166.5 -28.5 t121 -84.5t64.5 -139.5t-2 -192.5l-13 -72h-668q-12 -67 -3 -117.5t35.5 -85t68 -52t95.5 -17.5q45 0 86.5 10t76 31t61.5 52.5t44 74.5h180q-26 -70 -68 -127t-101 -97.5t-135 -63t-169 -22.5q-120 0 -198.5 42.5t-116.5 122.5q-26 -30 -60.5 -59t-79.5 -52t-101 -37 t-125 -14q-71 0 -129 19.5t-98 54.5t-58 84.5t-7 108.5zM313 254q-11 -63 23 -99.5t107 -36.5q121 0 192 69t94 196l2 12h-216q-49 0 -84 -8.5t-59 -26t-38.5 -44t-20.5 -62.5zM946 529h476q19 111 -30.5 176.5t-166.5 65.5q-100 0 -173.5 -61.5t-105.5 -180.5z" />
<glyph unicode="&#xe7;" horiz-adv-x="977" d="M116 336q0 51 11 112q18 105 61 190t109 145t152.5 92.5t191.5 32.5q80 0 146.5 -17.5t114 -55t74 -96t26.5 -140.5v-16h-186q-5 95 -53.5 141.5t-136.5 46.5q-116 0 -198 -83t-111 -250q-9 -53 -9 -97q0 -112 54.5 -167t148.5 -55q50 0 89 9.5t69 31t52 56t40 84.5h197 q-46 -149 -142 -226.5t-249 -92.5l-68 -72q10 0 18 1.5t16 1.5q44 0 72 -10.5t44 -27t22 -38t6 -42.5q0 -54 -26 -99t-68 -77.5t-95 -50.5t-107 -18q-41 0 -88.5 11t-102.5 38l64 90q35 -26 70 -34t64 -8q25 0 51.5 8.5t48.5 24t36 38.5t14 52q0 33 -24 48.5t-56 15.5 q-26 0 -52 -9t-45 -23l-46 44l125 134q-79 7 -139.5 35t-101.5 74.5t-62 109.5t-21 138z" />
<glyph unicode="&#xe8;" horiz-adv-x="977" d="M125 325q0 55 10 111q19 105 65 192t113.5 149.5t154 96.5t186.5 34q81 0 147.5 -21.5t113.5 -64t73 -106t26 -146.5q0 -25 -2.5 -51.5t-7.5 -55.5l-13 -72h-668q-6 -38 -6 -70q0 -100 54.5 -151t147.5 -51q45 0 86.5 10t76 31t61.5 52.5t44 74.5h180q-26 -70 -68 -127 t-101 -97.5t-135 -63t-169 -22.5q-88 0 -156.5 23.5t-116 68t-72 109t-24.5 147.5zM350 529h476q3 16 4 30.5t1 28.5q0 86 -50.5 134.5t-151.5 48.5q-100 0 -173.5 -61.5t-105.5 -180.5zM483 1308h232l190 -278h-182z" />
<glyph unicode="&#xe9;" horiz-adv-x="977" d="M125 325q0 55 10 111q19 105 65 192t113.5 149.5t154 96.5t186.5 34q81 0 147.5 -21.5t113.5 -64t73 -106t26 -146.5q0 -25 -2.5 -51.5t-7.5 -55.5l-13 -72h-668q-6 -38 -6 -70q0 -100 54.5 -151t147.5 -51q45 0 86.5 10t76 31t61.5 52.5t44 74.5h180q-26 -70 -68 -127 t-101 -97.5t-135 -63t-169 -22.5q-88 0 -156.5 23.5t-116 68t-72 109t-24.5 147.5zM350 529h476q3 16 4 30.5t1 28.5q0 86 -50.5 134.5t-151.5 48.5q-100 0 -173.5 -61.5t-105.5 -180.5zM436 1030l279 278h234l-337 -278h-176z" />
<glyph unicode="&#xea;" horiz-adv-x="977" d="M125 325q0 55 10 111q19 105 65 192t113.5 149.5t154 96.5t186.5 34q81 0 147.5 -21.5t113.5 -64t73 -106t26 -146.5q0 -25 -2.5 -51.5t-7.5 -55.5l-13 -72h-668q-6 -38 -6 -70q0 -100 54.5 -151t147.5 -51q45 0 86.5 10t76 31t61.5 52.5t44 74.5h180q-26 -70 -68 -127 t-101 -97.5t-135 -63t-169 -22.5q-88 0 -156.5 23.5t-116 68t-72 109t-24.5 147.5zM350 529h476q3 16 4 30.5t1 28.5q0 86 -50.5 134.5t-151.5 48.5q-100 0 -173.5 -61.5t-105.5 -180.5zM358 1030l291 278h166l182 -278h-195l-95 162l-153 -162h-196z" />
<glyph unicode="&#xeb;" horiz-adv-x="977" d="M125 325q0 55 10 111q19 105 65 192t113.5 149.5t154 96.5t186.5 34q81 0 147.5 -21.5t113.5 -64t73 -106t26 -146.5q0 -25 -2.5 -51.5t-7.5 -55.5l-13 -72h-668q-6 -38 -6 -70q0 -100 54.5 -151t147.5 -51q45 0 86.5 10t76 31t61.5 52.5t44 74.5h180q-26 -70 -68 -127 t-101 -97.5t-135 -63t-169 -22.5q-88 0 -156.5 23.5t-116 68t-72 109t-24.5 147.5zM350 529h476q3 16 4 30.5t1 28.5q0 86 -50.5 134.5t-151.5 48.5q-100 0 -173.5 -61.5t-105.5 -180.5zM399 1030l38 217h191l-38 -217h-191zM764 1030l38 217h192l-38 -217h-192z" />
<glyph unicode="&#xec;" horiz-adv-x="387" d="M103 0l156 888h183l-156 -888h-183zM189 1308h233l187 -278h-180z" />
<glyph unicode="&#xed;" horiz-adv-x="387" d="M103 0l156 888h183l-156 -888h-183zM142 1030l280 278h234l-337 -278h-177z" />
<glyph unicode="&#xee;" horiz-adv-x="387" d="M55 1030l291 278h165l184 -278h-209l-82 162l-140 -162h-209zM103 0l156 888h183l-156 -888h-183z" />
<glyph unicode="&#xef;" horiz-adv-x="387" d="M95 1030l38 216h192l-38 -216h-192zM103 0l156 888h183l-156 -888h-183zM462 1030l38 216h191l-38 -216h-191z" />
<glyph unicode="&#xf0;" horiz-adv-x="950" d="M115 245.5q-18 88.5 3 205.5q16 91 55.5 177t102 153.5t148.5 108.5t194 41q53 0 104.5 -14t92.5 -40q0 34 -10 73.5t-26.5 75.5t-37 65.5t-41.5 43.5l-141 -104l-74 79l146 105q-11 13 -28 26.5t-36.5 26t-39 23.5t-35.5 19l119 83q15 -6 33.5 -18t37.5 -25.5t35.5 -28 t26.5 -26.5l156 120l75 -76l-156 -116q54 -55 92 -127t57.5 -164.5t19 -205t-24.5 -248.5q-18 -101 -56.5 -192t-100.5 -159.5t-149 -109t-202 -40.5q-87 0 -158 30t-117.5 90t-64.5 148.5zM281 322.5q5 -58.5 29 -101t67 -66.5t106 -24q67 0 119.5 27.5t90 72.5t61 102.5 t34.5 117.5q12 66 8.5 124.5t-25.5 103t-65 70t-110 25.5t-119.5 -28t-91 -73.5t-63 -103.5t-34.5 -118q-12 -70 -7 -128.5z" />
<glyph unicode="&#xf1;" horiz-adv-x="977" d="M98 0l156 888h186l-19 -110q21 24 49.5 46.5t63 39t75.5 26.5t87 10q64 0 116.5 -14.5t90 -45.5t58 -81t20.5 -120q0 -24 -2.5 -50t-7.5 -55l-94 -534h-186l94 534q6 37 6 68q0 81 -40 121t-112 40q-48 0 -91 -12.5t-77 -39.5t-58 -70.5t-35 -104.5l-94 -536h-186z M349 1021q8 36 23 76t41 73t65 54.5t95 21.5q31 0 60 -12.5t57.5 -28t58 -28t63.5 -12.5q22 0 41 24.5t30 73.5h134q-8 -44 -23 -85.5t-41 -74.5t-65.5 -53t-94.5 -20q-32 0 -59 12t-52.5 27t-52 27t-57.5 12q-23 0 -47.5 -18t-36.5 -69h-139z" />
<glyph unicode="&#xf2;" horiz-adv-x="977" d="M110.5 238.5q-19.5 86.5 0.5 202.5q18 99 61 184.5t110 148t157 98.5t201 36t187.5 -35.5t121 -98.5t57 -148.5t-5.5 -184.5q-18 -104 -64.5 -189.5t-115.5 -146.5t-156.5 -94.5t-188.5 -33.5q-92 0 -168 29t-126.5 87.5t-70 145zM295 313q6 -59 30.5 -102t68 -67.5 t106.5 -24.5q68 0 121 27t92 72t64 103t36 120q12 68 8 128t-27 105t-67 71t-112 26q-70 0 -123.5 -28t-92 -74.5t-63 -105.5t-35.5 -122q-12 -69 -6 -128zM483 1308h232l190 -278h-182z" />
<glyph unicode="&#xf3;" horiz-adv-x="977" d="M110.5 238.5q-19.5 86.5 0.5 202.5q18 99 61 184.5t110 148t157 98.5t201 36t187.5 -35.5t121 -98.5t57 -148.5t-5.5 -184.5q-18 -104 -64.5 -189.5t-115.5 -146.5t-156.5 -94.5t-188.5 -33.5q-92 0 -168 29t-126.5 87.5t-70 145zM295 313q6 -59 30.5 -102t68 -67.5 t106.5 -24.5q68 0 121 27t92 72t64 103t36 120q12 68 8 128t-27 105t-67 71t-112 26q-70 0 -123.5 -28t-92 -74.5t-63 -105.5t-35.5 -122q-12 -69 -6 -128zM436 1030l279 278h234l-337 -278h-176z" />
<glyph unicode="&#xf4;" horiz-adv-x="977" d="M110.5 238.5q-19.5 86.5 0.5 202.5q18 99 61 184.5t110 148t157 98.5t201 36t187.5 -35.5t121 -98.5t57 -148.5t-5.5 -184.5q-18 -104 -64.5 -189.5t-115.5 -146.5t-156.5 -94.5t-188.5 -33.5q-92 0 -168 29t-126.5 87.5t-70 145zM295 313q6 -59 30.5 -102t68 -67.5 t106.5 -24.5q68 0 121 27t92 72t64 103t36 120q12 68 8 128t-27 105t-67 71t-112 26q-70 0 -123.5 -28t-92 -74.5t-63 -105.5t-35.5 -122q-12 -69 -6 -128zM350 1030l290 278h166l182 -278h-195l-95 162l-153 -162h-195z" />
<glyph unicode="&#xf5;" horiz-adv-x="977" d="M110.5 238.5q-19.5 86.5 0.5 202.5q18 99 61 184.5t110 148t157 98.5t201 36t187.5 -35.5t121 -98.5t57 -148.5t-5.5 -184.5q-18 -104 -64.5 -189.5t-115.5 -146.5t-156.5 -94.5t-188.5 -33.5q-92 0 -168 29t-126.5 87.5t-70 145zM295 313q6 -59 30.5 -102t68 -67.5 t106.5 -24.5q68 0 121 27t92 72t64 103t36 120q12 68 8 128t-27 105t-67 71t-112 26q-70 0 -123.5 -28t-92 -74.5t-63 -105.5t-35.5 -122q-12 -69 -6 -128zM349 1021q8 36 23 76t41 73t65 54.5t95 21.5q31 0 60 -12.5t57.5 -28t58 -28t63.5 -12.5q22 0 41 24.5t30 73.5h134 q-8 -44 -23 -85.5t-41 -74.5t-65.5 -53t-94.5 -20q-32 0 -59 12t-52.5 27t-52 27t-57.5 12q-23 0 -47.5 -18t-36.5 -69h-139z" />
<glyph unicode="&#xf6;" horiz-adv-x="977" d="M110.5 238.5q-19.5 86.5 0.5 202.5q18 99 61 184.5t110 148t157 98.5t201 36t187.5 -35.5t121 -98.5t57 -148.5t-5.5 -184.5q-18 -104 -64.5 -189.5t-115.5 -146.5t-156.5 -94.5t-188.5 -33.5q-92 0 -168 29t-126.5 87.5t-70 145zM295 313q6 -59 30.5 -102t68 -67.5 t106.5 -24.5q68 0 121 27t92 72t64 103t36 120q12 68 8 128t-27 105t-67 71t-112 26q-70 0 -123.5 -28t-92 -74.5t-63 -105.5t-35.5 -122q-12 -69 -6 -128zM390 1030l38 217h191l-38 -217h-191zM755 1030l38 217h192l-38 -217h-192z" />
<glyph unicode="&#xf7;" d="M112 353l26 150h880l-26 -150h-880zM387 0l34 196h207l-34 -196h-207zM503 662l35 197h207l-35 -197h-207z" />
<glyph unicode="&#xf8;" horiz-adv-x="977" d="M54 20l105 101q-39 61 -52.5 139t4.5 181q18 99 61 184.5t110 148t157 98.5t201 36q80 0 139 -18.5t106 -52.5l99 96l64 -56l-102 -101q91 -129 54 -335q-18 -104 -64.5 -189.5t-115.5 -146.5t-156.5 -94.5t-188.5 -33.5q-159 0 -261 82l-100 -98zM292.5 346 q0.5 -44 11.5 -82l459 451q-26 27 -61.5 41.5t-86.5 14.5q-70 0 -123.5 -28t-92 -74.5t-63 -105.5t-35.5 -122q-9 -51 -8.5 -95zM342 185q52 -66 158 -66q68 0 121 27t92 72t64 103t36 120q11 57 10 107.5t-17 91.5z" />
<glyph unicode="&#xf9;" horiz-adv-x="970" d="M150 249q0 49 10 105l94 534h186l-94 -534q-6 -38 -6 -68q0 -81 40 -121t112 -40q48 0 90 12.5t74.5 39.5t55.5 70t34 105l94 536h186l-156 -888h-186l18 107q-21 -24 -48 -46t-60.5 -38t-73.5 -25.5t-86 -9.5q-64 0 -116 14.5t-89.5 45.5t-58 80.5t-20.5 120.5z M481 1308h231l190 -278h-182z" />
<glyph unicode="&#xfa;" horiz-adv-x="970" d="M150 249q0 49 10 105l94 534h186l-94 -534q-6 -38 -6 -68q0 -81 40 -121t112 -40q48 0 90 12.5t74.5 39.5t55.5 70t34 105l94 536h186l-156 -888h-186l18 107q-21 -24 -48 -46t-60.5 -38t-73.5 -25.5t-86 -9.5q-64 0 -116 14.5t-89.5 45.5t-58 80.5t-20.5 120.5z M433 1030l279 278h235l-338 -278h-176z" />
<glyph unicode="&#xfb;" horiz-adv-x="970" d="M150 249q0 49 10 105l94 534h186l-94 -534q-6 -38 -6 -68q0 -81 40 -121t112 -40q48 0 90 12.5t74.5 39.5t55.5 70t34 105l94 536h186l-156 -888h-186l18 107q-21 -24 -48 -46t-60.5 -38t-73.5 -25.5t-86 -9.5q-64 0 -116 14.5t-89.5 45.5t-58 80.5t-20.5 120.5z M347 1030l292 278h164l183 -278h-195l-96 162l-152 -162h-196z" />
<glyph unicode="&#xfc;" horiz-adv-x="970" d="M150 249q0 49 10 105l94 534h186l-94 -534q-6 -38 -6 -68q0 -81 40 -121t112 -40q48 0 90 12.5t74.5 39.5t55.5 70t34 105l94 536h186l-156 -888h-186l18 107q-21 -24 -48 -46t-60.5 -38t-73.5 -25.5t-86 -9.5q-64 0 -116 14.5t-89.5 45.5t-58 80.5t-20.5 120.5z M390 1030l38 217h191l-38 -217h-191zM755 1030l38 217h192l-38 -217h-192z" />
<glyph unicode="&#xfd;" horiz-adv-x="879" d="M88 -423l252 443l-197 868h202l130 -651l360 651h198l-756 -1311h-189zM379 1030l279 278h234l-337 -278h-176z" />
<glyph unicode="&#xfe;" horiz-adv-x="1078" d="M48 -328l271 1541h185l-69 -393q32 21 67.5 37.5t72.5 28.5t73 18.5t69 6.5q116 0 192 -35.5t117.5 -98.5t50.5 -148.5t-9 -184.5q-17 -92 -57.5 -176.5t-105 -149t-152 -103t-196.5 -38.5q-84 0 -146.5 19t-111.5 66l-68 -390h-183zM362 316q7 -58 32 -101.5t67.5 -69.5 t102.5 -26q67 0 120.5 26.5t93.5 71.5t66 105.5t38 128.5q14 79 5 139t-37 100t-72 60.5t-99 20.5q-62 0 -114 -25t-92 -69.5t-67 -105.5t-40 -133q-11 -64 -4 -122z" />
<glyph unicode="&#xff;" horiz-adv-x="879" d="M86 -423l252 443l-177 868h192l120 -651l350 651h208l-746 -1311h-199zM342 1013l35 197h190l-35 -197h-190zM707 1013l35 197h191l-35 -197h-191z" />
<glyph unicode="&#x152;" horiz-adv-x="2032" d="M159.5 363q-16.5 117 6.5 248q24 136 83 254t149.5 205.5t211.5 138t269 50.5q134 0 230 -37.5t160 -103.5l19 110h879l-26 -147h-679l-65 -372h611l-27 -149h-611l-72 -412h690l-26 -148h-890l18 107q-86 -66 -193.5 -103.5t-238.5 -37.5q-153 0 -258 51.5t-164.5 140 t-76 205.5zM355 425.5q7 -88.5 44.5 -156t108 -108t180.5 -40.5q109 0 192.5 40.5t144 108t98.5 156.5t55 185q21 116 9.5 208.5t-52 157t-110.5 99t-166 34.5q-109 0 -193 -41.5t-145.5 -110.5t-100 -159t-55.5 -188q-17 -97 -10 -185.5z" />
<glyph unicode="&#x153;" horiz-adv-x="1624" d="M120 238.5q-19 86.5 1 202.5q18 99 60 184.5t108 148t155.5 98.5t200.5 36q121 0 196 -42t113 -115q64 75 152.5 116t199.5 41q93 0 166 -28.5t119 -84.5t62.5 -139.5t-2.5 -192.5l-13 -72h-658q-12 -67 -3.5 -117.5t34 -85t66 -52t94.5 -17.5q90 0 160 41t103 127h180 q-26 -70 -67.5 -127t-99 -97.5t-133 -63t-168.5 -22.5q-116 0 -192.5 40t-114.5 115q-66 -74 -156.5 -114.5t-202.5 -40.5q-92 0 -167.5 29t-124.5 87.5t-68 145zM304 313q5 -59 29 -102t66.5 -67.5t105.5 -24.5q68 0 120.5 27t90.5 72t62 103t35 120q12 68 9 128t-25.5 105 t-65.5 71t-111 26q-70 0 -123 -28t-90.5 -74.5t-61 -105.5t-34.5 -122q-12 -69 -7 -128zM1007 529h466q19 111 -28 176.5t-164 65.5q-100 0 -171 -61.5t-103 -180.5z" />
<glyph unicode="&#x178;" horiz-adv-x="1078" d="M227 1228h221l200 -549l392 549h242l-552 -716l-90 -512h-204l88 502zM498 1348l35 197h190l-35 -197h-190zM863 1348l35 197h191l-35 -197h-191z" />
<glyph unicode="&#x2c6;" horiz-adv-x="700" d="M197 948l291 279h165l183 -279h-196l-97 163l-151 -163h-195z" />
<glyph unicode="&#x2dc;" horiz-adv-x="700" d="M209 986q8 36 23 75.5t41.5 72.5t66 54.5t95.5 21.5q31 0 59.5 -12.5t57 -28t58.5 -28t64 -12.5q22 0 41 25t30 74h134q-8 -44 -23 -86t-41.5 -75t-65.5 -53t-94 -20q-33 0 -60 12t-52.5 27t-52 27t-57.5 12q-23 0 -47.5 -18t-37.5 -68h-139z" />
<glyph unicode="&#x2000;" horiz-adv-x="825" />
<glyph unicode="&#x2001;" horiz-adv-x="1651" />
<glyph unicode="&#x2002;" horiz-adv-x="825" />
<glyph unicode="&#x2003;" horiz-adv-x="1651" />
<glyph unicode="&#x2004;" horiz-adv-x="550" />
<glyph unicode="&#x2005;" horiz-adv-x="412" />
<glyph unicode="&#x2006;" horiz-adv-x="275" />
<glyph unicode="&#x2007;" horiz-adv-x="275" />
<glyph unicode="&#x2008;" horiz-adv-x="206" />
<glyph unicode="&#x2009;" horiz-adv-x="330" />
<glyph unicode="&#x200a;" horiz-adv-x="91" />
<glyph unicode="&#x2010;" horiz-adv-x="530" d="M116 379l23 126h430l-23 -126h-430z" />
<glyph unicode="&#x2011;" horiz-adv-x="530" d="M116 379l23 126h430l-23 -126h-430z" />
<glyph unicode="&#x2012;" horiz-adv-x="530" d="M116 379l23 126h430l-23 -126h-430z" />
<glyph unicode="&#x2013;" horiz-adv-x="850" d="M66 379l23 126h850l-23 -126h-850z" />
<glyph unicode="&#x2014;" horiz-adv-x="1700" d="M66 379l23 126h1700l-23 -126h-1700z" />
<glyph unicode="&#x2018;" horiz-adv-x="390" d="M238.5 901.5q-4.5 22.5 0.5 46.5q10 57 35 108.5t58 96t70.5 80t72.5 60.5l76 -67q-9 -5 -29.5 -24t-43.5 -44.5t-44.5 -53.5t-31.5 -51q22 -2 38 -12t25 -25.5t11.5 -35t-0.5 -38.5q-5 -24 -18 -45.5t-32 -37t-42 -24.5t-47 -9q-29 0 -49.5 10t-32.5 26.5t-16.5 39z" />
<glyph unicode="&#x2019;" horiz-adv-x="390" d="M211 864q8 5 28.5 24t44 44.5t44.5 53t31 50.5q-23 1 -38 11.5t-24 26t-11 34.5t1 39q4 24 17 45.5t32 37t41.5 24.5t46.5 9q28 0 49 -10t33.5 -26.5t16.5 -39t0 -46.5q-10 -57 -35.5 -108.5t-58.5 -95.5t-70.5 -80t-72.5 -61z" />
<glyph unicode="&#x201a;" horiz-adv-x="390" d="M28 -172q8 5 28.5 24t44 44.5t45 53t31.5 50.5q-23 2 -38.5 12t-24.5 25.5t-11 34.5t1 39q4 24 17.5 45.5t32.5 37t41.5 24.5t46.5 9q28 0 48.5 -10t33 -26.5t16.5 -38.5t0 -46q-10 -57 -35.5 -109t-58.5 -96t-70.5 -79.5t-72.5 -60.5z" />
<glyph unicode="&#x201c;" horiz-adv-x="687" d="M239 904q-4 22 0 46q10 57 35.5 108.5t58.5 96t70.5 80t72.5 60.5l75 -67q-8 -5 -28.5 -24t-44 -44.5t-44.5 -53.5t-31 -50q22 -2 37.5 -12.5t24.5 -26t11.5 -34.5t-0.5 -38q-5 -25 -18 -46t-31.5 -36.5t-41.5 -24.5t-47 -9q-29 0 -49.5 10t-33 26.5t-16.5 38.5zM525 904 q-4 22 0 46q10 57 35.5 108.5t59 96t71 80t72.5 60.5l74 -67q-8 -5 -28.5 -24t-44 -44.5t-44.5 -53.5t-31 -50q22 -2 37.5 -12.5t24.5 -26t11.5 -34.5t-0.5 -38q-5 -25 -18 -46t-31.5 -36.5t-41.5 -24.5t-47 -9q-29 0 -49.5 10t-33 26.5t-16.5 38.5z" />
<glyph unicode="&#x201d;" horiz-adv-x="687" d="M224 864q8 5 28.5 24t44 44.5t44.5 53t31 50.5q-23 1 -38 11.5t-24 26t-11.5 34.5t0.5 39q4 24 17 45.5t32 37t42 24.5t47 9q28 0 49 -10t33.5 -26.5t16.5 -39t0 -46.5q-10 -57 -35.5 -108.5t-59 -95.5t-71 -80t-72.5 -61zM510 864q8 5 28.5 24t44 44.5t44.5 53t31 50.5 q-23 1 -38 11.5t-24 26t-11.5 34.5t0.5 39q4 24 17 45.5t32 37t42 24.5t47 9q28 0 49 -10t33.5 -26.5t16.5 -39t0 -46.5q-10 -57 -35.5 -108.5t-58.5 -95.5t-70.5 -80t-72.5 -61z" />
<glyph unicode="&#x201e;" horiz-adv-x="687" d="M51 -172q45 35 78 75.5t61 96.5q-23 2 -38.5 12t-24.5 25.5t-11.5 34.5t0.5 39q4 24 17.5 45.5t32.5 37t42 24.5t47 9q28 0 48.5 -10t33 -26.5t16.5 -38.5t0 -46q-10 -57 -34 -109t-55.5 -96t-67.5 -79.5t-71 -60.5zM337 -172q45 35 78 75.5t61 96.5q-23 2 -38.5 12 t-24.5 25.5t-11.5 34.5t0.5 39q4 24 17.5 45.5t32.5 37t42 24.5t47 9q28 0 48.5 -10t33 -26.5t16.5 -38.5t0 -46q-10 -57 -34 -109t-55.5 -96t-67.5 -79.5t-71 -60.5z" />
<glyph unicode="&#x2022;" horiz-adv-x="879" d="M227 604q12 66 47 124t86 101t113.5 68t128.5 25t119.5 -25t89.5 -68t51 -101t3 -124t-47 -124.5t-86 -102t-113.5 -68.5t-128.5 -25t-119.5 25t-89.5 68.5t-51 102t-3 124.5z" />
<glyph unicode="&#x2026;" horiz-adv-x="1460" d="M146 103q4 25 17 46t32 37t41.5 25t46.5 9t43.5 -9t33 -25t19 -37t1.5 -46q-5 -24 -18 -45.5t-32 -37t-41.5 -24.5t-46.5 -9t-43.5 9t-32.5 24.5t-19 37t-1 45.5zM636 103q4 25 17 46t32 37t41.5 25t46.5 9t43.5 -9t33 -25t19 -37t1.5 -46q-5 -24 -18 -45.5t-32 -37 t-41.5 -24.5t-46.5 -9t-43.5 9t-32.5 24.5t-19 37t-1 45.5zM1116 103q4 25 17 46t32 37t41.5 25t46.5 9t43.5 -9t33 -25t19 -37t1.5 -46q-5 -24 -18 -45.5t-32 -37t-41.5 -24.5t-46.5 -9t-43.5 9t-32.5 24.5t-19 37t-1 45.5z" />
<glyph unicode="&#x202f;" horiz-adv-x="330" />
<glyph unicode="&#x2039;" horiz-adv-x="620" d="M177 437l1 8l273 305h201l-274 -309l165 -309h-201z" />
<glyph unicode="&#x203a;" horiz-adv-x="620" d="M123 132l273 309l-164 309h201l165 -305l-1 -8l-273 -305h-201z" />
<glyph unicode="&#x205f;" horiz-adv-x="412" />
<glyph unicode="&#x20ac;" d="M68 389l25 143h123l18 103h-123l25 141h135q41 116 99.5 198t129 133.5t149 75.5t159.5 24q73 0 126 -19t89 -49t58.5 -66t34.5 -70l-142 -80q-14 33 -31 59.5t-39.5 45t-52 28t-68.5 9.5q-59 0 -108 -21.5t-88.5 -59.5t-69 -91t-48.5 -117h314l-25 -141h-329l-18 -103 h329l-25 -143h-314q1 -57 12 -104.5t36.5 -82t66.5 -54t102 -19.5q34 0 63 3.5t56 13t54 26t59 43.5l77 -109q-33 -29 -67.5 -53t-75 -41t-88 -26t-105.5 -9q-81 0 -150 23t-120 72.5t-81.5 128t-33.5 188.5h-138z" />
<glyph unicode="&#x2122;" horiz-adv-x="1657" d="M219 1108l21 120h625l-21 -120h-229l-108 -613h-170l108 613h-226zM783 495l129 733h234l85 -525l257 525h234l-129 -733h-171l88 500l-258 -500h-124l-85 501l-88 -501h-172z" />
<glyph unicode="&#x25fc;" horiz-adv-x="890" d="M0 0v890h890v-890h-890z" />
</font>
</defs>
</svg>
